G04*
G04 #@! TF.GenerationSoftware,Altium Limited,Altium Designer,21.5.1 (32)*
G04*
G04 Layer_Color=32896*
%FSLAX44Y44*%
%MOMM*%
G71*
G04*
G04 #@! TF.SameCoordinates,B91B0A49-5265-4CE8-ADDE-7D571FFDE220*
G04*
G04*
G04 #@! TF.FilePolarity,Positive*
G04*
G01*
G75*
%ADD10C,0.1500*%
%ADD11C,0.2500*%
%ADD12C,0.2000*%
%ADD75C,0.6000*%
D10*
X57287Y253319D02*
Y261316D01*
X53288D01*
X51955Y259984D01*
Y257318D01*
X53288Y255985D01*
X57287D01*
X54621D02*
X51955Y253319D01*
X43958D02*
X49290D01*
X43958Y258651D01*
Y259984D01*
X45291Y261316D01*
X47957D01*
X49290Y259984D01*
X41292Y253319D02*
X38626D01*
X39959D01*
Y261316D01*
X41292Y259984D01*
X417287Y179319D02*
Y187316D01*
X413288D01*
X411955Y185984D01*
Y183318D01*
X413288Y181985D01*
X417287D01*
X414621D02*
X411955Y179319D01*
X403958D02*
X409290D01*
X403958Y184651D01*
Y185984D01*
X405291Y187316D01*
X407957D01*
X409290Y185984D01*
X401292D02*
X399959Y187316D01*
X397293D01*
X395961Y185984D01*
Y180652D01*
X397293Y179319D01*
X399959D01*
X401292Y180652D01*
Y185984D01*
X36713Y267681D02*
Y259684D01*
X40712D01*
X42045Y261017D01*
Y263682D01*
X40712Y265015D01*
X36713D01*
X39379D02*
X42045Y267681D01*
X44710D02*
X47376D01*
X46043D01*
Y259684D01*
X44710Y261017D01*
X51375Y266348D02*
X52708Y267681D01*
X55374D01*
X56707Y266348D01*
Y261017D01*
X55374Y259684D01*
X52708D01*
X51375Y261017D01*
Y262349D01*
X52708Y263682D01*
X56707D01*
X396713Y179681D02*
Y171684D01*
X400712D01*
X402045Y173016D01*
Y175682D01*
X400712Y177015D01*
X396713D01*
X399379D02*
X402045Y179681D01*
X404710D02*
X407376D01*
X406043D01*
Y171684D01*
X404710Y173016D01*
X411375D02*
X412708Y171684D01*
X415374D01*
X416707Y173016D01*
Y174349D01*
X415374Y175682D01*
X416707Y177015D01*
Y178348D01*
X415374Y179681D01*
X412708D01*
X411375Y178348D01*
Y177015D01*
X412708Y175682D01*
X411375Y174349D01*
Y173016D01*
X412708Y175682D02*
X415374D01*
X125287Y204319D02*
Y212316D01*
X121288D01*
X119955Y210984D01*
Y208318D01*
X121288Y206985D01*
X125287D01*
X122621D02*
X119955Y204319D01*
X117290D02*
X114624D01*
X115957D01*
Y212316D01*
X117290Y210984D01*
X110625Y212316D02*
X105293D01*
Y210984D01*
X110625Y205652D01*
Y204319D01*
X57287Y203319D02*
Y211316D01*
X53288D01*
X51955Y209984D01*
Y207318D01*
X53288Y205985D01*
X57287D01*
X54621D02*
X51955Y203319D01*
X49290D02*
X46624D01*
X47957D01*
Y211316D01*
X49290Y209984D01*
X37293Y211316D02*
X39959Y209984D01*
X42625Y207318D01*
Y204652D01*
X41292Y203319D01*
X38626D01*
X37293Y204652D01*
Y205985D01*
X38626Y207318D01*
X42625D01*
X417287Y228319D02*
Y236316D01*
X413288D01*
X411955Y234984D01*
Y232318D01*
X413288Y230985D01*
X417287D01*
X414621D02*
X411955Y228319D01*
X409290D02*
X406624D01*
X407957D01*
Y236316D01*
X409290Y234984D01*
X397293Y236316D02*
X402625D01*
Y232318D01*
X399959Y233651D01*
X398626D01*
X397293Y232318D01*
Y229652D01*
X398626Y228319D01*
X401292D01*
X402625Y229652D01*
X36713Y156681D02*
Y148684D01*
X40712D01*
X42045Y150016D01*
Y152682D01*
X40712Y154015D01*
X36713D01*
X39379D02*
X42045Y156681D01*
X44710D02*
X47376D01*
X46043D01*
Y148684D01*
X44710Y150016D01*
X55374Y156681D02*
Y148684D01*
X51375Y152682D01*
X56707D01*
X36713Y205681D02*
Y197684D01*
X40712D01*
X42045Y199016D01*
Y201682D01*
X40712Y203015D01*
X36713D01*
X39379D02*
X42045Y205681D01*
X44710D02*
X47376D01*
X46043D01*
Y197684D01*
X44710Y199016D01*
X51375D02*
X52708Y197684D01*
X55374D01*
X56707Y199016D01*
Y200349D01*
X55374Y201682D01*
X54041D01*
X55374D01*
X56707Y203015D01*
Y204348D01*
X55374Y205681D01*
X52708D01*
X51375Y204348D01*
X396713Y231681D02*
Y223684D01*
X400712D01*
X402045Y225016D01*
Y227682D01*
X400712Y229015D01*
X396713D01*
X399379D02*
X402045Y231681D01*
X404710D02*
X407376D01*
X406043D01*
Y223684D01*
X404710Y225016D01*
X416707Y231681D02*
X411375D01*
X416707Y226349D01*
Y225016D01*
X415374Y223684D01*
X412708D01*
X411375Y225016D01*
X194875Y223984D02*
Y215987D01*
X190876D01*
X189543Y217320D01*
Y222652D01*
X190876Y223984D01*
X194875D01*
X186878Y222652D02*
X185545Y223984D01*
X182879D01*
X181546Y222652D01*
Y221319D01*
X182879Y219986D01*
X184212D01*
X182879D01*
X181546Y218653D01*
Y217320D01*
X182879Y215987D01*
X185545D01*
X186878Y217320D01*
X204125Y162016D02*
Y170013D01*
X208124D01*
X209457Y168680D01*
Y163349D01*
X208124Y162016D01*
X204125D01*
X217454Y170013D02*
X212122D01*
X217454Y164681D01*
Y163349D01*
X216121Y162016D01*
X213455D01*
X212122Y163349D01*
X98321Y98844D02*
Y92180D01*
X96988Y90847D01*
X94322D01*
X92989Y92180D01*
Y98844D01*
X86325Y90847D02*
Y98844D01*
X90324Y94846D01*
X84992D01*
X298321Y206844D02*
Y200180D01*
X296988Y198847D01*
X294322D01*
X292989Y200180D01*
Y206844D01*
X290324Y205511D02*
X288991Y206844D01*
X286325D01*
X284992Y205511D01*
Y204179D01*
X286325Y202846D01*
X287658D01*
X286325D01*
X284992Y201513D01*
Y200180D01*
X286325Y198847D01*
X288991D01*
X290324Y200180D01*
X146287Y308319D02*
Y316316D01*
X142288D01*
X140955Y314984D01*
Y312318D01*
X142288Y310985D01*
X146287D01*
X143621D02*
X140955Y308319D01*
X138290D02*
X135624D01*
X136957D01*
Y316316D01*
X138290Y314984D01*
X131625Y308319D02*
X128959D01*
X130292D01*
Y316316D01*
X131625Y314984D01*
X307713Y140681D02*
Y132684D01*
X311712D01*
X313045Y134017D01*
Y136682D01*
X311712Y138015D01*
X307713D01*
X310379D02*
X313045Y140681D01*
X315710D02*
X318376D01*
X317043D01*
Y132684D01*
X315710Y134017D01*
X322375D02*
X323708Y132684D01*
X326374D01*
X327706Y134017D01*
Y139348D01*
X326374Y140681D01*
X323708D01*
X322375Y139348D01*
Y134017D01*
X146287Y216319D02*
Y224316D01*
X142288D01*
X140955Y222983D01*
Y220318D01*
X142288Y218985D01*
X146287D01*
X143621D02*
X140955Y216319D01*
X138290Y217652D02*
X136957Y216319D01*
X134291D01*
X132958Y217652D01*
Y222983D01*
X134291Y224316D01*
X136957D01*
X138290Y222983D01*
Y221651D01*
X136957Y220318D01*
X132958D01*
X146287Y267319D02*
Y275316D01*
X142288D01*
X140955Y273983D01*
Y271318D01*
X142288Y269985D01*
X146287D01*
X143621D02*
X140955Y267319D01*
X138290Y273983D02*
X136957Y275316D01*
X134291D01*
X132958Y273983D01*
Y272651D01*
X134291Y271318D01*
X132958Y269985D01*
Y268652D01*
X134291Y267319D01*
X136957D01*
X138290Y268652D01*
Y269985D01*
X136957Y271318D01*
X138290Y272651D01*
Y273983D01*
X136957Y271318D02*
X134291D01*
X307713Y190681D02*
Y182684D01*
X311712D01*
X313045Y184016D01*
Y186682D01*
X311712Y188015D01*
X307713D01*
X310379D02*
X313045Y190681D01*
X315710Y182684D02*
X321042D01*
Y184016D01*
X315710Y189348D01*
Y190681D01*
X202681Y101287D02*
X194684D01*
Y97288D01*
X196017Y95955D01*
X198682D01*
X200015Y97288D01*
Y101287D01*
Y98621D02*
X202681Y95955D01*
X194684Y87958D02*
X196017Y90624D01*
X198682Y93290D01*
X201348D01*
X202681Y91957D01*
Y89291D01*
X201348Y87958D01*
X200015D01*
X198682Y89291D01*
Y93290D01*
X128319Y104713D02*
X136316D01*
Y108712D01*
X134984Y110045D01*
X132318D01*
X130985Y108712D01*
Y104713D01*
Y107379D02*
X128319Y110045D01*
X136316Y118042D02*
Y112710D01*
X132318D01*
X133651Y115376D01*
Y116709D01*
X132318Y118042D01*
X129652D01*
X128319Y116709D01*
Y114043D01*
X129652Y112710D01*
X128319Y128713D02*
X136316D01*
Y132712D01*
X134984Y134045D01*
X132318D01*
X130985Y132712D01*
Y128713D01*
Y131379D02*
X128319Y134045D01*
Y140709D02*
X136316D01*
X132318Y136710D01*
Y142042D01*
X130045Y35017D02*
X128712Y33684D01*
X126046D01*
X124713Y35017D01*
Y40348D01*
X126046Y41681D01*
X128712D01*
X130045Y40348D01*
X132710Y33684D02*
X138042D01*
Y35017D01*
X132710Y40348D01*
Y41681D01*
X249073Y14081D02*
X247188D01*
X245303Y15966D01*
X245303Y17851D01*
X249073Y21621D01*
X250958D01*
X252843Y19736D01*
X252843Y17851D01*
X253785Y7483D02*
X252843Y10311D01*
Y14081D01*
X254728Y15966D01*
X256613D01*
X258498Y14081D01*
X258498Y12196D01*
X257555Y11253D01*
X255670Y11253D01*
X252843Y14081D01*
X208575Y146558D02*
Y139894D01*
X207242Y138561D01*
X204576D01*
X203243Y139894D01*
Y146558D01*
X195246Y138561D02*
X200578D01*
X195246Y143893D01*
Y145225D01*
X196579Y146558D01*
X199245D01*
X200578Y145225D01*
X-12801Y183039D02*
X-6136D01*
X-4803Y181706D01*
Y179040D01*
X-6136Y177707D01*
X-12801D01*
X-4803Y175042D02*
Y172376D01*
Y173709D01*
X-12801D01*
X-11468Y175042D01*
X215713Y55681D02*
Y47684D01*
X219712D01*
X221045Y49016D01*
Y51682D01*
X219712Y53015D01*
X215713D01*
X218379D02*
X221045Y55681D01*
X223710Y49016D02*
X225043Y47684D01*
X227709D01*
X229042Y49016D01*
Y50349D01*
X227709Y51682D01*
X226376D01*
X227709D01*
X229042Y53015D01*
Y54348D01*
X227709Y55681D01*
X225043D01*
X223710Y54348D01*
X154681Y159287D02*
X146684D01*
Y155288D01*
X148017Y153955D01*
X150682D01*
X152015Y155288D01*
Y159287D01*
Y156621D02*
X154681Y153955D01*
Y145958D02*
Y151290D01*
X149349Y145958D01*
X148017D01*
X146684Y147291D01*
Y149957D01*
X148017Y151290D01*
X22092Y305225D02*
X30089D01*
X27423D01*
X22092Y299893D01*
X26090Y303892D01*
X30089Y299893D01*
X22092Y291896D02*
Y297228D01*
X26090D01*
X24757Y294562D01*
Y293229D01*
X26090Y291896D01*
X28756D01*
X30089Y293229D01*
Y295895D01*
X28756Y297228D01*
X431908Y143775D02*
X423911D01*
X426577D01*
X431908Y149107D01*
X427910Y145108D01*
X423911Y149107D01*
Y155771D02*
X431908D01*
X427910Y151772D01*
Y157104D01*
X22092Y214225D02*
X30089D01*
X27423D01*
X22092Y208893D01*
X26090Y212892D01*
X30089Y208893D01*
X23424Y206228D02*
X22092Y204895D01*
Y202229D01*
X23424Y200896D01*
X24757D01*
X26090Y202229D01*
Y203562D01*
Y202229D01*
X27423Y200896D01*
X28756D01*
X30089Y202229D01*
Y204895D01*
X28756Y206228D01*
X22092Y264225D02*
X30089D01*
X27423D01*
X22092Y258893D01*
X26090Y262892D01*
X30089Y258893D01*
Y250896D02*
Y256228D01*
X24757Y250896D01*
X23424D01*
X22092Y252229D01*
Y254895D01*
X23424Y256228D01*
X431908Y193775D02*
X423911D01*
X426577D01*
X431908Y199107D01*
X427910Y195108D01*
X423911Y199107D01*
Y201772D02*
Y204438D01*
Y203105D01*
X431908D01*
X430575Y201772D01*
X336347Y27541D02*
X335014Y26208D01*
X332348D01*
X331015Y27541D01*
Y32872D01*
X332348Y34205D01*
X335014D01*
X336347Y32872D01*
X344344Y26208D02*
X339012D01*
Y30206D01*
X341678Y28873D01*
X343011D01*
X344344Y30206D01*
Y32872D01*
X343011Y34205D01*
X340345D01*
X339012Y32872D01*
X430638Y65219D02*
X422641D01*
Y69218D01*
X423974Y70551D01*
X425307D01*
X426640Y69218D01*
Y65219D01*
Y69218D01*
X427973Y70551D01*
X429305D01*
X430638Y69218D01*
Y65219D01*
X422641Y73216D02*
X430638D01*
Y77215D01*
X429305Y78548D01*
X426640D01*
X425307Y77215D01*
Y73216D01*
Y75882D02*
X422641Y78548D01*
Y81214D02*
Y83880D01*
Y82547D01*
X430638D01*
X429305Y81214D01*
D11*
X44000Y154500D02*
G03*
X44000Y154500I-1250J0D01*
G01*
X210250Y179000D02*
G03*
X210250Y179000I-1250J0D01*
G01*
X191250Y207000D02*
G03*
X191250Y207000I-1250J0D01*
G01*
X298500Y123500D02*
G03*
X298500Y123500I-1250J0D01*
G01*
X98500Y15500D02*
G03*
X98500Y15500I-1250J0D01*
G01*
X208800Y68000D02*
G03*
X208800Y68000I-1250J0D01*
G01*
X345250Y68500D02*
G03*
X345250Y68500I-1250J0D01*
G01*
X113500Y304200D02*
G03*
X113500Y304200I-1250J0D01*
G01*
X343000Y144800D02*
G03*
X343000Y144800I-1250J0D01*
G01*
X113500Y213200D02*
G03*
X113500Y213200I-1250J0D01*
G01*
Y263200D02*
G03*
X113500Y263200I-1250J0D01*
G01*
X343000Y194800D02*
G03*
X343000Y194800I-1250J0D01*
G01*
D12*
X44500Y143500D02*
X95500D01*
X44500Y106500D02*
X95500D01*
X44500D02*
Y143500D01*
X95500Y106500D02*
Y143500D01*
X217000Y204000D02*
X223000D01*
X217000Y182000D02*
X223000D01*
Y204000D01*
X217000Y182000D02*
Y204000D01*
X176000Y182000D02*
X182000D01*
X176000Y204000D02*
X182000D01*
X176000Y182000D02*
Y204000D01*
X182000Y182000D02*
Y204000D01*
X244500Y134500D02*
X295500D01*
X244500Y171500D02*
X295500D01*
Y134500D02*
Y171500D01*
X244500Y134500D02*
Y171500D01*
X44500Y26500D02*
X95500D01*
X44500Y63500D02*
X95500D01*
Y26500D02*
Y63500D01*
X44500Y26500D02*
Y63500D01*
X155500Y79500D02*
Y110500D01*
X204500Y79500D02*
Y110500D01*
X155500D02*
X204500D01*
X155500Y79500D02*
X204500D01*
X357500Y66500D02*
Y115500D01*
X390500Y66500D02*
Y115500D01*
X357500Y66500D02*
X390500Y66500D01*
X357500Y115500D02*
X390500Y115500D01*
X60000Y263000D02*
X100000D01*
X60000Y303000D02*
X100000D01*
X60000Y263000D02*
Y303000D01*
X100000Y263000D02*
Y303000D01*
X354000Y186000D02*
X394000D01*
X354000Y146000D02*
X394000D01*
Y186000D01*
X354000Y146000D02*
Y186000D01*
X60000Y172000D02*
X100000D01*
X60000Y212000D02*
X100000D01*
X60000Y172000D02*
Y212000D01*
X100000Y172000D02*
Y212000D01*
X60000Y222000D02*
X100000D01*
X60000Y262000D02*
X100000D01*
X60000Y222000D02*
Y262000D01*
X100000Y222000D02*
Y262000D01*
X354000Y236000D02*
X394000D01*
X354000Y196000D02*
X394000D01*
Y236000D01*
X354000Y196000D02*
Y236000D01*
D75*
X57500Y133500D02*
G03*
X57500Y133500I-3000J0D01*
G01*
X288500Y144500D02*
G03*
X288500Y144500I-3000J0D01*
G01*
X88500Y36500D02*
G03*
X88500Y36500I-3000J0D01*
G01*
X197500Y89500D02*
G03*
X197500Y89500I-3000J0D01*
G01*
X370500Y76500D02*
G03*
X370500Y76500I-3000J0D01*
G01*
X93000Y293000D02*
G03*
X93000Y293000I-3000J0D01*
G01*
X367000Y156000D02*
G03*
X367000Y156000I-3000J0D01*
G01*
X93000Y202000D02*
G03*
X93000Y202000I-3000J0D01*
G01*
Y252000D02*
G03*
X93000Y252000I-3000J0D01*
G01*
X367000Y206000D02*
G03*
X367000Y206000I-3000J0D01*
G01*
M02*
