G04*
G04 #@! TF.GenerationSoftware,Altium Limited,Altium Designer,21.5.1 (32)*
G04*
G04 Layer_Physical_Order=2*
G04 Layer_Color=16711680*
%FSLAX44Y44*%
%MOMM*%
G71*
G04*
G04 #@! TF.SameCoordinates,B91B0A49-5265-4CE8-ADDE-7D571FFDE220*
G04*
G04*
G04 #@! TF.FilePolarity,Positive*
G04*
G01*
G75*
%ADD18R,0.9000X0.9500*%
%ADD30C,1.6000*%
%ADD34C,1.2700*%
%ADD35C,0.5080*%
%ADD36C,0.1270*%
%ADD38C,0.2540*%
%ADD39C,1.2000*%
%ADD40C,1.5000*%
%ADD41R,1.5000X1.5000*%
%ADD42C,0.6000*%
%ADD43O,0.4500X1.4000*%
%ADD44R,0.7500X0.8000*%
%ADD45R,0.7200X0.7200*%
%ADD46P,1.2021X4X270.0*%
%ADD47O,0.8000X0.4000*%
%ADD48R,0.8000X0.4000*%
%ADD49R,0.8000X0.7500*%
%ADD50R,0.9500X1.2500*%
%ADD51R,0.8500X0.8500*%
%ADD52O,0.6000X1.5000*%
%ADD53R,0.6000X1.5000*%
%ADD54R,1.9000X0.9000*%
%ADD55O,1.9000X0.9000*%
%ADD56O,1.6500X0.6000*%
%ADD57R,1.6500X0.6000*%
%ADD58C,0.8128*%
%ADD59C,0.7620*%
G36*
X442790Y302495D02*
X445155Y301515D01*
X447283Y300093D01*
X449093Y298283D01*
X450515Y296155D01*
X451495Y293790D01*
X451990Y291303D01*
X451962Y290046D01*
X451965Y290023D01*
X451961Y290000D01*
X451961Y287859D01*
X450691Y287261D01*
X448860Y288319D01*
X446316Y289000D01*
X443684D01*
X441140Y288319D01*
X438860Y287002D01*
X438544Y286686D01*
X399000D01*
X397011Y286424D01*
X395157Y285656D01*
X393565Y284435D01*
X368265Y259135D01*
X367044Y257543D01*
X366276Y255689D01*
X366014Y253700D01*
Y214942D01*
X364744Y214415D01*
X357725Y221435D01*
X356133Y222656D01*
X354280Y223424D01*
X352290Y223686D01*
X350781D01*
X350396Y224956D01*
X350605Y225095D01*
X351710Y226749D01*
X351845Y227430D01*
X331655D01*
X331790Y226749D01*
X332895Y225095D01*
X333104Y224956D01*
X332719Y223686D01*
X236896D01*
X235985Y223806D01*
X158463D01*
X157615Y225076D01*
X158000Y226005D01*
Y227995D01*
X157239Y229832D01*
X155832Y231239D01*
X153995Y232000D01*
X152747D01*
X142920Y241827D01*
X143406Y243000D01*
X317000D01*
Y302985D01*
X335896Y302986D01*
X336063Y301716D01*
X334333Y301253D01*
X332167Y300002D01*
X330398Y298233D01*
X329147Y296067D01*
X328500Y293651D01*
Y291149D01*
X329147Y288733D01*
X330398Y286567D01*
X332167Y284798D01*
X334333Y283547D01*
X336749Y282900D01*
X339251D01*
X341667Y283547D01*
X343833Y284798D01*
X345602Y286567D01*
X346853Y288733D01*
X347500Y291149D01*
Y293651D01*
X346853Y296067D01*
X345602Y298233D01*
X343833Y300002D01*
X341667Y301253D01*
X339936Y301716D01*
X340103Y302987D01*
X439000Y302994D01*
X440280D01*
X442790Y302495D01*
D02*
G37*
G36*
X438860Y270998D02*
X441140Y269681D01*
X443684Y269000D01*
X446316D01*
X448860Y269681D01*
X450693Y270740D01*
X451963Y270144D01*
X451967Y237851D01*
X450697Y237258D01*
X448860Y238319D01*
X446316Y239000D01*
X443684D01*
X441140Y238319D01*
X438860Y237002D01*
X438394Y236536D01*
X415692D01*
Y238000D01*
X419500D01*
Y250000D01*
X408000D01*
Y238000D01*
X411808D01*
Y236536D01*
X410370D01*
X408381Y236274D01*
X406527Y235506D01*
X404935Y234285D01*
X404562Y233798D01*
X401000D01*
X399049Y233410D01*
X397395Y232305D01*
X396290Y230651D01*
X395902Y228700D01*
X396290Y226749D01*
X397395Y225095D01*
X399049Y223990D01*
X401000Y223602D01*
X403896D01*
X404136Y223270D01*
X403487Y222000D01*
X394500D01*
Y222000D01*
X393381Y222365D01*
X392442Y223305D01*
Y233195D01*
X397247Y238000D01*
X406000D01*
Y250000D01*
X394500D01*
Y240747D01*
X389127Y235373D01*
X388705Y234743D01*
X388558Y234000D01*
Y222500D01*
X388705Y221757D01*
X389127Y221127D01*
X392262Y217992D01*
X392892Y217571D01*
X393635Y217423D01*
X394500D01*
Y210000D01*
X406000D01*
Y220581D01*
X407168Y221309D01*
X408000Y220877D01*
Y217270D01*
X419500D01*
Y221164D01*
X438694D01*
X438860Y220998D01*
X441140Y219681D01*
X443684Y219000D01*
X446316D01*
X448860Y219681D01*
X450699Y220744D01*
X451969Y220151D01*
X451973Y187843D01*
X450703Y187254D01*
X448860Y188319D01*
X446316Y189000D01*
X443684D01*
X441140Y188319D01*
X438860Y187002D01*
X436998Y185140D01*
X436357Y184030D01*
X415692D01*
Y186000D01*
X419500D01*
Y198000D01*
X414854D01*
X414468Y199270D01*
X415105Y199695D01*
X416210Y201349D01*
X416598Y203300D01*
X416210Y205251D01*
X415105Y206905D01*
X413451Y208010D01*
X411500Y208398D01*
X406660D01*
X406250Y208479D01*
X395440D01*
X395439Y208479D01*
X393457Y208085D01*
X391777Y206963D01*
X383338Y198523D01*
X382656Y197503D01*
X381386Y197888D01*
Y250516D01*
X402184Y271314D01*
X438544D01*
X438860Y270998D01*
D02*
G37*
G36*
X5140Y269681D02*
X7683Y269000D01*
X10316D01*
X12860Y269681D01*
X13114Y269828D01*
X16305Y266638D01*
X16305Y266637D01*
X17986Y265515D01*
X19968Y265121D01*
X22506D01*
X23354Y263850D01*
X23114Y263270D01*
X32886D01*
X32645Y263850D01*
X33494Y265121D01*
X51380D01*
X51790Y265202D01*
X53000D01*
X54951Y265590D01*
X56605Y266695D01*
X57044Y267353D01*
X58314Y266968D01*
Y261686D01*
X47750D01*
X45761Y261424D01*
X43907Y260656D01*
X42789Y259798D01*
X42500D01*
X40549Y259410D01*
X38895Y258305D01*
X37790Y256651D01*
X37402Y254700D01*
X37790Y252749D01*
X38895Y251095D01*
X40549Y249990D01*
X41343Y249832D01*
X42315Y248565D01*
X42700Y248270D01*
X42269Y247000D01*
X34500D01*
Y235000D01*
X33508Y234329D01*
X17470D01*
X17002Y235140D01*
X15140Y237002D01*
X12860Y238319D01*
X10316Y239000D01*
X7683D01*
X5140Y238319D01*
X3282Y237246D01*
X2012Y237824D01*
X2008Y270181D01*
X3278Y270757D01*
X5140Y269681D01*
D02*
G37*
G36*
X14954Y302961D02*
X14977Y302966D01*
X15000Y302961D01*
X122774Y302969D01*
X123500Y301699D01*
Y301352D01*
X122500Y300700D01*
X102000D01*
Y290700D01*
X122500D01*
X123500Y290048D01*
Y290000D01*
X132966D01*
X134058Y289000D01*
Y261000D01*
X123500D01*
Y260352D01*
X122500Y259700D01*
X102000D01*
Y249700D01*
X122500D01*
X123500Y249048D01*
Y249000D01*
X134058D01*
Y246000D01*
X134206Y245257D01*
X134627Y244627D01*
X149091Y230162D01*
X148761Y229832D01*
X148000Y227995D01*
Y226005D01*
X148385Y225076D01*
X147536Y223806D01*
X140177D01*
X139995Y225000D01*
X141832Y225761D01*
X143239Y227168D01*
X143886Y228730D01*
X134114D01*
X134761Y227168D01*
X136168Y225761D01*
X138005Y225000D01*
X137823Y223806D01*
X120563D01*
X120178Y225076D01*
X121105Y225695D01*
X122210Y227349D01*
X122345Y228030D01*
X102155D01*
X102290Y227349D01*
X103395Y225695D01*
X104322Y225076D01*
X103937Y223806D01*
X95463D01*
X94615Y225076D01*
X95000Y226005D01*
Y227995D01*
X94239Y229832D01*
X92832Y231239D01*
X91942Y231607D01*
Y239000D01*
X91795Y239743D01*
X91373Y240373D01*
X87631Y244116D01*
X88000Y245005D01*
Y246995D01*
X87239Y248832D01*
X85832Y250239D01*
X83995Y251000D01*
X82005D01*
X80168Y250239D01*
X78761Y248832D01*
X78000Y246995D01*
Y245005D01*
X78761Y243168D01*
X80168Y241761D01*
X82005Y241000D01*
X83995D01*
X84885Y241369D01*
X88058Y238195D01*
Y231607D01*
X87168Y231239D01*
X85761Y229832D01*
X85000Y227995D01*
Y226005D01*
X85385Y225076D01*
X84537Y223806D01*
X73686D01*
Y254000D01*
Y286276D01*
X73424Y288266D01*
X72656Y290119D01*
X71435Y291711D01*
X64711Y298435D01*
X63119Y299656D01*
X61266Y300424D01*
X59276Y300686D01*
X53564D01*
X53000Y300798D01*
X42500D01*
X40549Y300410D01*
X38895Y299305D01*
X37790Y297651D01*
X37402Y295700D01*
X37790Y293749D01*
X38895Y292095D01*
X40549Y290990D01*
X42386Y290625D01*
X42994Y289157D01*
X44215Y287565D01*
X44600Y287270D01*
X44169Y286000D01*
X34500D01*
Y275480D01*
X33210D01*
X32480Y276749D01*
X32886Y277730D01*
X23114D01*
X23313Y277250D01*
X22588Y276023D01*
X21665Y275928D01*
X19000Y278593D01*
Y280317D01*
X18319Y282860D01*
X17002Y285140D01*
X15140Y287002D01*
X12860Y288319D01*
X10316Y289000D01*
X7683D01*
X5140Y288319D01*
X3276Y287242D01*
X2006Y287817D01*
X2006Y290000D01*
Y291280D01*
X2505Y293790D01*
X3485Y296155D01*
X4907Y298283D01*
X6717Y300093D01*
X8845Y301515D01*
X11210Y302495D01*
X13697Y302990D01*
X14954Y302961D01*
D02*
G37*
G36*
X102000Y199700D02*
X121998D01*
X122968Y198624D01*
X122782Y198000D01*
X122230Y198000D01*
X116000D01*
Y193270D01*
X127500D01*
X127500Y198000D01*
X128770Y198000D01*
X133457D01*
X133983Y196730D01*
X132627Y195373D01*
X132206Y194743D01*
X132058Y194000D01*
Y184805D01*
X94398Y147145D01*
X93412Y147955D01*
X93503Y148092D01*
X93833Y149750D01*
Y153230D01*
X90770D01*
Y145669D01*
X91158Y145747D01*
X91295Y145838D01*
X92105Y144852D01*
X62127Y114874D01*
X61706Y114243D01*
X61558Y113500D01*
Y108309D01*
X60288Y107783D01*
X59832Y108239D01*
X57994Y109000D01*
X56005D01*
X54168Y108239D01*
X52761Y106832D01*
X52000Y104995D01*
X51304Y104423D01*
X50500Y104583D01*
X48842Y104253D01*
X47436Y103314D01*
X46497Y101908D01*
X46167Y100250D01*
Y90750D01*
X46252Y90323D01*
X45761Y89832D01*
X45000Y87995D01*
Y86005D01*
X45761Y84168D01*
X46662Y83267D01*
X47148Y82669D01*
X46892Y81501D01*
X46497Y80908D01*
X46167Y79250D01*
Y69750D01*
X46497Y68092D01*
X47436Y66686D01*
X48842Y65747D01*
X50500Y65417D01*
X52158Y65747D01*
X53564Y66686D01*
X53936D01*
X55342Y65747D01*
X57000Y65417D01*
X58658Y65747D01*
X60064Y66686D01*
X60436D01*
X61842Y65747D01*
X63500Y65417D01*
X65158Y65747D01*
X66564Y66686D01*
X66936D01*
X68342Y65747D01*
X70000Y65417D01*
X71658Y65747D01*
X73064Y66686D01*
X73436D01*
X74842Y65747D01*
X76500Y65417D01*
X78158Y65747D01*
X79564Y66686D01*
X79936D01*
X81342Y65747D01*
X83000Y65417D01*
X84658Y65747D01*
X86064Y66686D01*
X86436D01*
X87842Y65747D01*
X89500Y65417D01*
X91158Y65747D01*
X92564Y66686D01*
X93503Y68092D01*
X93833Y69750D01*
Y70054D01*
X94332Y70261D01*
X95739Y71668D01*
X96500Y73506D01*
Y75495D01*
X95739Y77332D01*
X94332Y78739D01*
X93833Y78945D01*
Y79250D01*
X93503Y80908D01*
X92564Y82314D01*
X91855Y82788D01*
X92241Y84058D01*
X94195D01*
X98058Y80196D01*
Y65607D01*
X97168Y65239D01*
X95761Y63832D01*
X95000Y61995D01*
Y60005D01*
X95761Y58168D01*
X97168Y56761D01*
X99005Y56000D01*
X100995D01*
X102832Y56761D01*
X104239Y58168D01*
X105000Y60005D01*
Y61995D01*
X104239Y63832D01*
X102832Y65239D01*
X101942Y65607D01*
Y81000D01*
X101795Y81743D01*
X101373Y82373D01*
X101373Y82374D01*
X96373Y87373D01*
X95743Y87795D01*
X95000Y87942D01*
X94082D01*
X93583Y88876D01*
X93527Y89212D01*
X93833Y90750D01*
Y91504D01*
X95103Y91756D01*
X95761Y90168D01*
X97168Y88761D01*
X99005Y88000D01*
X100995D01*
X102832Y88761D01*
X104239Y90168D01*
X105000Y92005D01*
Y93995D01*
X104631Y94885D01*
X107195Y97448D01*
X108321Y97338D01*
X108773Y96208D01*
X108398Y95833D01*
X107147Y93667D01*
X106500Y91251D01*
Y88749D01*
X107147Y86333D01*
X108398Y84167D01*
X110167Y82398D01*
X112333Y81147D01*
X114749Y80500D01*
X117251D01*
X119667Y81147D01*
X121833Y82398D01*
X123602Y84167D01*
X124853Y86333D01*
X125500Y88749D01*
Y91251D01*
X124853Y93667D01*
X123602Y95833D01*
X123146Y96289D01*
X123632Y97463D01*
X129390D01*
X134669Y92184D01*
X134300Y91295D01*
Y89305D01*
X135061Y87468D01*
X136468Y86061D01*
X138305Y85300D01*
X140295D01*
X142132Y86061D01*
X143539Y87468D01*
X144300Y89305D01*
Y91295D01*
X143539Y93132D01*
X142132Y94539D01*
X140295Y95300D01*
X138305D01*
X137416Y94931D01*
X133462Y98884D01*
X133948Y100058D01*
X135871D01*
X137168Y98761D01*
X139005Y98000D01*
X140995D01*
X142832Y98761D01*
X144239Y100168D01*
X145000Y102005D01*
Y103995D01*
X144239Y105832D01*
X142832Y107239D01*
X140995Y108000D01*
X139005D01*
X137168Y107239D01*
X135761Y105832D01*
X135000Y103995D01*
Y103942D01*
X122000D01*
Y106980D01*
X110000D01*
Y103942D01*
X104607D01*
X104239Y104832D01*
X102832Y106239D01*
X100995Y107000D01*
X99005D01*
X97168Y106239D01*
X95761Y104832D01*
X95000Y102995D01*
Y101005D01*
X95761Y99168D01*
X96599Y98330D01*
X97032Y97500D01*
X96599Y96670D01*
X95761Y95832D01*
X95103Y94244D01*
X93833Y94496D01*
Y100250D01*
X93503Y101908D01*
X92564Y103314D01*
X91158Y104253D01*
X89500Y104583D01*
X89220Y104527D01*
X76942Y116805D01*
Y117011D01*
X99730Y139799D01*
X101000Y139273D01*
Y138005D01*
X101761Y136168D01*
X103168Y134761D01*
X105005Y134000D01*
X106995D01*
X108730Y134719D01*
X110000Y134270D01*
Y126500D01*
Y116000D01*
X122000D01*
Y119160D01*
X155852D01*
Y117500D01*
X156240Y115549D01*
X157345Y113895D01*
X158999Y112790D01*
X160950Y112402D01*
X162901Y112790D01*
X163214Y112999D01*
X164538Y112357D01*
X164607Y112009D01*
X165169Y111169D01*
X169169Y107169D01*
X170009Y106607D01*
X171000Y106410D01*
X176000D01*
X176991Y106607D01*
X177831Y107169D01*
X181831Y111169D01*
X182393Y112009D01*
X182497Y112534D01*
X183528Y113111D01*
X183860Y113151D01*
X184399Y112790D01*
X185151Y112640D01*
X185761Y111168D01*
X187168Y109761D01*
X189005Y109000D01*
X190995D01*
X192832Y109761D01*
X194239Y111168D01*
X194890Y112739D01*
X195819Y113224D01*
X196270Y113344D01*
X197099Y112790D01*
X199050Y112402D01*
X201001Y112790D01*
X202655Y113895D01*
X203295Y114853D01*
X203944Y115528D01*
X205026Y115406D01*
X206005Y115000D01*
X207995D01*
X209832Y115761D01*
X211239Y117168D01*
X212000Y119005D01*
Y120995D01*
X211239Y122832D01*
X209832Y124239D01*
X209590Y124339D01*
Y129000D01*
X209393Y129991D01*
X208831Y130831D01*
X197831Y141831D01*
X196991Y142393D01*
X196000Y142590D01*
X184327D01*
X183831Y143331D01*
X173500Y153663D01*
Y163500D01*
X161942D01*
Y178240D01*
X163212Y178493D01*
X163761Y177168D01*
X165168Y175761D01*
X167005Y175000D01*
X168995D01*
X170832Y175761D01*
X172239Y177168D01*
X172607Y178058D01*
X222500D01*
X223243Y178206D01*
X223873Y178627D01*
X227889Y182643D01*
X229000Y182422D01*
X233000D01*
X234561Y182732D01*
X235884Y183616D01*
X236768Y184939D01*
X237078Y186500D01*
X236975Y187018D01*
X237781Y188000D01*
X237995D01*
X239832Y188761D01*
X241239Y190168D01*
X242000Y192005D01*
Y193995D01*
X241239Y195832D01*
X240783Y196288D01*
X241310Y197558D01*
X251695D01*
X255058Y194195D01*
Y191064D01*
X254735Y190848D01*
X253564Y190314D01*
X252158Y191253D01*
X250500Y191583D01*
X248842Y191253D01*
X247436Y190314D01*
X246497Y188908D01*
X246167Y187250D01*
Y180327D01*
X244385D01*
X244385Y180327D01*
X243642Y180180D01*
X243012Y179758D01*
X237885Y174631D01*
X236995Y175000D01*
X235005D01*
X233168Y174239D01*
X231761Y172832D01*
X231000Y170995D01*
Y169005D01*
X231761Y167168D01*
X233168Y165761D01*
X235005Y165000D01*
X236994D01*
X237517Y163842D01*
X237810Y163135D01*
X239217Y161728D01*
X238794Y160865D01*
X238761Y160832D01*
X238000Y158995D01*
Y157005D01*
X238761Y155168D01*
X240168Y153761D01*
X242005Y153000D01*
X243995D01*
X245832Y153761D01*
X247239Y155168D01*
X247607Y156058D01*
X249000D01*
X249743Y156206D01*
X250373Y156627D01*
X257805Y164058D01*
X293000D01*
X293743Y164205D01*
X294373Y164627D01*
X301373Y171626D01*
X301373Y171627D01*
X301794Y172257D01*
X301942Y173000D01*
X301942Y173000D01*
Y181393D01*
X302832Y181761D01*
X304239Y183168D01*
X305000Y185005D01*
Y185457D01*
X306270Y185983D01*
X320626Y171627D01*
X320627Y171627D01*
X321257Y171206D01*
X322000Y171058D01*
X322000Y171058D01*
X322393D01*
X322761Y170168D01*
X324168Y168761D01*
X326005Y168000D01*
X327995D01*
X329832Y168761D01*
X331239Y170168D01*
X332000Y172005D01*
Y173995D01*
X331832Y174401D01*
X332895Y175095D01*
X334549Y173990D01*
X336500Y173602D01*
X340480D01*
Y177430D01*
X331655D01*
X331709Y177159D01*
X330538Y176533D01*
X329832Y177239D01*
X327995Y178000D01*
X326005D01*
X324168Y177239D01*
X323236Y176307D01*
X321615Y176132D01*
X314862Y182884D01*
X315348Y184058D01*
X322393D01*
X322761Y183168D01*
X324168Y181761D01*
X326005Y181000D01*
X327995D01*
X329832Y181761D01*
X331239Y183168D01*
X332000Y185005D01*
Y186995D01*
X331239Y188832D01*
X329832Y190239D01*
X327995Y191000D01*
X326005D01*
X324168Y190239D01*
X322761Y188832D01*
X322393Y187942D01*
X313805D01*
X306017Y195730D01*
X306543Y197000D01*
X317000D01*
Y208314D01*
X319000D01*
Y197000D01*
X330500D01*
Y197648D01*
X331500Y198300D01*
X352000D01*
X352044Y197048D01*
Y182437D01*
X350774Y182051D01*
X350605Y182305D01*
X348951Y183410D01*
X347000Y183798D01*
X343020D01*
Y178700D01*
Y173602D01*
X347000D01*
X348951Y173990D01*
X350605Y175095D01*
X350774Y175349D01*
X352044Y174963D01*
Y159552D01*
X352000Y158300D01*
X350774Y158300D01*
X331500D01*
X330500Y158952D01*
Y159000D01*
X319000D01*
Y147000D01*
X329769D01*
X330220Y146163D01*
X330339Y145730D01*
X329147Y143667D01*
X328500Y141251D01*
Y138749D01*
X329147Y136333D01*
X330398Y134167D01*
X332167Y132398D01*
X334333Y131147D01*
X336749Y130500D01*
X339251D01*
X341667Y131147D01*
X343833Y132398D01*
X345602Y134167D01*
X346853Y136333D01*
X347500Y138749D01*
Y141251D01*
X346853Y143667D01*
X345602Y145833D01*
X344405Y147030D01*
X344931Y148300D01*
X352000Y148300D01*
X352044Y147048D01*
Y121470D01*
X352306Y119481D01*
X353074Y117627D01*
X354295Y116035D01*
X392537Y77794D01*
X392667Y76803D01*
X393322Y75222D01*
X394364Y73864D01*
X395722Y72822D01*
X397303Y72167D01*
X398670Y71987D01*
X398857Y71844D01*
X400711Y71076D01*
X402700Y70814D01*
X404000D01*
X405250Y70979D01*
X406500Y70814D01*
X408399Y71064D01*
X437314D01*
Y35456D01*
X436998Y35140D01*
X435681Y32860D01*
X435000Y30317D01*
Y27683D01*
X435681Y25140D01*
X436998Y22860D01*
X438860Y20998D01*
X441140Y19682D01*
X443684Y19000D01*
X446316D01*
X448860Y19682D01*
X450723Y20758D01*
X451994Y20183D01*
X451994Y15000D01*
Y13720D01*
X451495Y11210D01*
X450515Y8845D01*
X449093Y6717D01*
X447283Y4907D01*
X445155Y3485D01*
X442790Y2505D01*
X440303Y2010D01*
X439046Y2039D01*
X439023Y2034D01*
X439000Y2039D01*
X339762Y2031D01*
X339236Y3301D01*
X340102Y4167D01*
X341353Y6333D01*
X341956Y8587D01*
X350735Y17365D01*
X351956Y18957D01*
X352724Y20811D01*
X352986Y22800D01*
Y72000D01*
X355500D01*
Y85000D01*
X348046D01*
X347843Y85156D01*
X345989Y85924D01*
X344000Y86186D01*
X278975D01*
X276986Y85924D01*
X275132Y85156D01*
X273540Y83935D01*
X265291Y75686D01*
X240500D01*
Y76250D01*
X236590D01*
Y84661D01*
X236832Y84761D01*
X238239Y86168D01*
X239000Y88005D01*
Y89995D01*
X238239Y91832D01*
X236832Y93239D01*
X234995Y94000D01*
X233005D01*
X231168Y93239D01*
X229761Y91832D01*
X229000Y89995D01*
Y88544D01*
X227965Y87697D01*
X227827Y87655D01*
X226995Y88000D01*
X225005D01*
X223168Y87239D01*
X222270Y86341D01*
X221000Y86867D01*
Y90000D01*
X209000D01*
Y86840D01*
X198100D01*
X197109Y86643D01*
X196269Y86081D01*
X189482Y79295D01*
X181000D01*
X180504Y79196D01*
X180084Y78916D01*
X179804Y78495D01*
X179705Y78000D01*
Y74198D01*
X178435Y74073D01*
X178360Y74451D01*
X177255Y76105D01*
X176679Y76489D01*
X176575Y77913D01*
X193823Y95160D01*
X209000D01*
Y92000D01*
X221000D01*
Y103500D01*
X209000D01*
Y100340D01*
X192750D01*
X191759Y100143D01*
X190919Y99581D01*
X171819Y80481D01*
X171257Y79641D01*
X171060Y78650D01*
Y76783D01*
X170045Y76105D01*
X168940Y74451D01*
X168552Y72500D01*
Y63500D01*
X168790Y62303D01*
X163077Y56590D01*
X147500D01*
Y60250D01*
X130020D01*
Y54000D01*
Y47750D01*
X147500D01*
Y51410D01*
X164150D01*
X165141Y51607D01*
X165981Y52169D01*
X172453Y58640D01*
X173650Y58402D01*
X175601Y58790D01*
X177255Y59895D01*
X178360Y61549D01*
X178435Y61927D01*
X179705Y61802D01*
Y60536D01*
X164464Y45295D01*
X141000D01*
X140505Y45196D01*
X140084Y44916D01*
X139804Y44496D01*
X139705Y44000D01*
Y12000D01*
X138521Y11444D01*
X131295D01*
Y42000D01*
X131196Y42495D01*
X130916Y42916D01*
X130496Y43196D01*
X130000Y43295D01*
X103000D01*
X102505Y43196D01*
X102084Y42916D01*
X101804Y42495D01*
X101705Y42000D01*
Y2013D01*
X15000Y2006D01*
X13720D01*
X11210Y2505D01*
X8845Y3485D01*
X6717Y4907D01*
X4907Y6717D01*
X3485Y8845D01*
X2505Y11210D01*
X2010Y13698D01*
X2039Y14954D01*
X2034Y14977D01*
X2039Y15000D01*
X2032Y70149D01*
X3302Y70743D01*
X5140Y69682D01*
X7683Y69000D01*
X10316D01*
X12860Y69682D01*
X15140Y70998D01*
X17002Y72860D01*
X18319Y75140D01*
X19000Y77684D01*
Y80316D01*
X18319Y82860D01*
X17002Y85140D01*
X15140Y87002D01*
X12860Y88319D01*
X10316Y89000D01*
X7683D01*
X5140Y88319D01*
X3300Y87256D01*
X2030Y87848D01*
X2026Y120157D01*
X3296Y120746D01*
X5140Y119682D01*
X7683Y119000D01*
X10316D01*
X12860Y119682D01*
X15140Y120998D01*
X17002Y122860D01*
X18319Y125140D01*
X19000Y127683D01*
Y130316D01*
X18319Y132860D01*
X17002Y135140D01*
X15140Y137002D01*
X12860Y138319D01*
X10316Y139000D01*
X7683D01*
X5140Y138319D01*
X3294Y137253D01*
X2024Y137840D01*
X2020Y170165D01*
X3290Y170750D01*
X5140Y169681D01*
X7683Y169000D01*
X10316D01*
X12860Y169681D01*
X15140Y170998D01*
X17002Y172860D01*
X17643Y173971D01*
X34500D01*
Y163000D01*
X46000D01*
Y173430D01*
X47270Y173555D01*
X47405Y172878D01*
X48000Y171987D01*
X48000Y163444D01*
X47505Y162363D01*
X47436Y162314D01*
X46497Y160908D01*
X46167Y159250D01*
Y158653D01*
X45168Y158239D01*
X43761Y156832D01*
X43000Y154995D01*
Y153005D01*
X43761Y151168D01*
X45168Y149761D01*
X46254Y149311D01*
X46497Y148092D01*
X47436Y146686D01*
X48842Y145747D01*
X50500Y145417D01*
X52158Y145747D01*
X53564Y146686D01*
X53936D01*
X55342Y145747D01*
X57000Y145417D01*
X57401Y145497D01*
X58000Y145005D01*
X58761Y143168D01*
X60168Y141761D01*
X62005Y141000D01*
X63995D01*
X65832Y141761D01*
X65840Y141769D01*
X66761Y142168D01*
X68168Y140761D01*
X70005Y140000D01*
X71995D01*
X73832Y140761D01*
X75239Y142168D01*
X76000Y144005D01*
Y145006D01*
X76500Y145417D01*
X78158Y145747D01*
X79564Y146686D01*
X79936D01*
X81342Y145747D01*
X83000Y145417D01*
X84658Y145747D01*
X86064Y146686D01*
X86436D01*
X87842Y145747D01*
X88230Y145669D01*
Y154500D01*
Y163331D01*
X87842Y163253D01*
X86436Y162314D01*
X85265Y162848D01*
X84942Y163064D01*
Y188195D01*
X89115Y192369D01*
X90005Y192000D01*
X91995D01*
X93832Y192761D01*
X95239Y194168D01*
X96000Y196005D01*
Y197995D01*
X95239Y199832D01*
X93832Y201239D01*
X91995Y202000D01*
X90005D01*
X88168Y201239D01*
X86761Y199832D01*
X86000Y197995D01*
Y196005D01*
X86369Y195116D01*
X81627Y190373D01*
X81206Y189743D01*
X81058Y189000D01*
Y171809D01*
X79788Y171283D01*
X78832Y172239D01*
X76995Y173000D01*
X75005D01*
X73168Y172239D01*
X71761Y170832D01*
X71687Y170654D01*
X70313D01*
X70239Y170832D01*
X68832Y172239D01*
X66995Y173000D01*
X65005D01*
X63168Y172239D01*
X61761Y170832D01*
X61000Y168995D01*
Y167978D01*
X60770Y167824D01*
X59500Y168503D01*
Y175000D01*
X58543D01*
X58475Y175342D01*
X57422Y176918D01*
X57710Y177349D01*
X58098Y179300D01*
X57710Y181251D01*
X56605Y182905D01*
X55370Y183730D01*
X55755Y185000D01*
X59500D01*
Y189730D01*
X53750D01*
Y192270D01*
X59500D01*
X59500Y197000D01*
X60764Y197014D01*
X66000D01*
X67989Y197276D01*
X69843Y198044D01*
X71435Y199265D01*
X72656Y200857D01*
X73424Y202711D01*
X73686Y204700D01*
Y208434D01*
X102000D01*
Y199700D01*
D02*
G37*
G36*
X436998Y172860D02*
X438860Y170998D01*
X441140Y169681D01*
X443684Y169000D01*
X446316D01*
X448860Y169681D01*
X450705Y170747D01*
X451975Y170159D01*
X451979Y137836D01*
X450709Y137251D01*
X448860Y138319D01*
X446316Y139000D01*
X443684D01*
X441140Y138319D01*
X438860Y137002D01*
X436998Y135140D01*
X435681Y132860D01*
X435000Y130316D01*
Y127683D01*
X435681Y125140D01*
X436998Y122860D01*
X438860Y120998D01*
X441140Y119682D01*
X443684Y119000D01*
X446316D01*
X448860Y119682D01*
X450711Y120751D01*
X451982Y120167D01*
X451985Y87828D01*
X450715Y87247D01*
X448860Y88319D01*
X446316Y89000D01*
X443684D01*
X441140Y88319D01*
X438860Y87002D01*
X438294Y86436D01*
X426964D01*
X426478Y87609D01*
X428435Y89565D01*
X429656Y91157D01*
X430424Y93011D01*
X430686Y95000D01*
Y137000D01*
X430424Y138989D01*
X429656Y140843D01*
X428435Y142435D01*
X416357Y154513D01*
X416210Y155251D01*
X415105Y156905D01*
X413451Y158010D01*
X412356Y158228D01*
X411993Y158506D01*
X410139Y159274D01*
X408150Y159536D01*
X406161Y159274D01*
X404307Y158506D01*
X404272Y158479D01*
X399845D01*
X398498Y159827D01*
X398984Y161000D01*
X406000D01*
Y172927D01*
X407000Y173506D01*
X408000Y172927D01*
X408000Y172332D01*
Y168270D01*
X419500D01*
Y172400D01*
X419500Y173000D01*
X420492Y173671D01*
X436530D01*
X436998Y172860D01*
D02*
G37*
G36*
X337614Y50600D02*
X334770D01*
Y45000D01*
Y39400D01*
X337614D01*
Y25984D01*
X331087Y19457D01*
X328833Y18853D01*
X326667Y17602D01*
X324898Y15833D01*
X323647Y13667D01*
X323000Y11251D01*
Y8749D01*
X323647Y6333D01*
X324898Y4167D01*
X325765Y3300D01*
X325239Y2030D01*
X304760Y2028D01*
X304233Y3298D01*
X305102Y4167D01*
X306353Y6333D01*
X306654Y7460D01*
X288346D01*
X288647Y6333D01*
X289898Y4167D01*
X290768Y3297D01*
X290242Y2027D01*
X266990Y2025D01*
X266665Y3295D01*
X276604Y13235D01*
X288361Y24991D01*
X289412Y25598D01*
X290902Y27088D01*
X291955Y28912D01*
X292500Y30947D01*
Y33053D01*
X291955Y35088D01*
X290902Y36912D01*
X289412Y38402D01*
X287588Y39455D01*
X285553Y40000D01*
X283447D01*
X281412Y39455D01*
X279588Y38402D01*
X278098Y36912D01*
X277491Y35861D01*
X270235Y28604D01*
X266898Y31941D01*
X262479Y27521D01*
X258059Y23102D01*
X261396Y19765D01*
X255565Y13935D01*
X254344Y12343D01*
X253972Y11444D01*
X204479D01*
X203295Y12000D01*
Y50000D01*
X203196Y50496D01*
X202916Y50916D01*
X196505Y57327D01*
X196991Y58500D01*
X204050D01*
Y60314D01*
X211500D01*
Y59750D01*
X225000D01*
Y64384D01*
X225029Y64453D01*
X226474Y64625D01*
X227000Y63998D01*
Y59750D01*
X240500D01*
Y60314D01*
X268475D01*
X270464Y60576D01*
X272318Y61344D01*
X273910Y62565D01*
X282159Y70814D01*
X337614D01*
Y50600D01*
D02*
G37*
G36*
X192000Y60000D02*
X202000Y50000D01*
Y12000D01*
X141000D01*
Y44000D01*
X165000D01*
X181000Y60000D01*
Y78000D01*
X192000D01*
Y60000D01*
D02*
G37*
G36*
X130000Y2000D02*
X103000D01*
Y42000D01*
X130000D01*
Y2000D01*
D02*
G37*
%LPC*%
G36*
X339251Y276500D02*
X336749D01*
X334333Y275853D01*
X332167Y274602D01*
X330398Y272833D01*
X329147Y270667D01*
X328500Y268251D01*
Y265749D01*
X329147Y263333D01*
X330398Y261167D01*
X332167Y259398D01*
X334333Y258147D01*
X336749Y257500D01*
X339251D01*
X341667Y258147D01*
X343833Y259398D01*
X345602Y261167D01*
X346853Y263333D01*
X347500Y265749D01*
Y268251D01*
X346853Y270667D01*
X345602Y272833D01*
X343833Y274602D01*
X341667Y275853D01*
X339251Y276500D01*
D02*
G37*
G36*
X347500Y251100D02*
X339270D01*
Y242870D01*
X347500D01*
Y251100D01*
D02*
G37*
G36*
X336730D02*
X328500D01*
Y242870D01*
X336730D01*
Y251100D01*
D02*
G37*
G36*
X316270Y234886D02*
Y231270D01*
X319886D01*
X319239Y232832D01*
X317832Y234239D01*
X316270Y234886D01*
D02*
G37*
G36*
X313730D02*
X312168Y234239D01*
X310761Y232832D01*
X310114Y231270D01*
X313730D01*
Y234886D01*
D02*
G37*
G36*
X347500Y240330D02*
X338000D01*
X328500D01*
Y232100D01*
X331411D01*
X332010Y230980D01*
X331790Y230651D01*
X331655Y229970D01*
X341750D01*
X351845D01*
X351710Y230651D01*
X350605Y232305D01*
X348951Y233410D01*
X347500Y233699D01*
Y240330D01*
D02*
G37*
G36*
X319886Y228730D02*
X316270D01*
Y225114D01*
X317832Y225761D01*
X319239Y227168D01*
X319886Y228730D01*
D02*
G37*
G36*
X313730D02*
X310114D01*
X310761Y227168D01*
X312168Y225761D01*
X313730Y225114D01*
Y228730D01*
D02*
G37*
G36*
X419500Y214730D02*
X415020D01*
Y210000D01*
X419500D01*
Y214730D01*
D02*
G37*
G36*
X412480D02*
X408000D01*
Y210000D01*
X412480D01*
Y214730D01*
D02*
G37*
G36*
X32886Y260730D02*
X29270D01*
Y257114D01*
X30832Y257761D01*
X32239Y259168D01*
X32886Y260730D01*
D02*
G37*
G36*
X26730D02*
X23114D01*
X23761Y259168D01*
X25168Y257761D01*
X26730Y257114D01*
Y260730D01*
D02*
G37*
G36*
X29270Y283886D02*
Y280270D01*
X32886D01*
X32239Y281832D01*
X30832Y283239D01*
X29270Y283886D01*
D02*
G37*
G36*
X26730D02*
X25168Y283239D01*
X23761Y281832D01*
X23114Y280270D01*
X26730D01*
Y283886D01*
D02*
G37*
G36*
X117500Y275398D02*
X113520D01*
Y271570D01*
X122345D01*
X122210Y272251D01*
X121105Y273905D01*
X119451Y275010D01*
X117500Y275398D01*
D02*
G37*
G36*
X110980D02*
X107000D01*
X105049Y275010D01*
X103395Y273905D01*
X102290Y272251D01*
X102155Y271570D01*
X110980D01*
Y275398D01*
D02*
G37*
G36*
X122345Y269030D02*
X113520D01*
Y265202D01*
X117500D01*
X119451Y265590D01*
X121105Y266695D01*
X122210Y268349D01*
X122345Y269030D01*
D02*
G37*
G36*
X110980D02*
X102155D01*
X102290Y268349D01*
X103395Y266695D01*
X105049Y265590D01*
X107000Y265202D01*
X110980D01*
Y269030D01*
D02*
G37*
G36*
X140270Y234886D02*
Y231270D01*
X143886D01*
X143239Y232832D01*
X141832Y234239D01*
X140270Y234886D01*
D02*
G37*
G36*
X137730D02*
X136168Y234239D01*
X134761Y232832D01*
X134114Y231270D01*
X137730D01*
Y234886D01*
D02*
G37*
G36*
X117500Y234398D02*
X113520D01*
Y230570D01*
X122345D01*
X122210Y231251D01*
X121105Y232905D01*
X119451Y234010D01*
X117500Y234398D01*
D02*
G37*
G36*
X110980D02*
X107000D01*
X105049Y234010D01*
X103395Y232905D01*
X102290Y231251D01*
X102155Y230570D01*
X110980D01*
Y234398D01*
D02*
G37*
G36*
X127500Y190730D02*
X123020D01*
Y186000D01*
X127500D01*
Y190730D01*
D02*
G37*
G36*
X120480D02*
X116000D01*
Y186000D01*
X120480D01*
Y190730D01*
D02*
G37*
G36*
X114000Y198000D02*
X102500D01*
Y197000D01*
X102005D01*
X100168Y196239D01*
X98761Y194832D01*
X98000Y192995D01*
Y191005D01*
X98761Y189168D01*
X100168Y187761D01*
X102005Y187000D01*
X102500D01*
Y186000D01*
X114000D01*
Y198000D01*
D02*
G37*
G36*
X117500Y184398D02*
X113520D01*
Y180570D01*
X122345D01*
X122210Y181251D01*
X121105Y182905D01*
X119451Y184010D01*
X117500Y184398D01*
D02*
G37*
G36*
X110980D02*
X107000D01*
X105049Y184010D01*
X103395Y182905D01*
X102290Y181251D01*
X102155Y180570D01*
X110980D01*
Y184398D01*
D02*
G37*
G36*
X340480Y183798D02*
X336500D01*
X334549Y183410D01*
X332895Y182305D01*
X331790Y180651D01*
X331655Y179970D01*
X340480D01*
Y183798D01*
D02*
G37*
G36*
X122345Y178030D02*
X113520D01*
Y173614D01*
X114939Y174202D01*
X117500D01*
X119451Y174590D01*
X121105Y175695D01*
X122210Y177349D01*
X122345Y178030D01*
D02*
G37*
G36*
X110980D02*
X102155D01*
X102290Y177349D01*
X103395Y175695D01*
X105049Y174590D01*
X107000Y174202D01*
X109560D01*
X110980Y173614D01*
Y178030D01*
D02*
G37*
G36*
X90770Y163331D02*
Y155770D01*
X93833D01*
Y159250D01*
X93503Y160908D01*
X92564Y162314D01*
X91158Y163253D01*
X90770Y163331D01*
D02*
G37*
G36*
X271995Y161000D02*
X270005D01*
X268168Y160239D01*
X266761Y158832D01*
X266000Y156995D01*
Y155005D01*
X266369Y154115D01*
X259627Y147373D01*
X259206Y146743D01*
X259058Y146000D01*
Y138121D01*
X259206Y137378D01*
X259627Y136748D01*
X261558Y134817D01*
Y132064D01*
X260436Y131314D01*
X260064D01*
X258658Y132253D01*
X257000Y132583D01*
X255342Y132253D01*
X253936Y131314D01*
X253564D01*
X252158Y132253D01*
X251770Y132331D01*
Y123500D01*
Y114669D01*
X252111Y114737D01*
X252761Y113168D01*
X254168Y111761D01*
X256005Y111000D01*
X257995D01*
X259832Y111761D01*
X261239Y113168D01*
X261889Y114737D01*
X263500Y114417D01*
X265158Y114747D01*
X266564Y115686D01*
X266936D01*
X268342Y114747D01*
X270000Y114417D01*
X271658Y114747D01*
X273064Y115686D01*
X273436D01*
X274842Y114747D01*
X276500Y114417D01*
X276827Y114482D01*
X277056Y114387D01*
X278000Y113420D01*
Y112005D01*
X278761Y110168D01*
X278813Y110116D01*
X278327Y108942D01*
X271607D01*
X271239Y109832D01*
X269832Y111239D01*
X267995Y112000D01*
X266005D01*
X264168Y111239D01*
X262761Y109832D01*
X262000Y107995D01*
Y106005D01*
X262761Y104168D01*
X264168Y102761D01*
X266005Y102000D01*
X267995D01*
X269832Y102761D01*
X271239Y104168D01*
X271607Y105058D01*
X295195D01*
X304627Y95627D01*
X305257Y95205D01*
X306000Y95058D01*
X322393D01*
X322761Y94168D01*
X324168Y92761D01*
X326005Y92000D01*
X327995D01*
X329832Y92761D01*
X331239Y94168D01*
X332000Y96005D01*
Y97995D01*
X331239Y99832D01*
X329832Y101239D01*
X327995Y102000D01*
X326005D01*
X324168Y101239D01*
X322761Y99832D01*
X322393Y98942D01*
X306805D01*
X297373Y108373D01*
X296743Y108794D01*
X296000Y108942D01*
X287673D01*
X287187Y110116D01*
X287239Y110168D01*
X288000Y112005D01*
Y113420D01*
X288944Y114387D01*
X289173Y114482D01*
X289500Y114417D01*
X291158Y114747D01*
X292564Y115686D01*
X293503Y117092D01*
X293833Y118750D01*
Y128250D01*
X293582Y129511D01*
X293739Y129668D01*
X294500Y131505D01*
Y133495D01*
X293739Y135332D01*
X292332Y136739D01*
X290495Y137500D01*
X288505D01*
X286668Y136739D01*
X285261Y135332D01*
X284500Y133495D01*
Y133286D01*
X283518Y132480D01*
X283000Y132583D01*
X281342Y132253D01*
X279936Y131314D01*
X279845D01*
X278847Y132093D01*
Y138776D01*
X280239Y140168D01*
X281000Y142005D01*
Y143995D01*
X280239Y145832D01*
X278832Y147239D01*
X277382Y147839D01*
X276920Y149173D01*
X278804Y151058D01*
X305500D01*
Y147000D01*
X317000D01*
Y159000D01*
X305500D01*
Y154942D01*
X278000D01*
X277257Y154795D01*
X277173Y154739D01*
X277114Y154752D01*
X276000Y155482D01*
Y156995D01*
X275239Y158832D01*
X273832Y160239D01*
X271995Y161000D01*
D02*
G37*
G36*
X249230Y132331D02*
X248842Y132253D01*
X247436Y131314D01*
X246497Y129908D01*
X246167Y128250D01*
Y124770D01*
X249230D01*
Y132331D01*
D02*
G37*
G36*
X347500Y124100D02*
X339270D01*
Y115870D01*
X347500D01*
Y124100D01*
D02*
G37*
G36*
X336730D02*
X328500D01*
Y115870D01*
X336730D01*
Y124100D01*
D02*
G37*
G36*
X249230Y122230D02*
X246167D01*
Y118750D01*
X246497Y117092D01*
X247436Y115686D01*
X248842Y114747D01*
X249230Y114669D01*
Y122230D01*
D02*
G37*
G36*
X122000Y114000D02*
X117270D01*
Y109520D01*
X122000D01*
Y114000D01*
D02*
G37*
G36*
X114730D02*
X110000D01*
Y109520D01*
X114730D01*
Y114000D01*
D02*
G37*
G36*
X354983Y100960D02*
X346540D01*
Y96944D01*
X349000D01*
X350697Y97167D01*
X352278Y97822D01*
X353636Y98864D01*
X354678Y100222D01*
X354983Y100960D01*
D02*
G37*
G36*
X347500Y113330D02*
X338000D01*
X328500D01*
Y105100D01*
X331692D01*
X332529Y104145D01*
X332444Y103500D01*
X332667Y101803D01*
X333322Y100222D01*
X334364Y98864D01*
X335722Y97822D01*
X337303Y97167D01*
X339000Y96944D01*
X341460D01*
Y103500D01*
X344000D01*
Y106040D01*
X354983D01*
X354678Y106778D01*
X353636Y108136D01*
X352278Y109178D01*
X350697Y109833D01*
X349000Y110056D01*
X347500D01*
Y113330D01*
D02*
G37*
G36*
X162220Y77345D02*
Y69270D01*
X166048D01*
Y72500D01*
X165660Y74451D01*
X164555Y76105D01*
X162901Y77210D01*
X162220Y77345D01*
D02*
G37*
G36*
X159680D02*
X158999Y77210D01*
X157345Y76105D01*
X156240Y74451D01*
X155852Y72500D01*
Y69270D01*
X159680D01*
Y77345D01*
D02*
G37*
G36*
X125500Y74100D02*
X117270D01*
Y65870D01*
X125500D01*
Y74100D01*
D02*
G37*
G36*
X114730D02*
X106500D01*
Y65870D01*
X114730D01*
Y74100D01*
D02*
G37*
G36*
X166048Y66730D02*
X162220D01*
Y58655D01*
X162901Y58790D01*
X164555Y59895D01*
X165660Y61549D01*
X166048Y63500D01*
Y66730D01*
D02*
G37*
G36*
X159680D02*
X155852D01*
Y63500D01*
X156240Y61549D01*
X157345Y59895D01*
X158999Y58790D01*
X159680Y58655D01*
Y66730D01*
D02*
G37*
G36*
X114730Y63330D02*
X106500D01*
Y55100D01*
X114730D01*
Y63330D01*
D02*
G37*
G36*
X125500D02*
X117270D01*
Y55100D01*
X122500D01*
Y47750D01*
X127480D01*
Y54000D01*
Y60250D01*
X125500D01*
Y63330D01*
D02*
G37*
G36*
X57994Y57000D02*
X56005D01*
X54168Y56239D01*
X52761Y54832D01*
X52000Y52995D01*
Y51005D01*
X52761Y49168D01*
X54168Y47761D01*
X55058Y47393D01*
Y24064D01*
X54735Y23848D01*
X53564Y23314D01*
X52158Y24253D01*
X51770Y24331D01*
Y15500D01*
Y6669D01*
X52158Y6747D01*
X53564Y7686D01*
X53936D01*
X55342Y6747D01*
X57000Y6417D01*
X58658Y6747D01*
X60064Y7686D01*
X60436D01*
X61842Y6747D01*
X63500Y6417D01*
X65158Y6747D01*
X66564Y7686D01*
X66936D01*
X68342Y6747D01*
X70000Y6417D01*
X71658Y6747D01*
X73064Y7686D01*
X73436D01*
X74842Y6747D01*
X76500Y6417D01*
X78158Y6747D01*
X79564Y7686D01*
X79936D01*
X81342Y6747D01*
X83000Y6417D01*
X84658Y6747D01*
X86064Y7686D01*
X86436D01*
X87842Y6747D01*
X89500Y6417D01*
X91158Y6747D01*
X92564Y7686D01*
X93503Y9092D01*
X93833Y10750D01*
Y20250D01*
X93748Y20677D01*
X94239Y21168D01*
X95000Y23005D01*
Y24995D01*
X94239Y26832D01*
X92832Y28239D01*
X90995Y29000D01*
X89005D01*
X87438Y28351D01*
X87239Y28832D01*
X85832Y30239D01*
X83995Y31000D01*
X82958D01*
X82001Y32005D01*
X82000Y32173D01*
Y33995D01*
X81239Y35832D01*
X79832Y37239D01*
X77995Y38000D01*
X76005D01*
X74168Y37239D01*
X72761Y35832D01*
X72000Y33995D01*
Y32005D01*
X72524Y30741D01*
X71552Y29769D01*
X70995Y30000D01*
X69005D01*
X67168Y29239D01*
X66712Y28783D01*
X65442Y29309D01*
Y42186D01*
X66832Y42761D01*
X68239Y44168D01*
X69000Y46005D01*
Y47995D01*
X68239Y49832D01*
X66832Y51239D01*
X64995Y52000D01*
X63005D01*
X62000Y52672D01*
Y52995D01*
X61239Y54832D01*
X59832Y56239D01*
X57994Y57000D01*
D02*
G37*
G36*
X49230Y24331D02*
X48842Y24253D01*
X47436Y23314D01*
X46497Y21908D01*
X46167Y20250D01*
Y16770D01*
X49230D01*
Y24331D01*
D02*
G37*
G36*
Y14230D02*
X46167D01*
Y10750D01*
X46497Y9092D01*
X47436Y7686D01*
X48842Y6747D01*
X49230Y6669D01*
Y14230D01*
D02*
G37*
G36*
X419500Y165730D02*
X415020D01*
Y161000D01*
X419500D01*
Y165730D01*
D02*
G37*
G36*
X412480D02*
X408000D01*
Y161000D01*
X412480D01*
Y165730D01*
D02*
G37*
G36*
X332230Y50600D02*
X327900D01*
Y46270D01*
X332230D01*
Y50600D01*
D02*
G37*
G36*
Y43730D02*
X327900D01*
Y39400D01*
X332230D01*
Y43730D01*
D02*
G37*
G36*
X312040Y39602D02*
Y34540D01*
X317102D01*
X316955Y35088D01*
X315902Y36912D01*
X314412Y38402D01*
X312588Y39455D01*
X312040Y39602D01*
D02*
G37*
G36*
X306960Y39602D02*
X306412Y39455D01*
X304588Y38402D01*
X303098Y36912D01*
X302045Y35088D01*
X301898Y34540D01*
X306960D01*
Y39602D01*
D02*
G37*
G36*
X261581Y37258D02*
X258059Y33737D01*
X261581Y30215D01*
X265102Y33737D01*
X261581Y37258D01*
D02*
G37*
G36*
X256263Y31941D02*
X252742Y28419D01*
X256263Y24898D01*
X259785Y28419D01*
X256263Y31941D01*
D02*
G37*
G36*
X317102Y29460D02*
X312040D01*
Y24398D01*
X312588Y24545D01*
X314412Y25598D01*
X315902Y27088D01*
X316955Y28912D01*
X317102Y29460D01*
D02*
G37*
G36*
X306960D02*
X301898D01*
X302045Y28912D01*
X303098Y27088D01*
X304588Y25598D01*
X306412Y24545D01*
X306960Y24398D01*
Y29460D01*
D02*
G37*
G36*
X300040Y19154D02*
Y12540D01*
X306654D01*
X306353Y13667D01*
X305102Y15833D01*
X303333Y17602D01*
X301167Y18853D01*
X300040Y19154D01*
D02*
G37*
G36*
X294960D02*
X293833Y18853D01*
X291667Y17602D01*
X289898Y15833D01*
X288647Y13667D01*
X288346Y12540D01*
X294960D01*
Y19154D01*
D02*
G37*
%LPD*%
D18*
X167000Y141250D02*
D03*
Y156750D02*
D03*
D30*
X9000Y79000D02*
D03*
Y129000D02*
D03*
Y179000D02*
D03*
Y279000D02*
D03*
Y229000D02*
D03*
X445000D02*
D03*
Y279000D02*
D03*
Y179000D02*
D03*
Y129000D02*
D03*
Y79000D02*
D03*
Y29000D02*
D03*
D34*
X261000Y8500D02*
X271169Y18670D01*
X284500Y32000D01*
X66000Y216120D02*
Y254000D01*
X445000Y28000D02*
Y29000D01*
X406500Y78500D02*
X423000Y95000D01*
X410370Y228850D02*
X444850D01*
X66000Y254000D02*
Y286276D01*
X59276Y293000D02*
X66000Y286276D01*
X49650Y293000D02*
X59276D01*
X332500Y10000D02*
X345300Y22800D01*
Y76650D01*
X278975Y78500D02*
X344000D01*
X268475Y68000D02*
X278975Y78500D01*
X359730Y121470D02*
Y208561D01*
Y121470D02*
X402700Y78500D01*
X236105Y216000D02*
X352290D01*
X359730Y208561D01*
X402700Y78500D02*
X404000D01*
X373700Y133800D02*
X404000Y103500D01*
X373700Y253700D02*
X399000Y279000D01*
X373700Y133800D02*
Y253700D01*
X423000Y95000D02*
Y137000D01*
X408150Y151850D02*
X423000Y137000D01*
X405550Y78750D02*
X444750D01*
X47750Y254000D02*
X66000D01*
Y204700D02*
Y216120D01*
X235985Y216120D01*
X236105Y216000D01*
X47750Y204700D02*
X66000D01*
X233750Y68000D02*
X268475D01*
X445000Y29000D02*
Y79000D01*
X202400Y68000D02*
X218250D01*
X399000Y279000D02*
X445000D01*
X444850Y228850D02*
X445000Y229000D01*
X444750Y78750D02*
X445000Y79000D01*
D35*
X341750Y229250D02*
X342000Y229000D01*
X341750Y229250D02*
Y237850D01*
X338000Y241600D02*
X341750Y237850D01*
D36*
X289500Y182500D02*
X290000Y182000D01*
X289500Y182500D02*
X289500Y182500D01*
Y174500D02*
Y182500D01*
X283000Y182500D02*
X289500D01*
X116000Y145750D02*
Y146000D01*
X75000Y116000D02*
Y117816D01*
X139900Y186308D02*
Y191900D01*
X142184Y185000D02*
X146000D01*
X75000Y117816D02*
X142184Y185000D01*
X70000Y98000D02*
Y116408D01*
X139900Y186308D01*
X134000Y184000D02*
Y194000D01*
X63500Y95500D02*
Y113500D01*
X134000Y184000D01*
X88457Y102167D02*
X89500Y101124D01*
Y95500D02*
Y101124D01*
X88457Y102167D02*
Y102543D01*
X75000Y116000D02*
X88457Y102543D01*
X76250Y96250D02*
Y104750D01*
X76000Y105000D02*
X76250Y104750D01*
X76000Y96000D02*
X76250Y96250D01*
X45368Y235000D02*
X45383Y235015D01*
X48015D02*
X53750Y240750D01*
X45383Y235015D02*
X48015D01*
X32000Y235000D02*
X45368D01*
X28000Y239000D02*
Y262000D01*
Y239000D02*
X32000Y235000D01*
X53750Y240750D02*
Y241000D01*
X90000Y227000D02*
Y239000D01*
X83000Y246000D02*
X90000Y239000D01*
X83000Y156000D02*
Y189000D01*
X91000Y197000D01*
X70000Y146000D02*
X71000Y145000D01*
X70000Y146000D02*
Y154500D01*
X48000Y154000D02*
X50000D01*
X50500Y154500D01*
X50250Y95750D02*
X50500Y95500D01*
X50250Y87250D02*
Y95750D01*
X50000Y87000D02*
X50250Y87250D01*
X50000Y96000D02*
X50250Y95750D01*
X57000Y104000D02*
X57000Y104000D01*
Y95500D02*
Y104000D01*
X76000Y96000D02*
X76500Y95500D01*
X89500Y74500D02*
X91500D01*
X89750Y23750D02*
X90000Y24000D01*
X89500Y15500D02*
X89750Y15750D01*
Y23750D01*
X70000Y15500D02*
Y25000D01*
X270419Y19419D02*
Y19581D01*
X263500Y182500D02*
Y191500D01*
X270000Y133000D02*
X272000Y135000D01*
X270000Y123500D02*
Y133000D01*
X289500Y123500D02*
Y132500D01*
X57000Y17000D02*
Y52000D01*
X57000Y52000D02*
X57000Y52000D01*
X57000Y17000D02*
X57000Y17000D01*
X83293Y87707D02*
X85000Y86000D01*
X83000Y92000D02*
X83293Y91707D01*
Y87707D02*
Y91707D01*
X85000Y86000D02*
X95000D01*
X100000Y81000D01*
X276905Y128405D02*
Y142095D01*
X276250Y127750D02*
X276905Y128405D01*
X276000Y143000D02*
X276905Y142095D01*
X267000Y142000D02*
X278000Y153000D01*
X283000Y113000D02*
Y122000D01*
X278000Y153000D02*
X311250D01*
X267000Y107000D02*
X296000D01*
X306000Y97000D01*
X242049Y165967D02*
X253375D01*
X255948Y168540D02*
X267540D01*
X243000Y158000D02*
X249000D01*
X257000Y166000D01*
X293000D01*
X267540Y168540D02*
X270000Y171000D01*
X253375Y165967D02*
X255948Y168540D01*
X270000Y171000D02*
Y178000D01*
X144000Y204000D02*
X145000Y203000D01*
X151270D01*
X151000Y190000D02*
X151270D01*
X146000Y185000D02*
X151000Y190000D01*
X157000Y185000D02*
Y192000D01*
X151000Y198000D02*
X157000Y192000D01*
X153000Y181000D02*
X157000Y185000D01*
X138000Y198000D02*
X151000D01*
X228500Y186000D02*
X231000D01*
X222500Y180000D02*
X228500Y186000D01*
X168000Y180000D02*
X222500D01*
X202460Y182540D02*
X214540D01*
X199000Y186000D02*
X202460Y182540D01*
X214540D02*
X222540Y190540D01*
X134000Y194000D02*
X138000Y198000D01*
X160000Y151063D02*
Y189000D01*
X164000Y193000D01*
X153937Y145000D02*
X160000Y151063D01*
X153000Y145000D02*
X153937D01*
X63500Y46500D02*
X64000Y47000D01*
X63500Y15500D02*
Y46500D01*
X76750Y32750D02*
X77000Y33000D01*
X76750Y18750D02*
Y32750D01*
X276000Y186000D02*
X276750Y186750D01*
Y193750D01*
X277000Y194000D01*
X199000Y206000D02*
X201000Y204000D01*
X176500Y206000D02*
X199000D01*
X170000Y199500D02*
X176500Y206000D01*
X168000Y199500D02*
X170000D01*
X261000Y146000D02*
X271000Y156000D01*
X261000Y138121D02*
Y146000D01*
Y138121D02*
X263500Y135621D01*
Y123500D02*
Y135621D01*
X76000Y18000D02*
X76750Y18750D01*
X306000Y97000D02*
X327000D01*
X83000Y20000D02*
Y26000D01*
X301000Y205000D02*
X309000D01*
X311000Y203000D01*
X300000Y173000D02*
Y186000D01*
X63000Y154000D02*
X63250Y153750D01*
X293000Y166000D02*
X300000Y173000D01*
X150000Y153000D02*
X155000D01*
X136000Y139000D02*
X150000Y153000D01*
X106000Y139000D02*
X136000D01*
X136986Y102095D02*
X139095D01*
X130195Y99405D02*
X139300Y90300D01*
X100000Y102000D02*
X136891D01*
X100000Y93000D02*
X106405Y99405D01*
X136891Y102000D02*
X136986Y102095D01*
X139095D02*
X140000Y103000D01*
X106405Y99405D02*
X130195D01*
X63000Y146000D02*
X63250Y146250D01*
Y153750D01*
X63000Y154000D02*
X63500Y154500D01*
X60000Y163318D02*
X63777Y167095D01*
X57618Y160742D02*
X60000Y163124D01*
X65095Y167095D02*
X66000Y168000D01*
X60000Y163124D02*
Y163318D01*
X63777Y167095D02*
X65095D01*
X57618Y159382D02*
Y160742D01*
X76250Y159250D02*
Y167750D01*
X76000Y168000D02*
X76250Y167750D01*
X76000Y159000D02*
X76250Y159250D01*
X100000Y61000D02*
Y81000D01*
X249008Y178385D02*
X251000Y180377D01*
X244385Y178385D02*
X249008D01*
X251000Y180377D02*
Y181000D01*
X236000Y170000D02*
X244385Y178385D01*
X413750Y167000D02*
X414000D01*
X153000Y227000D02*
Y229000D01*
X136000Y246000D02*
X153000Y229000D01*
X136000Y246000D02*
Y289000D01*
X142750Y295750D02*
Y296000D01*
X136000Y289000D02*
X142750Y295750D01*
Y255000D02*
X143000D01*
X257000Y185000D02*
Y195000D01*
X252500Y199500D02*
X257000Y195000D01*
X231000Y199500D02*
X252500D01*
X226540Y207540D02*
X291460D01*
X222540Y199948D02*
X227592Y205000D01*
X290000D02*
X322000Y173000D01*
X227592Y205000D02*
X290000D01*
X291460Y207540D02*
X313000Y186000D01*
X220000Y201000D02*
X226540Y207540D01*
X190000Y199500D02*
X196500D01*
X199000Y197000D01*
Y186000D02*
Y197000D01*
X222540Y190540D02*
Y199948D01*
X214500Y186500D02*
X220000Y192000D01*
Y201000D01*
X322000Y173000D02*
X327000D01*
X400250Y191750D02*
Y192000D01*
X209000Y186500D02*
X214500D01*
X313000Y186000D02*
X327000D01*
X400250Y216000D02*
Y216250D01*
X394000Y173500D02*
Y185500D01*
X400250Y167000D02*
Y167250D01*
X394000Y173500D02*
X400250Y167250D01*
X394000Y185500D02*
X400250Y191750D01*
X410370Y178850D02*
X413750Y182230D01*
X410220Y178700D02*
X410370Y178850D01*
X413750Y182230D02*
Y192000D01*
X406250Y178700D02*
X410220D01*
X397135Y219365D02*
X400250Y216250D01*
X390500Y222500D02*
X393635Y219365D01*
X397135D01*
X390500Y222500D02*
Y234000D01*
X400250Y243750D01*
Y244000D01*
X406250Y228850D02*
X410370D01*
X413750Y232230D02*
Y244000D01*
X410370Y228850D02*
X413750Y232230D01*
X40000Y169000D02*
X40250D01*
X40000Y218000D02*
X40250D01*
D38*
X234000Y69000D02*
Y89000D01*
X218250Y69500D02*
X226000Y77250D01*
Y83000D01*
X207000Y120000D02*
Y129000D01*
X196000Y140000D02*
X207000Y129000D01*
X189925Y114000D02*
X190000D01*
X186000Y117925D02*
Y120000D01*
Y117925D02*
X189925Y114000D01*
X218250Y68000D02*
Y69500D01*
X324750Y153000D02*
X325050Y153300D01*
X341750D01*
X324750Y203000D02*
X325050Y203300D01*
X341750D01*
X128550Y204700D02*
X129250Y204000D01*
X112250Y204700D02*
X128550D01*
X112250Y254700D02*
X128950D01*
X129250Y255000D01*
X128950Y295700D02*
X129250Y296000D01*
X112250Y295700D02*
X128950D01*
X173650Y131650D02*
X182000Y140000D01*
X196000D01*
X171000Y109000D02*
X176000D01*
X180000Y113000D01*
Y130000D01*
X167000Y113000D02*
X171000Y109000D01*
X167000Y113000D02*
Y141250D01*
X116000Y122000D02*
X116250Y121750D01*
X116000Y123000D02*
Y132250D01*
X160700Y121750D02*
X160950Y122000D01*
X116250Y121750D02*
X160700D01*
X167000Y156500D02*
X182000Y141500D01*
Y140000D02*
Y141500D01*
X167000Y156500D02*
Y156750D01*
X164000Y145000D02*
X167000Y142000D01*
X173150Y63000D02*
X174000D01*
X164150Y54000D02*
X173150Y63000D01*
X141250Y54000D02*
X164150D01*
X173650Y78650D02*
X192750Y97750D01*
X173650Y68000D02*
Y78650D01*
X192750Y97750D02*
X215000D01*
X213750Y84250D02*
X215000Y83000D01*
X186350Y68000D02*
Y72500D01*
X198100Y84250D01*
X213750D01*
X180000Y130000D02*
X184000Y134000D01*
X191550D01*
X199050Y126500D01*
Y122000D02*
Y126500D01*
X173650Y122000D02*
Y131650D01*
D39*
X284500Y32000D02*
D03*
X309500D02*
D03*
D40*
X297500Y10000D02*
D03*
X332500D02*
D03*
X338000Y267000D02*
D03*
Y292400D02*
D03*
Y140000D02*
D03*
X116000Y90000D02*
D03*
D41*
X338000Y241600D02*
D03*
Y114600D02*
D03*
X116000Y64600D02*
D03*
D42*
X238000Y17000D02*
D03*
X342000Y190000D02*
D03*
X347000Y227000D02*
D03*
X341000D02*
D03*
X342000Y183000D02*
D03*
X234000Y89000D02*
D03*
X226000Y83000D02*
D03*
X207000Y120000D02*
D03*
X190000Y114000D02*
D03*
X125000Y22000D02*
D03*
X119000Y32000D02*
D03*
X107000Y12000D02*
D03*
X119000Y22000D02*
D03*
X107000Y32000D02*
D03*
X113000Y12000D02*
D03*
X119000D02*
D03*
X122000Y27000D02*
D03*
Y17000D02*
D03*
X116000Y27000D02*
D03*
Y17000D02*
D03*
X110000D02*
D03*
X125000Y12000D02*
D03*
X113000Y22000D02*
D03*
X107000D02*
D03*
X125000Y32000D02*
D03*
X110000Y27000D02*
D03*
X113000Y32000D02*
D03*
X220000Y17000D02*
D03*
X232000D02*
D03*
X116000Y146000D02*
D03*
X76000Y105000D02*
D03*
X28000Y279000D02*
D03*
Y262000D02*
D03*
X81000Y232000D02*
D03*
X77000Y227000D02*
D03*
X90000D02*
D03*
X81000Y200000D02*
D03*
X77000Y205000D02*
D03*
X83000Y246000D02*
D03*
X91000Y197000D02*
D03*
X103000Y192000D02*
D03*
X71000Y145000D02*
D03*
X48000Y154000D02*
D03*
X50000Y87000D02*
D03*
X57000Y104000D02*
D03*
X91500Y74500D02*
D03*
X90000Y24000D02*
D03*
X70000Y25000D02*
D03*
X270419Y19419D02*
D03*
X263500Y191500D02*
D03*
X289500Y174500D02*
D03*
X272000Y135000D02*
D03*
X289500Y132500D02*
D03*
X57000Y52000D02*
D03*
X283000Y113000D02*
D03*
X267000Y142000D02*
D03*
X151270Y203000D02*
D03*
Y190000D02*
D03*
X139900Y191900D02*
D03*
X168000Y180000D02*
D03*
X153000Y181000D02*
D03*
X112250Y178500D02*
D03*
X153000Y145000D02*
D03*
X64000Y47000D02*
D03*
X77000Y33000D02*
D03*
X277000Y194000D02*
D03*
X201000Y204000D02*
D03*
X237000Y193000D02*
D03*
X271000Y156000D02*
D03*
X327000Y97000D02*
D03*
X83000Y26000D02*
D03*
X267000Y107000D02*
D03*
X301000Y205000D02*
D03*
X300000Y186000D02*
D03*
X243000Y158000D02*
D03*
X155000Y153000D02*
D03*
X106000Y139000D02*
D03*
X63000Y146000D02*
D03*
X66000Y168000D02*
D03*
X100000Y93000D02*
D03*
X139300Y90300D02*
D03*
X76000Y168000D02*
D03*
X100000Y102000D02*
D03*
X140000Y103000D02*
D03*
X100000Y61000D02*
D03*
X242049Y165967D02*
D03*
X236000Y170000D02*
D03*
X257000Y116000D02*
D03*
X414000Y216000D02*
D03*
Y167000D02*
D03*
X276000Y143000D02*
D03*
X184000Y193000D02*
D03*
X153000Y227000D02*
D03*
X143000Y255000D02*
D03*
X327000Y173000D02*
D03*
X400250Y191750D02*
D03*
X327000Y186000D02*
D03*
X400250Y216000D02*
D03*
X214000Y200000D02*
D03*
X204000Y193000D02*
D03*
X40000Y169000D02*
D03*
Y191000D02*
D03*
Y218000D02*
D03*
Y241000D02*
D03*
Y280000D02*
D03*
X112000Y229000D02*
D03*
X315000Y230000D02*
D03*
X161000Y68000D02*
D03*
X139000Y230000D02*
D03*
X197000Y158000D02*
D03*
X200000Y163000D02*
D03*
X203000Y158000D02*
D03*
X206000Y163000D02*
D03*
X209000Y158000D02*
D03*
X212000Y163000D02*
D03*
X215000Y158000D02*
D03*
X212000Y153000D02*
D03*
X206000D02*
D03*
X200000D02*
D03*
X197000Y148000D02*
D03*
X203000D02*
D03*
X209000D02*
D03*
X215000D02*
D03*
X206000Y143000D02*
D03*
X212000D02*
D03*
X209000Y138000D02*
D03*
X215000D02*
D03*
X227000D02*
D03*
X221000D02*
D03*
X218000Y143000D02*
D03*
X224000D02*
D03*
X227000Y148000D02*
D03*
X221000D02*
D03*
X218000Y153000D02*
D03*
X224000D02*
D03*
X227000Y158000D02*
D03*
X221000D02*
D03*
X218000Y163000D02*
D03*
X224000D02*
D03*
X227000Y168000D02*
D03*
X221000D02*
D03*
X215000D02*
D03*
X209000D02*
D03*
X203000D02*
D03*
X197000D02*
D03*
X194000Y18000D02*
D03*
X197000Y23000D02*
D03*
X194000Y28000D02*
D03*
X188000D02*
D03*
X182000D02*
D03*
X176000D02*
D03*
X191000Y23000D02*
D03*
X188000Y18000D02*
D03*
X185000Y23000D02*
D03*
X179000D02*
D03*
X170000Y18000D02*
D03*
X176000D02*
D03*
X182000D02*
D03*
X173000Y23000D02*
D03*
X167000D02*
D03*
X152000Y38000D02*
D03*
X149000Y33000D02*
D03*
X164000Y38000D02*
D03*
X146000Y28000D02*
D03*
X152000D02*
D03*
X164000Y18000D02*
D03*
X149000Y23000D02*
D03*
X155000D02*
D03*
Y33000D02*
D03*
X161000Y23000D02*
D03*
Y33000D02*
D03*
X158000Y18000D02*
D03*
X152000D02*
D03*
X146000Y38000D02*
D03*
X158000Y28000D02*
D03*
X146000Y18000D02*
D03*
X158000Y38000D02*
D03*
X164000Y28000D02*
D03*
X226000Y17000D02*
D03*
X361000Y35000D02*
D03*
Y29000D02*
D03*
X366000Y32000D02*
D03*
X220000Y27000D02*
D03*
X232000D02*
D03*
X241000Y22000D02*
D03*
X235000D02*
D03*
X223000D02*
D03*
X226000Y27000D02*
D03*
X229000Y22000D02*
D03*
X238000Y27000D02*
D03*
D43*
X50500Y154500D02*
D03*
X57000D02*
D03*
X63500D02*
D03*
X70000D02*
D03*
X76500D02*
D03*
X83000D02*
D03*
X89500D02*
D03*
X50500Y95500D02*
D03*
X57000Y95500D02*
D03*
X63500Y95500D02*
D03*
X70000Y95500D02*
D03*
X76500Y95500D02*
D03*
X83000Y95500D02*
D03*
X89500Y95500D02*
D03*
X289500Y123500D02*
D03*
X283000D02*
D03*
X276500D02*
D03*
X270000D02*
D03*
X263500D02*
D03*
X257000D02*
D03*
X250500D02*
D03*
X289500Y182500D02*
D03*
X283000D02*
D03*
X276500D02*
D03*
X270000D02*
D03*
X263500D02*
D03*
X257000D02*
D03*
X250500D02*
D03*
X89500Y15500D02*
D03*
X83000D02*
D03*
X76500D02*
D03*
X70000D02*
D03*
X63500D02*
D03*
X57000D02*
D03*
X50500D02*
D03*
X89500Y74500D02*
D03*
X83000D02*
D03*
X76500D02*
D03*
X70000D02*
D03*
X63500D02*
D03*
X57000D02*
D03*
X50500D02*
D03*
D44*
X413750Y167000D02*
D03*
X400250D02*
D03*
Y192000D02*
D03*
X413750D02*
D03*
Y216000D02*
D03*
X400250D02*
D03*
Y244000D02*
D03*
X413750D02*
D03*
X121750Y192000D02*
D03*
X108250D02*
D03*
X53750Y191000D02*
D03*
X40250D02*
D03*
X53750Y241000D02*
D03*
X40250D02*
D03*
Y169000D02*
D03*
X53750D02*
D03*
X40250Y218000D02*
D03*
X53750D02*
D03*
X40250Y280000D02*
D03*
X53750D02*
D03*
X142750Y204000D02*
D03*
X129250D02*
D03*
X311250Y153000D02*
D03*
X324750D02*
D03*
X142750Y296000D02*
D03*
X129250D02*
D03*
X142750Y255000D02*
D03*
X129250D02*
D03*
X311250Y203000D02*
D03*
X324750D02*
D03*
D45*
X342500Y45000D02*
D03*
X333500D02*
D03*
D46*
X270419Y19581D02*
D03*
X261581Y28419D02*
D03*
D47*
X231000Y199500D02*
D03*
X231000Y193000D02*
D03*
X231000Y186500D02*
D03*
X209000Y199500D02*
D03*
X209000Y193000D02*
D03*
X168000Y186500D02*
D03*
Y193000D02*
D03*
Y199500D02*
D03*
X190000Y186500D02*
D03*
Y193000D02*
D03*
D48*
X209000Y186500D02*
D03*
X190000Y199500D02*
D03*
D49*
X116000Y145750D02*
D03*
Y132250D02*
D03*
Y121750D02*
D03*
Y108250D02*
D03*
X215000Y84250D02*
D03*
Y97750D02*
D03*
D50*
X233750Y68000D02*
D03*
X218250D02*
D03*
D51*
X141250Y54000D02*
D03*
X128750D02*
D03*
D52*
X160950Y122000D02*
D03*
X173650D02*
D03*
X186350D02*
D03*
X199050D02*
D03*
X160950Y68000D02*
D03*
X173650D02*
D03*
X186350D02*
D03*
D53*
X199050D02*
D03*
D54*
X344000Y78500D02*
D03*
D55*
Y103500D02*
D03*
X404000Y78500D02*
D03*
Y103500D02*
D03*
D56*
X47750Y270300D02*
D03*
Y295700D02*
D03*
X112250Y270300D02*
D03*
X406250Y178700D02*
D03*
Y153300D02*
D03*
X341750Y178700D02*
D03*
X47750Y179300D02*
D03*
Y204700D02*
D03*
X112250Y179300D02*
D03*
X47750Y229300D02*
D03*
Y254700D02*
D03*
X112250Y229300D02*
D03*
X406250Y228700D02*
D03*
Y203300D02*
D03*
X341750Y228700D02*
D03*
D57*
X112250Y295700D02*
D03*
X341750Y153300D02*
D03*
X112250Y204700D02*
D03*
Y254700D02*
D03*
X341750Y203300D02*
D03*
D58*
X130000Y6064D02*
X258056D01*
D59*
X258310Y5810D02*
X261000Y8500D01*
X9150Y229150D02*
X47750D01*
X387000Y194860D02*
X395439Y203300D01*
X387000Y164000D02*
Y194860D01*
Y164000D02*
X397700Y153300D01*
X410370Y178850D02*
X444850D01*
X397700Y153300D02*
X406250D01*
X40000Y280000D02*
X40250D01*
X9150Y179150D02*
X47750D01*
X52190Y174860D02*
X53690Y173360D01*
X51380Y179300D02*
X52190Y178490D01*
X53690Y169060D02*
X53750Y169000D01*
X53690Y169060D02*
Y173360D01*
X52190Y174860D02*
Y178490D01*
X47750Y179300D02*
X51380D01*
Y229300D02*
X52190Y228490D01*
X47750Y229300D02*
X51380D01*
X52190Y224860D02*
Y228490D01*
Y224860D02*
X53690Y223360D01*
Y218060D02*
Y223360D01*
Y218060D02*
X53750Y218000D01*
X52190Y274740D02*
X52690Y275240D01*
X52190Y271110D02*
Y274740D01*
X51380Y270300D02*
X52190Y271110D01*
X52690Y279940D02*
X52750Y280000D01*
X52690Y275240D02*
Y279940D01*
X47750Y270300D02*
X51380D01*
X11268Y279000D02*
X19968Y270300D01*
X9000Y279000D02*
X11268D01*
X19968Y270300D02*
X47750D01*
X395439Y203300D02*
X406250D01*
X9000Y179000D02*
X9150Y179150D01*
X9000Y229000D02*
X9150Y229150D01*
X444850Y178850D02*
X445000Y179000D01*
M02*
