M48
;Layer_Color=9474304
;FILE_FORMAT=4:4
METRIC,LZ
;TYPE=PLATED
T1F00S00C0.3000
T2F00S00C0.7000
T3F00S00C0.9000
T4F00S00C1.0000
T5F00S00C1.2000
%
T01
X0007Y00025
X00083Y00026
X0009Y00024
X00107Y00022
X00113
X00119
X00125
X00122Y00017
X00116
X0011
X00113Y00012
X00119
X00125
X00107
X0011Y00027
X00116
X00122
X00125Y00032
X00119
X00113
X00107
X00077Y00033
X00064Y00047
X00057Y00052
X0005Y00087
X00057Y00104
X00076Y00105
X001Y00102
Y00093
X000915Y000745
X001Y00061
X00161Y00068
X00164Y00038
X00158
X00152
X00146
X00149Y00033
X00155
X00161
X00164Y00028
X00158
X00152
X00146
X00149Y00023
X00155
X00161
X00167
X00173
X00179
X00185
X00188Y00028
X00182
X00176
Y00018
X00182
X00188
X0017
X00164
X00158
X00152
X00146
X001393Y000903
X0014Y00103
X00153Y00145
X00155Y00153
X00153Y00181
X0015127Y0019
X00168Y0018
X0011225Y001785
X00116Y00146
X00106Y00139
X00071Y00145
X00063Y00146
X00048Y00154
X0004Y00169
X00066Y00168
X00076
X0019Y00114
X00207Y0012
X00209Y00138
X00215
X00221
X00227
X00224Y00143
X00218
X00212
X00206
X00203Y00148
X00197
X002Y00153
X00206
X00212
X00218
X00224
X00227Y00148
X00221
X00215
X00209
Y00158
X00203
X00197
X002Y00163
X00206
X00212
X00218
X00224
X00227Y00168
X00221
X00215
X00209
X00203
X00197
X00215Y00158
X00221
X00227
X00243
X00242049Y00165967
X00236Y0017
X00271Y00156
X00267Y00142
X00276Y00143
X00272Y00135
X002895Y001325
X00283Y00113
X00267Y00107
X00257Y00116
X00234Y00089
X00226Y00083
Y00027
X00232
X00238
X00241Y00022
X00235
X00229
X00223
X00226Y00017
X00232
X00238
X0022
Y00027
X00197Y00023
X00191
X00194Y00028
Y00018
X00270419Y00019419
X00361Y00029
Y00035
X00366Y00032
X00327Y00097
Y00173
Y00186
X00342Y00183
Y0019
X003Y00186
X002895Y001745
X00414Y00167
X0040025Y0019175
Y00216
X00414
X00347Y00227
X00341
X00315Y0023
X00301Y00205
X00277Y00194
X002635Y001915
X00237Y00193
X00214Y002
X00201Y00204
X00204Y00193
X00184
X0015127Y00203
X001399Y001919
X00103Y00192
X00091Y00197
X00081Y002
X00077Y00205
Y00227
X00081Y00232
X0009Y00227
X00112Y00229
X00139Y0023
X00153Y00227
X00143Y00255
X00083Y00246
X0004Y00241
Y00218
Y00191
X00028Y00262
Y00279
X0004Y0028
T02
X002845Y00032
X003095
T03
X00116Y000646
Y0009
X00338Y001146
Y0014
Y002416
Y00267
Y002924
T04
X002975Y0001
X003325
T05
X00009Y00079
Y00129
Y00179
X00445
Y00129
Y00079
Y00029
Y00229
Y00279
X00009
Y00229
M30
