G04*
G04 #@! TF.GenerationSoftware,Altium Limited,Altium Designer,21.5.1 (32)*
G04*
G04 Layer_Color=255*
%FSLAX44Y44*%
%MOMM*%
G71*
G04*
G04 #@! TF.SameCoordinates,1A9D99B6-757D-47D3-AC02-DEC98ADE21AD*
G04*
G04*
G04 #@! TF.FilePolarity,Positive*
G04*
G01*
G75*
%ADD18R,0.9000X0.9500*%
%ADD30C,1.6000*%
%ADD39C,1.2000*%
%ADD40C,1.5000*%
%ADD41R,1.5000X1.5000*%
%ADD43O,0.4500X1.4000*%
%ADD44R,0.7500X0.8000*%
%ADD45R,0.7200X0.7200*%
%ADD46P,1.2021X4X270.0*%
%ADD47O,0.8000X0.4000*%
%ADD48R,0.8000X0.4000*%
%ADD49R,0.8000X0.7500*%
%ADD50R,0.9500X1.2500*%
%ADD51R,0.8500X0.8500*%
%ADD52O,0.6000X1.5000*%
%ADD53R,0.6000X1.5000*%
%ADD54R,1.9000X0.9000*%
%ADD55O,1.9000X0.9000*%
%ADD56O,1.6500X0.6000*%
%ADD57R,1.6500X0.6000*%
D18*
X167000Y141250D02*
D03*
Y156750D02*
D03*
D30*
X9000Y79000D02*
D03*
Y129000D02*
D03*
Y179000D02*
D03*
Y279000D02*
D03*
Y229000D02*
D03*
X445000D02*
D03*
Y279000D02*
D03*
Y179000D02*
D03*
Y129000D02*
D03*
Y79000D02*
D03*
Y29000D02*
D03*
D39*
X284500Y32000D02*
D03*
X309500D02*
D03*
D40*
X297500Y10000D02*
D03*
X332500D02*
D03*
X338000Y267000D02*
D03*
Y292400D02*
D03*
Y140000D02*
D03*
X116000Y90000D02*
D03*
D41*
X338000Y241600D02*
D03*
Y114600D02*
D03*
X116000Y64600D02*
D03*
D43*
X50500Y154500D02*
D03*
X57000D02*
D03*
X63500D02*
D03*
X70000D02*
D03*
X76500D02*
D03*
X83000D02*
D03*
X89500D02*
D03*
X50500Y95500D02*
D03*
X57000Y95500D02*
D03*
X63500Y95500D02*
D03*
X70000Y95500D02*
D03*
X76500Y95500D02*
D03*
X83000Y95500D02*
D03*
X89500Y95500D02*
D03*
X289500Y123500D02*
D03*
X283000D02*
D03*
X276500D02*
D03*
X270000D02*
D03*
X263500D02*
D03*
X257000D02*
D03*
X250500D02*
D03*
X289500Y182500D02*
D03*
X283000D02*
D03*
X276500D02*
D03*
X270000D02*
D03*
X263500D02*
D03*
X257000D02*
D03*
X250500D02*
D03*
X89500Y15500D02*
D03*
X83000D02*
D03*
X76500D02*
D03*
X70000D02*
D03*
X63500D02*
D03*
X57000D02*
D03*
X50500D02*
D03*
X89500Y74500D02*
D03*
X83000D02*
D03*
X76500D02*
D03*
X70000D02*
D03*
X63500D02*
D03*
X57000D02*
D03*
X50500D02*
D03*
D44*
X413750Y167000D02*
D03*
X400250D02*
D03*
Y192000D02*
D03*
X413750D02*
D03*
Y216000D02*
D03*
X400250D02*
D03*
Y244000D02*
D03*
X413750D02*
D03*
X121750Y192000D02*
D03*
X108250D02*
D03*
X53750Y191000D02*
D03*
X40250D02*
D03*
X53750Y241000D02*
D03*
X40250D02*
D03*
Y169000D02*
D03*
X53750D02*
D03*
X40250Y218000D02*
D03*
X53750D02*
D03*
X40250Y280000D02*
D03*
X53750D02*
D03*
X142750Y204000D02*
D03*
X129250D02*
D03*
X311250Y153000D02*
D03*
X324750D02*
D03*
X142750Y296000D02*
D03*
X129250D02*
D03*
X142750Y255000D02*
D03*
X129250D02*
D03*
X311250Y203000D02*
D03*
X324750D02*
D03*
D45*
X342500Y45000D02*
D03*
X333500D02*
D03*
D46*
X270419Y19581D02*
D03*
X261581Y28419D02*
D03*
D47*
X231000Y199500D02*
D03*
X231000Y193000D02*
D03*
X231000Y186500D02*
D03*
X209000Y199500D02*
D03*
X209000Y193000D02*
D03*
X168000Y186500D02*
D03*
Y193000D02*
D03*
Y199500D02*
D03*
X190000Y186500D02*
D03*
Y193000D02*
D03*
D48*
X209000Y186500D02*
D03*
X190000Y199500D02*
D03*
D49*
X116000Y145750D02*
D03*
Y132250D02*
D03*
Y121750D02*
D03*
Y108250D02*
D03*
X215000Y84250D02*
D03*
Y97750D02*
D03*
D50*
X233750Y68000D02*
D03*
X218250D02*
D03*
D51*
X141250Y54000D02*
D03*
X128750D02*
D03*
D52*
X160950Y122000D02*
D03*
X173650D02*
D03*
X186350D02*
D03*
X199050D02*
D03*
X160950Y68000D02*
D03*
X173650D02*
D03*
X186350D02*
D03*
D53*
X199050D02*
D03*
D54*
X344000Y78500D02*
D03*
D55*
Y103500D02*
D03*
X404000Y78500D02*
D03*
Y103500D02*
D03*
D56*
X47750Y270300D02*
D03*
Y295700D02*
D03*
X112250Y270300D02*
D03*
X406250Y178700D02*
D03*
Y153300D02*
D03*
X341750Y178700D02*
D03*
X47750Y179300D02*
D03*
Y204700D02*
D03*
X112250Y179300D02*
D03*
X47750Y229300D02*
D03*
Y254700D02*
D03*
X112250Y229300D02*
D03*
X406250Y228700D02*
D03*
Y203300D02*
D03*
X341750Y228700D02*
D03*
D57*
X112250Y295700D02*
D03*
X341750Y153300D02*
D03*
X112250Y204700D02*
D03*
Y254700D02*
D03*
X341750Y203300D02*
D03*
M02*
