G04*
G04 #@! TF.GenerationSoftware,Altium Limited,Altium Designer,21.5.1 (32)*
G04*
G04 Layer_Color=16711935*
%FSLAX44Y44*%
%MOMM*%
G71*
G04*
G04 #@! TF.SameCoordinates,1A9D99B6-757D-47D3-AC02-DEC98ADE21AD*
G04*
G04*
G04 #@! TF.FilePolarity,Negative*
G04*
G01*
G75*
%ADD26R,1.0000X1.0500*%
%ADD29C,1.3000*%
%ADD30C,1.6000*%
%ADD31C,1.7000*%
%ADD32R,1.6000X1.6000*%
%ADD60O,0.5500X1.5000*%
%ADD61R,0.8500X0.9000*%
%ADD62R,0.8200X0.8200*%
%ADD63P,1.3435X4X270.0*%
%ADD64O,0.9000X0.5000*%
%ADD65R,0.9000X0.5000*%
%ADD66R,0.9000X0.8500*%
%ADD67R,1.0500X1.3500*%
%ADD68R,0.9500X0.9500*%
%ADD69O,0.7000X1.6000*%
%ADD70R,0.7000X1.6000*%
%ADD71R,2.0000X1.0000*%
%ADD72O,2.0000X1.0000*%
%ADD73O,1.7500X0.7000*%
%ADD74R,1.7500X0.7000*%
D26*
X167000Y141250D02*
D03*
Y156750D02*
D03*
D29*
X284500Y32000D02*
D03*
X309500D02*
D03*
D30*
X297500Y10000D02*
D03*
X332500D02*
D03*
X338000Y267000D02*
D03*
Y292400D02*
D03*
Y140000D02*
D03*
X116000Y90000D02*
D03*
D31*
X9000Y79000D02*
D03*
Y129000D02*
D03*
Y179000D02*
D03*
Y279000D02*
D03*
Y229000D02*
D03*
X445000D02*
D03*
Y279000D02*
D03*
Y179000D02*
D03*
Y129000D02*
D03*
Y79000D02*
D03*
Y29000D02*
D03*
D32*
X338000Y241600D02*
D03*
Y114600D02*
D03*
X116000Y64600D02*
D03*
D60*
X50500Y154500D02*
D03*
X57000D02*
D03*
X63500D02*
D03*
X70000D02*
D03*
X76500D02*
D03*
X83000D02*
D03*
X89500D02*
D03*
X50500Y95500D02*
D03*
X57000Y95500D02*
D03*
X63500Y95500D02*
D03*
X70000Y95500D02*
D03*
X76500Y95500D02*
D03*
X83000Y95500D02*
D03*
X89500Y95500D02*
D03*
X289500Y123500D02*
D03*
X283000D02*
D03*
X276500D02*
D03*
X270000D02*
D03*
X263500D02*
D03*
X257000D02*
D03*
X250500D02*
D03*
X289500Y182500D02*
D03*
X283000D02*
D03*
X276500D02*
D03*
X270000D02*
D03*
X263500D02*
D03*
X257000D02*
D03*
X250500D02*
D03*
X89500Y15500D02*
D03*
X83000D02*
D03*
X76500D02*
D03*
X70000D02*
D03*
X63500D02*
D03*
X57000D02*
D03*
X50500D02*
D03*
X89500Y74500D02*
D03*
X83000D02*
D03*
X76500D02*
D03*
X70000D02*
D03*
X63500D02*
D03*
X57000D02*
D03*
X50500D02*
D03*
D61*
X413750Y167000D02*
D03*
X400250D02*
D03*
Y192000D02*
D03*
X413750D02*
D03*
Y216000D02*
D03*
X400250D02*
D03*
Y244000D02*
D03*
X413750D02*
D03*
X121750Y192000D02*
D03*
X108250D02*
D03*
X53750Y191000D02*
D03*
X40250D02*
D03*
X53750Y241000D02*
D03*
X40250D02*
D03*
Y169000D02*
D03*
X53750D02*
D03*
X40250Y218000D02*
D03*
X53750D02*
D03*
X40250Y280000D02*
D03*
X53750D02*
D03*
X142750Y204000D02*
D03*
X129250D02*
D03*
X311250Y153000D02*
D03*
X324750D02*
D03*
X142750Y296000D02*
D03*
X129250D02*
D03*
X142750Y255000D02*
D03*
X129250D02*
D03*
X311250Y203000D02*
D03*
X324750D02*
D03*
D62*
X342500Y45000D02*
D03*
X333500D02*
D03*
D63*
X270419Y19581D02*
D03*
X261581Y28419D02*
D03*
D64*
X231000Y199500D02*
D03*
X231000Y193000D02*
D03*
X231000Y186500D02*
D03*
X209000Y199500D02*
D03*
X209000Y193000D02*
D03*
X168000Y186500D02*
D03*
Y193000D02*
D03*
Y199500D02*
D03*
X190000Y186500D02*
D03*
Y193000D02*
D03*
D65*
X209000Y186500D02*
D03*
X190000Y199500D02*
D03*
D66*
X116000Y145750D02*
D03*
Y132250D02*
D03*
Y121750D02*
D03*
Y108250D02*
D03*
X215000Y84250D02*
D03*
Y97750D02*
D03*
D67*
X233750Y68000D02*
D03*
X218250D02*
D03*
D68*
X141250Y54000D02*
D03*
X128750D02*
D03*
D69*
X160950Y122000D02*
D03*
X173650D02*
D03*
X186350D02*
D03*
X199050D02*
D03*
X160950Y68000D02*
D03*
X173650D02*
D03*
X186350D02*
D03*
D70*
X199050D02*
D03*
D71*
X344000Y78500D02*
D03*
D72*
Y103500D02*
D03*
X404000Y78500D02*
D03*
Y103500D02*
D03*
D73*
X47750Y270300D02*
D03*
Y295700D02*
D03*
X112250Y270300D02*
D03*
X406250Y178700D02*
D03*
Y153300D02*
D03*
X341750Y178700D02*
D03*
X47750Y179300D02*
D03*
Y204700D02*
D03*
X112250Y179300D02*
D03*
X47750Y229300D02*
D03*
Y254700D02*
D03*
X112250Y229300D02*
D03*
X406250Y228700D02*
D03*
Y203300D02*
D03*
X341750Y228700D02*
D03*
D74*
X112250Y295700D02*
D03*
X341750Y153300D02*
D03*
X112250Y204700D02*
D03*
Y254700D02*
D03*
X341750Y203300D02*
D03*
M02*
