G04*
G04 #@! TF.GenerationSoftware,Altium Limited,Altium Designer,21.5.1 (32)*
G04*
G04 Layer_Color=255*
%FSLAX44Y44*%
%MOMM*%
G71*
G04*
G04 #@! TF.SameCoordinates,CFFA5049-6A77-40B3-9830-C5A858A461FD*
G04*
G04*
G04 #@! TF.FilePolarity,Positive*
G04*
G01*
G75*
%ADD13R,3.7000X3.7000*%
%ADD14R,1.5000X0.9000*%
%ADD15R,0.9000X1.5000*%
%ADD16R,2.6000X4.0000*%
%ADD17R,2.5500X1.7500*%
%ADD18R,0.9000X0.9500*%
%ADD19R,1.5000X1.4500*%
%ADD20R,0.9500X1.0500*%
%ADD30C,1.6000*%
%ADD39C,1.2000*%
%ADD40C,1.5000*%
%ADD41R,1.5000X1.5000*%
D13*
X212000Y152800D02*
D03*
D14*
X314500Y230000D02*
D03*
Y217300D02*
D03*
Y204600D02*
D03*
Y191900D02*
D03*
Y179200D02*
D03*
Y166500D02*
D03*
Y153800D02*
D03*
Y141100D02*
D03*
Y128400D02*
D03*
Y115700D02*
D03*
Y103000D02*
D03*
Y90300D02*
D03*
Y77600D02*
D03*
Y64900D02*
D03*
X139500D02*
D03*
Y77600D02*
D03*
Y90300D02*
D03*
Y103000D02*
D03*
Y115700D02*
D03*
Y128400D02*
D03*
Y141100D02*
D03*
Y153800D02*
D03*
Y166500D02*
D03*
Y179200D02*
D03*
Y191900D02*
D03*
Y204600D02*
D03*
Y217300D02*
D03*
Y230000D02*
D03*
D15*
X284150Y52400D02*
D03*
X271450D02*
D03*
X258750D02*
D03*
X246050D02*
D03*
X233350D02*
D03*
X220650D02*
D03*
X207950D02*
D03*
X195250D02*
D03*
X182550D02*
D03*
X169850D02*
D03*
D16*
X155500Y22000D02*
D03*
X116500D02*
D03*
D17*
X188000D02*
D03*
X230000D02*
D03*
D18*
X116000Y113250D02*
D03*
Y128750D02*
D03*
D19*
X119000Y235250D02*
D03*
Y216750D02*
D03*
D20*
Y157750D02*
D03*
Y172250D02*
D03*
Y200250D02*
D03*
Y185750D02*
D03*
D30*
X9000Y79000D02*
D03*
Y129000D02*
D03*
Y179000D02*
D03*
Y279000D02*
D03*
Y229000D02*
D03*
X445000D02*
D03*
Y279000D02*
D03*
Y179000D02*
D03*
Y129000D02*
D03*
Y79000D02*
D03*
Y29000D02*
D03*
D39*
X284500Y32000D02*
D03*
X309500D02*
D03*
D40*
X297500Y10000D02*
D03*
X332500D02*
D03*
X338000Y267000D02*
D03*
Y292400D02*
D03*
Y140000D02*
D03*
X116000Y90000D02*
D03*
D41*
X338000Y241600D02*
D03*
Y114600D02*
D03*
X116000Y64600D02*
D03*
M02*
