G04*
G04 #@! TF.GenerationSoftware,Altium Limited,Altium Designer,21.5.1 (32)*
G04*
G04 Layer_Color=65535*
%FSLAX44Y44*%
%MOMM*%
G71*
G04*
G04 #@! TF.SameCoordinates,1A9D99B6-757D-47D3-AC02-DEC98ADE21AD*
G04*
G04*
G04 #@! TF.FilePolarity,Positive*
G04*
G01*
G75*
%ADD10C,0.1500*%
%ADD11C,0.2500*%
%ADD12C,0.2000*%
G36*
X428328Y159090D02*
X428885D01*
Y158951D01*
X429025D01*
Y158672D01*
X429164D01*
Y158255D01*
X429303Y158255D01*
Y157837D01*
X429442D01*
X429442Y157141D01*
X429581D01*
Y156584D01*
X429721D01*
X429721Y155749D01*
X429860D01*
Y154913D01*
X429999D01*
Y153660D01*
X430138D01*
Y151850D01*
X430277D01*
Y148091D01*
X430138D01*
Y146699D01*
X429999D01*
Y145585D01*
X429860D01*
Y145167D01*
X429721D01*
Y145028D01*
X429581D01*
Y147116D01*
X429721D01*
Y148230D01*
X429581D01*
Y151572D01*
X429442D01*
X429442Y153382D01*
X429303D01*
Y153799D01*
X429164D01*
Y153939D01*
X429025D01*
Y153799D01*
X428885D01*
Y152686D01*
X428746D01*
Y151711D01*
X428607D01*
Y150876D01*
X428468D01*
Y150040D01*
X428328D01*
Y149205D01*
X428189Y149205D01*
Y148509D01*
X428050D01*
Y147952D01*
X427911D01*
Y147256D01*
X427771D01*
Y146699D01*
X427632D01*
X427632Y146003D01*
X427493D01*
Y145446D01*
X427354D01*
Y144889D01*
X427215D01*
Y144332D01*
X427075D01*
X427075Y143775D01*
X426936D01*
Y143218D01*
X426797D01*
Y142801D01*
X426658D01*
Y142243D01*
X426518D01*
Y141687D01*
X426379D01*
Y141130D01*
X426658D01*
Y141269D01*
X426936D01*
Y141408D01*
X427215D01*
Y141547D01*
X427493D01*
Y141687D01*
X428050D01*
Y141826D01*
X428468D01*
Y141965D01*
X429164D01*
Y142104D01*
X429303Y142104D01*
X429442Y142104D01*
X430138D01*
Y142661D01*
X430277D01*
Y143357D01*
X429721D01*
X429721Y143218D01*
X429303D01*
Y143357D01*
X429442D01*
Y143914D01*
X429721D01*
Y144053D01*
X429860D01*
Y144193D01*
X429999D01*
Y144332D01*
X430277D01*
Y144471D01*
X430417D01*
Y144610D01*
X430556D01*
Y144750D01*
X430834D01*
Y144889D01*
X430974D01*
Y145028D01*
X431531D01*
Y144889D01*
X431670D01*
Y144610D01*
X431809D01*
Y144332D01*
X431670D01*
Y144053D01*
X431531D01*
Y143775D01*
X431391D01*
Y143497D01*
X431252D01*
Y143218D01*
X431113D01*
Y143079D01*
X430974D01*
Y142801D01*
X431252D01*
Y142940D01*
X431391Y142940D01*
Y142801D01*
X431531D01*
Y142940D01*
X431670D01*
Y143079D01*
X431809D01*
Y143218D01*
X432227D01*
Y143357D01*
X432505D01*
Y143497D01*
X433201D01*
Y143357D01*
X433340D01*
Y142940D01*
X433201D01*
Y142661D01*
X433062D01*
X433062Y142522D01*
X432923D01*
Y142243D01*
X432784D01*
Y142104D01*
X432644D01*
Y141826D01*
X432505D01*
Y141687D01*
X432366D01*
Y141547D01*
X432227D01*
Y141269D01*
X432088D01*
Y141130D01*
X431948D01*
Y140851D01*
X431809D01*
Y140712D01*
X431670D01*
Y140573D01*
X431531D01*
Y140294D01*
X431391D01*
Y140155D01*
X431252D01*
Y140016D01*
X431113Y140016D01*
Y139877D01*
X430974D01*
Y139737D01*
X431113D01*
Y139598D01*
X431252Y139598D01*
Y139459D01*
X431391D01*
Y139598D01*
X431948D01*
Y139737D01*
X432644D01*
Y139877D01*
X433619D01*
Y140016D01*
X434037D01*
X434176Y140016D01*
X434315Y140016D01*
X434594D01*
X434733Y140016D01*
X434872Y140016D01*
X435290D01*
Y139877D01*
X435429D01*
Y139737D01*
X435568D01*
Y139180D01*
X435429D01*
Y138902D01*
X435290D01*
Y138763D01*
X435150D01*
Y138484D01*
X435011D01*
Y138345D01*
X434872D01*
Y138206D01*
X434733D01*
Y137928D01*
X434594D01*
Y137788D01*
X434454D01*
Y137649D01*
X434315D01*
Y137510D01*
X434176D01*
Y137231D01*
X434037Y137231D01*
Y137092D01*
X433898D01*
Y136953D01*
X433758D01*
Y136814D01*
X433619D01*
Y136674D01*
X433480D01*
Y136396D01*
X433341D01*
X433340Y136257D01*
X433201D01*
Y136117D01*
X433062D01*
X433062Y135978D01*
X432923Y135978D01*
Y135839D01*
X432784Y135839D01*
Y135700D01*
X432644D01*
Y135421D01*
X432505D01*
Y135282D01*
X432366D01*
Y135143D01*
X432227D01*
Y135004D01*
X432088D01*
X432088Y134865D01*
X431948D01*
Y134725D01*
X431809D01*
Y134586D01*
X431670D01*
Y134447D01*
X431531D01*
Y134308D01*
X431391Y134308D01*
Y134029D01*
X431252D01*
Y133751D01*
X431531D01*
Y133890D01*
X431948D01*
Y134029D01*
X432644D01*
Y133890D01*
X432784D01*
Y133333D01*
X432644D01*
Y133194D01*
X432505D01*
Y132915D01*
X432366Y132915D01*
Y132776D01*
X432227D01*
Y132637D01*
X432088D01*
Y132498D01*
X431948D01*
Y132358D01*
X431809D01*
Y132219D01*
X431670D01*
Y132080D01*
X431531D01*
Y131941D01*
X431391Y131941D01*
Y131802D01*
X431252Y131801D01*
Y131662D01*
X431113Y131662D01*
Y131523D01*
X430974D01*
Y131384D01*
X430834D01*
Y131245D01*
X430695D01*
X430695Y131105D01*
X430556Y131105D01*
Y130966D01*
X430417D01*
Y130688D01*
X430277D01*
Y129992D01*
X430417D01*
Y129713D01*
X430556D01*
Y129295D01*
X430695D01*
Y128878D01*
X430834Y128878D01*
Y128321D01*
X430974D01*
Y127903D01*
X431113D01*
Y127346D01*
X431252D01*
Y126929D01*
X431391D01*
Y126511D01*
X431531D01*
Y125954D01*
X431670D01*
Y125536D01*
X431809Y125536D01*
Y125119D01*
X431948D01*
Y124701D01*
X432088D01*
Y124422D01*
X431948D01*
Y124144D01*
X431809D01*
Y124005D01*
X431531D01*
X431391Y124005D01*
Y124144D01*
X431252D01*
Y124283D01*
X431113D01*
Y124422D01*
X430974Y124422D01*
Y124562D01*
X430834D01*
Y124701D01*
X430695D01*
Y124840D01*
X430556D01*
Y124979D01*
X430417D01*
Y124144D01*
X430556D01*
Y123169D01*
X430417D01*
Y123030D01*
X429721D01*
Y123169D01*
X429581D01*
Y122752D01*
X429721D01*
X429721Y122334D01*
X429860D01*
Y121359D01*
X429721Y121359D01*
X429581D01*
Y121220D01*
X429442D01*
Y121359D01*
X429303D01*
X429164Y121359D01*
Y121499D01*
X429025D01*
Y121638D01*
X428885D01*
Y121359D01*
X428746Y121359D01*
Y119550D01*
X428885Y119549D01*
Y118853D01*
X428746D01*
Y117043D01*
X428607D01*
Y115790D01*
X428468D01*
Y114677D01*
X428328D01*
Y113841D01*
X428189D01*
Y113006D01*
X428050D01*
Y112170D01*
X427911D01*
Y111335D01*
X427771D01*
Y110639D01*
X427632D01*
Y109803D01*
X427493Y109803D01*
Y108968D01*
X427354D01*
Y108272D01*
X427215D01*
Y107437D01*
X427075D01*
Y106601D01*
X426936D01*
Y105766D01*
X426797Y105766D01*
Y104791D01*
X426658D01*
Y103817D01*
X426518D01*
Y102842D01*
X426379Y102842D01*
X426379Y102146D01*
X426240Y102146D01*
Y101868D01*
X426101D01*
Y101728D01*
X425961D01*
Y101589D01*
X425265D01*
Y101728D01*
X424987D01*
Y101868D01*
X424708D01*
Y102007D01*
X424430D01*
Y102146D01*
X424291Y102146D01*
X424151D01*
Y102285D01*
X423873D01*
Y102424D01*
X423734D01*
Y102564D01*
X423455D01*
Y102703D01*
X423177D01*
Y102842D01*
X423038D01*
Y102981D01*
X422759D01*
Y103121D01*
X422620D01*
Y103260D01*
X422481Y103260D01*
X422342D01*
Y103399D01*
X422202D01*
Y103538D01*
X422063D01*
Y103678D01*
X421924D01*
Y103817D01*
X421645D01*
Y103956D01*
X421506D01*
Y104095D01*
X421367D01*
Y104234D01*
X421228D01*
Y104374D01*
X421088D01*
Y104513D01*
X420949D01*
X420949Y104652D01*
X420671D01*
Y104513D01*
X420810Y104513D01*
Y104234D01*
X420949D01*
Y103817D01*
X421088D01*
Y103538D01*
X421228D01*
Y103260D01*
X421367D01*
X421367Y102842D01*
X421506D01*
Y102564D01*
X421645D01*
Y102285D01*
X421785D01*
Y102146D01*
X421924D01*
Y101589D01*
X421785D01*
Y101450D01*
X421367D01*
X421367Y101589D01*
X421088D01*
Y101728D01*
X420949D01*
Y101868D01*
X420810D01*
Y102007D01*
X420671D01*
Y102146D01*
X420532D01*
Y102285D01*
X420392D01*
Y102424D01*
X420114D01*
Y102564D01*
X419975D01*
Y102703D01*
X419836D01*
Y102842D01*
X419696D01*
Y102981D01*
X419557D01*
Y103121D01*
X419418D01*
Y103260D01*
X419279D01*
Y103399D01*
X419139Y103399D01*
X419139Y103538D01*
X419000D01*
Y103678D01*
X418861D01*
Y103817D01*
X418722D01*
Y103956D01*
X418582D01*
X418443Y103956D01*
Y103817D01*
X418582D01*
Y103399D01*
X418722Y103399D01*
Y102564D01*
X418443D01*
Y102424D01*
X418304D01*
Y102564D01*
X418026D01*
Y102703D01*
X417886D01*
Y102981D01*
X417747D01*
Y103121D01*
X417608D01*
Y103260D01*
X417469D01*
Y103538D01*
X417329D01*
Y103678D01*
X417190D01*
Y103817D01*
X417051D01*
Y104095D01*
X416912D01*
Y104374D01*
X416772D01*
Y104513D01*
X416633D01*
Y104791D01*
X416494D01*
Y103956D01*
X416633D01*
Y102981D01*
X416772D01*
Y101868D01*
X416912D01*
Y100197D01*
X417051D01*
Y98248D01*
X417190D01*
Y96995D01*
X417329D01*
Y96577D01*
X417469D01*
Y96299D01*
X417329D01*
Y96159D01*
X417190D01*
Y96020D01*
X417051Y96020D01*
X416633D01*
Y96159D01*
X416494D01*
X416494Y95742D01*
X416633D01*
Y95463D01*
X416772D01*
Y95185D01*
X416912D01*
Y94906D01*
X417051D01*
Y94628D01*
X417190D01*
Y94349D01*
X417329D01*
Y93932D01*
X417469D01*
Y93653D01*
X417608D01*
Y93375D01*
X417747D01*
Y93096D01*
X417886D01*
X417886Y92818D01*
X418026D01*
Y92400D01*
X418165D01*
Y91982D01*
X418026D01*
Y91843D01*
X417886D01*
Y91704D01*
X417747Y91704D01*
X417469D01*
Y91843D01*
X417329D01*
Y91982D01*
X417190D01*
Y92122D01*
X417051D01*
Y92261D01*
X416912D01*
Y92400D01*
X416772D01*
Y92539D01*
X416633D01*
Y92679D01*
X416494D01*
Y92818D01*
X416355D01*
Y92957D01*
X416216D01*
Y92539D01*
X416355D01*
Y92122D01*
X416494D01*
Y91565D01*
X416633D01*
Y90729D01*
X416494D01*
X416494Y90590D01*
X416355D01*
Y90451D01*
X416076D01*
Y90590D01*
X415937D01*
Y90729D01*
X415798D01*
Y90869D01*
X415659D01*
Y91008D01*
X415519D01*
Y91147D01*
X415380D01*
Y90869D01*
X415519D01*
Y90590D01*
X415380D01*
Y90451D01*
X415519Y90451D01*
X415519Y88919D01*
X415380D01*
Y87388D01*
X415241D01*
Y86692D01*
X415102D01*
Y86413D01*
X414823D01*
Y86274D01*
X414684D01*
Y86135D01*
X414545D01*
Y85578D01*
X414684D01*
Y84743D01*
X414823D01*
Y83768D01*
X414963Y83768D01*
Y82654D01*
X415102Y82654D01*
Y81401D01*
X415241D01*
Y79173D01*
X415380D01*
Y72769D01*
X415241D01*
Y69428D01*
X415102D01*
Y67061D01*
X414963D01*
Y65390D01*
X414823D01*
Y63858D01*
X414684D01*
Y62605D01*
X414545D01*
Y61492D01*
X414406D01*
Y60517D01*
X414266D01*
Y59542D01*
X414127D01*
Y56619D01*
X414266D01*
Y55087D01*
X414406D01*
Y53973D01*
X414266Y53973D01*
Y53834D01*
X413849D01*
Y53695D01*
X413709D01*
Y53277D01*
X413849D01*
Y52860D01*
X413988D01*
Y52720D01*
X413849D01*
Y52442D01*
X413709D01*
Y52303D01*
X413570D01*
Y52163D01*
X413431D01*
Y51606D01*
X413570D01*
Y51189D01*
X413709D01*
Y50493D01*
X413849D01*
Y49657D01*
X413988D01*
Y48683D01*
X414127D01*
Y47151D01*
X413988Y47151D01*
Y47012D01*
X413849D01*
Y46873D01*
X413570D01*
Y47012D01*
X413431Y47012D01*
X413292D01*
Y46873D01*
X413153D01*
Y46733D01*
X413292D01*
Y45759D01*
X413431D01*
Y41025D01*
X413292D01*
Y39494D01*
X413153D01*
Y38519D01*
X413013D01*
Y38380D01*
X412874D01*
X412874Y38241D01*
X412317D01*
Y38380D01*
X412178Y38380D01*
X412178Y39076D01*
X412039D01*
Y39633D01*
X411760D01*
Y39494D01*
X411203D01*
Y39633D01*
X411064D01*
Y39911D01*
X410925D01*
Y40190D01*
X410786D01*
Y40608D01*
X410647D01*
X410647Y40886D01*
X410507D01*
Y41025D01*
X410368D01*
X410368Y40329D01*
X410229D01*
Y39494D01*
X410090D01*
Y38798D01*
X409950D01*
Y38241D01*
X409811D01*
Y37684D01*
X409672D01*
Y37266D01*
X409533D01*
Y36848D01*
X409393D01*
Y36431D01*
X409254D01*
X409254Y36013D01*
X409115D01*
Y35595D01*
X408976D01*
Y35317D01*
X408837D01*
Y34899D01*
X408697Y34899D01*
Y34621D01*
X408558D01*
Y34203D01*
X408419Y34203D01*
Y33925D01*
X408280D01*
Y33646D01*
X408140D01*
Y33368D01*
X408001D01*
X408001Y33089D01*
X407862D01*
Y32811D01*
X407723D01*
Y32532D01*
X407584D01*
Y32254D01*
X407444D01*
Y31975D01*
X407305D01*
Y31697D01*
X407166D01*
Y31418D01*
X407027D01*
Y31140D01*
X406887D01*
Y31001D01*
X406748D01*
Y30722D01*
X406609D01*
Y30444D01*
X406470D01*
X406470Y30305D01*
X406330D01*
Y30166D01*
X405913D01*
Y30305D01*
X405774D01*
Y30444D01*
X405634D01*
Y30722D01*
X405774D01*
Y31697D01*
X405634D01*
Y31418D01*
X405495Y31418D01*
X405495Y31140D01*
X405356D01*
Y30862D01*
X405217D01*
Y30583D01*
X405077D01*
Y30305D01*
X404938D01*
X404938Y30026D01*
X404799D01*
Y29748D01*
X404660Y29748D01*
Y29469D01*
X404520D01*
Y29191D01*
X404381D01*
Y28912D01*
X404242D01*
Y28634D01*
X404103D01*
Y28356D01*
X403964D01*
Y28077D01*
X403824D01*
Y27799D01*
X403685D01*
X403685Y27659D01*
X403546D01*
Y27381D01*
X403407D01*
Y27102D01*
X403267D01*
Y26824D01*
X403128D01*
Y26685D01*
X402989D01*
Y26406D01*
X402850D01*
X402850Y26128D01*
X402710D01*
Y25989D01*
X402571D01*
Y25710D01*
X402432D01*
Y25571D01*
X402293D01*
X402293Y25292D01*
X402154D01*
Y25153D01*
X402014D01*
Y24875D01*
X401875D01*
Y24736D01*
X401736D01*
Y24457D01*
X401597D01*
Y24318D01*
X401457D01*
Y24039D01*
X401318D01*
X401318Y23900D01*
X401179D01*
Y23622D01*
X401040D01*
Y23483D01*
X400900D01*
Y23204D01*
X400761D01*
Y23065D01*
X400622D01*
X400622Y22786D01*
X400483D01*
Y22647D01*
X400344D01*
Y22508D01*
X400204D01*
Y22229D01*
X400065D01*
Y22090D01*
X399926Y22090D01*
X399926Y21951D01*
X399787D01*
Y21673D01*
X399647D01*
Y21533D01*
X399508D01*
Y21394D01*
X399369D01*
Y21116D01*
X399230Y21116D01*
Y20977D01*
X399091D01*
Y20837D01*
X398951D01*
Y20698D01*
X398812D01*
Y20419D01*
X398673D01*
Y20280D01*
X398534D01*
Y20141D01*
X398395D01*
Y20002D01*
X398255Y20002D01*
Y19863D01*
X398116Y19863D01*
Y19584D01*
X397977D01*
X397977Y19445D01*
X397838D01*
Y19306D01*
X397698D01*
Y19167D01*
X397559D01*
Y19027D01*
X397420D01*
X397420Y18888D01*
X397281D01*
Y18610D01*
X397141D01*
Y18470D01*
X397002D01*
X397002Y18331D01*
X396863D01*
Y18192D01*
X396724D01*
Y18053D01*
X396585D01*
Y17914D01*
X396445D01*
X396445Y17774D01*
X396306D01*
Y17635D01*
X396167Y17635D01*
Y17496D01*
X396028D01*
Y17357D01*
X395888D01*
Y17217D01*
X395749D01*
Y17078D01*
X395610Y17078D01*
Y16939D01*
X395471D01*
Y16800D01*
X395331D01*
Y16660D01*
X395192D01*
Y16521D01*
X395053D01*
Y16382D01*
X394914D01*
X394914Y16243D01*
X394775D01*
Y16104D01*
X394635D01*
X394635Y15964D01*
X394496D01*
Y15825D01*
X394357Y15825D01*
Y15686D01*
X394218D01*
Y15547D01*
X394078D01*
Y15407D01*
X393939D01*
Y15268D01*
X393800D01*
Y15129D01*
X393661Y15129D01*
Y14990D01*
X393521D01*
Y14850D01*
X393382D01*
X393382Y14711D01*
X393104D01*
X393104Y14572D01*
X392965D01*
Y14433D01*
X392825D01*
Y14294D01*
X392686D01*
Y14154D01*
X392547D01*
X392547Y14015D01*
X392268D01*
Y13876D01*
X392129D01*
Y13737D01*
X391990D01*
Y13597D01*
X391851D01*
Y13458D01*
X391712D01*
Y13319D01*
X391433D01*
Y13180D01*
X391294D01*
Y13040D01*
X391155D01*
Y12901D01*
X390876D01*
Y12762D01*
X390737D01*
X390737Y12623D01*
X390598D01*
Y12484D01*
X390319D01*
Y12344D01*
X390180D01*
X390180Y12205D01*
X390041D01*
X390041Y12066D01*
X389902D01*
X389762Y12066D01*
Y11927D01*
X389623D01*
Y11788D01*
X389484D01*
X389345Y11788D01*
Y11648D01*
X389206D01*
Y11509D01*
X389066Y11509D01*
X388927Y11509D01*
Y11370D01*
X388788D01*
Y11230D01*
X388509D01*
Y11091D01*
X388370D01*
Y10952D01*
X388092D01*
Y10813D01*
X387952D01*
Y10674D01*
X387674D01*
Y10534D01*
X387535D01*
Y10395D01*
X387256D01*
Y10256D01*
X387117Y10256D01*
X386978Y10256D01*
Y10117D01*
X386839D01*
Y9977D01*
X386560D01*
Y9838D01*
X386282D01*
Y9699D01*
X386003D01*
Y9560D01*
X385864D01*
Y9421D01*
X385586D01*
Y9281D01*
X385307D01*
Y9142D01*
X385029D01*
Y9003D01*
X384750D01*
Y8864D01*
X384472D01*
Y8724D01*
X384193D01*
Y8585D01*
X383915D01*
Y8446D01*
X383636D01*
Y8307D01*
X383358D01*
Y8167D01*
X383079D01*
Y8028D01*
X382801D01*
Y7889D01*
X382662D01*
X382523Y7889D01*
Y7750D01*
X382105D01*
Y7611D01*
X381826D01*
Y7471D01*
X381548D01*
Y7332D01*
X381130D01*
Y7193D01*
X380852D01*
Y7054D01*
X380713Y7054D01*
X380434D01*
Y6914D01*
X380156D01*
X380156Y6775D01*
X379738D01*
Y6636D01*
X379599D01*
X379459Y6636D01*
X379320Y6636D01*
Y6497D01*
X378903D01*
Y6358D01*
X378485D01*
Y6218D01*
X378067D01*
Y6079D01*
X377650D01*
Y5940D01*
X377232D01*
Y5801D01*
X376675D01*
Y5661D01*
X376257D01*
Y5522D01*
X375700D01*
Y5383D01*
X375561Y5383D01*
X375283D01*
X375144Y5383D01*
Y5244D01*
X374587D01*
Y5105D01*
X374030D01*
Y4965D01*
X373334D01*
Y4826D01*
X373194Y4826D01*
X373055Y4826D01*
X372637D01*
Y4687D01*
X371663D01*
Y4548D01*
X370688D01*
Y4408D01*
X369435D01*
Y4269D01*
X369296D01*
X369157Y4269D01*
X369017Y4269D01*
X368878D01*
X368739Y4269D01*
X368600D01*
X368461Y4269D01*
X367486D01*
X367347Y4269D01*
X367207D01*
X367068Y4269D01*
X366929D01*
X366790Y4269D01*
X366651Y4269D01*
X366511Y4269D01*
X366372Y4269D01*
X366233Y4269D01*
X366094Y4269D01*
X365955Y4269D01*
X365815Y4269D01*
X365676D01*
X365537Y4269D01*
X365397Y4269D01*
X365258D01*
X365119Y4269D01*
X364980D01*
X364841Y4269D01*
X364701Y4269D01*
X364562Y4269D01*
X363866D01*
X363727Y4269D01*
X363588Y4269D01*
Y4408D01*
X362335D01*
Y4548D01*
X361360D01*
Y4687D01*
X360525D01*
Y4826D01*
X360246D01*
X360107Y4826D01*
X359968Y4826D01*
X359828Y4826D01*
Y4965D01*
X359132D01*
Y5105D01*
X358575D01*
Y5244D01*
X358158D01*
Y5383D01*
X358018Y5383D01*
X357601D01*
Y5522D01*
X357183D01*
Y5661D01*
X356766D01*
X356626Y5662D01*
Y5801D01*
X356209D01*
Y5940D01*
X355791D01*
Y6079D01*
X355512D01*
Y6218D01*
X355095D01*
Y6358D01*
X354677D01*
Y6497D01*
X354399D01*
Y6636D01*
X354259Y6636D01*
X354120Y6636D01*
X353981Y6636D01*
Y6775D01*
X353703D01*
Y6914D01*
X353424D01*
Y7054D01*
X353146D01*
Y7193D01*
X352867D01*
Y7332D01*
X352449D01*
Y7471D01*
X352310Y7471D01*
X352171D01*
Y7611D01*
X351893D01*
Y7750D01*
X351753D01*
Y7889D01*
X351614Y7889D01*
X351475D01*
Y8028D01*
X351196D01*
Y8167D01*
X350918D01*
Y8307D01*
X350639D01*
Y8446D01*
X350500Y8446D01*
X350361D01*
Y8585D01*
X350222D01*
Y8724D01*
X349943D01*
Y8864D01*
X349665D01*
Y9003D01*
X349526D01*
Y9142D01*
X349247D01*
X349247Y9281D01*
X349108D01*
Y9421D01*
X348829D01*
Y9560D01*
X348690D01*
Y9699D01*
X348412D01*
Y9838D01*
X348273D01*
Y9977D01*
X347994D01*
Y10117D01*
X347855D01*
Y10256D01*
X347716Y10256D01*
Y10395D01*
X347437D01*
X347437Y10534D01*
X347298D01*
Y10674D01*
X347159D01*
Y10813D01*
X346880D01*
Y10952D01*
X346741D01*
Y11091D01*
X346602D01*
Y11230D01*
X346323D01*
Y11370D01*
X346184D01*
Y11509D01*
X346045Y11509D01*
Y11648D01*
X345906D01*
Y11788D01*
X345766D01*
Y11927D01*
X345488D01*
Y12066D01*
X345349Y12066D01*
Y12205D01*
X345210D01*
Y12344D01*
X345070D01*
Y12484D01*
X344931D01*
Y12623D01*
X344792D01*
Y12762D01*
X344653D01*
Y12901D01*
X344514D01*
Y13040D01*
X344374D01*
Y13180D01*
X344235D01*
Y13319D01*
X344096D01*
Y13458D01*
X343957D01*
Y13597D01*
X343817D01*
Y13737D01*
X343678D01*
Y13876D01*
X343539D01*
Y14015D01*
X343400D01*
Y14154D01*
X343260D01*
Y14294D01*
X343121D01*
X343121Y14433D01*
X342982D01*
Y14572D01*
X342843D01*
Y14711D01*
X342704D01*
Y14850D01*
X342564D01*
Y14990D01*
X342425D01*
Y15129D01*
X342286D01*
Y15268D01*
X342147D01*
Y15407D01*
X342007D01*
X342007Y15686D01*
X341868Y15686D01*
Y15825D01*
X341729D01*
X341729Y15964D01*
X341590D01*
Y16104D01*
X341450D01*
Y16243D01*
X341311D01*
Y16521D01*
X341172D01*
Y16660D01*
X341033D01*
Y16800D01*
X340894D01*
Y16939D01*
X340754D01*
Y17217D01*
X340615Y17217D01*
Y17357D01*
X340476D01*
Y17496D01*
X340337D01*
Y17774D01*
X340197D01*
Y17914D01*
X340058D01*
Y18192D01*
X339919D01*
Y18331D01*
X339780D01*
Y18470D01*
X339641D01*
Y18749D01*
X339501D01*
Y18888D01*
X339362D01*
X339362Y19167D01*
X339223D01*
X339223Y19306D01*
X339084D01*
Y19584D01*
X338944D01*
X338944Y19863D01*
X338805Y19863D01*
Y20002D01*
X338666D01*
Y20280D01*
X338527D01*
Y20419D01*
X338387D01*
X338387Y20698D01*
X338248D01*
Y20977D01*
X338109D01*
Y21116D01*
X337970D01*
Y21394D01*
X337831D01*
Y21673D01*
X337691D01*
Y21951D01*
X337552Y21951D01*
Y22229D01*
X337413D01*
Y22508D01*
X337274D01*
Y22786D01*
X337134D01*
X337134Y23065D01*
X336995D01*
Y23343D01*
X336856D01*
Y23622D01*
X336717D01*
Y23900D01*
X336577D01*
Y24179D01*
X336438D01*
Y24457D01*
X336299D01*
Y24736D01*
X336160Y24736D01*
Y25153D01*
X336021D01*
Y25432D01*
X335881D01*
Y25710D01*
X335742D01*
Y26128D01*
X335603D01*
X335603Y26406D01*
X335464D01*
Y26824D01*
X335324D01*
Y27102D01*
X335185D01*
Y27520D01*
X335046D01*
Y27938D01*
X334907D01*
Y28356D01*
X334768D01*
Y28773D01*
X334628D01*
Y29191D01*
X334489D01*
Y29609D01*
X334350D01*
Y30026D01*
X334211D01*
Y30583D01*
X334071D01*
Y31001D01*
X333932D01*
Y31558D01*
X333793D01*
Y32115D01*
X333654D01*
Y32672D01*
X333515Y32671D01*
Y33368D01*
X333375D01*
Y33925D01*
X333236D01*
Y34621D01*
X333097D01*
Y35456D01*
X332958D01*
Y36291D01*
X332818D01*
Y37127D01*
X332679D01*
Y38241D01*
X332540D01*
Y39494D01*
X332401D01*
Y41304D01*
X332261D01*
Y50075D01*
X332401D01*
Y50493D01*
X332262Y50493D01*
X332261Y50910D01*
X332401D01*
Y51189D01*
X332540D01*
Y51328D01*
X332401D01*
Y51467D01*
X332540D01*
Y51606D01*
X332401D01*
Y52163D01*
X332540D01*
Y53138D01*
X332679D01*
Y53695D01*
X332818D01*
Y54391D01*
X332958Y54391D01*
X333097D01*
Y56062D01*
X333375D01*
Y57454D01*
X333654D01*
Y58846D01*
X333932D01*
Y59960D01*
X334211D01*
Y61074D01*
X334489D01*
Y62188D01*
X334768D01*
Y63302D01*
X335046D01*
Y64137D01*
X335185Y64137D01*
X335324D01*
Y64972D01*
X335603D01*
Y65808D01*
X335881D01*
Y66643D01*
X336160D01*
Y67478D01*
X336438D01*
Y68314D01*
X336577Y68314D01*
X336717D01*
Y69149D01*
X336995D01*
Y69706D01*
X337274D01*
Y70541D01*
X337552D01*
Y71377D01*
X337691D01*
Y71516D01*
X337831D01*
Y71934D01*
X337970D01*
Y72073D01*
X338109D01*
X338109Y72491D01*
X338248D01*
X338248Y72630D01*
X338387D01*
X338387Y73047D01*
X338527D01*
Y73187D01*
X338666D01*
Y73604D01*
X338805D01*
Y73744D01*
X338944D01*
X338944Y74161D01*
X339084D01*
Y74300D01*
X339223D01*
Y74718D01*
X339362D01*
X339362Y74858D01*
X339501D01*
Y75275D01*
X339641D01*
Y75414D01*
X339780D01*
Y75832D01*
X339919D01*
Y75971D01*
X340058D01*
Y76389D01*
X340197D01*
Y76528D01*
X340337D01*
Y76946D01*
X340476D01*
Y77085D01*
X340615D01*
Y77364D01*
X340754D01*
Y77503D01*
X340894D01*
Y77920D01*
X341033D01*
Y78060D01*
X341172D01*
Y78477D01*
X341311D01*
Y78338D01*
X341450D01*
Y78895D01*
X341729D01*
X341729Y79173D01*
X342007D01*
X342007Y78895D01*
X341868D01*
Y78617D01*
X341729D01*
Y78338D01*
X341590D01*
Y78060D01*
X341450D01*
Y77781D01*
X341311D01*
Y77364D01*
X341172D01*
Y76946D01*
X341033Y76946D01*
Y76667D01*
X340894Y76667D01*
Y76250D01*
X340754D01*
Y75832D01*
X340615D01*
Y75414D01*
X340476D01*
X340476Y74997D01*
X340337D01*
Y74858D01*
X340197D01*
Y74579D01*
X340058D01*
Y74300D01*
X339919D01*
Y73883D01*
X339780D01*
Y73744D01*
X339919D01*
Y73604D01*
X339780D01*
Y73326D01*
X339641D01*
Y72908D01*
X339501D01*
Y72630D01*
X339362D01*
Y72351D01*
X339223D01*
X339223Y71794D01*
X339084D01*
Y71516D01*
X338944D01*
Y72212D01*
X339084D01*
Y72491D01*
X339223D01*
Y73047D01*
X339362D01*
X339362Y73604D01*
X339501D01*
Y73744D01*
X339641D01*
Y74300D01*
X339780D01*
Y74579D01*
X339501D01*
Y74300D01*
X339362D01*
Y74022D01*
X339223D01*
Y73744D01*
X339084D01*
Y73465D01*
X338944D01*
Y73047D01*
X338805D01*
Y72769D01*
X338666D01*
Y72351D01*
X338527D01*
Y72073D01*
X338387D01*
X338387Y71655D01*
X338248D01*
Y71238D01*
X338109D01*
X338109Y70820D01*
X337970D01*
Y70541D01*
X337831D01*
Y70124D01*
X337691D01*
Y69706D01*
X337552D01*
Y69288D01*
X337413D01*
Y68871D01*
X337274D01*
Y68453D01*
X337134D01*
X337134Y68035D01*
X336995D01*
Y67757D01*
X336856Y67757D01*
Y67339D01*
X336717D01*
Y66782D01*
X336577D01*
Y66365D01*
X336438D01*
Y65947D01*
X336299D01*
Y65529D01*
X336160D01*
Y64972D01*
X336021D01*
Y64555D01*
X335881D01*
Y63998D01*
X335742D01*
Y63580D01*
X335603D01*
Y63023D01*
X335464D01*
Y62466D01*
X335324D01*
Y61909D01*
X335185D01*
Y61352D01*
X335046D01*
Y60795D01*
X334907D01*
Y60099D01*
X334768D01*
X334768Y59542D01*
X334628D01*
X334628Y58846D01*
X334489D01*
Y58150D01*
X334350D01*
Y57036D01*
X334211D01*
Y56062D01*
X334071D01*
Y55366D01*
X333932Y55366D01*
Y54948D01*
X333793D01*
Y53695D01*
X333654D01*
Y52442D01*
X333515D01*
Y51050D01*
X333375D01*
Y49240D01*
X333236D01*
Y41304D01*
X333375D01*
Y39633D01*
X333515D01*
X333515Y38380D01*
X333654D01*
Y37266D01*
X333793D01*
Y36291D01*
X333932D01*
Y35456D01*
X334071D01*
X334071Y34760D01*
X334211D01*
Y34064D01*
X334350D01*
Y33368D01*
X334489D01*
Y32811D01*
X334628D01*
Y32115D01*
X334768D01*
X334768Y31697D01*
X334907D01*
Y31140D01*
X335046D01*
X335046Y30583D01*
X335185Y30583D01*
Y30166D01*
X335324D01*
Y29748D01*
X335464D01*
Y29330D01*
X335603D01*
Y28773D01*
X335742D01*
Y28356D01*
X335881D01*
X335881Y28077D01*
X336021D01*
Y27659D01*
X336160D01*
Y27242D01*
X336299D01*
Y26963D01*
X336438D01*
Y26546D01*
X336577D01*
Y26267D01*
X336717D01*
Y25849D01*
X336856D01*
Y25571D01*
X336995Y25571D01*
Y25153D01*
X337134D01*
Y24875D01*
X337274D01*
Y24596D01*
X337413D01*
Y24318D01*
X337552Y24318D01*
Y24039D01*
X337691D01*
Y23761D01*
X337831D01*
Y23483D01*
X337970D01*
Y23204D01*
X338109D01*
X338109Y22926D01*
X338248D01*
X338248Y22647D01*
X338387D01*
X338387Y22369D01*
X338527D01*
Y22090D01*
X338666Y22090D01*
Y21812D01*
X338805D01*
Y21673D01*
X338944D01*
Y21394D01*
X339084D01*
Y21116D01*
X339223D01*
Y20837D01*
X339362D01*
Y20698D01*
X339501D01*
X339501Y20419D01*
X339641D01*
Y20280D01*
X339780D01*
Y20002D01*
X339919D01*
Y19723D01*
X340058D01*
Y19584D01*
X340197D01*
Y19306D01*
X340337D01*
Y19167D01*
X340476D01*
Y19027D01*
X340615D01*
Y18749D01*
X340754D01*
Y18610D01*
X340894D01*
Y18331D01*
X341033Y18331D01*
Y18192D01*
X341172D01*
Y18053D01*
X341311D01*
Y17774D01*
X341450D01*
Y17635D01*
X341590D01*
Y17496D01*
X341729D01*
Y17217D01*
X341868D01*
Y17078D01*
X342007D01*
Y16939D01*
X342147Y16939D01*
Y16800D01*
X342286D01*
Y16521D01*
X342425D01*
Y16382D01*
X342564Y16382D01*
Y16243D01*
X342704D01*
Y16104D01*
X342843D01*
Y15964D01*
X342982D01*
X342982Y15825D01*
X343121D01*
X343121Y15547D01*
X343260D01*
Y15407D01*
X343400D01*
Y15268D01*
X343539D01*
Y15129D01*
X343678Y15129D01*
Y14990D01*
X343817D01*
Y14850D01*
X343957D01*
Y14711D01*
X344096D01*
Y14572D01*
X344235D01*
Y14433D01*
X344374D01*
X344374Y14294D01*
X344514D01*
Y14154D01*
X344653D01*
Y14015D01*
X344792Y14015D01*
Y13876D01*
X344931D01*
Y13737D01*
X345070D01*
Y13597D01*
X345210D01*
Y13458D01*
X345349D01*
Y13319D01*
X345488D01*
Y13180D01*
X345627D01*
Y13040D01*
X345906D01*
Y12901D01*
X346045D01*
Y12762D01*
X346184Y12762D01*
Y12623D01*
X346323D01*
Y12484D01*
X346463D01*
Y12344D01*
X346602D01*
Y12205D01*
X346880D01*
X346880Y12066D01*
X347020D01*
Y11927D01*
X347159D01*
Y11788D01*
X347298D01*
Y11648D01*
X347576D01*
Y11509D01*
X347716Y11509D01*
Y11370D01*
X347855D01*
Y11230D01*
X348133D01*
Y11091D01*
X348273D01*
Y10952D01*
X348412D01*
Y10813D01*
X348690D01*
Y10674D01*
X348829Y10674D01*
Y10534D01*
X348969Y10534D01*
X349108D01*
Y10395D01*
X349247D01*
Y10256D01*
X349386Y10256D01*
X349526D01*
Y10117D01*
X349665D01*
Y9977D01*
X349943D01*
Y9838D01*
X350083D01*
Y9699D01*
X350361D01*
Y9560D01*
X350639D01*
Y9421D01*
X350779D01*
Y9281D01*
X351057D01*
Y9142D01*
X351336D01*
Y9003D01*
X351614D01*
Y8864D01*
X351893D01*
Y8724D01*
X352032D01*
Y8585D01*
X352310D01*
Y8446D01*
X352449Y8446D01*
X352589D01*
Y8307D01*
X352867D01*
Y8167D01*
X353146D01*
Y8028D01*
X353563D01*
Y7889D01*
X353703D01*
X353842Y7889D01*
Y7750D01*
X354120D01*
Y7611D01*
X354399D01*
X354399Y7471D01*
X354816D01*
Y7332D01*
X355095D01*
Y7193D01*
X355512D01*
Y7054D01*
X355930D01*
Y6914D01*
X356208D01*
X356209Y6775D01*
X356626D01*
Y6636D01*
X356766Y6636D01*
X357183D01*
Y6497D01*
X357601D01*
Y6358D01*
X358018D01*
X358018Y6218D01*
X358575D01*
X358575Y6079D01*
X358993D01*
Y5940D01*
X359828D01*
Y5801D01*
X360525D01*
Y5661D01*
X361221D01*
Y5522D01*
X362195D01*
Y5383D01*
X362892D01*
X363031Y5383D01*
X363170Y5383D01*
X363448D01*
Y5244D01*
X366233D01*
Y5105D01*
X367068D01*
Y5244D01*
X369714D01*
Y5383D01*
X370131D01*
X370271Y5383D01*
X370410Y5383D01*
X371106D01*
Y5522D01*
X372080D01*
Y5661D01*
X372916D01*
Y5801D01*
X373612D01*
Y5940D01*
X374308D01*
Y6079D01*
X374865D01*
Y6218D01*
X375422D01*
Y6358D01*
X375979D01*
Y6497D01*
X376536D01*
Y6636D01*
X376675D01*
X376814Y6636D01*
X376953Y6636D01*
Y6775D01*
X377510D01*
Y6914D01*
X377928D01*
Y7054D01*
X378346D01*
Y7193D01*
X378763D01*
Y7332D01*
X379181D01*
Y7471D01*
X379599D01*
Y7611D01*
X380017D01*
Y7750D01*
X380295D01*
Y7889D01*
X380434Y7889D01*
X380573Y7889D01*
X380713Y7889D01*
Y8028D01*
X380991D01*
Y8167D01*
X381409D01*
Y8307D01*
X381687D01*
Y8446D01*
X381826Y8446D01*
X381966Y8446D01*
X382105D01*
Y8585D01*
X382383D01*
Y8724D01*
X382662D01*
Y8864D01*
X382940D01*
Y9003D01*
X383219D01*
Y9142D01*
X383636D01*
Y9281D01*
X383915D01*
Y9421D01*
X384193D01*
Y9560D01*
X384472D01*
Y9699D01*
X384750D01*
Y9838D01*
X384889D01*
Y9977D01*
X385168D01*
Y10117D01*
X385446D01*
Y10256D01*
X385586Y10256D01*
X385725D01*
Y10395D01*
X386003D01*
Y10534D01*
X386282D01*
Y10674D01*
X386421D01*
Y10813D01*
X386699D01*
Y10952D01*
X386978D01*
Y11091D01*
X387117D01*
Y11230D01*
X387396D01*
Y11370D01*
X387674D01*
Y11509D01*
X387813D01*
Y11648D01*
X388092D01*
Y11788D01*
X388231D01*
Y11927D01*
X388509D01*
Y12066D01*
X388648Y12066D01*
X388648Y12205D01*
X388927D01*
X388927Y12344D01*
X389066D01*
Y12484D01*
X389345D01*
Y12623D01*
X389484D01*
X389484Y12762D01*
X389623D01*
X389762Y12762D01*
Y12901D01*
X389902D01*
Y13040D01*
X390180D01*
Y13180D01*
X390319D01*
Y13319D01*
X390458D01*
Y13458D01*
X390737D01*
Y13597D01*
X390876D01*
Y13737D01*
X391015D01*
Y13876D01*
X391294D01*
Y14015D01*
X391433Y14015D01*
Y14154D01*
X391572D01*
Y14294D01*
X391712D01*
Y14433D01*
X391990D01*
Y14572D01*
X392129D01*
Y14711D01*
X392268D01*
Y14850D01*
X392408D01*
Y14990D01*
X392547D01*
Y15129D01*
X392686Y15129D01*
X392825Y15129D01*
Y15268D01*
X392965D01*
Y15407D01*
X393104Y15407D01*
Y15547D01*
X393243D01*
Y15686D01*
X393382Y15686D01*
Y15825D01*
X393521D01*
Y15964D01*
X393800D01*
X393800Y16104D01*
X393939D01*
Y16243D01*
X394078D01*
Y16382D01*
X394218Y16382D01*
Y16521D01*
X394357D01*
Y16660D01*
X394496D01*
Y16800D01*
X394635D01*
Y16939D01*
X394775Y16939D01*
Y17078D01*
X394914D01*
X394914Y17217D01*
X395053D01*
Y17357D01*
X395192D01*
Y17496D01*
X395331D01*
Y17635D01*
X395471D01*
Y17774D01*
X395610D01*
Y17914D01*
X395749D01*
Y18053D01*
X395888D01*
Y18192D01*
X396028D01*
Y18331D01*
X396167D01*
X396167Y18470D01*
X396306Y18470D01*
Y18610D01*
X396445D01*
Y18749D01*
X396585D01*
Y18888D01*
X396724D01*
Y19027D01*
X396863D01*
Y19167D01*
X397002D01*
X397002Y19445D01*
X397141D01*
Y19584D01*
X397281D01*
Y19723D01*
X397420D01*
Y19863D01*
X397559D01*
Y20002D01*
X397698D01*
Y20141D01*
X397838D01*
Y20280D01*
X397977D01*
Y20559D01*
X398116D01*
Y20698D01*
X398255Y20698D01*
Y20837D01*
X398395D01*
Y20977D01*
X398534D01*
Y21116D01*
X398673Y21116D01*
Y21394D01*
X398812D01*
Y21533D01*
X398951D01*
Y21673D01*
X399091D01*
Y21812D01*
X399230D01*
Y22090D01*
X399369Y22090D01*
Y22229D01*
X399508D01*
Y22369D01*
X399647D01*
Y22508D01*
X399787D01*
Y22786D01*
X399926D01*
Y22926D01*
X400065D01*
Y23065D01*
X400204D01*
Y23343D01*
X400344D01*
Y23483D01*
X400483D01*
Y23622D01*
X400622D01*
Y23900D01*
X400761D01*
Y24039D01*
X400900D01*
Y24318D01*
X401040D01*
Y24457D01*
X401179D01*
Y24596D01*
X401318D01*
Y24875D01*
X401457D01*
Y25014D01*
X401597D01*
Y25292D01*
X401736D01*
Y25432D01*
X401875D01*
Y25710D01*
X402014D01*
Y25849D01*
X402154D01*
Y26128D01*
X402293D01*
X402293Y26267D01*
X402432D01*
Y26546D01*
X402571D01*
Y26685D01*
X402710D01*
Y26963D01*
X402850D01*
Y27242D01*
X402989D01*
Y27381D01*
X403128D01*
Y27659D01*
X403267D01*
Y27938D01*
X403407D01*
Y28077D01*
X403546D01*
Y28356D01*
X403685Y28356D01*
Y28634D01*
X403824D01*
Y28773D01*
X403964D01*
Y29052D01*
X404103D01*
Y29330D01*
X404242D01*
Y29609D01*
X404381D01*
Y29887D01*
X404520D01*
Y30166D01*
X404660D01*
X404660Y30444D01*
X404799D01*
Y30722D01*
X404938D01*
Y31001D01*
X405077D01*
Y31279D01*
X405217Y31279D01*
X405217Y31558D01*
X405356D01*
Y31836D01*
X405495D01*
Y32115D01*
X405634D01*
Y32532D01*
X405774D01*
Y32811D01*
X405913D01*
Y33089D01*
X406052D01*
Y33507D01*
X406191D01*
Y33925D01*
X406330D01*
Y34342D01*
X406470D01*
X406470Y34760D01*
X406609D01*
Y35317D01*
X406748D01*
Y36013D01*
X406887D01*
Y35874D01*
X407166D01*
Y35317D01*
X407027D01*
Y34203D01*
X406887Y34203D01*
Y33368D01*
X406748D01*
X406748Y32393D01*
X406887D01*
Y32672D01*
X407166D01*
Y32950D01*
X407305Y32950D01*
Y33228D01*
X407444D01*
Y33507D01*
X407584D01*
Y33785D01*
X407723D01*
Y34203D01*
X407862D01*
Y34621D01*
X408001D01*
X408001Y34760D01*
X408140D01*
Y35038D01*
X408280D01*
Y35456D01*
X408419D01*
Y35735D01*
X408558Y35735D01*
X408558Y36152D01*
X408697Y36152D01*
Y36570D01*
X408837D01*
Y36848D01*
X408976D01*
Y37266D01*
X409115D01*
X409115Y37684D01*
X409254D01*
X409254Y38241D01*
X409393D01*
Y38658D01*
X409533Y38658D01*
Y39215D01*
X409672D01*
Y39772D01*
X409811D01*
Y40468D01*
X409950D01*
Y41443D01*
X410090D01*
Y42696D01*
X410229D01*
Y42974D01*
X410368Y42974D01*
Y42696D01*
X410507D01*
Y42417D01*
X410647D01*
Y42139D01*
X410786D01*
Y42000D01*
X410925D01*
Y41721D01*
X411064D01*
Y41443D01*
X411343D01*
Y41721D01*
X411482D01*
Y42278D01*
X411343D01*
Y43810D01*
X411482D01*
Y43671D01*
X411621D01*
Y43531D01*
X411760D01*
Y43114D01*
X411899D01*
Y42696D01*
X412039D01*
Y42278D01*
X412178D01*
X412178Y42000D01*
X412317Y42000D01*
Y41860D01*
X412596D01*
Y46177D01*
X412456D01*
Y47290D01*
X412317D01*
Y47987D01*
X412178D01*
Y48544D01*
X412039Y48544D01*
Y48961D01*
X411900D01*
X411899Y49379D01*
X411760D01*
Y49936D01*
X411621Y49936D01*
X411621Y50353D01*
X411760D01*
Y50214D01*
X411900D01*
X411899Y50075D01*
X412039D01*
Y49936D01*
X412178Y49936D01*
Y49797D01*
X412317D01*
Y49657D01*
X412456D01*
Y49379D01*
X412596D01*
Y49240D01*
X412735D01*
Y49100D01*
X412874D01*
Y48961D01*
X413013D01*
Y48822D01*
X413292D01*
Y50075D01*
X413153D01*
Y50910D01*
X413013D01*
Y51606D01*
X412874D01*
Y52303D01*
X412735Y52303D01*
Y52999D01*
X412596D01*
Y53556D01*
X412456D01*
Y53973D01*
X412317D01*
Y54252D01*
X412735D01*
Y55366D01*
X412596D01*
Y57454D01*
X412735D01*
Y57315D01*
X412874D01*
Y57036D01*
X413013D01*
Y56897D01*
X413431D01*
Y57454D01*
X413292D01*
Y58846D01*
X413431D01*
Y60656D01*
X413570D01*
Y61770D01*
X413709D01*
Y62049D01*
X413570D01*
Y62327D01*
X413709D01*
Y62884D01*
X413849D01*
Y64137D01*
X413988Y64137D01*
Y65668D01*
X414127D01*
Y67200D01*
X414266D01*
Y69149D01*
X414406D01*
Y69288D01*
X414266D01*
X414266Y69706D01*
X414406D01*
Y71516D01*
X414545D01*
Y73744D01*
X414684D01*
Y79870D01*
X414545D01*
Y83629D01*
X414406D01*
Y85021D01*
X414266D01*
Y86831D01*
X414127Y86831D01*
Y87249D01*
X413988D01*
Y87666D01*
X413849D01*
Y88084D01*
X413709D01*
Y88502D01*
X413570D01*
Y89059D01*
X413431D01*
Y89476D01*
X413570D01*
Y89198D01*
X413709D01*
Y88919D01*
X413988D01*
Y88502D01*
X414127D01*
Y88363D01*
X414266D01*
Y88084D01*
X414406D01*
X414545Y88084D01*
X414684D01*
Y92679D01*
X414545D01*
Y93096D01*
X414406Y93096D01*
Y93514D01*
X414266D01*
Y94071D01*
X414406D01*
Y94210D01*
X414545D01*
Y94071D01*
X414963D01*
X415102Y94071D01*
Y94488D01*
X414963D01*
Y94906D01*
X414823D01*
Y95185D01*
X414963D01*
Y95045D01*
X415241D01*
Y94906D01*
X415380D01*
Y94767D01*
X415519D01*
Y94628D01*
X415659D01*
Y94488D01*
X415798D01*
Y94349D01*
X415937D01*
Y94210D01*
X416076D01*
Y94071D01*
X416355D01*
Y93932D01*
X416633D01*
Y94488D01*
X416494D01*
Y94906D01*
X416355D01*
Y95324D01*
X416216D01*
Y95742D01*
X416076D01*
Y96159D01*
X415937D01*
Y96577D01*
X415798D01*
Y96855D01*
X415659D01*
Y97134D01*
X415519D01*
X415519Y97412D01*
X415380D01*
Y97691D01*
X415241D01*
X415241Y97969D01*
X415102Y97969D01*
Y98248D01*
X414963D01*
Y98526D01*
X414823D01*
Y98805D01*
X414684D01*
Y99083D01*
X414545D01*
Y99501D01*
X414406D01*
Y99779D01*
X414266Y99779D01*
X414266Y100197D01*
X414127Y100197D01*
Y100615D01*
X413988D01*
Y100893D01*
X413849D01*
Y101172D01*
X413709D01*
Y101450D01*
X413570D01*
Y101728D01*
X413431D01*
Y102007D01*
X413292D01*
Y102285D01*
X413153D01*
Y102564D01*
X412456D01*
Y102703D01*
X412317Y102703D01*
Y102842D01*
X412178D01*
Y102981D01*
X412039D01*
Y103260D01*
X411899D01*
X411900Y103399D01*
X411760D01*
Y103538D01*
X411621D01*
Y103817D01*
X411482D01*
Y104095D01*
X411343Y104095D01*
Y104234D01*
X411203D01*
Y104513D01*
X411064D01*
Y104791D01*
X410925D01*
Y104930D01*
X410786D01*
Y105209D01*
X410507D01*
Y105627D01*
X410368D01*
Y106184D01*
X410229D01*
Y106741D01*
X410090D01*
Y107158D01*
X409950D01*
Y108272D01*
X409811D01*
Y108829D01*
X409950D01*
Y108551D01*
X410090D01*
Y107994D01*
X410229D01*
Y107576D01*
X410368D01*
X410368Y107297D01*
X410507D01*
Y106880D01*
X410647D01*
Y106601D01*
X410786D01*
Y106323D01*
X410925D01*
Y106044D01*
X411064D01*
Y105766D01*
X411203D01*
Y105487D01*
X411343D01*
Y105209D01*
X411621D01*
X411621Y105070D01*
X411760D01*
Y106044D01*
X411621D01*
X411621Y107158D01*
X411482D01*
Y107854D01*
X411343D01*
Y108551D01*
X411203D01*
Y109247D01*
X411064D01*
Y110221D01*
X410925D01*
Y110917D01*
X410786D01*
Y111474D01*
X410925D01*
Y111196D01*
X411064D01*
Y110917D01*
X411203D01*
Y110778D01*
X411343D01*
Y109803D01*
X411482D01*
Y109386D01*
X411621D01*
Y108690D01*
X411760D01*
Y108272D01*
X411900D01*
Y107715D01*
X412039D01*
Y107297D01*
X412178D01*
X412178Y106880D01*
X412317Y106880D01*
Y106462D01*
X412456D01*
Y106044D01*
X412596D01*
Y105627D01*
X412735D01*
Y105209D01*
X412874D01*
X412874Y104791D01*
X413013D01*
Y104374D01*
X413153D01*
Y103956D01*
X413292D01*
Y103538D01*
X413431D01*
Y102981D01*
X413570D01*
Y102564D01*
X413709D01*
Y102007D01*
X413849D01*
Y101589D01*
X413988D01*
Y101311D01*
X414127D01*
Y100893D01*
X414266D01*
Y100615D01*
X414406D01*
Y100336D01*
X414545Y100336D01*
Y100058D01*
X414684D01*
Y99779D01*
X414823D01*
Y99501D01*
X414963D01*
Y99361D01*
X415102D01*
Y99083D01*
X415241D01*
Y98944D01*
X415380D01*
Y98665D01*
X415519D01*
Y98526D01*
X415659D01*
Y98387D01*
X415798Y98387D01*
Y98108D01*
X416216D01*
Y99083D01*
X416076D01*
Y101311D01*
X415937D01*
Y103538D01*
X415798D01*
Y106044D01*
X415659D01*
Y107297D01*
X415798D01*
Y107019D01*
X415937D01*
Y106741D01*
X416076D01*
Y106323D01*
X416216D01*
Y106044D01*
X416355D01*
Y105905D01*
X416494D01*
Y105627D01*
X416633D01*
Y105487D01*
X416772D01*
Y105209D01*
X417190D01*
Y106044D01*
X417051D01*
X417051Y106601D01*
X416912D01*
Y107158D01*
X417051D01*
Y107019D01*
X417190D01*
Y106741D01*
X417329D01*
Y106601D01*
X417469D01*
Y106323D01*
X417608D01*
Y106184D01*
X417747D01*
Y106044D01*
X417886D01*
X417886Y105766D01*
X418026D01*
Y105627D01*
X418165D01*
Y105487D01*
X418304D01*
Y105348D01*
X418443D01*
Y105209D01*
X418582D01*
Y105070D01*
X418722D01*
Y104930D01*
X418861D01*
Y104791D01*
X419000D01*
Y104652D01*
X419139D01*
X419139Y104513D01*
X419279D01*
Y104374D01*
X419418D01*
Y104234D01*
X419557D01*
Y104095D01*
X419696D01*
Y103956D01*
X419836D01*
Y103817D01*
X419975D01*
Y103678D01*
X420114D01*
Y103538D01*
X420532D01*
Y103956D01*
X420392D01*
Y104374D01*
X420253D01*
Y104930D01*
X420114D01*
Y105487D01*
X419975D01*
Y105766D01*
X419836D01*
Y105905D01*
X419696D01*
Y106044D01*
X419557D01*
Y106323D01*
X419418D01*
Y106462D01*
X419279D01*
Y106601D01*
X419139D01*
Y106880D01*
X419000D01*
Y107019D01*
X418861D01*
Y107297D01*
X418722D01*
Y107576D01*
X418582D01*
Y107854D01*
X418443D01*
Y107994D01*
X418304Y107994D01*
Y108272D01*
X418165D01*
Y108551D01*
X418026D01*
Y108829D01*
X417886D01*
X417886Y109107D01*
X417747D01*
Y109525D01*
X417608D01*
Y109803D01*
X417469D01*
Y110082D01*
X417329D01*
Y110500D01*
X417190D01*
Y110917D01*
X417051D01*
X417051Y111335D01*
X416912D01*
Y111753D01*
X416772D01*
Y112310D01*
X415937D01*
Y112449D01*
X415798D01*
Y112588D01*
X415659D01*
Y112727D01*
X415519D01*
Y113006D01*
X415380D01*
Y113284D01*
X415241D01*
Y113423D01*
X415102D01*
Y113841D01*
X413988D01*
Y113980D01*
X413849D01*
Y114120D01*
X413709D01*
Y114259D01*
X413570Y114259D01*
Y114398D01*
X413431D01*
Y114677D01*
X413292D01*
Y114955D01*
X413153D01*
Y115233D01*
X413013D01*
Y115651D01*
X412874D01*
X412874Y116069D01*
X412735D01*
Y116626D01*
X412596D01*
Y117043D01*
X412178D01*
Y117183D01*
X412039Y117183D01*
Y117322D01*
X411900Y117322D01*
X411899Y117600D01*
X411760D01*
Y118436D01*
X411621D01*
Y120524D01*
X411760D01*
Y121359D01*
X411899Y121359D01*
Y122334D01*
X411482D01*
Y122056D01*
X411343D01*
Y121499D01*
X411203D01*
Y121081D01*
X411064D01*
Y120524D01*
X410925D01*
Y120106D01*
X410786D01*
Y119828D01*
X410647Y119828D01*
X410507D01*
Y119689D01*
X410368D01*
X410229Y119689D01*
Y119828D01*
X410090Y119828D01*
Y119967D01*
X409950D01*
Y120106D01*
X409811Y120106D01*
Y120524D01*
X409672D01*
Y120663D01*
X409533D01*
Y120942D01*
X409393D01*
Y121220D01*
X409254D01*
Y121359D01*
X409115Y121359D01*
Y121638D01*
X408976D01*
Y121777D01*
X408837D01*
Y122056D01*
X408697D01*
Y122195D01*
X408558D01*
Y122473D01*
X408419D01*
Y122752D01*
X408280D01*
Y123030D01*
X408140D01*
Y123309D01*
X408001D01*
Y123726D01*
X407862D01*
Y124144D01*
X407723D01*
Y124979D01*
X407584D01*
Y125536D01*
X407305D01*
Y125397D01*
X407166D01*
Y125119D01*
X406887D01*
Y124979D01*
X406748Y124979D01*
X406609D01*
Y125119D01*
X406470D01*
X406470Y125258D01*
X406330D01*
Y125675D01*
X405913D01*
Y125815D01*
X405774D01*
Y125954D01*
X405634D01*
Y126093D01*
X405495D01*
X405495Y126372D01*
X405356D01*
Y126929D01*
X405217D01*
X405217Y128042D01*
X405077D01*
Y128181D01*
X405217D01*
X405217Y128738D01*
X405077Y128738D01*
Y128878D01*
X404938D01*
X404799Y128878D01*
Y129017D01*
X404660D01*
Y129156D01*
X404381D01*
Y129295D01*
X404242Y129295D01*
Y129435D01*
X404103D01*
Y129574D01*
X403824D01*
Y129713D01*
X403685D01*
Y129852D01*
X403546D01*
Y129992D01*
X403407D01*
Y130131D01*
X403267D01*
Y130270D01*
X403128D01*
X403128Y130409D01*
X402989D01*
Y130548D01*
X402850D01*
X402850Y130688D01*
X402710D01*
Y130827D01*
X402571D01*
Y130966D01*
X402432D01*
Y131105D01*
X402293D01*
Y131245D01*
X402154D01*
Y131523D01*
X402014D01*
Y131662D01*
X401875D01*
Y131801D01*
X401736D01*
Y132080D01*
X401597D01*
X401597Y132219D01*
X401179D01*
Y131105D01*
X401318D01*
X401318Y130409D01*
X401457D01*
Y129992D01*
X401597Y129992D01*
X401597Y129574D01*
X401736D01*
Y129295D01*
X401597D01*
Y129435D01*
X401179D01*
Y128738D01*
X401318D01*
X401318Y128460D01*
X401457D01*
Y128042D01*
X401597D01*
Y127764D01*
X401457D01*
Y127903D01*
X401318D01*
Y128042D01*
X401179D01*
Y128181D01*
X401040D01*
Y128321D01*
X400900D01*
Y128460D01*
X400761D01*
Y128599D01*
X400622Y128599D01*
X400622Y128738D01*
X400483D01*
Y128878D01*
X400344D01*
Y129017D01*
X400204D01*
Y129156D01*
X400065D01*
Y129295D01*
X399926Y129295D01*
Y129435D01*
X399787Y129435D01*
Y129574D01*
X399647D01*
Y129713D01*
X399508D01*
Y129852D01*
X399369D01*
Y129992D01*
X399230D01*
X399230Y130131D01*
X399091D01*
Y130270D01*
X398951D01*
Y130409D01*
X398812D01*
Y130548D01*
X398673D01*
Y130688D01*
X398534Y130688D01*
Y130827D01*
X398395D01*
Y130966D01*
X398255D01*
X398255Y131105D01*
X398116D01*
Y131384D01*
X397977D01*
Y131523D01*
X397838D01*
Y131662D01*
X397698D01*
Y131801D01*
X397559D01*
Y131941D01*
X397420D01*
Y132080D01*
X397281D01*
Y132358D01*
X397141D01*
Y132498D01*
X397002D01*
Y132637D01*
X396863D01*
Y132776D01*
X396724D01*
Y133055D01*
X396585D01*
Y133194D01*
X396445D01*
Y133472D01*
X396306D01*
Y133611D01*
X396167D01*
X396167Y133890D01*
X396028D01*
Y134168D01*
X395888D01*
Y134308D01*
X395749Y134308D01*
Y134586D01*
X395610D01*
Y134865D01*
X395192D01*
Y133472D01*
X395331D01*
Y132358D01*
X395471D01*
Y131941D01*
X395610D01*
Y130827D01*
X395749D01*
Y130131D01*
X395888D01*
Y129574D01*
X396028D01*
Y129156D01*
X396167D01*
X396167Y128738D01*
X396306D01*
Y128460D01*
X396445D01*
Y128181D01*
X396585D01*
Y127903D01*
X396724D01*
Y127764D01*
X396863D01*
Y127485D01*
X397002D01*
X397002Y127207D01*
X397141D01*
Y126929D01*
X397002D01*
X397002Y127068D01*
X396863D01*
Y127207D01*
X396724D01*
Y127346D01*
X396585D01*
Y127485D01*
X396445Y127485D01*
X396445Y127625D01*
X396306D01*
Y127764D01*
X396167D01*
Y127903D01*
X396028D01*
Y128042D01*
X395888Y128042D01*
X395749D01*
Y128182D01*
X395610Y128181D01*
Y128321D01*
X395471D01*
Y128042D01*
X395610D01*
Y127346D01*
X395749D01*
Y127207D01*
X395888D01*
Y126929D01*
X396028D01*
Y126789D01*
X396167D01*
Y126511D01*
X396306D01*
Y126232D01*
X396445D01*
X396445Y125954D01*
X396306D01*
Y126093D01*
X396167D01*
X396167Y126232D01*
X396028D01*
Y126372D01*
X395888D01*
Y126511D01*
X395610D01*
Y126650D01*
X395471D01*
Y126789D01*
X395331D01*
Y126929D01*
X395053D01*
Y127068D01*
X394914Y127068D01*
X394914Y127207D01*
X394775D01*
Y127346D01*
X394496D01*
Y127485D01*
X394357D01*
X394357Y127625D01*
X394078D01*
Y127764D01*
X393939D01*
Y127903D01*
X393661D01*
Y128042D01*
X393521D01*
Y128181D01*
X393382D01*
Y128321D01*
X393104D01*
Y128460D01*
X392965D01*
Y128599D01*
X392825D01*
X392686Y128599D01*
Y128738D01*
X392547D01*
X392547Y128878D01*
X392408Y128878D01*
X392268D01*
Y129017D01*
X392129D01*
Y129156D01*
X391990D01*
Y129295D01*
X391712D01*
Y129435D01*
X391572D01*
Y129574D01*
X391155D01*
Y129017D01*
X391294D01*
Y128738D01*
X391433D01*
Y128460D01*
X391572D01*
Y128181D01*
X391712D01*
Y127903D01*
X391851D01*
Y127625D01*
X391990D01*
Y127346D01*
X392129D01*
Y127068D01*
X392268Y127068D01*
Y126789D01*
X392408Y126789D01*
Y126511D01*
X392547D01*
X392547Y126232D01*
X392686D01*
Y125954D01*
X392825D01*
Y125815D01*
X392965D01*
Y125536D01*
X393104D01*
Y125258D01*
X393243D01*
Y124979D01*
X393382D01*
Y124701D01*
X393521D01*
Y124562D01*
X393661D01*
Y124283D01*
X393800D01*
Y124005D01*
X393939D01*
Y123865D01*
X394078D01*
Y123587D01*
X394218D01*
Y123448D01*
X394357D01*
Y123169D01*
X394496Y123169D01*
Y122891D01*
X394635D01*
X394635Y122752D01*
X394775D01*
Y122473D01*
X394914D01*
Y122334D01*
X395053D01*
Y122056D01*
X395192D01*
Y121777D01*
X395331D01*
Y121638D01*
X395471D01*
Y121499D01*
X395610D01*
Y121220D01*
X395749D01*
Y121081D01*
X396028D01*
Y120942D01*
X396167D01*
Y120802D01*
X396306Y120802D01*
X396445Y120802D01*
Y120663D01*
X396585D01*
Y120524D01*
X396863D01*
Y120385D01*
X397002D01*
X397002Y120246D01*
X397141D01*
Y120106D01*
X397281D01*
Y119967D01*
X397420D01*
Y119828D01*
X397559D01*
Y119689D01*
X397838D01*
Y119550D01*
X397977D01*
Y119271D01*
X398116D01*
Y119132D01*
X398255D01*
X398255Y118993D01*
X398395D01*
Y118853D01*
X398534D01*
Y118714D01*
X398116D01*
Y118853D01*
X397838D01*
Y118993D01*
X397559D01*
Y119132D01*
X397281D01*
Y119271D01*
X397002D01*
Y119410D01*
X396863D01*
Y119550D01*
X396445D01*
X396445Y118993D01*
X396585D01*
Y118853D01*
X396724D01*
Y118714D01*
X397002D01*
Y118575D01*
X397141D01*
Y118436D01*
X397281D01*
Y118296D01*
X397420D01*
Y118157D01*
X397559D01*
Y118018D01*
X397698D01*
Y117879D01*
X397420D01*
X397420Y118018D01*
X397141D01*
Y118157D01*
X396863D01*
Y118296D01*
X396445D01*
X396445Y118436D01*
X396167D01*
X396167Y118575D01*
X395888D01*
Y118714D01*
X395610D01*
Y118853D01*
X395192D01*
Y118993D01*
X394914D01*
Y119132D01*
X394635D01*
Y119271D01*
X394218D01*
Y119410D01*
X393939D01*
Y119550D01*
X393661D01*
Y119689D01*
X393382D01*
Y119828D01*
X392965D01*
Y119967D01*
X392547D01*
Y119410D01*
X392686D01*
Y119132D01*
X392825D01*
Y118853D01*
X392965D01*
Y118714D01*
X393104D01*
X393104Y118436D01*
X393243D01*
Y118157D01*
X393382D01*
X393382Y117879D01*
X393521D01*
Y117739D01*
X393661D01*
Y117461D01*
X393800D01*
Y117322D01*
X393939D01*
Y117043D01*
X394078D01*
Y116904D01*
X394218D01*
Y116626D01*
X394357D01*
X394357Y116487D01*
X394496Y116486D01*
Y116208D01*
X394635D01*
Y116069D01*
X394775D01*
Y115930D01*
X394914Y115929D01*
Y115790D01*
X395053D01*
Y115512D01*
X395192D01*
Y115373D01*
X395331D01*
Y115233D01*
X395471D01*
Y115094D01*
X395610D01*
Y114955D01*
X395749D01*
Y114816D01*
X395888D01*
Y114537D01*
X396028D01*
Y114398D01*
X396167D01*
X396167Y114259D01*
X396306D01*
Y114120D01*
X396585D01*
Y113980D01*
X396724D01*
Y113841D01*
X396863D01*
Y113702D01*
X397002D01*
Y113563D01*
X397141D01*
Y113423D01*
X397281D01*
Y113284D01*
X397559D01*
Y113145D01*
X397698D01*
Y113006D01*
X397838D01*
Y112867D01*
X397977D01*
X398116Y112866D01*
Y112727D01*
X398255D01*
Y112588D01*
X398395Y112588D01*
Y112449D01*
X398673D01*
Y112310D01*
X398812D01*
Y112170D01*
X399091D01*
Y112031D01*
X399369D01*
Y111892D01*
X399647D01*
Y111753D01*
X399926D01*
Y111614D01*
X400204D01*
Y111474D01*
X400483D01*
Y111335D01*
X400761D01*
Y111196D01*
X401179D01*
Y111057D01*
X401457D01*
Y110917D01*
X400622D01*
Y111057D01*
X399926D01*
Y111196D01*
X399369D01*
Y111335D01*
X398951D01*
Y111474D01*
X398673D01*
Y111614D01*
X398255D01*
Y111753D01*
X397977D01*
X397977Y111892D01*
X397420D01*
Y112031D01*
X396724D01*
Y111614D01*
X396863D01*
Y111474D01*
X397002D01*
X397002Y111196D01*
X397141D01*
Y111057D01*
X397281D01*
Y110917D01*
X397420D01*
Y110778D01*
X397559D01*
Y110639D01*
X397698D01*
Y110500D01*
X397838D01*
Y110360D01*
X397977D01*
Y110221D01*
X398116D01*
Y110082D01*
X398255D01*
X398255Y109943D01*
X398395D01*
Y109803D01*
X398534Y109803D01*
Y109664D01*
X398673D01*
Y109525D01*
X398812D01*
Y109386D01*
X398951D01*
Y109247D01*
X399230D01*
Y109107D01*
X399369D01*
Y108968D01*
X399508D01*
Y108829D01*
X399787D01*
Y108690D01*
X399926D01*
Y108551D01*
X400204D01*
Y108411D01*
X400344D01*
Y108272D01*
X400622D01*
X400622Y108133D01*
X400761D01*
Y107994D01*
X401040D01*
X401040Y107854D01*
X401179D01*
Y107715D01*
X401457D01*
Y107576D01*
X401597Y107576D01*
X401736D01*
Y107437D01*
X402014D01*
Y107297D01*
X402293D01*
Y107158D01*
X402432D01*
Y107019D01*
X402710D01*
Y106880D01*
X402850Y106880D01*
X402989D01*
Y106741D01*
X403267D01*
Y106601D01*
X403546D01*
Y106462D01*
X403824D01*
Y106323D01*
X404103D01*
Y106184D01*
X404381D01*
Y106044D01*
X404660D01*
Y105905D01*
X405077D01*
Y105766D01*
X405217Y105766D01*
X405495D01*
X405495Y105627D01*
X405913D01*
Y105487D01*
X406470D01*
Y105348D01*
X406887D01*
Y105209D01*
X407305D01*
Y104930D01*
X405913D01*
X405913Y104513D01*
X406052D01*
Y104374D01*
X406330D01*
Y104234D01*
X406470D01*
Y104095D01*
X406609Y104095D01*
X406748D01*
Y103956D01*
X406887D01*
Y103817D01*
X407166D01*
Y103678D01*
X407305D01*
Y103538D01*
X407584D01*
Y103399D01*
X407862D01*
X407862Y103260D01*
X408001D01*
Y103121D01*
X408140D01*
Y102981D01*
X408419D01*
Y102842D01*
X408558Y102842D01*
X408558Y102703D01*
X408697Y102703D01*
X408837Y102703D01*
Y102564D01*
X408976D01*
Y102424D01*
X409254D01*
Y102285D01*
X409393D01*
Y102146D01*
X409672D01*
Y102007D01*
X409950D01*
Y101868D01*
X409254D01*
Y102007D01*
X408837D01*
Y102146D01*
X408697Y102146D01*
X408558Y102146D01*
X408419D01*
Y102285D01*
X408001D01*
Y102424D01*
X407723D01*
Y102564D01*
X407444D01*
Y102703D01*
X407166D01*
Y102842D01*
X407027Y102842D01*
X406887D01*
Y102981D01*
X406609D01*
Y103121D01*
X406470D01*
X406470Y103260D01*
X406330Y103260D01*
X406191Y103260D01*
Y103399D01*
X405913D01*
Y103538D01*
X405774D01*
Y103678D01*
X405495D01*
Y103817D01*
X405217D01*
X405217Y103956D01*
X405077Y103956D01*
Y104095D01*
X404938D01*
X404799Y104095D01*
Y104234D01*
X404660D01*
Y104374D01*
X404381D01*
Y104513D01*
X404103D01*
Y104652D01*
X403964D01*
Y104791D01*
X403685D01*
Y104930D01*
X403546D01*
Y105070D01*
X403267D01*
Y105209D01*
X403128D01*
X403128Y105348D01*
X402989D01*
Y106044D01*
X402571D01*
Y106184D01*
X402293D01*
Y106323D01*
X402014D01*
Y106462D01*
X401736D01*
Y106601D01*
X401457D01*
Y106741D01*
X401179D01*
Y106880D01*
X400900D01*
Y107019D01*
X400622D01*
Y107158D01*
X400483D01*
Y107297D01*
X400204D01*
Y107437D01*
X399926D01*
Y107576D01*
X399787D01*
Y107715D01*
X399508D01*
Y107854D01*
X399369D01*
Y107994D01*
X399230D01*
Y108133D01*
X398951D01*
Y108272D01*
X398812D01*
Y108411D01*
X398673D01*
Y108551D01*
X398534D01*
Y108690D01*
X398255D01*
Y108829D01*
X398116D01*
Y108968D01*
X397977D01*
Y109107D01*
X397838D01*
Y109247D01*
X397698D01*
Y109386D01*
X397559D01*
Y109525D01*
X397420D01*
Y109664D01*
X397281D01*
Y109803D01*
X397141D01*
Y109943D01*
X397002D01*
X397002Y110082D01*
X396863D01*
Y110221D01*
X396724D01*
Y110360D01*
X396585D01*
Y110500D01*
X396445D01*
X396445Y110778D01*
X396306D01*
Y110917D01*
X396167D01*
Y111057D01*
X396028D01*
Y111196D01*
X395888D01*
Y111474D01*
X395749D01*
Y111614D01*
X395610D01*
Y111753D01*
X395471D01*
Y111892D01*
X395331D01*
Y112170D01*
X395192D01*
Y112310D01*
X395053D01*
Y112449D01*
X394914D01*
X394914Y112727D01*
X394775D01*
Y113284D01*
X394914D01*
Y113423D01*
X395053D01*
X395192Y113423D01*
Y113841D01*
X395053D01*
Y113980D01*
X394914D01*
Y114120D01*
X394775D01*
Y114259D01*
X394635D01*
X394635Y114398D01*
X394496D01*
Y114677D01*
X394357Y114677D01*
X394357Y114816D01*
X394218D01*
Y114955D01*
X394078D01*
Y115094D01*
X393939D01*
Y115233D01*
X393800D01*
Y115512D01*
X393661D01*
Y115651D01*
X393521D01*
Y115790D01*
X393382D01*
Y116069D01*
X393243D01*
Y116208D01*
X392965D01*
Y116347D01*
X392825D01*
Y116626D01*
X392686D01*
Y116765D01*
X392547D01*
Y117043D01*
X392408D01*
Y117461D01*
X392268D01*
Y117739D01*
X392129D01*
Y118018D01*
X391990D01*
Y118157D01*
X391851D01*
Y118436D01*
X391712D01*
Y118714D01*
X391572D01*
Y118993D01*
X391433D01*
Y119271D01*
X391294D01*
Y119410D01*
X391155D01*
Y119689D01*
X391015D01*
Y119967D01*
X390876D01*
Y120106D01*
X390737D01*
X390737Y120385D01*
X390598D01*
Y120524D01*
X390458D01*
Y120802D01*
X390319D01*
Y121081D01*
X390180D01*
Y121359D01*
X390319D01*
Y121638D01*
X390458D01*
Y121777D01*
X390598D01*
Y121916D01*
X390737D01*
X390876Y121916D01*
X391015D01*
X391155Y121916D01*
X391294Y121916D01*
Y121777D01*
X391572D01*
Y121638D01*
X391990D01*
Y121499D01*
X392268D01*
Y121359D01*
X392408Y121359D01*
X392547D01*
Y121220D01*
X392825D01*
Y121081D01*
X393104D01*
Y120942D01*
X393382D01*
Y120802D01*
X393661D01*
Y120663D01*
X393939D01*
Y120524D01*
X394218D01*
Y120385D01*
X394357D01*
Y120802D01*
X394218D01*
Y121499D01*
X394357D01*
X394357Y121638D01*
X394218D01*
Y121916D01*
X394078D01*
Y122056D01*
X393939D01*
Y122195D01*
X393800D01*
Y122334D01*
X393661D01*
Y122612D01*
X393521D01*
Y122752D01*
X393382D01*
X393382Y122891D01*
X393243D01*
Y123169D01*
X393104D01*
Y123309D01*
X392965D01*
Y123587D01*
X392825D01*
Y123726D01*
X392686D01*
Y124005D01*
X392547Y124005D01*
Y124283D01*
X392408D01*
Y124422D01*
X392268Y124422D01*
Y124701D01*
X392129D01*
Y124979D01*
X391990Y124979D01*
Y125119D01*
X391851D01*
Y125397D01*
X391712D01*
Y125675D01*
X391572D01*
Y125954D01*
X391433D01*
Y126232D01*
X391294D01*
Y126511D01*
X391155D01*
Y126789D01*
X391015Y126789D01*
Y127068D01*
X390876Y127068D01*
Y127346D01*
X390737D01*
Y127625D01*
X390598D01*
Y127764D01*
X390458D01*
Y128042D01*
X390319D01*
Y128181D01*
X390041D01*
Y128321D01*
X389762D01*
Y128460D01*
X389484D01*
Y128599D01*
X389345D01*
Y128738D01*
X389206Y128738D01*
X389066D01*
Y128878D01*
X388927Y128878D01*
X388788Y128878D01*
Y129017D01*
X388509D01*
Y129156D01*
X388231D01*
Y129295D01*
X388092D01*
Y129435D01*
X387952D01*
X387813Y129435D01*
Y129574D01*
X387674D01*
Y129713D01*
X387535D01*
Y129852D01*
X387396D01*
Y129992D01*
X387256D01*
Y130131D01*
X387117D01*
Y130270D01*
X386978D01*
Y130409D01*
X386839D01*
Y130548D01*
X386699D01*
Y130688D01*
X386560D01*
Y130827D01*
X386421D01*
Y130966D01*
X386282D01*
Y131245D01*
X386143D01*
Y131384D01*
X386003D01*
Y131523D01*
X385864D01*
Y131662D01*
X385725D01*
Y131801D01*
X385586D01*
Y131941D01*
X385446D01*
Y132219D01*
X385307D01*
Y132358D01*
X385168D01*
Y132498D01*
X385029D01*
Y132637D01*
X384889D01*
Y132776D01*
X384750D01*
Y132915D01*
X384611D01*
Y133055D01*
X384472D01*
Y133194D01*
X384333D01*
Y133472D01*
X384193D01*
Y133611D01*
X384054D01*
Y133751D01*
X383915D01*
Y133890D01*
X383776D01*
Y134029D01*
X383636D01*
Y134168D01*
X383497D01*
Y134308D01*
X383358D01*
Y134447D01*
X383219D01*
Y134586D01*
X383079D01*
Y134865D01*
X382940D01*
Y135004D01*
X382801D01*
Y135143D01*
X382662D01*
Y135282D01*
X382523D01*
Y135421D01*
X382383D01*
Y135561D01*
X382244Y135561D01*
Y135700D01*
X382105D01*
Y135839D01*
X381966Y135839D01*
Y135978D01*
X381826D01*
Y136117D01*
X381687D01*
Y136257D01*
X381548D01*
Y136535D01*
X381409D01*
Y136674D01*
X381269D01*
Y136814D01*
X381130Y136814D01*
Y136953D01*
X380991D01*
Y137092D01*
X380852D01*
Y137231D01*
X380713Y137231D01*
X380713Y137371D01*
X380573D01*
Y137510D01*
X380434D01*
Y137649D01*
X380295D01*
Y137788D01*
X380156D01*
X380156Y137928D01*
X380017D01*
Y138067D01*
X379877D01*
Y138206D01*
X379738D01*
Y138345D01*
X379599D01*
Y138484D01*
X379459D01*
X379459Y138624D01*
X379320D01*
Y138763D01*
X379181D01*
X379181Y138902D01*
X379042D01*
Y139180D01*
X378903D01*
X378903Y139320D01*
X378763D01*
Y139459D01*
X378624D01*
Y139598D01*
X378485D01*
Y139737D01*
X378346D01*
Y139877D01*
X378206D01*
Y140016D01*
X378067D01*
Y140155D01*
X377928D01*
Y140294D01*
X377789D01*
Y140434D01*
X377650Y140434D01*
Y140573D01*
X377510D01*
Y140712D01*
X377371D01*
Y140851D01*
X377232Y140851D01*
Y140990D01*
X377093D01*
X376953Y140990D01*
Y141130D01*
X376814D01*
Y141269D01*
X376675D01*
Y141408D01*
X376536D01*
Y141547D01*
X376397D01*
Y141687D01*
X376257D01*
Y141826D01*
X376118D01*
Y141965D01*
X375979D01*
Y142104D01*
X375840D01*
X375840Y142243D01*
X375561D01*
Y142383D01*
X375422D01*
Y142522D01*
X375283D01*
Y142661D01*
X375144D01*
Y142801D01*
X374865D01*
Y142940D01*
X374587D01*
Y143079D01*
X374447D01*
X374447Y143218D01*
X374308D01*
Y143497D01*
X374030D01*
Y143636D01*
X373751D01*
Y143775D01*
X373473D01*
Y143914D01*
X373194D01*
Y144053D01*
X372916D01*
Y144193D01*
X372498D01*
Y144332D01*
X372080D01*
Y144471D01*
X371663D01*
X371663Y144610D01*
X371245D01*
Y144750D01*
X370967D01*
Y144889D01*
X370549D01*
Y145028D01*
X370271D01*
Y145167D01*
X369992D01*
Y145307D01*
X369853Y145307D01*
X369714Y145307D01*
X369574Y145307D01*
Y145446D01*
X369296D01*
Y145585D01*
X369017D01*
Y145724D01*
X368878D01*
X368739Y145724D01*
Y145863D01*
X368461D01*
Y146003D01*
X368321Y146003D01*
X368043D01*
Y146142D01*
X367904D01*
X367764Y146142D01*
X367347D01*
Y146003D01*
X367625D01*
Y145863D01*
X368043D01*
Y145724D01*
X368321D01*
X368321Y145585D01*
X368461D01*
Y145446D01*
X368600D01*
Y145167D01*
X368043D01*
Y145307D01*
X367486D01*
Y145446D01*
X367068D01*
Y145585D01*
X366511D01*
X366511Y145724D01*
X365815D01*
Y145863D01*
X364701D01*
X364701Y145724D01*
X364284D01*
Y145585D01*
X364005D01*
Y145446D01*
X363866D01*
Y145167D01*
X363727D01*
Y144750D01*
X363866D01*
Y144332D01*
X364005D01*
Y144193D01*
X364145D01*
Y144053D01*
X364284D01*
Y143914D01*
X364423D01*
Y143775D01*
X364841D01*
Y143914D01*
X365258D01*
Y144053D01*
X366929D01*
Y143914D01*
X367207D01*
Y143775D01*
X367347D01*
Y143497D01*
X366929D01*
Y143357D01*
X365676D01*
Y143218D01*
X365397D01*
Y143079D01*
X365258D01*
Y142104D01*
X365397D01*
Y141965D01*
X365676D01*
Y141826D01*
X365955D01*
Y141687D01*
X366094Y141687D01*
X366233Y141687D01*
X366372Y141687D01*
X366511Y141687D01*
X366651Y141687D01*
X366790Y141687D01*
X366929Y141687D01*
X367068D01*
X367207Y141687D01*
X367347D01*
X367486Y141687D01*
X367904D01*
Y141547D01*
X368321D01*
Y141408D01*
X368739D01*
Y141269D01*
X369157D01*
Y141130D01*
X369574D01*
Y140990D01*
X369714Y140990D01*
X369853Y140990D01*
X369853Y140851D01*
X369992D01*
Y140712D01*
X370410D01*
X370410Y140573D01*
X370688D01*
Y140434D01*
X370827Y140434D01*
X370967D01*
Y140294D01*
X371384D01*
Y140155D01*
X372359D01*
Y140016D01*
X372916D01*
Y139877D01*
X373055D01*
Y139737D01*
X373194D01*
X373194Y139598D01*
X373334D01*
Y139459D01*
X373473D01*
Y139180D01*
X373612D01*
Y139041D01*
X373751Y139041D01*
Y138902D01*
X373890D01*
Y138763D01*
X374030D01*
Y138624D01*
X374169D01*
Y138484D01*
X374308D01*
Y138206D01*
X374447D01*
Y138067D01*
X374587D01*
Y137928D01*
X374726D01*
Y137649D01*
X374865D01*
Y137510D01*
X375004D01*
X375004Y137231D01*
X375144D01*
Y136953D01*
X375283D01*
Y136814D01*
X375422D01*
Y136535D01*
X375561D01*
Y136257D01*
X375700D01*
Y135978D01*
X375840D01*
Y135839D01*
X375979D01*
Y135561D01*
X376118D01*
Y135282D01*
X376257D01*
Y135004D01*
X376397D01*
Y134725D01*
X376536D01*
Y134447D01*
X376675D01*
Y134029D01*
X376814D01*
Y133751D01*
X376953D01*
Y133472D01*
X377093D01*
Y133194D01*
X377232D01*
Y132915D01*
X377371D01*
Y132498D01*
X377510Y132498D01*
Y132219D01*
X377650D01*
X377650Y131801D01*
X377789D01*
Y131523D01*
X377928D01*
Y131105D01*
X378067D01*
Y130827D01*
X378206D01*
Y130409D01*
X378346D01*
Y129992D01*
X378485D01*
Y129713D01*
X378624D01*
Y129295D01*
X378763Y129295D01*
Y128878D01*
X378903D01*
Y128460D01*
X379042D01*
Y128042D01*
X379181Y128042D01*
Y127485D01*
X379320D01*
Y126929D01*
X379459D01*
Y126372D01*
X379599D01*
Y125954D01*
X379738D01*
Y125536D01*
X379877D01*
Y125258D01*
X380017D01*
Y125119D01*
X380156D01*
Y124840D01*
X380295D01*
Y124701D01*
X380434D01*
Y124562D01*
X380573Y124562D01*
Y124422D01*
X380713Y124422D01*
Y124283D01*
X380852D01*
Y124144D01*
X380991D01*
Y124005D01*
X381130D01*
Y123865D01*
X381269D01*
Y123726D01*
X381548D01*
Y123587D01*
X381826D01*
Y123448D01*
X382105D01*
Y123309D01*
X382383D01*
Y123169D01*
X382523Y123169D01*
X382662D01*
Y123030D01*
X382523D01*
Y122891D01*
X381687D01*
Y123030D01*
X379877D01*
Y122891D01*
X380017D01*
Y122612D01*
X380156D01*
Y122473D01*
X380295D01*
Y122334D01*
X380434D01*
Y122056D01*
X380573D01*
Y121916D01*
X380713Y121916D01*
Y121777D01*
X380991D01*
Y121638D01*
X381130D01*
Y121499D01*
X381269D01*
Y121359D01*
X381409D01*
Y121220D01*
X381687D01*
Y121081D01*
X381966D01*
Y120942D01*
X382244D01*
Y120802D01*
X382383Y120802D01*
Y120663D01*
X382662D01*
Y120524D01*
X382940D01*
Y120385D01*
X383079Y120385D01*
X383219D01*
Y120246D01*
X383497D01*
Y120106D01*
X383636D01*
Y119967D01*
X381966D01*
Y119828D01*
X382244D01*
Y119689D01*
X382383Y119689D01*
X382523Y119689D01*
Y119550D01*
X382662D01*
X382801Y119549D01*
Y119410D01*
X383079D01*
Y119271D01*
X383358D01*
Y119132D01*
X383636D01*
Y118993D01*
X383915D01*
Y118853D01*
X384054D01*
Y118714D01*
X384193D01*
Y118575D01*
X384054Y118575D01*
X383915D01*
Y118436D01*
X383358D01*
Y118296D01*
X383079D01*
X382940Y118296D01*
Y118018D01*
X383079D01*
Y117879D01*
X383358D01*
Y117739D01*
X383497D01*
Y117600D01*
X383636D01*
Y117461D01*
X383915D01*
Y117322D01*
X384054D01*
Y117183D01*
X384193Y117183D01*
X384333Y117183D01*
Y117043D01*
X384472D01*
Y116904D01*
X384611D01*
Y116765D01*
X384889D01*
Y116626D01*
X385029D01*
Y116347D01*
X385168D01*
Y116208D01*
X385307D01*
Y116069D01*
X385446D01*
Y115930D01*
X385586D01*
Y115790D01*
X385725D01*
Y115651D01*
X385864D01*
Y115512D01*
X386003D01*
Y115373D01*
X386143D01*
Y115233D01*
X386282D01*
Y115094D01*
X386421D01*
X386421Y114955D01*
X386560D01*
Y114816D01*
X386699D01*
Y114677D01*
X386839D01*
Y114537D01*
X386978D01*
Y114398D01*
X387117D01*
Y114259D01*
X387256D01*
Y114120D01*
X387396D01*
Y113841D01*
X387535D01*
Y113702D01*
X387674D01*
X387674Y113563D01*
X387813D01*
Y113423D01*
X387952Y113423D01*
Y113284D01*
X388092D01*
Y113145D01*
X388231D01*
Y113006D01*
X388370D01*
Y112867D01*
X388509D01*
Y112727D01*
X388648D01*
Y112588D01*
X388788D01*
Y112449D01*
X388927D01*
Y112310D01*
X389066D01*
Y112031D01*
X389206D01*
Y111892D01*
X389345D01*
Y111753D01*
X389484D01*
Y111614D01*
X389623D01*
Y111474D01*
X389762D01*
Y111335D01*
X389902D01*
Y111196D01*
X390041D01*
Y111057D01*
X390180D01*
Y110778D01*
X390319D01*
Y110639D01*
X390458D01*
Y110500D01*
X390598D01*
Y110360D01*
X390737D01*
Y110221D01*
X390876D01*
Y110082D01*
X391015D01*
Y109803D01*
X391155Y109803D01*
Y109664D01*
X391294D01*
Y109386D01*
X391433D01*
Y109247D01*
X391572D01*
Y109107D01*
X391712D01*
Y108968D01*
X391851D01*
Y108690D01*
X391990D01*
Y108551D01*
X392129D01*
Y108272D01*
X392268D01*
Y108133D01*
X392408D01*
Y107994D01*
X392547D01*
X392547Y107715D01*
X392686D01*
Y107576D01*
X392825D01*
Y107297D01*
X392965D01*
Y107158D01*
X393104D01*
Y107019D01*
X393521D01*
Y108133D01*
X393661D01*
Y107437D01*
X393800D01*
Y106741D01*
X393939D01*
Y105905D01*
X394078D01*
Y105209D01*
X394218D01*
Y104652D01*
X394357D01*
Y104095D01*
X394496Y104095D01*
Y102285D01*
X394635D01*
Y101868D01*
X394496D01*
Y99779D01*
X394357Y99779D01*
Y99222D01*
X394218D01*
Y98108D01*
X394078D01*
Y97691D01*
X393939D01*
Y97551D01*
X393800D01*
Y98526D01*
X393661D01*
Y99501D01*
X393800D01*
X393800Y102564D01*
X393661D01*
Y103538D01*
X393521D01*
Y104513D01*
X393382D01*
X393382Y105487D01*
X393243D01*
Y105766D01*
X393104D01*
X393104Y106044D01*
X392965D01*
Y106184D01*
X392825D01*
Y106462D01*
X392686D01*
Y106601D01*
X392547D01*
Y106741D01*
X392408D01*
Y106880D01*
X392268D01*
Y107019D01*
X392129D01*
Y107158D01*
X391990D01*
Y107297D01*
X391851D01*
Y107576D01*
X391712D01*
Y107715D01*
X391572D01*
Y107854D01*
X391433D01*
Y107994D01*
X391294D01*
Y108133D01*
X391155D01*
Y108272D01*
X391015D01*
Y108551D01*
X390876D01*
Y108690D01*
X390737D01*
Y108829D01*
X390598D01*
Y108968D01*
X390458D01*
Y109107D01*
X390319D01*
Y109247D01*
X390180D01*
X390180Y109386D01*
X390041D01*
Y109525D01*
X389902D01*
Y109803D01*
X389762D01*
Y109943D01*
X389623D01*
Y110082D01*
X389484D01*
Y110221D01*
X389345D01*
Y110360D01*
X389206D01*
Y110500D01*
X389066D01*
Y110639D01*
X388927D01*
Y110778D01*
X388788D01*
Y110917D01*
X388648D01*
Y111196D01*
X388509D01*
Y111335D01*
X388370D01*
Y111474D01*
X388231D01*
Y111614D01*
X388092D01*
Y111753D01*
X387952D01*
Y111892D01*
X387813D01*
Y112031D01*
X387674D01*
Y112170D01*
X387535D01*
Y112310D01*
X387396D01*
X387396Y112449D01*
X387256D01*
Y112588D01*
X387117Y112588D01*
Y112727D01*
X386978D01*
Y112867D01*
X386839D01*
Y113006D01*
X386699D01*
Y113284D01*
X386560D01*
Y113423D01*
X386421Y113423D01*
Y113563D01*
X386282D01*
Y113702D01*
X386143D01*
Y113841D01*
X386003D01*
Y113980D01*
X385586D01*
Y113423D01*
X385446D01*
Y113006D01*
X385307D01*
Y112588D01*
X385168Y112588D01*
Y112170D01*
X385029D01*
Y111892D01*
X384889D01*
Y111474D01*
X384750D01*
Y111196D01*
X384611D01*
Y110917D01*
X384472D01*
Y110778D01*
X384750D01*
Y110917D01*
X385029D01*
Y111057D01*
X385307D01*
Y111196D01*
X385586D01*
Y111335D01*
X385725D01*
Y111474D01*
X386003D01*
Y111057D01*
X385864D01*
Y110778D01*
X385725D01*
Y110360D01*
X385586D01*
Y109943D01*
X385446D01*
Y109386D01*
X385307D01*
Y108829D01*
X385168D01*
Y108133D01*
X385446D01*
Y108272D01*
X385725D01*
Y108411D01*
X385864D01*
Y108551D01*
X386003D01*
Y108690D01*
X386421D01*
Y108551D01*
X386282D01*
Y108133D01*
X386143D01*
Y107576D01*
X386003D01*
Y106462D01*
X385864D01*
Y103121D01*
X386003D01*
Y102007D01*
X386143D01*
Y101172D01*
X386282D01*
Y100893D01*
X386421D01*
Y101172D01*
X386560D01*
Y101450D01*
X386699D01*
Y101868D01*
X386839D01*
Y102285D01*
X386978D01*
Y102564D01*
X387117D01*
Y102842D01*
X387256Y102842D01*
Y103260D01*
X387396D01*
Y103538D01*
X387535D01*
Y103399D01*
X387674D01*
X387674Y102703D01*
X387535D01*
Y101450D01*
X387674D01*
Y99918D01*
X387813D01*
Y98944D01*
X387952D01*
Y98108D01*
X388092D01*
Y97412D01*
X388231D01*
Y96855D01*
X388370D01*
Y96995D01*
X388509D01*
Y97551D01*
X388648D01*
X388648Y98108D01*
X388788D01*
Y98665D01*
X388927D01*
X388927Y99083D01*
X389066D01*
Y99779D01*
X389206Y99779D01*
Y100058D01*
X389345D01*
Y99918D01*
X389484D01*
Y96159D01*
X389623Y96159D01*
Y95602D01*
X389762Y95602D01*
Y95185D01*
X389902D01*
Y94628D01*
X390041D01*
Y94210D01*
X390180D01*
X390180Y93932D01*
X390319D01*
Y93514D01*
X390458D01*
Y93236D01*
X390598D01*
Y92957D01*
X390737D01*
Y92679D01*
X390876D01*
Y92400D01*
X391015D01*
Y92261D01*
X391155Y92261D01*
Y93514D01*
X391294Y93514D01*
Y94488D01*
X391433D01*
Y94210D01*
X391572D01*
Y93792D01*
X391712D01*
Y93375D01*
X391851D01*
Y92539D01*
X391990D01*
Y91286D01*
X392129Y91286D01*
Y90451D01*
X391990Y90451D01*
Y90173D01*
X391712D01*
Y90033D01*
X391155D01*
Y89755D01*
X391294D01*
X391294Y88919D01*
X391433Y88919D01*
Y87666D01*
X391572Y87666D01*
Y86692D01*
X391712D01*
Y85856D01*
X391851D01*
Y84882D01*
X391990D01*
Y84046D01*
X392129D01*
Y83072D01*
X392268D01*
Y82236D01*
X392408D01*
Y81401D01*
X392547D01*
Y80566D01*
X392686D01*
Y79591D01*
X392825Y79591D01*
Y78477D01*
X392965Y78477D01*
Y77085D01*
X393104D01*
Y71377D01*
X392965D01*
Y70124D01*
X392825D01*
Y69428D01*
X392686D01*
Y68871D01*
X392547D01*
Y68175D01*
X392408D01*
Y67478D01*
X392268D01*
Y67061D01*
X392129D01*
Y66643D01*
X391990D01*
Y66365D01*
X391851D01*
Y66086D01*
X392129D01*
Y66225D01*
X392408D01*
Y66365D01*
X392547D01*
X392547Y66504D01*
X392686Y66504D01*
Y66643D01*
X392825D01*
Y66782D01*
X392965D01*
Y66922D01*
X393104D01*
Y67061D01*
X393243D01*
Y67339D01*
X393382D01*
Y67478D01*
X393521D01*
Y67618D01*
X393661D01*
Y67757D01*
X393800Y67757D01*
X393800Y68035D01*
X393939D01*
Y68175D01*
X394078D01*
Y68314D01*
X394218D01*
Y68453D01*
X394357D01*
Y68592D01*
X394496D01*
Y68871D01*
X394635D01*
X394635Y69010D01*
X394775D01*
Y69149D01*
X394914D01*
Y69288D01*
X395053D01*
Y69567D01*
X395192Y69567D01*
Y69706D01*
X395331D01*
Y69845D01*
X395471D01*
Y70124D01*
X395610D01*
Y70402D01*
X395749D01*
Y70681D01*
X395888D01*
Y70959D01*
X396028D01*
Y71516D01*
X396167D01*
Y71934D01*
X396306D01*
Y72491D01*
X396445D01*
X396445Y73326D01*
X396585D01*
Y73883D01*
X396724D01*
Y74440D01*
X396863D01*
Y74579D01*
X397002D01*
Y74161D01*
X397141D01*
Y71655D01*
X397002D01*
X397002Y71098D01*
X396863D01*
Y70541D01*
X396724D01*
Y70124D01*
X396585D01*
Y69845D01*
X396445D01*
X396445Y69428D01*
X396306D01*
Y69149D01*
X396167D01*
Y69010D01*
X396028D01*
Y68731D01*
X395888D01*
Y68592D01*
X395749D01*
Y68453D01*
X395610D01*
Y68314D01*
X395471D01*
Y68175D01*
X395331D01*
Y68035D01*
X395053D01*
Y67896D01*
X394914D01*
Y67757D01*
X394775D01*
Y67478D01*
X394635D01*
Y67339D01*
X394496D01*
Y67200D01*
X394357D01*
Y67061D01*
X394218D01*
Y66782D01*
X394078D01*
Y66643D01*
X393939D01*
Y66504D01*
X393800D01*
X393800Y66365D01*
X393661D01*
Y66225D01*
X393521D01*
Y66086D01*
X393382D01*
Y65947D01*
X393243D01*
Y65668D01*
X393104D01*
Y65529D01*
X392965D01*
Y65390D01*
X392825D01*
Y65251D01*
X392686D01*
Y65111D01*
X392547D01*
Y64833D01*
X392408D01*
Y64694D01*
X392268D01*
Y64555D01*
X392129D01*
Y64415D01*
X391990Y64415D01*
Y64137D01*
X391851D01*
Y63998D01*
X391712D01*
Y63858D01*
X391572D01*
Y63719D01*
X391433D01*
Y63441D01*
X391294Y63441D01*
X391294Y63302D01*
X391155Y63302D01*
Y63162D01*
X391015D01*
Y63023D01*
X390876D01*
Y62884D01*
X390737Y62884D01*
Y62605D01*
X390598D01*
Y62466D01*
X390458D01*
Y62327D01*
X390319D01*
Y62188D01*
X390180D01*
Y62049D01*
X390041Y62049D01*
Y61770D01*
X389902D01*
Y61631D01*
X389762D01*
Y61492D01*
X389623D01*
Y61352D01*
X389484D01*
Y61074D01*
X389345D01*
Y60935D01*
X389206Y60935D01*
Y60795D01*
X389066Y60795D01*
Y60656D01*
X388927D01*
Y60517D01*
X388788D01*
Y60239D01*
X388648D01*
Y60099D01*
X388509D01*
Y59960D01*
X388370D01*
Y59682D01*
X388231D01*
Y59542D01*
X388092D01*
Y59403D01*
X387952D01*
Y59125D01*
X387813D01*
Y58986D01*
X387674D01*
X387674Y58707D01*
X387535D01*
Y58568D01*
X387396D01*
Y58289D01*
X387256D01*
Y58150D01*
X387117D01*
Y57872D01*
X386978D01*
Y57733D01*
X386839D01*
Y57454D01*
X386699D01*
Y57315D01*
X386560D01*
Y57036D01*
X386421D01*
Y56897D01*
X386282D01*
Y56619D01*
X386143D01*
Y56340D01*
X386003D01*
Y56201D01*
X385864Y56201D01*
Y55922D01*
X385725Y55922D01*
Y55644D01*
X385586D01*
Y55505D01*
X385446D01*
Y55226D01*
X385307D01*
Y54948D01*
X385168D01*
Y54669D01*
X385029D01*
Y54530D01*
X384889D01*
Y54252D01*
X384750D01*
Y53973D01*
X384611D01*
Y53834D01*
X384472D01*
Y53556D01*
X384333D01*
Y53277D01*
X384193D01*
Y52999D01*
X384054D01*
Y52720D01*
X383915D01*
Y52581D01*
X383776D01*
X383776Y52303D01*
X383636D01*
Y52024D01*
X383497D01*
Y51467D01*
X383915D01*
Y51606D01*
X384054D01*
Y51746D01*
X384193D01*
Y51885D01*
X384472D01*
Y52024D01*
X384611D01*
Y52163D01*
X384750D01*
Y51885D01*
X384611D01*
Y51606D01*
X384472D01*
Y51328D01*
X384333D01*
Y51050D01*
X384193D01*
Y50771D01*
X384054D01*
Y50493D01*
X383915D01*
Y50214D01*
X383776D01*
X383776Y49657D01*
X384333D01*
Y49797D01*
X384889D01*
Y49657D01*
X384750D01*
Y49518D01*
X384611D01*
Y49240D01*
X384472D01*
Y48961D01*
X384333D01*
Y48126D01*
X384889D01*
Y48265D01*
X385029D01*
Y47847D01*
X384889D01*
Y47290D01*
X384750D01*
Y46873D01*
X384611D01*
Y46594D01*
X384472D01*
Y43392D01*
X384611Y43392D01*
Y41860D01*
X384750D01*
Y41025D01*
X384889D01*
Y40190D01*
X385029D01*
Y39355D01*
X385168D01*
Y38658D01*
X385307Y38658D01*
Y37962D01*
X385446D01*
Y37127D01*
X385586D01*
Y36291D01*
X385725D01*
Y35317D01*
X385864D01*
Y33785D01*
X385725D01*
Y33089D01*
X385586D01*
Y32671D01*
X385446Y32672D01*
Y32254D01*
X385307D01*
Y32115D01*
X385168D01*
Y35178D01*
X385029D01*
Y35317D01*
X384889D01*
Y36570D01*
X384750D01*
Y36709D01*
X384611D01*
Y37684D01*
X384472Y37684D01*
Y38101D01*
X384333D01*
Y39355D01*
X384193Y39355D01*
Y39772D01*
X384054D01*
Y42139D01*
X383915D01*
Y42557D01*
X383776D01*
X383776Y45341D01*
X383915D01*
Y45480D01*
X384054D01*
Y46594D01*
X383915D01*
Y46733D01*
X383776D01*
Y46873D01*
X383636D01*
Y47012D01*
X383497D01*
Y48265D01*
X382662D01*
Y50075D01*
X382523D01*
Y50353D01*
X382383Y50353D01*
Y50493D01*
X382244D01*
Y50632D01*
X382105D01*
Y51189D01*
X382244D01*
Y51467D01*
X382383D01*
Y51746D01*
X382523D01*
Y52024D01*
X382662D01*
Y52303D01*
X382801Y52303D01*
Y52442D01*
X382940D01*
Y52860D01*
X383079D01*
Y52999D01*
X383219D01*
Y53138D01*
X383358D01*
Y53416D01*
X383497D01*
Y53695D01*
X383636D01*
Y53834D01*
X383776D01*
X383776Y54252D01*
X383915D01*
Y54391D01*
X384054D01*
Y54809D01*
X384193Y54809D01*
Y54948D01*
X384333D01*
Y55087D01*
X384472D01*
Y55366D01*
X384611D01*
Y55644D01*
X384750D01*
Y55783D01*
X384889D01*
Y56201D01*
X385029D01*
Y56340D01*
X385168D01*
Y56479D01*
X385307D01*
Y56758D01*
X385446D01*
Y57036D01*
X385586D01*
Y57176D01*
X385725D01*
Y57315D01*
X385864D01*
Y57593D01*
X386003Y57593D01*
Y57872D01*
X386143D01*
Y58011D01*
X386282D01*
Y58429D01*
X386421Y58429D01*
Y58568D01*
X386560D01*
Y58707D01*
X386699D01*
Y58986D01*
X386839D01*
Y59264D01*
X386978D01*
Y59403D01*
X387117D01*
Y59542D01*
X387256D01*
Y59682D01*
X387396D01*
X387396Y59821D01*
X387535D01*
Y59960D01*
X387674D01*
Y60099D01*
X387813D01*
Y60517D01*
X387952D01*
Y60656D01*
X388092D01*
Y60795D01*
X388231D01*
Y60935D01*
X388370D01*
Y61074D01*
X388509D01*
Y61213D01*
X388648D01*
X388648Y61352D01*
X388788D01*
Y61492D01*
X388927D01*
Y61909D01*
X389066D01*
Y62049D01*
X389206Y62049D01*
Y62188D01*
X389345D01*
Y62327D01*
X389484D01*
Y62466D01*
X389623Y62466D01*
Y62605D01*
X389762Y62605D01*
Y62884D01*
X389902D01*
Y63162D01*
X390041D01*
Y63302D01*
X390180Y63302D01*
Y63441D01*
X390319D01*
Y63580D01*
X390458D01*
Y63719D01*
X390598D01*
Y63858D01*
X390737D01*
X390737Y63998D01*
X390876D01*
Y64415D01*
X391015D01*
Y64833D01*
X390737D01*
Y64972D01*
X390598D01*
Y65111D01*
X390737D01*
Y65808D01*
X391015D01*
Y66086D01*
X391294D01*
X391294Y66365D01*
X391155D01*
Y66504D01*
X391294D01*
X391294Y66782D01*
X391433D01*
Y66643D01*
X391572D01*
Y66782D01*
X391433D01*
Y66922D01*
X391572Y66922D01*
Y67339D01*
X391712D01*
Y67200D01*
X391851D01*
Y67478D01*
X391712D01*
Y67757D01*
X391851D01*
Y68871D01*
X391990D01*
Y69706D01*
X392129D01*
Y73047D01*
X392268D01*
Y75414D01*
X392129D01*
Y78895D01*
X391990D01*
Y79173D01*
X391851D01*
Y80566D01*
X391712D01*
Y80844D01*
X391572D01*
Y82793D01*
X391433D01*
Y82933D01*
X391294D01*
Y84464D01*
X391155D01*
Y84743D01*
X391015D01*
Y86970D01*
X390876D01*
Y87249D01*
X390737D01*
Y89894D01*
X390876Y89894D01*
Y90869D01*
X390737D01*
Y91982D01*
X390458D01*
Y92261D01*
X390319D01*
Y92400D01*
X390180D01*
X390180Y92818D01*
X390041D01*
Y92957D01*
X389902D01*
Y93375D01*
X389762D01*
Y93514D01*
X389623Y93514D01*
Y94210D01*
X389484D01*
X389484Y94488D01*
X389345D01*
Y94906D01*
X389206D01*
Y95324D01*
X389066Y95324D01*
X388927Y95324D01*
Y95185D01*
X388648D01*
Y95045D01*
X388092D01*
Y95185D01*
X387952D01*
Y95324D01*
X387813Y95324D01*
Y95463D01*
X387674D01*
X387674Y96159D01*
X387535D01*
Y96577D01*
X387674Y96577D01*
X387674Y96716D01*
X387535D01*
Y96577D01*
X387396Y96577D01*
Y98108D01*
X387256D01*
Y98665D01*
X387117D01*
Y99083D01*
X386839D01*
Y98944D01*
X386421D01*
Y99083D01*
X386282D01*
Y99222D01*
X386143D01*
Y99361D01*
X386003D01*
Y99501D01*
X385864D01*
Y99640D01*
X385725Y99640D01*
Y99779D01*
X385586D01*
Y100197D01*
X385446D01*
Y100893D01*
X385307D01*
Y101172D01*
X385168D01*
Y107019D01*
X384889D01*
Y107158D01*
X384611D01*
Y107297D01*
X384472D01*
Y107437D01*
X384333D01*
Y107576D01*
X384193D01*
Y107715D01*
X384054D01*
Y108272D01*
X384193D01*
Y108690D01*
X384333D01*
Y109386D01*
X383636D01*
Y109247D01*
X383358D01*
Y109386D01*
X383219D01*
Y109525D01*
X383079D01*
Y109664D01*
X383219D01*
Y110082D01*
X383079D01*
Y110360D01*
X383219D01*
Y110500D01*
X383358D01*
Y110360D01*
X383497D01*
Y110500D01*
X383358D01*
Y110639D01*
X383776D01*
Y110917D01*
X383636D01*
Y111196D01*
X383776D01*
X383776Y111335D01*
X383915D01*
Y111196D01*
X384054D01*
Y111335D01*
X383915D01*
Y111614D01*
X384054D01*
Y111892D01*
X384193D01*
Y111753D01*
X384333D01*
Y111892D01*
X384193D01*
Y112031D01*
X384333D01*
Y112449D01*
X384472D01*
Y112588D01*
X384611Y112588D01*
Y113006D01*
X384750D01*
Y113145D01*
X384889D01*
Y113563D01*
X385029D01*
Y113702D01*
X385168D01*
Y114816D01*
X385029D01*
Y115233D01*
X384889D01*
Y115373D01*
X384750D01*
Y115512D01*
X384611D01*
Y115651D01*
X384472D01*
Y115790D01*
X384333D01*
Y115930D01*
X384193Y115929D01*
Y116069D01*
X384054Y116069D01*
Y116208D01*
X383915D01*
Y116347D01*
X383776D01*
Y116486D01*
X383636D01*
Y116626D01*
X383497D01*
Y116765D01*
X383358D01*
Y116904D01*
X383219D01*
Y117043D01*
X383079D01*
Y117183D01*
X382940Y117183D01*
X382801D01*
X382662Y117183D01*
Y117322D01*
X382523D01*
Y117461D01*
X382105D01*
Y117600D01*
X381966D01*
Y117739D01*
X381548D01*
Y117879D01*
X381409D01*
Y118018D01*
X381269D01*
Y118157D01*
X381130D01*
Y118296D01*
X380991D01*
Y118436D01*
X380852D01*
Y118575D01*
X380713D01*
Y119410D01*
X380573D01*
Y119689D01*
X380434Y119689D01*
Y119828D01*
X380295D01*
Y119967D01*
X380156D01*
Y120106D01*
X380017D01*
Y120246D01*
X379877D01*
Y120942D01*
X380017Y120942D01*
Y121081D01*
X379877D01*
Y121359D01*
X379738D01*
Y121638D01*
X379599D01*
Y121777D01*
X379459D01*
Y121916D01*
X379320Y121916D01*
Y122056D01*
X379181D01*
X379181Y122195D01*
X379042D01*
Y122334D01*
X378903D01*
Y122752D01*
X378763D01*
Y122891D01*
X378624D01*
Y123309D01*
X378485D01*
Y124283D01*
X379181D01*
Y124422D01*
X379320D01*
X379459Y124422D01*
Y124979D01*
X379320Y124979D01*
Y125258D01*
X379181D01*
Y125536D01*
X379042Y125536D01*
Y126511D01*
X378903D01*
Y126789D01*
X379042Y126789D01*
Y127068D01*
X378903D01*
X378903Y126929D01*
X378763D01*
Y127346D01*
X378624D01*
Y127485D01*
X378485D01*
Y128181D01*
X378346D01*
Y128321D01*
X378206D01*
Y129017D01*
X378067D01*
Y129156D01*
X377928D01*
Y129852D01*
X377789D01*
Y129992D01*
X377650D01*
Y130548D01*
X377510D01*
Y130688D01*
X377650Y130688D01*
Y130966D01*
X377510D01*
Y130827D01*
X377371D01*
Y131245D01*
X377232D01*
Y131384D01*
X377093D01*
Y131941D01*
X376953Y131941D01*
Y132219D01*
X376814D01*
Y132637D01*
X376675D01*
Y132776D01*
X376536D01*
Y133751D01*
X376257D01*
Y134308D01*
X375979D01*
Y134865D01*
X375561D01*
Y135004D01*
X375700D01*
Y135421D01*
X375561D01*
Y135282D01*
X375422D01*
Y135421D01*
X375283D01*
Y135839D01*
X375144D01*
Y135978D01*
X375004D01*
Y136396D01*
X374865D01*
Y136535D01*
X374726D01*
Y136953D01*
X374587D01*
Y137092D01*
X374447D01*
X374447Y137231D01*
X374308D01*
Y137371D01*
X374169D01*
Y137788D01*
X374030D01*
Y137928D01*
X373890D01*
Y138067D01*
X373751D01*
Y138206D01*
X373612D01*
Y138484D01*
X373751Y138484D01*
Y138763D01*
X373612D01*
Y138624D01*
X373473D01*
Y138763D01*
X373334D01*
Y138902D01*
X373194D01*
X373194Y139041D01*
X373055D01*
Y139180D01*
X372777D01*
Y139320D01*
X371106D01*
Y139459D01*
X371245D01*
Y139598D01*
X370827D01*
X370827Y139459D01*
X370688D01*
Y139598D01*
X370549D01*
Y139737D01*
X370410D01*
Y139877D01*
X370271D01*
Y140016D01*
X369853D01*
X369853Y140155D01*
X369714D01*
Y140294D01*
X369296D01*
Y140434D01*
X369157Y140434D01*
Y140573D01*
X368739D01*
Y140712D01*
X368600Y140712D01*
Y140851D01*
X368043D01*
Y140990D01*
X367486D01*
X367347Y140990D01*
X367207D01*
X367068Y140990D01*
X366929D01*
X366790Y140990D01*
X366651Y140990D01*
X366511Y140990D01*
X366372Y140990D01*
X366233Y140990D01*
X366094Y140990D01*
Y141130D01*
X365676D01*
Y141269D01*
X365537D01*
Y141408D01*
X365397D01*
Y141547D01*
X365258D01*
Y141687D01*
X365119Y141687D01*
Y141826D01*
X364980D01*
Y141965D01*
X364841D01*
Y142104D01*
X364701D01*
X364701Y142522D01*
X364562D01*
Y142661D01*
X364423D01*
Y142940D01*
X364562D01*
Y143218D01*
X364284D01*
Y143079D01*
X364005D01*
Y143218D01*
X363866D01*
Y143357D01*
X363727D01*
Y143497D01*
X363588D01*
Y143636D01*
X363448D01*
Y143775D01*
X363309D01*
Y143914D01*
X363170D01*
Y144610D01*
X363031D01*
Y144750D01*
X363170D01*
Y145028D01*
X362892D01*
Y145307D01*
X363031Y145307D01*
Y145446D01*
X363170D01*
Y145585D01*
X363309D01*
Y145724D01*
X363448D01*
X363448Y145863D01*
X363588D01*
Y146003D01*
X363727Y146003D01*
Y146142D01*
X364005D01*
Y146003D01*
X364145D01*
X364284Y146003D01*
Y146142D01*
X364145Y146142D01*
Y146281D01*
X364284D01*
Y146420D01*
X364701D01*
Y146560D01*
X364841Y146559D01*
X364980Y146560D01*
X365258D01*
X365397Y146559D01*
X365537Y146560D01*
X365676D01*
Y146699D01*
X366094D01*
Y146560D01*
X366233D01*
Y146699D01*
X366094D01*
Y146977D01*
X366233D01*
Y147116D01*
X367486D01*
Y146977D01*
X368600D01*
Y147116D01*
X369296D01*
Y147256D01*
X369853D01*
Y147116D01*
X370271D01*
Y146977D01*
X370549D01*
Y146838D01*
X370827D01*
X370827Y146699D01*
X370967D01*
Y146560D01*
X371106D01*
Y146420D01*
X371384D01*
Y146281D01*
X371524D01*
Y146142D01*
X371663D01*
X371663Y146003D01*
X371802D01*
Y145863D01*
X371941D01*
X371941Y145724D01*
X372080D01*
Y145585D01*
X372220D01*
Y145446D01*
X372498D01*
Y145307D01*
X372777D01*
Y145167D01*
X373055D01*
Y145028D01*
X373473D01*
Y144889D01*
X373751D01*
Y144750D01*
X374030D01*
Y144610D01*
X374308D01*
Y144471D01*
X374587D01*
Y144332D01*
X374726D01*
Y144193D01*
X375004D01*
Y144053D01*
X375144D01*
Y143914D01*
X375283D01*
X375283Y143775D01*
X375422D01*
Y143636D01*
X375561D01*
Y143497D01*
X375840D01*
Y143357D01*
X375979D01*
Y143218D01*
X376118D01*
Y143079D01*
X376257D01*
Y142940D01*
X376397Y142940D01*
Y142801D01*
X376675D01*
Y142661D01*
X376814D01*
Y142522D01*
X376953D01*
Y142383D01*
X377093Y142383D01*
Y142243D01*
X377232D01*
Y142104D01*
X377371Y142104D01*
Y141965D01*
X377510D01*
Y141826D01*
X377650D01*
Y141687D01*
X377789Y141687D01*
Y141547D01*
X377928D01*
Y141408D01*
X378067D01*
Y141269D01*
X378206D01*
Y141130D01*
X378346D01*
Y140990D01*
X378485D01*
Y140851D01*
X378624D01*
Y140712D01*
X378763D01*
Y140573D01*
X378903D01*
Y140434D01*
X379042D01*
Y140294D01*
X379181D01*
X379181Y140155D01*
X379320D01*
Y140016D01*
X379459D01*
X379459Y139877D01*
X379599D01*
Y139737D01*
X379738D01*
Y139598D01*
X379877D01*
Y139459D01*
X380017D01*
Y139320D01*
X380156D01*
X380156Y139180D01*
X380295D01*
Y139041D01*
X380434D01*
Y138902D01*
X380573D01*
Y138763D01*
X380713D01*
Y138624D01*
X380852D01*
Y138484D01*
X380991Y138484D01*
Y138345D01*
X381130D01*
Y138206D01*
X381269D01*
Y138067D01*
X381409D01*
Y137928D01*
X381548D01*
Y137788D01*
X381687D01*
Y137510D01*
X381826D01*
Y137371D01*
X381966D01*
X381966Y137231D01*
X382105Y137231D01*
Y137092D01*
X382244D01*
Y136953D01*
X382383D01*
Y136814D01*
X382523Y136814D01*
Y136674D01*
X382662D01*
Y136535D01*
X382801D01*
Y136396D01*
X382940D01*
Y136257D01*
X383079D01*
Y136117D01*
X383219D01*
Y135839D01*
X383358D01*
Y135700D01*
X383497D01*
Y135561D01*
X383636Y135561D01*
Y135421D01*
X383776D01*
Y135282D01*
X383915D01*
Y135143D01*
X384054D01*
Y135004D01*
X384193D01*
Y134865D01*
X384333D01*
Y134725D01*
X384472Y134725D01*
Y134586D01*
X384611D01*
Y134308D01*
X384889D01*
Y134586D01*
X385029D01*
Y135282D01*
X385168D01*
Y135839D01*
X385307D01*
Y136396D01*
X385446D01*
Y136953D01*
X385586D01*
Y137510D01*
X385725D01*
Y137928D01*
X385864D01*
Y138484D01*
X386003D01*
Y138902D01*
X386143D01*
Y139320D01*
X386282D01*
Y139877D01*
X386421D01*
X386421Y140294D01*
X386560D01*
Y140851D01*
X386699D01*
Y141408D01*
X386839D01*
Y141826D01*
X386978D01*
Y142243D01*
X387117D01*
Y142801D01*
X387256D01*
Y143218D01*
X387396D01*
Y143636D01*
X387535D01*
Y144053D01*
X387674D01*
Y144610D01*
X387813D01*
Y145028D01*
X387952D01*
Y145446D01*
X388092D01*
Y145863D01*
X388231D01*
Y146281D01*
X388370D01*
Y146699D01*
X388509D01*
Y147116D01*
X388648D01*
Y147534D01*
X388509D01*
Y148648D01*
X388648Y148648D01*
Y149344D01*
X388509D01*
Y149623D01*
X388370D01*
Y149901D01*
X388231D01*
Y150180D01*
X388092D01*
Y150319D01*
X387952D01*
Y150458D01*
X387813D01*
Y150597D01*
X387674D01*
Y150736D01*
X387535D01*
Y151015D01*
X387396Y151015D01*
Y151154D01*
X387256D01*
Y151711D01*
X387117D01*
Y151989D01*
X387256D01*
Y152546D01*
X387396D01*
Y152825D01*
X387535Y152825D01*
Y152964D01*
X387674D01*
Y153103D01*
X387813D01*
Y153243D01*
X388231D01*
Y153382D01*
X388509D01*
Y153243D01*
X388927D01*
Y153103D01*
X389206D01*
Y152964D01*
X389484D01*
X389484Y152825D01*
X389623Y152825D01*
Y152686D01*
X389762D01*
Y152546D01*
X389902D01*
Y152407D01*
X390041D01*
X390041Y152268D01*
X390180Y152268D01*
X390319D01*
Y152964D01*
X390180D01*
Y154217D01*
X390319D01*
Y154635D01*
X390458D01*
Y155052D01*
X390598D01*
Y155192D01*
X390737D01*
Y155470D01*
X390876D01*
Y155609D01*
X391015D01*
Y155749D01*
X391294D01*
Y155888D01*
X391433D01*
X391572Y155888D01*
X391851D01*
Y155749D01*
X392129D01*
Y155609D01*
X392268D01*
Y155470D01*
X392408D01*
Y155331D01*
X392547D01*
X392547Y155192D01*
X392686D01*
Y154913D01*
X392825Y154913D01*
Y154496D01*
X392965D01*
Y154078D01*
X393104D01*
Y152407D01*
X393382D01*
Y152546D01*
X393521D01*
Y152686D01*
X393661D01*
Y152964D01*
X393800D01*
X393800Y153521D01*
X393939D01*
Y153799D01*
X394078D01*
Y154078D01*
X394218D01*
Y154356D01*
X394357D01*
Y154496D01*
X394496Y154495D01*
Y154635D01*
X394635Y154635D01*
X394775D01*
Y154774D01*
X395053D01*
Y154635D01*
X395192Y154635D01*
Y154496D01*
X395331D01*
Y154356D01*
X395471D01*
Y154217D01*
X395610D01*
Y154078D01*
X395749D01*
Y153799D01*
X395888D01*
Y153521D01*
X396028D01*
Y153243D01*
X396167D01*
Y151989D01*
X396028D01*
Y151711D01*
X395888D01*
Y151433D01*
X395749D01*
Y151154D01*
X395610D01*
Y150876D01*
X395471D01*
Y150736D01*
X395331D01*
Y150458D01*
X395192D01*
Y150180D01*
X395053D01*
Y149901D01*
X394914D01*
Y149344D01*
X394775D01*
Y148926D01*
X394914D01*
Y148648D01*
X395053D01*
Y148509D01*
X395331D01*
Y148648D01*
X395610D01*
Y148787D01*
X395749Y148787D01*
Y148926D01*
X396028D01*
Y149066D01*
X397281D01*
Y148926D01*
X397420Y148926D01*
X397559Y148926D01*
X397698D01*
Y148787D01*
X397838D01*
Y148648D01*
X397977D01*
X397977Y148509D01*
X398116D01*
Y148370D01*
X398255D01*
Y148230D01*
X398395D01*
Y148091D01*
X398534D01*
Y147395D01*
X398395Y147395D01*
Y147256D01*
X398255D01*
Y147116D01*
X398116D01*
Y146977D01*
X397838D01*
Y146838D01*
X397559D01*
Y146699D01*
X397281D01*
Y146560D01*
X396863D01*
Y146420D01*
X396724D01*
Y146281D01*
X396445D01*
Y146142D01*
X396306Y146142D01*
Y146003D01*
X396167Y146003D01*
Y145863D01*
X395888D01*
Y145724D01*
X395610D01*
Y145585D01*
X394218D01*
Y145446D01*
X394078D01*
Y145167D01*
X393939D01*
Y144610D01*
X393800D01*
Y143636D01*
X393661D01*
Y142801D01*
X393521D01*
Y140434D01*
X393382Y140434D01*
X393382Y138345D01*
X393243D01*
Y136814D01*
X393382Y136814D01*
X393382Y135839D01*
X393521D01*
Y135004D01*
X393661D01*
Y134308D01*
X393800D01*
Y133751D01*
X393939D01*
Y133611D01*
X394078D01*
Y136117D01*
X394218D01*
Y136674D01*
X394357D01*
Y137092D01*
X394496D01*
Y137510D01*
X394635D01*
Y137649D01*
X394775D01*
Y137788D01*
X394914D01*
Y137649D01*
X395331D01*
Y137510D01*
X395471D01*
Y137371D01*
X395610D01*
Y137092D01*
X395749D01*
Y136814D01*
X395888D01*
Y136396D01*
X396028D01*
Y136117D01*
X396167D01*
X396167Y135839D01*
X396306D01*
Y135561D01*
X396445Y135561D01*
Y135282D01*
X396585D01*
Y135004D01*
X396724D01*
Y134725D01*
X397002D01*
Y134865D01*
X397141D01*
Y135004D01*
X397281D01*
Y135143D01*
X397838D01*
Y135004D01*
X397977D01*
Y135143D01*
X398116D01*
Y135282D01*
X397977D01*
Y135700D01*
X397838D01*
Y136257D01*
X397698D01*
Y136535D01*
X397838D01*
Y136674D01*
X397977D01*
Y136814D01*
X398116Y136814D01*
X398255Y136814D01*
X398395Y136814D01*
X398534D01*
Y136674D01*
X398673D01*
Y136535D01*
X398812D01*
Y136396D01*
X398951D01*
Y136257D01*
X399230D01*
Y136117D01*
X399369Y136117D01*
X399508Y136117D01*
Y135978D01*
X400344D01*
Y136117D01*
X400761D01*
Y136257D01*
X401040D01*
X401040Y136396D01*
X401318D01*
X401318Y136535D01*
X401597D01*
Y136674D01*
X401736D01*
Y136814D01*
X401875Y136814D01*
Y136953D01*
X402154D01*
Y137092D01*
X402293D01*
Y137231D01*
X402432D01*
Y137371D01*
X402571D01*
Y137510D01*
X402710D01*
Y137649D01*
X402850D01*
Y137788D01*
X402989D01*
Y137928D01*
X403128D01*
X403128Y138067D01*
X403267D01*
Y138206D01*
X403407D01*
Y138345D01*
X403546D01*
Y138624D01*
X403685D01*
Y138763D01*
X403824D01*
Y138902D01*
X403964D01*
Y139180D01*
X404103D01*
Y139320D01*
X404242D01*
X404242Y139598D01*
X404381D01*
Y139877D01*
X404520D01*
Y140155D01*
X404660D01*
Y140434D01*
X404799Y140434D01*
Y140712D01*
X404938D01*
X404938Y141130D01*
X405217D01*
Y141547D01*
X405356D01*
Y142104D01*
X405495D01*
X405495Y142243D01*
X405356D01*
Y142940D01*
X405217D01*
Y143636D01*
X405077D01*
Y144332D01*
X404938Y144332D01*
X404938Y145167D01*
X404799D01*
Y145446D01*
X404660D01*
Y145585D01*
X404520D01*
Y145724D01*
X404381D01*
Y145863D01*
X404103D01*
Y146003D01*
X403964D01*
Y146142D01*
X403824D01*
Y146281D01*
X403685D01*
Y146420D01*
X403546D01*
Y146559D01*
X403407Y146560D01*
Y146699D01*
X403267D01*
Y146838D01*
X403128D01*
Y147116D01*
X402989D01*
Y147256D01*
X402850D01*
Y147534D01*
X402710D01*
Y147673D01*
X402571D01*
Y147952D01*
X402432D01*
Y148787D01*
X402710D01*
Y149205D01*
X402571D01*
Y149483D01*
X402432D01*
Y149623D01*
X402293D01*
Y149901D01*
X402154D01*
Y150180D01*
X402014D01*
Y150458D01*
X401875D01*
Y150736D01*
X401736D01*
Y151154D01*
X401597D01*
X401597Y151572D01*
X401457Y151572D01*
Y152129D01*
X401318Y152129D01*
Y152964D01*
X401457D01*
Y153103D01*
X402154D01*
Y153660D01*
X402293Y153660D01*
Y153799D01*
X402571D01*
Y153939D01*
X402850D01*
Y153799D01*
X403128D01*
X403128Y153660D01*
X403267D01*
Y153521D01*
X403546D01*
Y153382D01*
X403685D01*
Y153243D01*
X403964D01*
Y153103D01*
X404103D01*
Y152964D01*
X404381D01*
Y152825D01*
X404520Y152825D01*
X404660D01*
X404660Y152964D01*
X404799D01*
Y153103D01*
X405356D01*
Y152964D01*
X405634D01*
Y152825D01*
X405913D01*
Y152686D01*
X406191D01*
Y152546D01*
X406470D01*
Y152407D01*
X406609Y152407D01*
X406748Y152407D01*
X406748Y152268D01*
X406887Y152268D01*
X407027Y152268D01*
Y152129D01*
X407305D01*
Y151989D01*
X407444D01*
Y151850D01*
X407723D01*
Y151711D01*
X407862D01*
Y151572D01*
X408001D01*
Y151433D01*
X408140D01*
Y151293D01*
X408419D01*
Y151433D01*
X408558D01*
X408558Y151572D01*
X408697Y151572D01*
X408837Y151572D01*
X408976D01*
Y151433D01*
X409254D01*
Y151154D01*
X409393D01*
Y150597D01*
X409533D01*
Y150319D01*
X409672D01*
Y149205D01*
X409811D01*
Y148926D01*
X409950D01*
Y148787D01*
X410925D01*
Y148648D01*
X411343D01*
Y148509D01*
X411621D01*
Y148370D01*
X411760D01*
Y148230D01*
X411899D01*
Y148091D01*
X412039D01*
Y147534D01*
X411899D01*
Y147116D01*
X411760D01*
Y146838D01*
X411621D01*
Y146699D01*
X411482D01*
Y146420D01*
X411343D01*
Y146281D01*
X411203D01*
Y146142D01*
X411064D01*
Y145724D01*
X411203D01*
Y145585D01*
X411482D01*
Y145446D01*
X411760D01*
Y145307D01*
X412039D01*
Y145167D01*
X412178D01*
Y145028D01*
X412317D01*
Y144889D01*
X412596D01*
Y144750D01*
X412735D01*
Y144193D01*
X412596D01*
Y143914D01*
X412456D01*
Y143775D01*
X412317D01*
Y143636D01*
X412039D01*
Y143497D01*
X411899D01*
Y143357D01*
X411760D01*
Y143218D01*
X411621D01*
Y143497D01*
X411760D01*
Y143775D01*
X411899D01*
Y144053D01*
X412039D01*
Y144471D01*
X411899D01*
Y144610D01*
X411482D01*
Y144750D01*
X411203D01*
Y144889D01*
X410647D01*
Y144610D01*
X410786D01*
Y144053D01*
X410925D01*
Y143497D01*
X411064D01*
Y143218D01*
X411203D01*
Y143079D01*
X411482D01*
Y142940D01*
X411621D01*
Y142801D01*
X411760D01*
Y142661D01*
X412456D01*
Y142522D01*
X412735D01*
Y142383D01*
X413013D01*
Y142243D01*
X413292D01*
Y142104D01*
X413431D01*
Y142522D01*
X413570D01*
Y142940D01*
X413709D01*
Y143079D01*
X413849D01*
Y143218D01*
X414127D01*
Y143357D01*
X414266D01*
Y143497D01*
X414545D01*
Y143775D01*
X414684D01*
Y143914D01*
X414545D01*
Y144332D01*
X414406D01*
Y144471D01*
X414266D01*
Y144610D01*
X413988D01*
Y144750D01*
X413849D01*
Y145585D01*
X413988D01*
Y146142D01*
X413849D01*
Y146281D01*
X413709D01*
Y146420D01*
X413570D01*
Y146699D01*
X413431D01*
Y146838D01*
X413292D01*
Y146977D01*
X413153D01*
Y147116D01*
X413013D01*
Y147256D01*
X412874D01*
Y147534D01*
X412735D01*
Y147673D01*
X412596D01*
Y147813D01*
X412456D01*
Y148091D01*
X412317D01*
Y148370D01*
X412178D01*
Y148787D01*
X412039D01*
Y149344D01*
X411899D01*
Y150736D01*
X412039D01*
Y151433D01*
X412178D01*
Y151989D01*
X412317D01*
Y152407D01*
X412456D01*
Y152964D01*
X412317D01*
Y152825D01*
X412039D01*
Y152686D01*
X411760D01*
Y152546D01*
X411621D01*
Y152407D01*
X411482D01*
Y152268D01*
X411343D01*
Y152129D01*
X411203D01*
Y151989D01*
X411064D01*
Y151850D01*
X410925D01*
Y151711D01*
X410786D01*
Y151572D01*
X410647D01*
Y151293D01*
X410507D01*
Y151015D01*
X410368D01*
Y150736D01*
X410229D01*
Y150458D01*
X410090D01*
Y150180D01*
X409811D01*
Y150319D01*
X409672D01*
Y150597D01*
X409811D01*
Y151015D01*
X409950D01*
Y151433D01*
X410090D01*
Y151572D01*
X410229D01*
Y151850D01*
X410368D01*
Y151989D01*
X410507D01*
Y152268D01*
X410647Y152268D01*
X410647Y152407D01*
X410786Y152407D01*
Y152546D01*
X410925D01*
Y152686D01*
X411064D01*
Y152825D01*
X411343D01*
Y152964D01*
X411482D01*
Y153103D01*
X411621D01*
Y153243D01*
X411899D01*
Y153382D01*
X412317D01*
Y153521D01*
X412735D01*
Y153660D01*
X413292D01*
Y153521D01*
X413431D01*
Y152964D01*
X413292D01*
Y152686D01*
X413153D01*
Y152268D01*
X413013D01*
Y151850D01*
X412874D01*
X412874Y151293D01*
X412735D01*
Y150180D01*
X412596D01*
Y149762D01*
X412735D01*
Y148926D01*
X412874Y148926D01*
Y148648D01*
X413013Y148648D01*
Y148370D01*
X413153D01*
Y148091D01*
X413292D01*
Y147952D01*
X413431D01*
Y147673D01*
X413570D01*
Y147534D01*
X413709D01*
Y147395D01*
X413849D01*
Y147116D01*
X413988D01*
Y146977D01*
X414127D01*
Y146699D01*
X414266D01*
X414266Y146560D01*
X414406Y146559D01*
Y146281D01*
X414684D01*
Y146420D01*
X414963D01*
Y146560D01*
X415102Y146559D01*
Y146699D01*
X415380D01*
Y146838D01*
X415659D01*
Y146977D01*
X415937D01*
Y147116D01*
X416355D01*
Y147256D01*
X416494D01*
Y147395D01*
X416355Y147395D01*
X416216D01*
Y147534D01*
X415937D01*
Y147673D01*
X415519D01*
X415519Y147813D01*
X415102D01*
Y147952D01*
X414963D01*
X414823Y147952D01*
Y148091D01*
X414684D01*
Y148230D01*
X414545D01*
Y148370D01*
X414406D01*
Y148509D01*
X414266D01*
Y149066D01*
X414406D01*
Y149344D01*
X414545D01*
Y149483D01*
X414684D01*
Y149623D01*
X414823D01*
Y149762D01*
X414963D01*
Y149901D01*
X415102D01*
Y150040D01*
X415241Y150040D01*
X415241Y150180D01*
X415380D01*
Y150319D01*
X415659D01*
Y150458D01*
X415798D01*
Y150597D01*
X416076D01*
Y150736D01*
X416494D01*
X416494Y150876D01*
X416772D01*
X416912Y150876D01*
Y152129D01*
X417051D01*
Y152546D01*
X417190D01*
Y152825D01*
X417329D01*
Y152964D01*
X417608D01*
Y153103D01*
X417886D01*
Y153243D01*
X418443D01*
Y153382D01*
X418722D01*
Y153521D01*
X418861D01*
X418861Y153660D01*
X419139D01*
X419139Y153799D01*
X419279D01*
Y153939D01*
X419418D01*
Y154078D01*
X419557D01*
Y154217D01*
X419696D01*
Y154356D01*
X419836D01*
Y154496D01*
X419975D01*
Y154635D01*
X420114Y154635D01*
Y154774D01*
X420253D01*
Y154913D01*
X420392D01*
Y155052D01*
X420532Y155052D01*
Y155192D01*
X420671D01*
Y155331D01*
X420810Y155331D01*
Y155470D01*
X420949D01*
Y155609D01*
X421088D01*
Y155749D01*
X421367D01*
Y155888D01*
X421506Y155888D01*
Y156027D01*
X421645D01*
Y156166D01*
X421785D01*
Y156306D01*
X422063D01*
Y156445D01*
X422202D01*
Y156584D01*
X422481D01*
Y156723D01*
X422620D01*
Y156862D01*
X422898D01*
Y157002D01*
X423177D01*
Y157141D01*
X423316D01*
Y157280D01*
X423595D01*
Y157419D01*
X423873D01*
Y157558D01*
X424151D01*
Y157698D01*
X424430D01*
Y157837D01*
X424848D01*
X424848Y157976D01*
X425126D01*
Y158116D01*
X425405D01*
Y158255D01*
X425822D01*
X425822Y158394D01*
X426101D01*
Y158533D01*
X426379D01*
X426518Y158533D01*
Y158672D01*
X426658Y158672D01*
X426936D01*
Y158812D01*
X427354D01*
Y158951D01*
X427632D01*
Y159090D01*
X428189D01*
Y159229D01*
X428328D01*
Y159090D01*
D02*
G37*
G36*
X355234Y89755D02*
X355373D01*
Y89616D01*
X355512D01*
Y89337D01*
X355373D01*
Y89059D01*
X355234D01*
Y88919D01*
X355095D01*
Y88780D01*
X354955D01*
Y88641D01*
X354816Y88641D01*
Y88502D01*
X354677D01*
Y88363D01*
X354538D01*
Y88223D01*
X354399D01*
X354399Y88084D01*
X354259D01*
Y87945D01*
X354120D01*
Y87806D01*
X353981D01*
Y87666D01*
X353842D01*
Y87527D01*
X353703D01*
Y86970D01*
X353563D01*
Y86692D01*
X353424D01*
Y86553D01*
X353285D01*
Y86413D01*
X353146D01*
Y86274D01*
X353006D01*
Y85996D01*
X353146D01*
Y86135D01*
X353285D01*
Y86274D01*
X353424Y86274D01*
X353563D01*
Y86413D01*
X353703D01*
Y86553D01*
X353981D01*
Y86692D01*
X354816D01*
Y86970D01*
X355095D01*
Y87249D01*
X355652D01*
Y87527D01*
X356069D01*
Y87666D01*
X356209D01*
X356348Y87666D01*
X356487Y87666D01*
Y87527D01*
X356626D01*
Y87249D01*
X356766D01*
Y86970D01*
X356626D01*
Y86692D01*
X356487D01*
Y86553D01*
X356348D01*
Y86413D01*
X356209D01*
Y86274D01*
X356069D01*
Y85996D01*
X356348D01*
Y86135D01*
X356487D01*
Y86274D01*
X356766D01*
Y86413D01*
X356905D01*
Y86553D01*
X357044D01*
Y86692D01*
X357462D01*
Y86831D01*
X357601D01*
Y86970D01*
X358018D01*
X358018Y87109D01*
X358158Y87109D01*
Y87249D01*
X358297D01*
Y87388D01*
X358436D01*
Y87527D01*
X358854D01*
Y87666D01*
X358993D01*
Y87806D01*
X359132D01*
Y87945D01*
X359272D01*
Y88084D01*
X359411Y88084D01*
X359550D01*
X359689Y88084D01*
Y88223D01*
X359828D01*
X359828Y88363D01*
X360107D01*
Y88641D01*
X360246D01*
Y88780D01*
X360525D01*
Y88641D01*
X360664Y88641D01*
Y88502D01*
X360803D01*
Y88223D01*
X360664D01*
Y88084D01*
X360525Y88084D01*
X360385D01*
Y87806D01*
X360107D01*
Y87249D01*
X359828D01*
X359828Y86970D01*
X359550D01*
Y86413D01*
X359272D01*
Y85856D01*
X358993D01*
Y85300D01*
X358715D01*
Y84743D01*
X358436D01*
Y84464D01*
X358158D01*
Y83907D01*
X357879D01*
Y83350D01*
X357601D01*
Y83072D01*
X357322D01*
Y82515D01*
X357044D01*
Y82236D01*
X356766D01*
Y81680D01*
X356487D01*
Y81401D01*
X356348Y81401D01*
X356209Y81401D01*
Y80844D01*
X355930D01*
Y80566D01*
X355652D01*
Y80009D01*
X355512D01*
Y79870D01*
X355373D01*
Y79730D01*
X355234D01*
Y79591D01*
X355095D01*
Y79452D01*
X354955D01*
Y79313D01*
X354816D01*
Y79173D01*
X354677D01*
Y79034D01*
X354538D01*
Y78895D01*
X354399D01*
X354399Y78756D01*
X354259D01*
Y78338D01*
X354120D01*
Y78199D01*
X353981D01*
Y78060D01*
X353842D01*
Y77920D01*
X353703D01*
Y77781D01*
X353563D01*
Y77642D01*
X353424D01*
Y77503D01*
X353285D01*
Y77364D01*
X353146D01*
Y77224D01*
X353006D01*
Y77085D01*
X352867D01*
Y76946D01*
X352728Y76946D01*
Y76807D01*
X352589D01*
Y76667D01*
X352449Y76667D01*
Y76528D01*
X352310D01*
Y76389D01*
X352171D01*
Y76250D01*
X352032D01*
Y76111D01*
X351893D01*
Y75971D01*
X351753D01*
Y75832D01*
X351614D01*
Y75693D01*
X351475D01*
Y75554D01*
X351336D01*
Y75414D01*
X351196D01*
Y75275D01*
X351057D01*
Y75136D01*
X350918D01*
Y74718D01*
X350779D01*
Y74300D01*
X350918D01*
Y73604D01*
X350779D01*
Y73465D01*
X350639D01*
Y73326D01*
X350500D01*
Y73187D01*
X350361D01*
Y73047D01*
X350222D01*
Y72908D01*
X350083D01*
Y72769D01*
X349943D01*
Y72630D01*
X349804Y72630D01*
Y72491D01*
X349665D01*
Y72351D01*
X349526D01*
Y72212D01*
X349386D01*
Y72073D01*
X349247D01*
X349247Y71655D01*
X349108D01*
Y71516D01*
X348969D01*
Y71377D01*
X348829D01*
Y71238D01*
X348690Y71238D01*
Y71098D01*
X348551D01*
Y70959D01*
X348412D01*
Y70541D01*
X348273D01*
Y70402D01*
X348133D01*
Y70263D01*
X347994D01*
Y70124D01*
X347855D01*
Y69984D01*
X347716D01*
Y69845D01*
X347994D01*
X347994Y69984D01*
X348273D01*
Y70124D01*
X348412D01*
Y70263D01*
X349386D01*
Y70124D01*
X349526D01*
Y69984D01*
X349247D01*
Y69428D01*
X349108D01*
Y69288D01*
X348969D01*
Y69149D01*
X348829D01*
Y69010D01*
X348690D01*
Y68871D01*
X348551D01*
Y68731D01*
X348412D01*
Y68592D01*
X348273D01*
Y68453D01*
X348133D01*
Y68314D01*
X347994D01*
X347994Y68175D01*
X347855D01*
Y68035D01*
X347716D01*
Y67896D01*
X347576D01*
Y67478D01*
X347437D01*
Y67339D01*
X347298D01*
Y67200D01*
X347159D01*
Y67061D01*
X347020D01*
Y66922D01*
X346880Y66922D01*
Y66782D01*
X346741D01*
Y66643D01*
X346602D01*
Y66504D01*
X346463D01*
Y66086D01*
X346323D01*
Y65947D01*
X346184D01*
Y65668D01*
X346045Y65668D01*
Y65529D01*
X345906D01*
Y65390D01*
X345766D01*
Y65251D01*
X345627D01*
X345627Y65111D01*
X345488D01*
Y64972D01*
X345349D01*
Y64833D01*
X345210D01*
Y64694D01*
X345070D01*
Y64555D01*
X344931D01*
Y64415D01*
X344792D01*
Y64137D01*
X344653D01*
Y63998D01*
X344514D01*
Y63858D01*
X344374D01*
Y63719D01*
X344235D01*
Y63302D01*
X344096D01*
Y63162D01*
X343957D01*
Y63023D01*
X343817D01*
Y62884D01*
X343678Y62884D01*
Y62466D01*
X343539Y62466D01*
Y62327D01*
X343400D01*
Y62188D01*
X343260D01*
Y62049D01*
X343121Y62049D01*
Y61352D01*
X342982D01*
X342982Y60935D01*
X343121D01*
X343121Y60656D01*
X343260D01*
Y60378D01*
X343121D01*
X343121Y60099D01*
X342982D01*
Y59960D01*
X342843D01*
Y59682D01*
X342704D01*
Y59542D01*
X342564D01*
Y59125D01*
X342425D01*
Y58986D01*
X342286D01*
Y58568D01*
X342147D01*
Y58429D01*
X342007D01*
Y57733D01*
X341868D01*
Y57593D01*
X341729D01*
Y57176D01*
X341590D01*
Y57036D01*
X341450D01*
Y56340D01*
X341311D01*
Y56201D01*
X341172Y56201D01*
Y55783D01*
X341033D01*
Y55644D01*
X340894D01*
Y54948D01*
X340754D01*
Y54809D01*
X340615Y54809D01*
Y54113D01*
X340476D01*
Y53973D01*
X340337D01*
Y52303D01*
X340197D01*
Y52024D01*
X340058D01*
Y50493D01*
X339780D01*
Y47987D01*
X339641D01*
Y47847D01*
X339501D01*
X339501Y43392D01*
X339362D01*
X339362Y39355D01*
X339501D01*
Y35595D01*
X339641D01*
Y35456D01*
X339780D01*
Y33925D01*
X339919D01*
Y33785D01*
X340058D01*
Y33089D01*
X340197D01*
Y32950D01*
X340337D01*
Y31697D01*
X340476D01*
X340476Y31558D01*
X340615D01*
Y30862D01*
X340754D01*
Y30722D01*
X340894D01*
Y30026D01*
X341033Y30026D01*
Y29887D01*
X341172D01*
Y29191D01*
X341311Y29191D01*
Y29052D01*
X341450D01*
Y28634D01*
X341590D01*
Y28495D01*
X341729D01*
X341729Y28077D01*
X341868D01*
Y27938D01*
X342007D01*
Y27242D01*
X342147D01*
Y27102D01*
X342286D01*
Y26963D01*
X342425D01*
Y26824D01*
X342564D01*
Y26406D01*
X342704D01*
Y26267D01*
X342843D01*
Y25849D01*
X342982D01*
Y25710D01*
X343121D01*
Y25292D01*
X343260D01*
Y25153D01*
X343400D01*
Y25014D01*
X343539D01*
Y24875D01*
X343678Y24875D01*
Y24457D01*
X343817Y24457D01*
Y24318D01*
X343957D01*
Y24179D01*
X344096D01*
Y24039D01*
X344235D01*
Y23900D01*
X344374D01*
Y23761D01*
X344514D01*
Y23343D01*
X344653D01*
Y23204D01*
X344792D01*
Y23065D01*
X344931D01*
Y22926D01*
X345070D01*
Y22786D01*
X345210D01*
Y22647D01*
X345349D01*
Y22508D01*
X345488D01*
Y22369D01*
X345627D01*
Y22229D01*
X345766D01*
Y22090D01*
X345906D01*
Y21951D01*
X346045Y21951D01*
Y21812D01*
X346184D01*
Y21673D01*
X346323D01*
Y21533D01*
X346463D01*
Y21394D01*
X346602D01*
Y21255D01*
X346741D01*
Y21116D01*
X346880D01*
X346880Y20977D01*
X347020D01*
Y20837D01*
X347159D01*
Y20698D01*
X347298Y20698D01*
Y20559D01*
X347437D01*
Y20419D01*
X347855D01*
Y20280D01*
X347994D01*
Y20141D01*
X348133D01*
Y20002D01*
X348273D01*
Y19863D01*
X348412D01*
Y19723D01*
X348551D01*
Y19584D01*
X348690D01*
X348829Y19584D01*
X348969Y19584D01*
Y19445D01*
X349108D01*
Y19306D01*
X349526D01*
Y19167D01*
X349665D01*
Y19027D01*
X349804D01*
Y18888D01*
X349943D01*
Y18749D01*
X350361D01*
Y18610D01*
X350500D01*
Y18470D01*
X350779D01*
X350918Y18470D01*
Y18331D01*
X351057D01*
Y18192D01*
X351475D01*
Y18053D01*
X351614D01*
Y17914D01*
X352032D01*
Y17774D01*
X352171D01*
Y17635D01*
X352310Y17635D01*
X352589D01*
Y17496D01*
X352728D01*
Y17357D01*
X353146D01*
Y17217D01*
X353285Y17217D01*
Y17078D01*
X353424Y17078D01*
X353703D01*
Y16939D01*
X353842Y16939D01*
Y16800D01*
X354538D01*
Y16660D01*
X354677D01*
Y16521D01*
X355373D01*
Y16382D01*
X355512D01*
Y16243D01*
X356209D01*
Y16104D01*
X356348D01*
Y15964D01*
X356487D01*
X356626Y15964D01*
X356766Y15964D01*
X357044D01*
Y15825D01*
X357183Y15825D01*
Y15686D01*
X357322D01*
X357462Y15686D01*
X357601Y15686D01*
X357740Y15686D01*
X357879Y15686D01*
Y15547D01*
X358018D01*
Y15407D01*
X358715D01*
X358854Y15407D01*
X358993Y15407D01*
Y15268D01*
X359132D01*
Y15129D01*
X359272Y15129D01*
X359411Y15129D01*
X359689D01*
X359828Y15129D01*
X359968Y15129D01*
X360107Y15129D01*
Y14990D01*
X360246D01*
Y14850D01*
X362892D01*
X362892Y14711D01*
X364562D01*
Y14572D01*
X364701D01*
X364701Y14711D01*
X364980D01*
X365119Y14711D01*
X365258Y14711D01*
Y14990D01*
X365397D01*
Y15407D01*
X365537D01*
Y15547D01*
X365676D01*
Y15825D01*
X365815D01*
Y15964D01*
X365955D01*
X365955Y16104D01*
X366094D01*
Y16243D01*
X366233D01*
Y16382D01*
X366372Y16382D01*
Y16521D01*
X366511D01*
Y16660D01*
X366651D01*
Y16800D01*
X366790D01*
Y16939D01*
X366929Y16939D01*
Y17357D01*
X367068D01*
Y19723D01*
X367207D01*
Y20141D01*
X367347D01*
Y20559D01*
X367486D01*
Y20837D01*
X367625D01*
Y21116D01*
X367764D01*
Y21255D01*
X367904Y21255D01*
Y21394D01*
X368043D01*
Y21533D01*
X368182D01*
Y21673D01*
X368321D01*
Y21812D01*
X368739D01*
Y22090D01*
X369017D01*
Y22369D01*
X369296D01*
Y22647D01*
X369574D01*
X369574Y22926D01*
X369853D01*
X369853Y23204D01*
X370131D01*
X370131Y23483D01*
X370410D01*
Y23761D01*
X370688D01*
Y24039D01*
X370967D01*
X370967Y24318D01*
X371384D01*
X371524Y24318D01*
Y24596D01*
X371802D01*
Y24875D01*
X371941D01*
Y25014D01*
X372220D01*
Y25153D01*
X372359D01*
Y25292D01*
X372777D01*
Y25432D01*
X372916D01*
Y25571D01*
X373055D01*
Y25710D01*
X373334D01*
Y25849D01*
X373612D01*
Y25989D01*
X373751D01*
Y26128D01*
X373890Y26128D01*
X374030Y26128D01*
X374169D01*
Y26267D01*
X374308D01*
Y26406D01*
X374447D01*
X374447Y26546D01*
X374726D01*
Y26685D01*
X375004D01*
X375004Y26824D01*
X375283D01*
Y26963D01*
X375422Y26963D01*
X375561Y26963D01*
Y27102D01*
X375700D01*
Y27242D01*
X376118D01*
Y27381D01*
X376257D01*
Y27520D01*
X376397D01*
Y27659D01*
X376814D01*
Y27799D01*
X376953D01*
Y27938D01*
X377093Y27938D01*
X377232D01*
Y28077D01*
X377510D01*
Y28216D01*
X377789D01*
Y28356D01*
X378067D01*
Y28495D01*
X378206D01*
Y28634D01*
X378624D01*
Y28773D01*
X378763D01*
Y28912D01*
X378903D01*
Y29052D01*
X379320D01*
Y29191D01*
X379459Y29191D01*
Y29330D01*
X379877D01*
Y29469D01*
X380017D01*
Y29609D01*
X380156Y29609D01*
X380434D01*
Y29748D01*
X380573Y29748D01*
Y29887D01*
X380852D01*
Y30026D01*
X380991Y30026D01*
X381130D01*
Y30166D01*
X381409D01*
Y30305D01*
X381687D01*
Y30444D01*
X381966D01*
X381966Y30583D01*
X382244D01*
Y30722D01*
X382523D01*
Y30862D01*
X382801D01*
Y31001D01*
X383079D01*
Y31140D01*
X383358D01*
Y31001D01*
X383497D01*
Y31140D01*
X383358D01*
Y31279D01*
X384054D01*
Y31558D01*
X384611D01*
Y31836D01*
X384889D01*
Y31558D01*
X384750D01*
Y31418D01*
X384611D01*
Y31279D01*
X384472Y31279D01*
Y31140D01*
X384333D01*
Y31001D01*
X384193D01*
Y30862D01*
X383915D01*
Y30722D01*
X383776D01*
Y30583D01*
X383636D01*
X383497Y30583D01*
Y30444D01*
X383219D01*
Y30305D01*
X382940D01*
Y30166D01*
X382801D01*
Y30026D01*
X382523D01*
Y29887D01*
X382244D01*
Y29748D01*
X382105D01*
Y29609D01*
X381826D01*
Y29469D01*
X381548D01*
Y29330D01*
X381409D01*
Y29191D01*
X381130D01*
Y29052D01*
X380852D01*
Y28912D01*
X380573D01*
Y28773D01*
X380434D01*
Y28634D01*
X380156D01*
X380156Y28495D01*
X380017Y28495D01*
X379877Y28495D01*
Y28356D01*
X379738D01*
Y28216D01*
X379459D01*
X379459Y28077D01*
X379181D01*
X379181Y27938D01*
X379042D01*
Y27799D01*
X378763D01*
Y27659D01*
X378485D01*
Y27520D01*
X378206D01*
Y27381D01*
X378067D01*
Y27242D01*
X377789D01*
Y27102D01*
X377510D01*
Y26963D01*
X377371Y26963D01*
X377232D01*
Y26824D01*
X377093D01*
X377093Y26685D01*
X376814D01*
Y26546D01*
X376536D01*
Y26406D01*
X376397D01*
Y26267D01*
X376118D01*
Y26128D01*
X375840D01*
Y25989D01*
X375700Y25989D01*
X375561Y25989D01*
Y25849D01*
X375422D01*
Y25710D01*
X375283Y25710D01*
X375144D01*
Y25571D01*
X375004Y25571D01*
X374865D01*
Y25432D01*
X374587D01*
Y25292D01*
X374447D01*
Y25153D01*
X374169D01*
Y25014D01*
X374030D01*
Y24875D01*
X373890Y24875D01*
X373751Y24875D01*
Y24736D01*
X373473D01*
Y24596D01*
X373334D01*
Y24457D01*
X373055D01*
Y24318D01*
X372916D01*
X372777Y24318D01*
Y24179D01*
X372637D01*
Y24039D01*
X372359D01*
Y23900D01*
X372220D01*
Y23761D01*
X371941D01*
Y23622D01*
X371802D01*
Y23483D01*
X371663D01*
Y23343D01*
X371384D01*
X371384Y23204D01*
X371245D01*
Y23065D01*
X371106D01*
Y22926D01*
X370827D01*
X370827Y22786D01*
X370688D01*
Y22647D01*
X370549D01*
Y22508D01*
X370410D01*
Y22369D01*
X370271D01*
Y22229D01*
X370131D01*
Y22090D01*
X369992D01*
Y21951D01*
X369853D01*
Y21812D01*
X369574D01*
Y21673D01*
X369435D01*
Y21533D01*
X369296D01*
Y21394D01*
X369157D01*
X369157Y21255D01*
X369017D01*
Y21116D01*
X368878D01*
Y20837D01*
X368739D01*
Y20559D01*
X368600D01*
Y20280D01*
X368461D01*
Y19863D01*
X368321Y19863D01*
Y19306D01*
X368182D01*
Y18610D01*
X368043D01*
Y17357D01*
X367904D01*
Y16104D01*
X367764D01*
Y15407D01*
X367625D01*
Y14572D01*
X367486D01*
Y13876D01*
X367347D01*
Y12901D01*
X367486D01*
Y12484D01*
X367625D01*
Y12066D01*
X367764D01*
Y11788D01*
X367904D01*
Y11648D01*
X368043D01*
Y11509D01*
X368182D01*
Y11370D01*
X368321D01*
Y11230D01*
X368461D01*
Y11091D01*
X368600D01*
X368600Y11230D01*
X368739D01*
Y12205D01*
X368600D01*
Y12901D01*
X368739D01*
Y13040D01*
X369017D01*
Y12901D01*
X369157D01*
Y12623D01*
X369296D01*
Y12484D01*
X369435D01*
Y12205D01*
X369574D01*
Y12066D01*
X369714Y12066D01*
Y11927D01*
X369853D01*
X369853Y11648D01*
X369992D01*
Y11509D01*
X370131Y11509D01*
Y11370D01*
X370410D01*
Y11230D01*
X370688D01*
Y11091D01*
X371106D01*
Y10952D01*
X371524D01*
Y11091D01*
X371663D01*
Y11370D01*
X371802D01*
Y11648D01*
X371663D01*
Y11788D01*
X371524D01*
Y11927D01*
X371384D01*
X371384Y12066D01*
X371245Y12066D01*
Y12344D01*
X371106D01*
Y12484D01*
X370967D01*
Y12623D01*
X370827D01*
Y13040D01*
X371245D01*
Y12901D01*
X371524D01*
Y12762D01*
X371802D01*
Y12623D01*
X372080D01*
Y12484D01*
X372637D01*
Y12344D01*
X373334D01*
Y12484D01*
X373612D01*
Y12762D01*
X373751Y12762D01*
Y13040D01*
X373612D01*
Y13319D01*
X373334D01*
Y13458D01*
X373194D01*
Y13597D01*
X372916D01*
Y13737D01*
X372777D01*
Y13876D01*
X372637D01*
Y14154D01*
X372498D01*
Y14294D01*
X372637D01*
Y14572D01*
X372777D01*
Y17078D01*
X372916Y17078D01*
Y17217D01*
X373055D01*
Y17357D01*
X373473D01*
Y17217D01*
X373751D01*
Y17078D01*
X373890Y17078D01*
X374030Y17078D01*
Y17496D01*
X373890D01*
Y18053D01*
X374447D01*
Y17914D01*
X374587D01*
Y17774D01*
X374726D01*
Y18192D01*
X374587D01*
Y18470D01*
X374447D01*
Y18749D01*
X375283D01*
Y20002D01*
X375422D01*
Y20280D01*
X375561D01*
Y20419D01*
X375700D01*
Y20559D01*
X375979D01*
Y20698D01*
X376118D01*
Y20837D01*
X376257D01*
Y20977D01*
X376397D01*
Y21116D01*
X376536Y21116D01*
Y21255D01*
X376675D01*
Y21394D01*
X376953D01*
Y21533D01*
X377093D01*
Y21673D01*
X377232D01*
Y21812D01*
X377371D01*
Y21951D01*
X377650D01*
Y22090D01*
X377789D01*
Y22229D01*
X378067D01*
Y22369D01*
X378206D01*
Y22508D01*
X378485D01*
Y22647D01*
X378624D01*
Y22786D01*
X378903D01*
Y22926D01*
X379181D01*
Y23065D01*
X379459D01*
X379459Y23204D01*
X379738D01*
Y23343D01*
X380017D01*
Y23483D01*
X380295D01*
Y23622D01*
X380434D01*
Y23761D01*
X380713D01*
Y23900D01*
X380991D01*
Y24039D01*
X381130D01*
Y24179D01*
X381409D01*
Y24318D01*
X381548D01*
Y24457D01*
X381826D01*
Y24596D01*
X381966D01*
Y24736D01*
X382244D01*
Y24875D01*
X382383Y24875D01*
Y25014D01*
X382662D01*
Y25153D01*
X382801D01*
Y25292D01*
X383079D01*
Y25432D01*
X383358D01*
Y25571D01*
X383497D01*
X383636Y25571D01*
Y25710D01*
X383776D01*
X383915Y25710D01*
Y25849D01*
X384333D01*
Y25989D01*
X384611D01*
Y26128D01*
X385029D01*
Y26267D01*
X385586D01*
Y26406D01*
X385725Y26406D01*
X385864Y26406D01*
X386282D01*
Y26546D01*
X387256D01*
Y26685D01*
X388231D01*
Y26824D01*
X388788D01*
Y26963D01*
X388927D01*
X389066Y26963D01*
X389206Y26963D01*
X389345D01*
Y27102D01*
X389762D01*
Y27242D01*
X390041D01*
Y27381D01*
X390319D01*
Y27520D01*
X390458D01*
Y27659D01*
X390598D01*
Y27799D01*
X390737D01*
Y27938D01*
X390876Y27938D01*
Y28077D01*
X391015D01*
Y28216D01*
X391155D01*
Y28495D01*
X391294D01*
X391294Y28773D01*
X391433D01*
Y29052D01*
X391572D01*
Y29469D01*
X391712D01*
Y30444D01*
X391572D01*
Y31001D01*
X391433D01*
Y31418D01*
X391294D01*
X391294Y31975D01*
X391155D01*
Y32811D01*
X391015D01*
Y37266D01*
X391155D01*
Y38519D01*
X391294D01*
Y39355D01*
X391433D01*
Y40051D01*
X391572D01*
Y40608D01*
X391712D01*
Y41164D01*
X391851D01*
Y41582D01*
X391990D01*
Y41860D01*
X392129D01*
Y42278D01*
X392268D01*
Y42417D01*
X392408D01*
Y42696D01*
X392547D01*
Y42974D01*
X392408Y42974D01*
X391851D01*
Y42835D01*
X391712D01*
Y43392D01*
X391851D01*
Y43531D01*
X392129D01*
Y43671D01*
X392408D01*
Y43810D01*
X392825D01*
X392965Y43810D01*
X393104Y43810D01*
X393243D01*
Y44645D01*
X393382D01*
X393382Y44924D01*
X393521D01*
Y44645D01*
X393661D01*
Y44506D01*
X393800D01*
Y44227D01*
X393939D01*
Y43949D01*
X394078D01*
Y43671D01*
X394218D01*
Y43531D01*
X394357D01*
Y43671D01*
X394496D01*
Y43949D01*
X394635D01*
Y44227D01*
X394775D01*
Y44506D01*
X394914D01*
Y44784D01*
X395053D01*
Y44088D01*
X395192D01*
Y43253D01*
X395331D01*
Y42696D01*
X395471D01*
Y42139D01*
X395610D01*
Y41860D01*
X395749D01*
Y42139D01*
X395888D01*
Y42278D01*
X396028D01*
Y42696D01*
X396167D01*
Y42974D01*
X396306Y42974D01*
Y43392D01*
X396445D01*
Y43810D01*
X396585Y43810D01*
Y44227D01*
X396724D01*
Y44645D01*
X396863D01*
Y45202D01*
X397002D01*
Y45759D01*
X397141D01*
Y46316D01*
X397281D01*
Y46733D01*
X397420D01*
Y46594D01*
X397559D01*
Y46037D01*
X397698D01*
Y45480D01*
X397838D01*
Y45202D01*
X397977D01*
Y44924D01*
X398116Y44924D01*
Y44645D01*
X398255D01*
X398255Y44506D01*
X398534D01*
Y47708D01*
X398673D01*
Y47847D01*
X398812D01*
Y47430D01*
X398951D01*
Y47012D01*
X399091D01*
Y46594D01*
X399230D01*
Y46316D01*
X399369D01*
Y46037D01*
X399508D01*
Y45759D01*
X399647D01*
Y45341D01*
X399787D01*
Y45063D01*
X399926D01*
Y44784D01*
X400065Y44784D01*
Y44367D01*
X400204D01*
Y44088D01*
X400344D01*
Y43949D01*
X400483D01*
Y44088D01*
X400622D01*
Y44367D01*
X400761D01*
Y44924D01*
X400900D01*
Y45480D01*
X401040D01*
X401040Y46177D01*
X401179D01*
Y46873D01*
X401318D01*
Y47708D01*
X401179D01*
Y48265D01*
X401318D01*
X401318Y48544D01*
X401597D01*
Y48404D01*
X401736Y48404D01*
Y48126D01*
X401875D01*
Y47708D01*
X402014D01*
Y47290D01*
X402154D01*
Y48404D01*
X402293D01*
Y48683D01*
X402432Y48683D01*
Y48265D01*
X402571D01*
Y47708D01*
X402710D01*
Y47290D01*
X402850D01*
Y46873D01*
X402989Y46873D01*
Y46455D01*
X403128D01*
Y46177D01*
X403267D01*
Y45759D01*
X403407D01*
Y45480D01*
X403546Y45480D01*
Y45202D01*
X403685D01*
Y44924D01*
X403824D01*
Y44784D01*
X403964D01*
Y44506D01*
X404103D01*
Y44227D01*
X404242D01*
Y44088D01*
X404381D01*
Y43949D01*
X404520D01*
Y43671D01*
X404938D01*
Y44088D01*
X405077D01*
Y44645D01*
X405217Y44645D01*
X405217Y45063D01*
X405356D01*
Y45480D01*
X405495D01*
Y45898D01*
X405634D01*
Y46316D01*
X405774D01*
Y46873D01*
X405913D01*
Y47290D01*
X406052D01*
Y47847D01*
X406191D01*
Y48404D01*
X406330Y48404D01*
Y48961D01*
X406470D01*
Y49657D01*
X406609D01*
Y50493D01*
X406887D01*
Y49936D01*
X407027Y49936D01*
Y49518D01*
X407166D01*
Y49240D01*
X407305D01*
Y49379D01*
X407444D01*
Y50493D01*
X407584D01*
Y52024D01*
X407444D01*
Y52999D01*
X407584D01*
Y53138D01*
X408001D01*
Y52999D01*
X408140D01*
Y52860D01*
X408280D01*
Y52303D01*
X408419D01*
Y51885D01*
X408558D01*
X408558Y51467D01*
X408697D01*
Y51189D01*
X408837D01*
Y50910D01*
X409115D01*
Y51606D01*
X409254D01*
Y52442D01*
X409393D01*
Y53138D01*
X409533D01*
Y53695D01*
X409672D01*
Y54252D01*
X409811D01*
Y54809D01*
X409950D01*
Y55226D01*
X410090D01*
Y55505D01*
X410229D01*
Y55922D01*
X410368D01*
X410368Y56201D01*
X410507D01*
Y55644D01*
X410368D01*
Y54948D01*
X410229D01*
Y54113D01*
X410090D01*
Y53416D01*
X409950D01*
Y52581D01*
X409811D01*
Y50632D01*
X409672D01*
Y49240D01*
X409811D01*
Y48683D01*
X409672D01*
Y48544D01*
X409533D01*
Y48404D01*
X409393Y48404D01*
X409254D01*
X409254Y48544D01*
X409115D01*
Y48683D01*
X408976D01*
Y48822D01*
X408837D01*
Y49100D01*
X408697D01*
Y49379D01*
X408558D01*
Y49518D01*
X408419D01*
Y49657D01*
X408280D01*
Y49240D01*
X408140D01*
Y48265D01*
X408001D01*
X408001Y47708D01*
X407862D01*
X407862Y47430D01*
X407723D01*
Y47290D01*
X407305D01*
Y47430D01*
X407166D01*
Y47569D01*
X407027D01*
Y47708D01*
X406887D01*
Y47569D01*
X406748D01*
X406748Y47151D01*
X406609D01*
Y46594D01*
X406470D01*
Y46037D01*
X406330D01*
Y45620D01*
X406191D01*
Y45202D01*
X406052D01*
Y44645D01*
X405913D01*
X405913Y44227D01*
X405774D01*
Y43671D01*
X405634D01*
Y43253D01*
X405495D01*
Y42696D01*
X405356D01*
Y42417D01*
X405217D01*
Y42278D01*
X405077D01*
Y42139D01*
X404938Y42139D01*
X404799D01*
Y42278D01*
X404660D01*
Y42417D01*
X404520D01*
Y42696D01*
X404381D01*
Y42835D01*
X404242D01*
Y43114D01*
X404103D01*
Y43253D01*
X403964D01*
Y43392D01*
X403824D01*
Y43671D01*
X403685D01*
X403685Y43810D01*
X403546D01*
Y44088D01*
X403407D01*
Y44227D01*
X403128D01*
X402989Y44227D01*
Y44088D01*
X402571D01*
Y44227D01*
X402432D01*
Y44506D01*
X402293D01*
Y44784D01*
X402154D01*
Y45202D01*
X402014D01*
Y45341D01*
X401736D01*
Y44924D01*
X401597D01*
Y44367D01*
X401457D01*
Y43949D01*
X401318D01*
Y43531D01*
X401179Y43531D01*
Y43114D01*
X401040D01*
Y42696D01*
X400900D01*
Y42417D01*
X400761D01*
Y42139D01*
X400622D01*
Y42000D01*
X400483D01*
Y41860D01*
X400204D01*
Y42000D01*
X399926D01*
Y42417D01*
X399787D01*
Y42974D01*
X399647D01*
Y43531D01*
X399508D01*
Y43671D01*
X399369D01*
Y44227D01*
X399230Y44227D01*
X399091D01*
Y43253D01*
X398951D01*
Y42974D01*
X398812D01*
Y42835D01*
X398395D01*
Y42974D01*
X398255Y42974D01*
Y43114D01*
X398116D01*
Y43253D01*
X397977D01*
Y43531D01*
X397838D01*
Y43810D01*
X397698Y43810D01*
Y44227D01*
X397420D01*
Y43949D01*
X397281D01*
Y43392D01*
X397141D01*
Y42974D01*
X397002Y42974D01*
X397002Y42557D01*
X396863D01*
Y42278D01*
X396724D01*
Y41860D01*
X396585D01*
Y41443D01*
X396445D01*
Y41164D01*
X396306D01*
Y40747D01*
X396167D01*
Y40468D01*
X395888D01*
Y40329D01*
X395471D01*
Y40468D01*
X395331D01*
Y40886D01*
X395192D01*
Y41443D01*
X395053D01*
Y42000D01*
X394914D01*
Y42417D01*
X394635D01*
X394635Y42000D01*
X394496D01*
Y41860D01*
X394357D01*
Y41721D01*
X393939D01*
Y42278D01*
X393800D01*
Y42696D01*
X393661D01*
Y42974D01*
X393521D01*
Y43114D01*
X393382D01*
Y43253D01*
X393104D01*
Y43114D01*
X392965D01*
Y42974D01*
X392825D01*
Y42278D01*
X392686D01*
Y41304D01*
X392547D01*
Y40329D01*
X392408D01*
Y39215D01*
X392268D01*
Y37823D01*
X392129D01*
Y35038D01*
X391990D01*
Y31975D01*
X392129Y31975D01*
Y31558D01*
X392268D01*
Y31279D01*
X392408D01*
Y31140D01*
X392547D01*
Y30026D01*
X392408D01*
Y29052D01*
X392268D01*
Y28634D01*
X392129D01*
Y28356D01*
X391990Y28356D01*
Y28077D01*
X391851D01*
Y27938D01*
X391712D01*
Y27659D01*
X391572D01*
Y27520D01*
X391433D01*
Y27102D01*
X391155D01*
Y26963D01*
X391015D01*
Y26824D01*
X390737D01*
X390737Y26685D01*
X390458D01*
Y26546D01*
X390180D01*
X390180Y26406D01*
X389902D01*
Y26267D01*
X389484D01*
X389484Y26128D01*
X389206D01*
X389066Y26128D01*
Y25989D01*
X388927Y25989D01*
X388370D01*
Y25849D01*
X387535D01*
Y25710D01*
X387396Y25710D01*
X387256D01*
X387117Y25710D01*
X386699D01*
Y25571D01*
X386143D01*
X386003Y25571D01*
X385864Y25571D01*
Y25432D01*
X385446D01*
Y25292D01*
X385029D01*
Y25153D01*
X384611D01*
Y25014D01*
X384193D01*
Y24875D01*
X384054Y24875D01*
X383915D01*
Y24736D01*
X383776D01*
X383636Y24736D01*
Y24596D01*
X383497D01*
Y24457D01*
X383219D01*
Y24318D01*
X383079D01*
X382940Y24318D01*
Y24179D01*
X382801D01*
Y24039D01*
X382662D01*
Y23900D01*
X382383D01*
Y23761D01*
X382244D01*
Y23622D01*
X381966D01*
Y23483D01*
X381826D01*
Y23343D01*
X381409D01*
Y23204D01*
X381130D01*
Y23065D01*
X380991D01*
Y22926D01*
X380713D01*
X380713Y22786D01*
X380573D01*
Y22647D01*
X380295D01*
Y22508D01*
X380156D01*
X380156Y22369D01*
X379877D01*
Y22229D01*
X379599D01*
Y22090D01*
X379459D01*
X379320Y22090D01*
X379320Y21951D01*
X379181D01*
X379181Y21812D01*
X378903D01*
Y21673D01*
X378624D01*
Y21533D01*
X378346D01*
Y21394D01*
X378067D01*
Y21255D01*
X377789D01*
Y21116D01*
X377650D01*
X377510Y21116D01*
Y20977D01*
X377232D01*
Y20837D01*
X377093D01*
X376953Y20837D01*
Y20698D01*
X376814Y20698D01*
Y20559D01*
X376675D01*
Y20419D01*
X376397D01*
Y20280D01*
X376257D01*
Y20141D01*
X376118D01*
Y19863D01*
X375979D01*
Y19584D01*
X375840D01*
X375840Y19445D01*
X375979D01*
Y19027D01*
X376118D01*
Y18749D01*
X376257D01*
Y18053D01*
X376118D01*
Y17914D01*
X375561D01*
Y17496D01*
X375700D01*
Y17217D01*
X375840Y17217D01*
Y17078D01*
X375979D01*
Y16243D01*
X375283D01*
X375283Y15407D01*
X375144D01*
Y15268D01*
X375004D01*
Y15129D01*
X374865Y15129D01*
X374587D01*
Y15268D01*
X374447D01*
X374447Y15407D01*
X374169D01*
Y15547D01*
X374030D01*
X374030Y15686D01*
X373890Y15686D01*
Y15825D01*
X373751Y15825D01*
X373612D01*
Y14294D01*
X373751D01*
Y14154D01*
X374030D01*
X374030Y14015D01*
X374169D01*
Y13876D01*
X374308D01*
Y13737D01*
X374447D01*
Y13597D01*
X374587D01*
Y13319D01*
X374726D01*
Y12344D01*
X374587D01*
Y12066D01*
X374447Y12066D01*
X374447Y11927D01*
X374308D01*
Y11788D01*
X374169D01*
Y11648D01*
X374030D01*
Y11509D01*
X373890Y11509D01*
X373751Y11509D01*
Y11370D01*
X372637D01*
Y10674D01*
X372498D01*
Y10395D01*
X372359D01*
Y10256D01*
X372220Y10256D01*
Y10117D01*
X371941D01*
Y9977D01*
X371663D01*
X371663Y9838D01*
X371106D01*
Y9977D01*
X370549D01*
Y10117D01*
X370131D01*
Y10256D01*
X369992Y10256D01*
Y10395D01*
X369296D01*
Y10256D01*
X369157Y10256D01*
X369017Y10256D01*
Y10117D01*
X368739D01*
Y9977D01*
X368461D01*
Y10117D01*
X368182D01*
Y10256D01*
X367904D01*
Y10395D01*
X367764D01*
Y10534D01*
X367625D01*
Y10674D01*
X367486D01*
Y10952D01*
X367347D01*
X367347Y11091D01*
X367207D01*
X367207Y11370D01*
X367068D01*
Y11509D01*
X366929D01*
Y11927D01*
X366790D01*
Y12344D01*
X366651D01*
Y13597D01*
X366511D01*
Y13737D01*
X365676D01*
Y13876D01*
X365397D01*
Y14015D01*
X365258Y14015D01*
Y14294D01*
X362892D01*
X362892Y14433D01*
X362752D01*
Y14294D01*
X362613D01*
Y14433D01*
X361499D01*
Y14572D01*
X360385D01*
Y14711D01*
X359550D01*
Y14850D01*
X358854D01*
Y14990D01*
X358158D01*
Y15129D01*
X357879D01*
X357740Y15129D01*
X357601Y15129D01*
Y15268D01*
X357044D01*
Y15407D01*
X356766D01*
X356626Y15407D01*
Y15547D01*
X356069D01*
Y15686D01*
X355791D01*
X355652Y15686D01*
Y15825D01*
X355234D01*
Y15964D01*
X354816D01*
Y16104D01*
X354538D01*
Y16243D01*
X354120D01*
Y16382D01*
X353981Y16382D01*
X353842Y16382D01*
X353703Y16382D01*
Y16521D01*
X353424D01*
Y16660D01*
X353006D01*
Y16800D01*
X352728D01*
Y16939D01*
X352589Y16939D01*
X352449D01*
Y17078D01*
X352310D01*
X352171Y17078D01*
X352032Y17078D01*
Y17217D01*
X351753D01*
Y17357D01*
X351475D01*
Y17496D01*
X351196D01*
Y17635D01*
X351057D01*
X350918Y17635D01*
Y17774D01*
X350639D01*
Y17914D01*
X350361D01*
Y18053D01*
X350222D01*
Y18192D01*
X349943D01*
Y18331D01*
X349665D01*
Y18470D01*
X349526Y18470D01*
X349386D01*
Y18610D01*
X349247D01*
Y18749D01*
X348969D01*
Y18888D01*
X348829D01*
Y19027D01*
X348690Y19027D01*
X348551D01*
Y19167D01*
X348412D01*
Y19306D01*
X348133D01*
Y19445D01*
X347994D01*
X347994Y19584D01*
X347855D01*
Y19723D01*
X347576D01*
Y19863D01*
X347437D01*
X347437Y20002D01*
X347298D01*
Y20141D01*
X347020D01*
Y20280D01*
X346880D01*
Y20419D01*
X346741D01*
Y20559D01*
X346602D01*
Y20698D01*
X346463D01*
X346463Y20837D01*
X346323Y20837D01*
X346184D01*
Y20977D01*
X346045D01*
Y21116D01*
X345906Y21116D01*
Y21255D01*
X345766D01*
Y21394D01*
X345627D01*
X345627Y21533D01*
X345488D01*
Y21673D01*
X345349D01*
Y21812D01*
X345210D01*
Y21951D01*
X345070D01*
Y22090D01*
X344931Y22090D01*
Y22229D01*
X344792D01*
Y22369D01*
X344653D01*
Y22647D01*
X344514D01*
Y22786D01*
X344374D01*
X344374Y22926D01*
X344235D01*
Y23065D01*
X344096D01*
Y23343D01*
X343957D01*
Y23483D01*
X343817D01*
Y23622D01*
X343678D01*
Y23900D01*
X343539D01*
Y24039D01*
X343400D01*
Y24179D01*
X343260D01*
Y24457D01*
X343121Y24457D01*
Y24596D01*
X342982D01*
Y24736D01*
X342843D01*
Y25014D01*
X342704D01*
Y25292D01*
X342564D01*
Y25432D01*
X342425D01*
Y25710D01*
X342286D01*
Y25849D01*
X342147D01*
Y26128D01*
X342007D01*
X342007Y26406D01*
X341868D01*
Y26685D01*
X341729D01*
Y26963D01*
X341590D01*
Y27102D01*
X341450D01*
Y27381D01*
X341311D01*
Y27799D01*
X341172D01*
Y28077D01*
X341033D01*
Y28356D01*
X340894D01*
Y28634D01*
X340754D01*
Y29052D01*
X340615D01*
Y29330D01*
X340476Y29330D01*
Y29748D01*
X340337D01*
Y30166D01*
X340197D01*
Y30444D01*
X340058D01*
Y31001D01*
X339919D01*
Y31418D01*
X339780D01*
Y31836D01*
X339641D01*
Y32393D01*
X339501D01*
Y32950D01*
X339362D01*
Y33646D01*
X339223D01*
Y34342D01*
X339084D01*
Y35038D01*
X338944D01*
Y36013D01*
X338805D01*
Y37266D01*
X338666D01*
Y39355D01*
X338527D01*
Y43392D01*
X338666D01*
Y45759D01*
X338805D01*
Y47151D01*
X338944D01*
Y48265D01*
X339084D01*
Y49240D01*
X339223D01*
Y50075D01*
X339362D01*
Y50910D01*
X339501D01*
Y51746D01*
X339641D01*
Y52442D01*
X339780D01*
Y53277D01*
X339919D01*
Y53973D01*
X340058Y53973D01*
Y54530D01*
X340197D01*
Y55087D01*
X340337D01*
Y55644D01*
X340476D01*
Y56201D01*
X340615Y56201D01*
Y56619D01*
X340754D01*
Y56897D01*
X340894D01*
Y57176D01*
X341033D01*
Y57593D01*
X341172Y57593D01*
Y57872D01*
X341311D01*
Y58289D01*
X341450D01*
Y58707D01*
X341590D01*
Y59821D01*
X341729D01*
X341729Y60378D01*
X341868D01*
Y60656D01*
X342007D01*
Y61074D01*
X342147D01*
Y61352D01*
X342286D01*
Y61631D01*
X342425Y61631D01*
Y61909D01*
X342564D01*
Y62188D01*
X342704D01*
Y62327D01*
X342843D01*
Y62605D01*
X342982D01*
Y62884D01*
X343121D01*
Y63302D01*
X342982D01*
X342982Y63162D01*
X342843D01*
Y63023D01*
X342704D01*
Y62884D01*
X342564D01*
X342425Y62884D01*
Y62745D01*
X342286D01*
Y62605D01*
X342147Y62605D01*
X342007D01*
Y62466D01*
X341868D01*
Y62327D01*
X341729D01*
Y62188D01*
X341590D01*
Y62049D01*
X341450D01*
Y61909D01*
X341311D01*
Y61770D01*
X341033D01*
Y61631D01*
X340754D01*
Y61770D01*
X340894D01*
Y62049D01*
X341033D01*
Y62188D01*
X341172D01*
Y62466D01*
X341311Y62466D01*
Y62605D01*
X341450D01*
Y62745D01*
X341729D01*
X341729Y63023D01*
X341868D01*
Y63162D01*
X342007D01*
X342007Y63302D01*
X342147D01*
Y63441D01*
X342286D01*
Y63580D01*
X342425D01*
Y63719D01*
X342564D01*
Y63858D01*
X342704D01*
Y63998D01*
X342843D01*
Y64137D01*
X342982D01*
Y64276D01*
X343121D01*
Y64415D01*
X343260Y64415D01*
Y64555D01*
X343400D01*
Y64694D01*
X343539D01*
X343678Y64694D01*
Y64833D01*
X343817D01*
Y64972D01*
X343957D01*
Y65111D01*
X344096D01*
Y65251D01*
X344374D01*
X344374Y65390D01*
X344514D01*
Y65529D01*
X344653D01*
Y65668D01*
X344792Y65668D01*
Y65808D01*
X344931D01*
Y65947D01*
X345070Y65947D01*
Y66086D01*
X345210D01*
Y66225D01*
X345349D01*
Y66365D01*
X345627D01*
X345627Y66504D01*
X345766D01*
Y66643D01*
X345906D01*
Y66782D01*
X346184D01*
X346184Y67061D01*
X346323D01*
Y67200D01*
X346463D01*
Y67339D01*
X346602D01*
Y67478D01*
X346741D01*
Y67618D01*
X346880D01*
Y67757D01*
X347020D01*
Y68035D01*
X347159D01*
Y68175D01*
X347298D01*
Y68314D01*
X347437Y68314D01*
X347437Y68592D01*
X347159D01*
Y68453D01*
X346880D01*
X346880Y68314D01*
X346602D01*
Y68175D01*
X346323D01*
Y68035D01*
X345906D01*
Y67896D01*
X345766D01*
Y67757D01*
X345627Y67757D01*
X345488Y67757D01*
Y67478D01*
X345349D01*
Y67339D01*
X345070D01*
Y67200D01*
X344792D01*
Y67618D01*
X344931D01*
Y67757D01*
X345070D01*
Y67896D01*
X345349D01*
Y68035D01*
X345488D01*
Y68175D01*
X345627D01*
X345627Y68453D01*
X345766D01*
Y68592D01*
X345906D01*
Y68731D01*
X346045D01*
Y69010D01*
X346184D01*
Y69149D01*
X346323D01*
Y69288D01*
X346463D01*
Y69428D01*
X346602D01*
Y69706D01*
X346741D01*
Y69845D01*
X346880D01*
Y69984D01*
X347020D01*
Y70124D01*
X347159D01*
Y70402D01*
X347298D01*
Y70541D01*
X347437D01*
Y70681D01*
X347576D01*
Y70820D01*
X347716D01*
Y70959D01*
X347855D01*
Y71238D01*
X347994D01*
X347994Y71377D01*
X348133Y71377D01*
Y71516D01*
X348273D01*
Y71655D01*
X348412D01*
Y71794D01*
X348551D01*
Y72073D01*
X348690D01*
Y72212D01*
X348829D01*
Y72351D01*
X348969D01*
Y72630D01*
X348829D01*
X348690Y72630D01*
X348551D01*
Y72491D01*
X348273D01*
Y72351D01*
X347994D01*
Y72212D01*
X347716D01*
Y72073D01*
X347437D01*
Y72351D01*
X347576D01*
Y72491D01*
X347716D01*
Y72630D01*
X347855Y72630D01*
X347994Y72630D01*
Y72769D01*
X348133D01*
Y72908D01*
X348273D01*
Y73047D01*
X348412D01*
Y73187D01*
X348551Y73187D01*
Y73326D01*
X348690D01*
Y73465D01*
X348829D01*
Y73604D01*
X348969D01*
Y73744D01*
X349247D01*
Y73883D01*
X349386D01*
Y74022D01*
X349526D01*
Y74161D01*
X349665D01*
Y74440D01*
X349804Y74440D01*
Y74579D01*
X349943D01*
Y74718D01*
X350083D01*
Y74858D01*
X350222D01*
Y74997D01*
X350361D01*
Y75136D01*
X350500D01*
X350500Y75275D01*
X350639D01*
Y75414D01*
X350779D01*
Y75554D01*
X350918D01*
Y75693D01*
X351057D01*
Y75832D01*
X351196D01*
Y75971D01*
X351336D01*
Y76111D01*
X351475D01*
Y76389D01*
X351614D01*
Y76528D01*
X351753D01*
Y76667D01*
X351893D01*
Y76807D01*
X352032D01*
Y76946D01*
X352171Y76946D01*
Y77085D01*
X352310D01*
Y77224D01*
X352449D01*
Y77364D01*
X352589D01*
Y77503D01*
X352728D01*
Y77642D01*
X352867D01*
Y77920D01*
X353006D01*
Y78060D01*
X353146D01*
Y78199D01*
X353285Y78199D01*
Y78338D01*
X353424Y78338D01*
Y78477D01*
X353563D01*
Y78617D01*
X353703D01*
Y78895D01*
X353842D01*
Y79034D01*
X353981D01*
Y79173D01*
X354120D01*
Y79313D01*
X354259D01*
Y79591D01*
X354399D01*
X354399Y79730D01*
X354538D01*
Y79870D01*
X354677Y79870D01*
Y80009D01*
X354816D01*
Y80287D01*
X354955D01*
X354955Y80427D01*
X355095D01*
Y80566D01*
X355234D01*
Y80844D01*
X355373D01*
Y80983D01*
X355512D01*
Y81262D01*
X355652D01*
Y81401D01*
X355791Y81401D01*
Y81540D01*
X355930D01*
Y81819D01*
X356069D01*
Y81958D01*
X356209D01*
Y82236D01*
X356348D01*
Y82376D01*
X356487D01*
Y82654D01*
X356626D01*
Y82933D01*
X356766D01*
Y83072D01*
X356905D01*
Y83350D01*
X357044D01*
Y83629D01*
X357183D01*
Y83768D01*
X357322D01*
Y84046D01*
X357462D01*
Y84325D01*
X357601D01*
Y84464D01*
X357740D01*
Y84743D01*
X357879D01*
Y85021D01*
X358018Y85021D01*
X358018Y85300D01*
X358158D01*
Y85439D01*
X358297Y85439D01*
Y85717D01*
X358436D01*
Y85996D01*
X358575D01*
Y86274D01*
X358715Y86274D01*
Y86413D01*
X358854D01*
Y86692D01*
X358993D01*
Y86970D01*
X359132D01*
Y87109D01*
X358854D01*
Y86970D01*
X358575D01*
Y86831D01*
X358436Y86831D01*
Y86692D01*
X358158D01*
Y86553D01*
X357879D01*
Y86413D01*
X357601D01*
Y86274D01*
X357322D01*
Y86135D01*
X357044D01*
Y85996D01*
X356905D01*
Y85856D01*
X356766Y85856D01*
X356487D01*
Y85717D01*
X356208D01*
X356209Y85856D01*
X356069D01*
Y85996D01*
X355930D01*
Y85856D01*
X355791Y85856D01*
Y85717D01*
X355652D01*
Y85578D01*
X355512D01*
Y85439D01*
X355373D01*
Y85160D01*
X355234D01*
Y85021D01*
X355095D01*
Y84882D01*
X354955D01*
Y84743D01*
X354816D01*
Y84603D01*
X354677D01*
Y84464D01*
X354399D01*
Y84325D01*
X354259D01*
Y84186D01*
X354120D01*
Y84046D01*
X353981D01*
Y83907D01*
X353703D01*
Y83768D01*
X353563D01*
Y83629D01*
X353285D01*
Y83490D01*
X353146D01*
Y83350D01*
X353006D01*
Y83211D01*
X352867D01*
Y83072D01*
X352728D01*
Y82933D01*
X352449D01*
Y82793D01*
X352310D01*
Y82654D01*
X352171Y82654D01*
X352032Y82654D01*
Y82515D01*
X351893D01*
Y82793D01*
X352032D01*
Y82933D01*
X352171D01*
Y83072D01*
X352310D01*
Y83211D01*
X352449D01*
Y83350D01*
X352728D01*
Y83629D01*
X352867D01*
Y83768D01*
X353006Y83768D01*
Y83907D01*
X353146D01*
Y84046D01*
X353285D01*
Y84186D01*
X353424D01*
Y84464D01*
X353563D01*
Y84603D01*
X353703D01*
Y84743D01*
X353842D01*
Y84882D01*
X353981D01*
Y85021D01*
X354120D01*
Y85160D01*
X354259D01*
Y85300D01*
X354399D01*
Y85578D01*
X354538Y85578D01*
Y85717D01*
X354677D01*
Y85856D01*
X354816D01*
Y85996D01*
X354955D01*
Y86274D01*
X354816Y86274D01*
Y86135D01*
X354538D01*
Y85996D01*
X354259D01*
Y85856D01*
X354120D01*
Y85717D01*
X353842D01*
Y85578D01*
X353563D01*
Y85439D01*
X353424D01*
X353285Y85439D01*
Y85300D01*
X353006D01*
Y85160D01*
X352728D01*
Y85021D01*
X352589Y85021D01*
Y84882D01*
X352310D01*
Y84743D01*
X352032D01*
Y84603D01*
X351753D01*
Y84464D01*
X351614D01*
Y84325D01*
X351475D01*
Y84186D01*
X351336D01*
Y84046D01*
X351057D01*
Y83907D01*
X350918D01*
Y83768D01*
X350779D01*
Y83629D01*
X350500D01*
X350500Y83907D01*
X350639D01*
Y84046D01*
X350779D01*
Y84325D01*
X350918D01*
Y84464D01*
X351057D01*
Y84743D01*
X351196D01*
Y84882D01*
X351336D01*
Y85160D01*
X351475D01*
Y85300D01*
X351614D01*
Y85578D01*
X351753D01*
Y85717D01*
X351893D01*
Y85856D01*
X352032D01*
Y86135D01*
X352171D01*
Y86274D01*
X352310Y86274D01*
Y86413D01*
X352449D01*
Y86692D01*
X352589D01*
Y86831D01*
X352728Y86831D01*
Y86970D01*
X352867D01*
Y87249D01*
X353006D01*
Y87388D01*
X353146Y87388D01*
Y87527D01*
X353285D01*
Y87666D01*
X353424Y87666D01*
Y87945D01*
X353563D01*
Y88084D01*
X353703D01*
Y88223D01*
X353842D01*
Y88363D01*
X353981D01*
Y88641D01*
X354120D01*
Y88780D01*
X353703D01*
Y88641D01*
X353424D01*
Y88502D01*
X353006D01*
Y88363D01*
X352728D01*
Y88223D01*
X352449D01*
Y88084D01*
X352310D01*
X352171Y88084D01*
Y87945D01*
X351893D01*
Y87806D01*
X351614D01*
Y87666D01*
X351336D01*
Y87527D01*
X351057D01*
Y87388D01*
X350779D01*
Y87249D01*
X350639D01*
Y87109D01*
X350361D01*
Y86970D01*
X350083D01*
Y86831D01*
X349943D01*
Y86692D01*
X349665D01*
Y86553D01*
X349386D01*
Y86413D01*
X349247D01*
Y86274D01*
X349108Y86274D01*
X348969Y86274D01*
Y86135D01*
X348829D01*
Y85996D01*
X348551D01*
Y85856D01*
X348412Y85856D01*
Y85717D01*
X348273D01*
Y85578D01*
X347994D01*
Y85439D01*
X347855D01*
Y85300D01*
X347716D01*
Y85160D01*
X347437D01*
Y85021D01*
X347298D01*
Y84882D01*
X347159D01*
Y84743D01*
X347020D01*
Y84603D01*
X346880D01*
Y84464D01*
X346602D01*
Y84325D01*
X346463D01*
Y84186D01*
X346323D01*
Y84046D01*
X346184D01*
X346184Y83907D01*
X346045D01*
Y83768D01*
X345906D01*
Y83629D01*
X345766D01*
Y83490D01*
X345627D01*
X345627Y83350D01*
X345488D01*
Y83211D01*
X345349D01*
Y83072D01*
X345210D01*
Y82933D01*
X345070D01*
Y82793D01*
X344792D01*
Y82654D01*
X344653Y82654D01*
Y82515D01*
X344514D01*
Y82376D01*
X344374D01*
X344374Y82097D01*
X344235D01*
Y81958D01*
X344096D01*
Y81819D01*
X343957D01*
Y81680D01*
X343817D01*
Y81540D01*
X343678D01*
Y81401D01*
X343539Y81401D01*
Y81123D01*
X343400D01*
Y80983D01*
X343260D01*
X343260Y80844D01*
X343121D01*
Y81401D01*
X343260Y81401D01*
X343400Y81401D01*
Y81958D01*
X343539D01*
X343678Y81958D01*
Y82376D01*
X343817D01*
Y82515D01*
X343957D01*
Y82654D01*
X344096D01*
Y82793D01*
X344235D01*
Y82933D01*
X344374D01*
Y83072D01*
X344514D01*
Y83211D01*
X344653D01*
Y83350D01*
X344792D01*
Y83490D01*
X344931D01*
Y83629D01*
X345070D01*
Y83768D01*
X345210D01*
Y83907D01*
X345349D01*
Y84046D01*
X345488D01*
Y84186D01*
X345627D01*
Y84325D01*
X345766D01*
Y84464D01*
X345906D01*
Y84603D01*
X346045D01*
Y84743D01*
X346184D01*
Y84882D01*
X346323D01*
Y85021D01*
X346463Y85021D01*
Y85160D01*
X346602D01*
Y85300D01*
X346741D01*
Y85439D01*
X346880D01*
X346880Y85578D01*
X347020Y85578D01*
Y85717D01*
X347159D01*
Y85856D01*
X347298Y85856D01*
X347437Y85856D01*
X347437Y85996D01*
X347576D01*
Y86135D01*
X347855D01*
Y86274D01*
X347994D01*
Y86413D01*
X348133D01*
Y86553D01*
X348273D01*
Y86692D01*
X348551D01*
Y86831D01*
X348690Y86831D01*
Y86970D01*
X349108D01*
Y87109D01*
X349247Y87109D01*
Y87249D01*
X349526D01*
Y87388D01*
X349665D01*
Y87527D01*
X349943D01*
Y87666D01*
X350083D01*
Y87806D01*
X350918D01*
Y88084D01*
X351057Y88084D01*
X351475D01*
Y88363D01*
X351893D01*
Y88502D01*
X352032D01*
Y88641D01*
X352171Y88641D01*
X352310Y88641D01*
X352449D01*
Y88780D01*
X352589D01*
Y88919D01*
X352728Y88919D01*
X352867Y88919D01*
X353006D01*
Y89059D01*
X353146D01*
Y89198D01*
X353563D01*
Y89337D01*
X353703D01*
Y89476D01*
X354399D01*
Y89616D01*
X354538D01*
Y89755D01*
X354955D01*
Y89894D01*
X355095Y89894D01*
X355234D01*
Y89755D01*
D02*
G37*
G36*
X343121Y80566D02*
X342982D01*
Y80427D01*
X342843D01*
Y80148D01*
X342704D01*
Y80009D01*
X342564D01*
X342564Y79730D01*
X342425D01*
Y79591D01*
X342286D01*
Y79313D01*
X342147D01*
Y79173D01*
X342007D01*
X342007Y79730D01*
X342286D01*
Y80287D01*
X342564D01*
X342564Y80566D01*
X342843D01*
Y80844D01*
X343121D01*
Y80566D01*
D02*
G37*
G36*
X385168Y31975D02*
X385029D01*
Y31836D01*
X384889D01*
Y32115D01*
X385168D01*
Y31975D01*
D02*
G37*
%LPC*%
G36*
X391851Y155052D02*
X391433D01*
Y154913D01*
X391294D01*
Y154774D01*
X391155D01*
Y154496D01*
X391015D01*
Y154078D01*
X390876D01*
Y153382D01*
X391015D01*
Y151572D01*
X390876D01*
Y151433D01*
X390737D01*
Y151293D01*
X390041D01*
Y151433D01*
X389762D01*
Y151572D01*
X389623D01*
Y151711D01*
X389484D01*
Y151850D01*
X389345D01*
Y151989D01*
X389206D01*
Y152129D01*
X389066D01*
Y152268D01*
X388927D01*
Y152407D01*
X388648D01*
Y152546D01*
X388231D01*
Y152407D01*
X388092D01*
Y152268D01*
X387952D01*
Y151433D01*
X388092D01*
Y151293D01*
X388231D01*
Y151154D01*
X388370D01*
Y151015D01*
X388509D01*
Y150876D01*
X388648D01*
Y150597D01*
X388788D01*
Y150458D01*
X388927D01*
Y150180D01*
X389066D01*
Y149762D01*
X389206D01*
Y149344D01*
X389066D01*
Y148230D01*
X389206D01*
Y147256D01*
X389345D01*
Y146560D01*
X389206D01*
Y146142D01*
X389066D01*
Y145724D01*
X388927D01*
Y145307D01*
X388788D01*
Y145028D01*
X388648D01*
Y144610D01*
X388509D01*
Y144193D01*
X388370D01*
Y143775D01*
X388231D01*
Y143497D01*
X388092D01*
Y143079D01*
X387952D01*
Y142661D01*
X387813D01*
Y142383D01*
X387674D01*
Y141965D01*
X387535D01*
Y141547D01*
X387396D01*
Y141130D01*
X387256D01*
Y140573D01*
X387117D01*
Y140155D01*
X386978D01*
Y139737D01*
X386839D01*
Y139180D01*
X386699D01*
Y138624D01*
X386560D01*
Y138067D01*
X386421D01*
Y137510D01*
X386282D01*
Y136953D01*
X386143D01*
Y136396D01*
X386003D01*
Y135561D01*
X385864D01*
Y134586D01*
X385725D01*
Y133194D01*
X385864D01*
Y133055D01*
X386003D01*
Y132776D01*
X386143D01*
Y132637D01*
X386282D01*
Y132498D01*
X386421D01*
Y132358D01*
X386560D01*
Y132219D01*
X386699D01*
Y132080D01*
X386839D01*
Y131801D01*
X386978D01*
Y131662D01*
X387117D01*
Y131523D01*
X387256D01*
Y131384D01*
X387396D01*
Y131245D01*
X387535D01*
Y131105D01*
X387674D01*
Y130966D01*
X387813D01*
Y130827D01*
X387952D01*
Y130688D01*
X388092D01*
Y130548D01*
X388231D01*
Y130409D01*
X388370D01*
Y130270D01*
X388648D01*
Y130131D01*
X388788D01*
Y129992D01*
X388927D01*
Y129852D01*
X389206D01*
Y129713D01*
X389484D01*
Y129574D01*
X389623D01*
Y129435D01*
X389762D01*
Y129713D01*
X389623D01*
Y130131D01*
X389484D01*
Y130548D01*
X389345D01*
Y130966D01*
X389206D01*
Y131384D01*
X389066D01*
Y131941D01*
X388927D01*
Y132219D01*
X389066D01*
Y132498D01*
X389206D01*
Y132637D01*
X389345D01*
Y132776D01*
X389902D01*
Y132637D01*
X390041D01*
Y132498D01*
X390180D01*
Y132358D01*
X390319D01*
Y132219D01*
X390458D01*
Y132080D01*
X390598D01*
Y131801D01*
X390737D01*
Y131662D01*
X390876D01*
Y131523D01*
X391015D01*
Y131384D01*
X391155D01*
Y131245D01*
X391294D01*
Y131105D01*
X391433D01*
Y130966D01*
X391572D01*
Y130827D01*
X391851D01*
Y131245D01*
X391712D01*
Y132219D01*
X391572D01*
Y135421D01*
X391712D01*
Y135561D01*
X391851D01*
Y135700D01*
X392129D01*
Y135561D01*
X392408D01*
Y135421D01*
X392547D01*
Y135282D01*
X392686D01*
Y135143D01*
X392825D01*
Y136257D01*
X392686D01*
Y137649D01*
X392547D01*
Y140294D01*
X392686D01*
Y141547D01*
X392825D01*
Y142522D01*
X392965D01*
Y143357D01*
X393104D01*
Y143914D01*
X393243D01*
Y144610D01*
X393382D01*
Y145724D01*
X393521D01*
Y145863D01*
X393382D01*
Y146003D01*
X393800D01*
Y146142D01*
X395471D01*
Y146281D01*
X395749D01*
Y146420D01*
X395888D01*
Y146560D01*
X396028D01*
Y146699D01*
X396167D01*
Y146838D01*
X396306D01*
Y146977D01*
X396585D01*
Y147116D01*
X396863D01*
Y147256D01*
X397281D01*
Y147395D01*
X397559D01*
Y147534D01*
X397838D01*
Y147673D01*
X397977D01*
Y147813D01*
X397838D01*
Y148091D01*
X397698D01*
Y148230D01*
X397420D01*
Y148370D01*
X397141D01*
Y148509D01*
X396445D01*
Y148370D01*
X396167D01*
Y148230D01*
X395888D01*
Y148091D01*
X395749D01*
Y147952D01*
X395610D01*
Y147813D01*
X395331D01*
Y147673D01*
X394775D01*
Y147813D01*
X394496D01*
Y147952D01*
X394357D01*
Y148370D01*
X394218D01*
Y148509D01*
X394357D01*
Y150319D01*
X394496D01*
Y150597D01*
X394635D01*
Y150876D01*
X394775D01*
Y151015D01*
X394914D01*
Y151293D01*
X395053D01*
Y151572D01*
X395192D01*
Y151850D01*
X395331D01*
Y151989D01*
X395471D01*
Y153103D01*
X395331D01*
Y153382D01*
X395192D01*
Y153660D01*
X395053D01*
Y153939D01*
X394775D01*
Y153799D01*
X394635D01*
Y153521D01*
X394496D01*
Y152964D01*
X394357D01*
Y152546D01*
X394218D01*
Y152268D01*
X394078D01*
Y151989D01*
X393939D01*
Y151850D01*
X393661D01*
Y151711D01*
X393382D01*
Y151572D01*
X392825D01*
Y151711D01*
X392686D01*
Y151850D01*
X392547D01*
Y151989D01*
X392408D01*
Y152546D01*
X392268D01*
Y154217D01*
X392129D01*
Y154635D01*
X391990D01*
Y154913D01*
X391851D01*
Y155052D01*
D02*
G37*
G36*
X417051Y150458D02*
X416772D01*
Y150319D01*
X416633D01*
Y150180D01*
X416494D01*
Y150040D01*
X416355D01*
Y149901D01*
X416076D01*
Y149762D01*
X415937D01*
Y149623D01*
X415798D01*
Y149483D01*
X415659D01*
Y149344D01*
X415519D01*
Y149205D01*
X415380D01*
Y149066D01*
X415241D01*
Y148926D01*
X415102D01*
Y148648D01*
X415241D01*
Y148509D01*
X415519D01*
Y148370D01*
X415659D01*
Y148230D01*
X415937D01*
Y148091D01*
X416216D01*
Y147952D01*
X416494D01*
Y147813D01*
X416633D01*
Y147673D01*
X416772D01*
Y147534D01*
X417190D01*
Y147395D01*
X417608D01*
Y148091D01*
X417469D01*
Y148787D01*
X417329D01*
Y149483D01*
X417190D01*
Y150040D01*
X417051D01*
Y150458D01*
D02*
G37*
G36*
X410229Y148230D02*
X410090D01*
Y148091D01*
X409950D01*
Y147952D01*
X410090D01*
Y147116D01*
X410229D01*
Y146281D01*
X410368D01*
Y145863D01*
X410647D01*
Y146003D01*
X410786D01*
Y146142D01*
X410925D01*
Y146838D01*
X411064D01*
Y147116D01*
X411203D01*
Y147534D01*
X411343D01*
Y147813D01*
X411203D01*
Y147952D01*
X410786D01*
Y148091D01*
X410229D01*
Y148230D01*
D02*
G37*
G36*
X369435Y146699D02*
X369157D01*
Y146560D01*
X369296D01*
Y146420D01*
X369435D01*
Y146281D01*
X369714D01*
Y146142D01*
X369992D01*
Y146003D01*
X370131D01*
Y145863D01*
X370410D01*
Y145724D01*
X370688D01*
Y145585D01*
X371106D01*
Y145446D01*
X371524D01*
Y145585D01*
X371384D01*
Y145724D01*
X371245D01*
Y145863D01*
X370967D01*
Y146003D01*
X370827D01*
Y146142D01*
X370549D01*
Y146281D01*
X370410D01*
Y146420D01*
X369992D01*
Y146560D01*
X369435D01*
Y146699D01*
D02*
G37*
G36*
X417608Y146977D02*
X417329D01*
Y146838D01*
X417051D01*
Y146699D01*
X416633D01*
Y146560D01*
X416216D01*
Y146420D01*
X415937D01*
Y146281D01*
X415798D01*
Y146142D01*
X415519D01*
Y146003D01*
X415380D01*
Y145863D01*
X415241D01*
Y145724D01*
X414963D01*
Y145585D01*
X414823D01*
Y145307D01*
X414684D01*
Y145028D01*
X414963D01*
Y144889D01*
X415241D01*
Y144750D01*
X415380D01*
Y144610D01*
X415659D01*
Y144471D01*
X416076D01*
Y144610D01*
X416216D01*
Y144750D01*
X416355D01*
Y144889D01*
X416494D01*
Y145028D01*
X416633D01*
Y145167D01*
X416772D01*
Y145307D01*
X416912D01*
Y145585D01*
X417051D01*
Y145724D01*
X417190D01*
Y145863D01*
X417329D01*
Y146003D01*
X417469D01*
Y146281D01*
X417608D01*
Y146699D01*
X417747D01*
Y146838D01*
X417608D01*
Y146977D01*
D02*
G37*
G36*
X415519Y144193D02*
X414963D01*
Y143914D01*
X415519D01*
Y144193D01*
D02*
G37*
G36*
X414823Y142940D02*
X414545D01*
Y142801D01*
X414406D01*
Y142661D01*
X414266D01*
Y142522D01*
X414127D01*
Y142104D01*
X414266D01*
Y141965D01*
X414406D01*
Y141826D01*
X414545D01*
Y141965D01*
X414684D01*
Y142522D01*
X414823D01*
Y142940D01*
D02*
G37*
G36*
X411899Y142243D02*
X411482D01*
Y141826D01*
X411621D01*
Y141547D01*
X411760D01*
Y141130D01*
X411899D01*
Y140712D01*
X412039D01*
Y140573D01*
X412317D01*
Y140434D01*
X412456D01*
Y140294D01*
X412317D01*
Y139877D01*
X413013D01*
Y140016D01*
X413570D01*
Y140155D01*
X413988D01*
Y140294D01*
X414266D01*
Y140434D01*
X414406D01*
Y140573D01*
X414545D01*
Y141269D01*
X414406D01*
Y141408D01*
X414266D01*
Y141547D01*
X413988D01*
Y141687D01*
X413849D01*
Y141826D01*
X413709D01*
Y141965D01*
X413431D01*
Y141547D01*
X413292D01*
Y141269D01*
X413153D01*
Y141130D01*
X413013D01*
Y140851D01*
X412735D01*
Y140712D01*
X412596D01*
Y140573D01*
X412456D01*
Y140851D01*
X412596D01*
Y141269D01*
X412735D01*
Y141547D01*
X412874D01*
Y141826D01*
X412735D01*
Y141965D01*
X412317D01*
Y142104D01*
X411899D01*
Y142243D01*
D02*
G37*
G36*
X432088Y142522D02*
X431391D01*
Y142383D01*
X430695D01*
Y142243D01*
X430556D01*
Y141826D01*
X430695D01*
Y141687D01*
X430834D01*
Y141269D01*
X430695D01*
Y140990D01*
X430556D01*
Y140712D01*
X430417D01*
Y140573D01*
X430277D01*
Y140434D01*
X430138D01*
Y140155D01*
X429999D01*
Y140016D01*
X429860D01*
Y139877D01*
X429721D01*
Y139737D01*
X429581D01*
Y139459D01*
X429442D01*
Y139320D01*
X429303D01*
Y139041D01*
X429164D01*
Y138902D01*
X429860D01*
Y139041D01*
X430138D01*
Y139180D01*
X430417D01*
Y139320D01*
X430556D01*
Y139598D01*
X430695D01*
Y139877D01*
X430834D01*
Y140155D01*
X430974D01*
Y140294D01*
X431113D01*
Y140573D01*
X431252D01*
Y140851D01*
X431391D01*
Y141130D01*
X431531D01*
Y141269D01*
X431670D01*
Y141547D01*
X431809D01*
Y141826D01*
X431948D01*
Y141965D01*
X432088D01*
Y142522D01*
D02*
G37*
G36*
X414963Y139877D02*
X414684D01*
Y139737D01*
X414545D01*
Y139598D01*
X414266D01*
Y139459D01*
X414127D01*
Y139320D01*
X413709D01*
Y139180D01*
X413292D01*
Y139041D01*
X412735D01*
Y138763D01*
X412874D01*
Y138484D01*
X413013D01*
Y138206D01*
X413153D01*
Y137928D01*
X413292D01*
Y137649D01*
X413431D01*
Y137371D01*
X413570D01*
Y137092D01*
X413709D01*
Y136814D01*
X413849D01*
Y136674D01*
X413988D01*
Y136535D01*
X414127D01*
Y136396D01*
X414406D01*
Y136535D01*
X414545D01*
Y136814D01*
X414684D01*
Y137092D01*
X414823D01*
Y137371D01*
X414963D01*
Y137649D01*
X415102D01*
Y137928D01*
X415241D01*
Y138206D01*
X415380D01*
Y138484D01*
X415519D01*
Y138902D01*
X415659D01*
Y139180D01*
X415519D01*
Y139320D01*
X415380D01*
Y139459D01*
X415241D01*
Y139598D01*
X415102D01*
Y139737D01*
X414963D01*
Y139877D01*
D02*
G37*
G36*
X428328Y158394D02*
X428189D01*
Y158255D01*
X427771D01*
Y158116D01*
X427354D01*
Y157976D01*
X427075D01*
Y157837D01*
X426658D01*
Y157698D01*
X426240D01*
Y157558D01*
X425961D01*
Y157419D01*
X425544D01*
Y157280D01*
X425265D01*
Y157141D01*
X424987D01*
Y157002D01*
X424708D01*
Y156862D01*
X424430D01*
Y156723D01*
X424151D01*
Y156584D01*
X423873D01*
Y156445D01*
X423595D01*
Y156306D01*
X423316D01*
Y156166D01*
X423177D01*
Y156027D01*
X422898D01*
Y155888D01*
X422759D01*
Y155749D01*
X422481D01*
Y155609D01*
X422342D01*
Y155470D01*
X422202D01*
Y155331D01*
X421924D01*
Y155192D01*
X421785D01*
Y155052D01*
X421645D01*
Y154913D01*
X421506D01*
Y154774D01*
X421367D01*
Y154635D01*
X421088D01*
Y154496D01*
X420949D01*
Y154356D01*
X420810D01*
Y154217D01*
X420671D01*
Y154078D01*
X420532D01*
Y153939D01*
X420392D01*
Y153660D01*
X420253D01*
Y153521D01*
X420114D01*
Y153382D01*
X419975D01*
Y153243D01*
X419836D01*
Y153103D01*
X419557D01*
Y152964D01*
X419418D01*
Y152825D01*
X419279D01*
Y152686D01*
X419139D01*
Y152546D01*
X418861D01*
Y152407D01*
X418582D01*
Y152268D01*
X418026D01*
Y152129D01*
X417886D01*
Y150597D01*
X418026D01*
Y149901D01*
X418165D01*
Y149205D01*
X418304D01*
Y148648D01*
X418443D01*
Y147813D01*
X418582D01*
Y146281D01*
X418443D01*
Y145863D01*
X418304D01*
Y145724D01*
X418165D01*
Y145446D01*
X418026D01*
Y145307D01*
X417886D01*
Y145167D01*
X417747D01*
Y145028D01*
X417608D01*
Y144750D01*
X417469D01*
Y144610D01*
X417329D01*
Y144471D01*
X417190D01*
Y144332D01*
X417051D01*
Y144193D01*
X416912D01*
Y144053D01*
X416772D01*
Y143914D01*
X416633D01*
Y143775D01*
X416494D01*
Y143497D01*
X416355D01*
Y143357D01*
X416216D01*
Y143218D01*
X416076D01*
Y143079D01*
X415937D01*
Y142801D01*
X415798D01*
Y142661D01*
X415659D01*
Y142243D01*
X415519D01*
Y140573D01*
X415659D01*
Y140294D01*
X415798D01*
Y140155D01*
X415937D01*
Y140016D01*
X416355D01*
Y138902D01*
X416216D01*
Y138206D01*
X416076D01*
Y137788D01*
X415937D01*
Y137371D01*
X415798D01*
Y136953D01*
X415659D01*
Y136674D01*
X415519D01*
Y136396D01*
X415380D01*
Y136257D01*
X415241D01*
Y135978D01*
X415102D01*
Y135839D01*
X414963D01*
Y135700D01*
X414823D01*
Y135561D01*
X414684D01*
Y135421D01*
X414545D01*
Y135143D01*
X414266D01*
Y135004D01*
X413709D01*
Y135143D01*
X413570D01*
Y135421D01*
X413431D01*
Y136257D01*
X413292D01*
Y136535D01*
X413153D01*
Y136814D01*
X413013D01*
Y137092D01*
X412874D01*
Y137231D01*
X412735D01*
Y137510D01*
X412596D01*
Y137788D01*
X412456D01*
Y137928D01*
X412317D01*
Y138206D01*
X412178D01*
Y138484D01*
X412039D01*
Y138763D01*
X411899D01*
Y139041D01*
X411760D01*
Y139320D01*
X411621D01*
Y139598D01*
X411482D01*
Y139877D01*
X411343D01*
Y140294D01*
X411203D01*
Y140573D01*
X411064D01*
Y140851D01*
X410925D01*
Y141269D01*
X410786D01*
Y141547D01*
X410647D01*
Y141965D01*
X410507D01*
Y142383D01*
X410368D01*
Y142801D01*
X410229D01*
Y143218D01*
X410090D01*
Y143636D01*
X409950D01*
Y144193D01*
X409811D01*
Y144610D01*
X409672D01*
Y145028D01*
X409533D01*
Y145446D01*
X409393D01*
Y145863D01*
X409254D01*
Y146281D01*
X409115D01*
Y146838D01*
X408976D01*
Y147395D01*
X408837D01*
Y147952D01*
X408697D01*
Y148509D01*
X408558D01*
Y149205D01*
X408419D01*
Y150040D01*
X408280D01*
Y150597D01*
X408140D01*
Y150736D01*
X408001D01*
Y150876D01*
X407862D01*
Y151015D01*
X407723D01*
Y151154D01*
X407444D01*
Y151293D01*
X407166D01*
Y151433D01*
X406887D01*
Y151572D01*
X406609D01*
Y151711D01*
X406191D01*
Y151850D01*
X405913D01*
Y151572D01*
X406052D01*
Y151154D01*
X405774D01*
Y151293D01*
X405356D01*
Y151433D01*
X405077D01*
Y151572D01*
X404799D01*
Y151711D01*
X404520D01*
Y151850D01*
X404381D01*
Y151989D01*
X404103D01*
Y152129D01*
X403964D01*
Y151989D01*
X403824D01*
Y151711D01*
X403964D01*
Y151572D01*
X404103D01*
Y151293D01*
X404242D01*
Y151015D01*
X404381D01*
Y150876D01*
X404242D01*
Y150736D01*
X404103D01*
Y150876D01*
X403824D01*
Y151015D01*
X403546D01*
Y151154D01*
X403267D01*
Y151293D01*
X402989D01*
Y151433D01*
X402850D01*
Y151572D01*
X402710D01*
Y151433D01*
X402571D01*
Y151015D01*
X402710D01*
Y150736D01*
X402850D01*
Y150458D01*
X402989D01*
Y150180D01*
X403128D01*
Y149901D01*
X403267D01*
Y149762D01*
X403407D01*
Y149623D01*
X403546D01*
Y149344D01*
X403685D01*
Y149205D01*
X403824D01*
Y149066D01*
X403964D01*
Y148926D01*
X404103D01*
Y148787D01*
X404242D01*
Y148648D01*
X404381D01*
Y148509D01*
X404520D01*
Y148370D01*
X404660D01*
Y148230D01*
X404799D01*
Y148091D01*
X404938D01*
Y147952D01*
X405077D01*
Y147673D01*
X404381D01*
Y147813D01*
X403964D01*
Y147952D01*
X403546D01*
Y147673D01*
X403685D01*
Y147395D01*
X403824D01*
Y147256D01*
X403964D01*
Y146977D01*
X404103D01*
Y146838D01*
X404242D01*
Y146699D01*
X404381D01*
Y146420D01*
X404520D01*
Y146281D01*
X404660D01*
Y146142D01*
X404799D01*
Y146003D01*
X404938D01*
Y145724D01*
X405077D01*
Y145585D01*
X405217D01*
Y145307D01*
X405356D01*
Y144750D01*
X405495D01*
Y144471D01*
X405634D01*
Y144053D01*
X405774D01*
Y143636D01*
X405913D01*
Y143218D01*
X406052D01*
Y142801D01*
X406191D01*
Y142243D01*
X406330D01*
Y141826D01*
X406470D01*
Y141130D01*
X406609D01*
Y140016D01*
X406748D01*
Y139320D01*
X406609D01*
Y136953D01*
X406470D01*
Y136396D01*
X406330D01*
Y136117D01*
X406191D01*
Y135700D01*
X406052D01*
Y135421D01*
X405913D01*
Y135143D01*
X405774D01*
Y134586D01*
X406191D01*
Y134725D01*
X406470D01*
Y134168D01*
X406330D01*
Y133890D01*
X406191D01*
Y133611D01*
X406052D01*
Y133194D01*
X405913D01*
Y132498D01*
X406052D01*
Y132358D01*
X406330D01*
Y132498D01*
X406470D01*
Y132776D01*
X406609D01*
Y131941D01*
X406470D01*
Y131384D01*
X406330D01*
Y130827D01*
X406191D01*
Y129992D01*
X406052D01*
Y129295D01*
X405913D01*
Y127625D01*
X406052D01*
Y127346D01*
X406191D01*
Y127485D01*
X406330D01*
Y127625D01*
X406470D01*
Y127764D01*
X406609D01*
Y128042D01*
X406748D01*
Y128181D01*
X406887D01*
Y128321D01*
X407027D01*
Y128460D01*
X407166D01*
Y128599D01*
X407305D01*
Y128738D01*
X407584D01*
Y128878D01*
X407862D01*
Y128599D01*
X407723D01*
Y128181D01*
X407584D01*
Y127485D01*
X407444D01*
Y127346D01*
X407584D01*
Y127207D01*
X407723D01*
Y127346D01*
X407862D01*
Y127485D01*
X408140D01*
Y127625D01*
X408419D01*
Y127764D01*
X408697D01*
Y127485D01*
X408558D01*
Y127068D01*
X408419D01*
Y124562D01*
X408558D01*
Y124005D01*
X408697D01*
Y123726D01*
X408837D01*
Y123309D01*
X408976D01*
Y123030D01*
X409115D01*
Y122891D01*
X409254D01*
Y122612D01*
X409393D01*
Y122334D01*
X409533D01*
Y122195D01*
X409672D01*
Y121916D01*
X409811D01*
Y121777D01*
X409950D01*
Y121499D01*
X410090D01*
Y121359D01*
X410368D01*
Y121638D01*
X410507D01*
Y122056D01*
X410647D01*
Y122473D01*
X410786D01*
Y122891D01*
X410925D01*
Y123309D01*
X411064D01*
Y123726D01*
X411203D01*
Y124422D01*
X411343D01*
Y124979D01*
X411482D01*
Y124840D01*
X411621D01*
Y124701D01*
X411760D01*
Y123726D01*
X411899D01*
Y123309D01*
X412039D01*
Y123030D01*
X412178D01*
Y122752D01*
X412317D01*
Y122612D01*
X412456D01*
Y122334D01*
X412596D01*
Y122195D01*
X412735D01*
Y121916D01*
X413013D01*
Y123169D01*
X413153D01*
Y122752D01*
X413292D01*
Y122473D01*
X413431D01*
Y122056D01*
X413570D01*
Y121777D01*
X413709D01*
Y121499D01*
X413849D01*
Y121220D01*
X413988D01*
Y121081D01*
X414127D01*
Y120942D01*
X414266D01*
Y120802D01*
X414406D01*
Y120663D01*
X414545D01*
Y120524D01*
X414684D01*
Y120385D01*
X414823D01*
Y120246D01*
X414963D01*
Y120106D01*
X415241D01*
Y119967D01*
X415380D01*
Y119828D01*
X415659D01*
Y119689D01*
X415798D01*
Y119550D01*
X415937D01*
Y119410D01*
X416216D01*
Y119271D01*
X416355D01*
Y119132D01*
X416494D01*
Y118993D01*
X416772D01*
Y118853D01*
X416912D01*
Y118714D01*
X417190D01*
Y118575D01*
X417469D01*
Y118436D01*
X417608D01*
Y118296D01*
X417886D01*
Y118157D01*
X418304D01*
Y118575D01*
X418165D01*
Y119550D01*
X418026D01*
Y121777D01*
X417886D01*
Y122473D01*
X418165D01*
Y122334D01*
X418304D01*
Y122195D01*
X418443D01*
Y121916D01*
X418582D01*
Y121638D01*
X418722D01*
Y121499D01*
X418861D01*
Y121359D01*
X419000D01*
Y121081D01*
X419139D01*
Y120942D01*
X419279D01*
Y120802D01*
X419418D01*
Y120663D01*
X419557D01*
Y120524D01*
X419696D01*
Y120385D01*
X419836D01*
Y120663D01*
X419696D01*
Y121081D01*
X419557D01*
Y121638D01*
X419418D01*
Y122195D01*
X419279D01*
Y122612D01*
X419418D01*
Y122473D01*
X419557D01*
Y122195D01*
X419696D01*
Y121916D01*
X419836D01*
Y121638D01*
X419975D01*
Y121359D01*
X420114D01*
Y121081D01*
X420253D01*
Y120942D01*
X420392D01*
Y120663D01*
X420532D01*
Y120524D01*
X420671D01*
Y120385D01*
X420810D01*
Y120246D01*
X420949D01*
Y120106D01*
X421088D01*
Y119967D01*
X421228D01*
Y119828D01*
X421367D01*
Y119689D01*
X421506D01*
Y119550D01*
X421645D01*
Y119410D01*
X421785D01*
Y119271D01*
X421924D01*
Y118993D01*
X422063D01*
Y118853D01*
X422202D01*
Y118714D01*
X422342D01*
Y118575D01*
X422481D01*
Y118436D01*
X422620D01*
Y118296D01*
X422759D01*
Y118157D01*
X422898D01*
Y118018D01*
X423038D01*
Y117879D01*
X423177D01*
Y117739D01*
X423316D01*
Y117600D01*
X423455D01*
Y117739D01*
X423595D01*
Y118575D01*
X423734D01*
Y119689D01*
X423873D01*
Y120802D01*
X424012D01*
Y122056D01*
X424151D01*
Y123030D01*
X424291D01*
Y122891D01*
X424430D01*
Y122473D01*
X424569D01*
Y122334D01*
X424708D01*
Y122195D01*
X424848D01*
Y122056D01*
X424987D01*
Y121916D01*
X425126D01*
Y122056D01*
X425265D01*
Y124283D01*
X425405D01*
Y124144D01*
X425544D01*
Y124005D01*
X425683D01*
Y123865D01*
X425822D01*
Y124005D01*
X425961D01*
Y124422D01*
X426101D01*
Y124840D01*
X426240D01*
Y125258D01*
X426379D01*
Y125536D01*
X426518D01*
Y126093D01*
X426658D01*
Y126511D01*
X426797D01*
Y126789D01*
X426936D01*
Y127068D01*
X427075D01*
Y127346D01*
X427215D01*
Y127625D01*
X427354D01*
Y127903D01*
X427493D01*
Y128042D01*
X427632D01*
Y128321D01*
X427771D01*
Y128460D01*
X427911D01*
Y128738D01*
X428050D01*
Y128878D01*
X428189D01*
Y129156D01*
X428328D01*
Y129295D01*
X428468D01*
Y129435D01*
X428607D01*
Y129713D01*
X428746D01*
Y129852D01*
X428885D01*
Y130131D01*
X429025D01*
Y130270D01*
X429164D01*
Y130409D01*
X429303D01*
Y130688D01*
X429442D01*
Y130827D01*
X429581D01*
Y130966D01*
X429721D01*
Y131105D01*
X429860D01*
Y131245D01*
X429999D01*
Y131523D01*
X430138D01*
Y131662D01*
X430277D01*
Y131801D01*
X430417D01*
Y131941D01*
X430556D01*
Y132080D01*
X430695D01*
Y132219D01*
X430834D01*
Y132358D01*
X430974D01*
Y132498D01*
X431113D01*
Y132776D01*
X431252D01*
Y132915D01*
X431113D01*
Y133055D01*
X430417D01*
Y132915D01*
X430138D01*
Y132776D01*
X429860D01*
Y132637D01*
X429303D01*
Y132776D01*
X429442D01*
Y132915D01*
X429581D01*
Y133055D01*
X429721D01*
Y133194D01*
X429999D01*
Y133333D01*
X430138D01*
Y133611D01*
X430277D01*
Y133751D01*
X430417D01*
Y133890D01*
X430556D01*
Y134029D01*
X430695D01*
Y134308D01*
X430834D01*
Y134447D01*
X430974D01*
Y134586D01*
X431113D01*
Y134725D01*
X431252D01*
Y135004D01*
X431391D01*
Y135143D01*
X431531D01*
Y135282D01*
X431670D01*
Y135421D01*
X431809D01*
Y135700D01*
X431948D01*
Y135839D01*
X432088D01*
Y135978D01*
X432227D01*
Y136117D01*
X432366D01*
Y136396D01*
X432505D01*
Y136535D01*
X432644D01*
Y136674D01*
X432784D01*
Y136814D01*
X432923D01*
Y137092D01*
X433062D01*
Y137231D01*
X433201D01*
Y137371D01*
X433340D01*
Y137510D01*
X433480D01*
Y137788D01*
X433619D01*
Y137928D01*
X433758D01*
Y138067D01*
X433898D01*
Y138206D01*
X434037D01*
Y138484D01*
X434176D01*
Y138624D01*
X434315D01*
Y138763D01*
X434454D01*
Y139041D01*
X434594D01*
Y139180D01*
X434454D01*
Y139320D01*
X434037D01*
Y139180D01*
X433062D01*
Y139041D01*
X432366D01*
Y138902D01*
X431531D01*
Y138763D01*
X430834D01*
Y138624D01*
X430138D01*
Y138484D01*
X429442D01*
Y138345D01*
X429303D01*
Y138484D01*
X429164D01*
Y138624D01*
X429025D01*
Y138484D01*
X429164D01*
Y138345D01*
X429025D01*
Y138484D01*
X428607D01*
Y138345D01*
X428468D01*
Y138206D01*
X428189D01*
Y138067D01*
X428050D01*
Y138345D01*
X428189D01*
Y138763D01*
X428328D01*
Y139041D01*
X428468D01*
Y139180D01*
X428607D01*
Y139459D01*
X428746D01*
Y139598D01*
X428885D01*
Y139877D01*
X429025D01*
Y140016D01*
X429164D01*
Y140155D01*
X429303D01*
Y140434D01*
X429442D01*
Y140712D01*
X429581D01*
Y140851D01*
X429721D01*
Y141130D01*
X429025D01*
Y140990D01*
X428468D01*
Y140851D01*
X428050D01*
Y140712D01*
X427632D01*
Y140573D01*
X427215D01*
Y140434D01*
X426797D01*
Y140294D01*
X426379D01*
Y140155D01*
X426101D01*
Y140016D01*
X425961D01*
Y140155D01*
X425822D01*
Y140573D01*
X425961D01*
Y140851D01*
X426101D01*
Y140990D01*
X426240D01*
Y141130D01*
X426101D01*
Y142661D01*
X426240D01*
Y143497D01*
X426379D01*
Y144053D01*
X426518D01*
Y144750D01*
X426658D01*
Y145446D01*
X426797D01*
Y146142D01*
X426936D01*
Y146977D01*
X427075D01*
Y147813D01*
X427215D01*
Y148648D01*
X427354D01*
Y149483D01*
X427493D01*
Y150319D01*
X427632D01*
Y151154D01*
X427771D01*
Y152268D01*
X427911D01*
Y153521D01*
X428050D01*
Y154774D01*
X428189D01*
Y156027D01*
X428328D01*
Y156862D01*
X428468D01*
Y158255D01*
X428328D01*
Y158394D01*
D02*
G37*
G36*
X399508Y135143D02*
X399091D01*
Y134725D01*
X399230D01*
Y134308D01*
X399369D01*
Y134029D01*
X399508D01*
Y133472D01*
X399369D01*
Y133333D01*
X398812D01*
Y133472D01*
X398673D01*
Y133611D01*
X398534D01*
Y133751D01*
X398255D01*
Y133890D01*
X398116D01*
Y133055D01*
X398255D01*
Y132637D01*
X398395D01*
Y132358D01*
X398534D01*
Y132219D01*
X398673D01*
Y132080D01*
X398812D01*
Y131941D01*
X399091D01*
Y131801D01*
X399230D01*
Y132080D01*
X399369D01*
Y132219D01*
X399508D01*
Y132358D01*
X399926D01*
Y132219D01*
X400204D01*
Y132080D01*
X400344D01*
Y131801D01*
X400483D01*
Y132358D01*
X400344D01*
Y132915D01*
X400204D01*
Y133890D01*
X400065D01*
Y135004D01*
X399508D01*
Y135143D01*
D02*
G37*
G36*
X392547Y134308D02*
X392268D01*
Y133333D01*
X392408D01*
Y132080D01*
X392547D01*
Y131245D01*
X392686D01*
Y130409D01*
X392825D01*
Y129992D01*
X392965D01*
Y129852D01*
X393104D01*
Y129713D01*
X393243D01*
Y129574D01*
X393382D01*
Y129435D01*
X393521D01*
Y129295D01*
X393661D01*
Y129156D01*
X393939D01*
Y129017D01*
X394078D01*
Y129295D01*
X393939D01*
Y129574D01*
X393800D01*
Y129852D01*
X393661D01*
Y130827D01*
X394496D01*
Y130688D01*
X394635D01*
Y130548D01*
X394775D01*
Y130409D01*
X394914D01*
Y130688D01*
X394775D01*
Y131105D01*
X394635D01*
Y131662D01*
X394496D01*
Y132080D01*
X394357D01*
Y132219D01*
X394218D01*
Y132358D01*
X394078D01*
Y132637D01*
X393939D01*
Y132776D01*
X393800D01*
Y132915D01*
X393521D01*
Y133194D01*
X393382D01*
Y133333D01*
X393243D01*
Y133472D01*
X393104D01*
Y133611D01*
X392965D01*
Y133751D01*
X392825D01*
Y133890D01*
X392686D01*
Y134029D01*
X392547D01*
Y134308D01*
D02*
G37*
G36*
X405495Y141130D02*
X405356D01*
Y140851D01*
X405217D01*
Y140155D01*
X405077D01*
Y139877D01*
X404938D01*
Y139459D01*
X404799D01*
Y139041D01*
X404660D01*
Y138763D01*
X404520D01*
Y138624D01*
X404381D01*
Y138345D01*
X404242D01*
Y138067D01*
X404103D01*
Y137928D01*
X403964D01*
Y137649D01*
X403824D01*
Y137510D01*
X403685D01*
Y137371D01*
X403546D01*
Y137231D01*
X403407D01*
Y136953D01*
X403267D01*
Y136814D01*
X403128D01*
Y136674D01*
X402989D01*
Y136535D01*
X402850D01*
Y136396D01*
X402571D01*
Y136257D01*
X402432D01*
Y136117D01*
X402293D01*
Y135978D01*
X402014D01*
Y135839D01*
X401875D01*
Y135700D01*
X401597D01*
Y135561D01*
X401318D01*
Y135421D01*
X401040D01*
Y135282D01*
X400900D01*
Y135004D01*
X401040D01*
Y134725D01*
X401179D01*
Y134447D01*
X401318D01*
Y134168D01*
X401457D01*
Y133890D01*
X401597D01*
Y133611D01*
X401736D01*
Y133333D01*
X401875D01*
Y133194D01*
X402014D01*
Y132915D01*
X402154D01*
Y132776D01*
X402293D01*
Y132637D01*
X402432D01*
Y132358D01*
X402571D01*
Y132219D01*
X402710D01*
Y131941D01*
X402850D01*
Y131801D01*
X402989D01*
Y131662D01*
X403128D01*
Y131384D01*
X403267D01*
Y131245D01*
X403407D01*
Y131105D01*
X403546D01*
Y130966D01*
X403685D01*
Y130688D01*
X403824D01*
Y130548D01*
X403964D01*
Y130409D01*
X404103D01*
Y130270D01*
X404242D01*
Y129992D01*
X404381D01*
Y129852D01*
X404520D01*
Y129713D01*
X404660D01*
Y129574D01*
X404799D01*
Y129295D01*
X404938D01*
Y129156D01*
X405217D01*
Y130548D01*
X405077D01*
Y132080D01*
X405217D01*
Y133055D01*
X404938D01*
Y132915D01*
X404799D01*
Y133055D01*
X404520D01*
Y133194D01*
X404381D01*
Y134029D01*
X404520D01*
Y134447D01*
X404660D01*
Y134725D01*
X404799D01*
Y135004D01*
X404938D01*
Y135282D01*
X405077D01*
Y135561D01*
X405217D01*
Y135700D01*
X405356D01*
Y135978D01*
X405495D01*
Y136257D01*
X405634D01*
Y136535D01*
X405774D01*
Y136814D01*
X405913D01*
Y137092D01*
X406052D01*
Y137510D01*
X406191D01*
Y138067D01*
X406052D01*
Y138902D01*
X405913D01*
Y139598D01*
X405774D01*
Y140573D01*
X405634D01*
Y140990D01*
X405495D01*
Y141130D01*
D02*
G37*
G36*
X430695Y126929D02*
X430277D01*
Y126232D01*
X430556D01*
Y126093D01*
X430695D01*
Y126929D01*
D02*
G37*
G36*
X429581Y129574D02*
X429442D01*
Y129435D01*
X429164D01*
Y129295D01*
X429025D01*
Y129156D01*
X428885D01*
Y129017D01*
X428746D01*
Y128738D01*
X428607D01*
Y128599D01*
X428468D01*
Y128460D01*
X428328D01*
Y128321D01*
X428189D01*
Y128181D01*
X428050D01*
Y127903D01*
X427911D01*
Y127764D01*
X427771D01*
Y127625D01*
X427632D01*
Y127485D01*
X427493D01*
Y127207D01*
X427354D01*
Y126929D01*
X427215D01*
Y126511D01*
X427075D01*
Y125954D01*
X426936D01*
Y125536D01*
X426797D01*
Y124979D01*
X426658D01*
Y124422D01*
X426518D01*
Y123587D01*
X426379D01*
Y121777D01*
X426240D01*
Y121499D01*
X425961D01*
Y121359D01*
X425822D01*
Y121081D01*
X425683D01*
Y120802D01*
X425544D01*
Y120663D01*
X425265D01*
Y120802D01*
X425126D01*
Y120942D01*
X424987D01*
Y121081D01*
X424569D01*
Y119410D01*
X424430D01*
Y117879D01*
X424291D01*
Y116626D01*
X424151D01*
Y116347D01*
X424012D01*
Y116208D01*
X423873D01*
Y116069D01*
X423734D01*
Y116208D01*
X423455D01*
Y116347D01*
X423316D01*
Y116487D01*
X423177D01*
Y116626D01*
X423038D01*
Y116765D01*
X422898D01*
Y116904D01*
X422759D01*
Y117043D01*
X422620D01*
Y117322D01*
X422481D01*
Y117461D01*
X422342D01*
Y117600D01*
X422202D01*
Y117739D01*
X422063D01*
Y117879D01*
X421924D01*
Y118018D01*
X421785D01*
Y118157D01*
X421645D01*
Y118296D01*
X421506D01*
Y118436D01*
X421367D01*
Y118575D01*
X421228D01*
Y118714D01*
X421088D01*
Y118993D01*
X420949D01*
Y119132D01*
X420810D01*
Y119271D01*
X419836D01*
Y119410D01*
X419696D01*
Y119550D01*
X419557D01*
Y119689D01*
X419279D01*
Y119828D01*
X419139D01*
Y118575D01*
X419279D01*
Y117739D01*
X419418D01*
Y117183D01*
X419279D01*
Y117043D01*
X419000D01*
Y116904D01*
X418722D01*
Y117043D01*
X418304D01*
Y117183D01*
X418026D01*
Y117322D01*
X417747D01*
Y117461D01*
X417469D01*
Y117600D01*
X417190D01*
Y117739D01*
X416633D01*
Y116626D01*
X416772D01*
Y115512D01*
X416912D01*
Y114955D01*
X417051D01*
Y114259D01*
X417190D01*
Y113702D01*
X417329D01*
Y113145D01*
X417469D01*
Y112727D01*
X417608D01*
Y112310D01*
X417747D01*
Y111753D01*
X417886D01*
Y111474D01*
X418026D01*
Y111057D01*
X418165D01*
Y110639D01*
X418304D01*
Y110360D01*
X418443D01*
Y109943D01*
X418582D01*
Y109664D01*
X418722D01*
Y109386D01*
X418861D01*
Y109107D01*
X419000D01*
Y108829D01*
X419139D01*
Y108551D01*
X419279D01*
Y108272D01*
X419418D01*
Y107994D01*
X419557D01*
Y107854D01*
X419696D01*
Y107576D01*
X419836D01*
Y107297D01*
X419975D01*
Y107158D01*
X420114D01*
Y106880D01*
X420253D01*
Y106741D01*
X420392D01*
Y106601D01*
X420532D01*
Y106323D01*
X420671D01*
Y106184D01*
X420810D01*
Y106044D01*
X420949D01*
Y105905D01*
X421088D01*
Y105766D01*
X421228D01*
Y105627D01*
X421367D01*
Y105487D01*
X421506D01*
Y105348D01*
X421645D01*
Y105209D01*
X421785D01*
Y105070D01*
X421924D01*
Y104930D01*
X422063D01*
Y104791D01*
X422202D01*
Y104652D01*
X422342D01*
Y104513D01*
X422481D01*
Y104374D01*
X422620D01*
Y104234D01*
X422898D01*
Y104095D01*
X423038D01*
Y103956D01*
X423177D01*
Y103817D01*
X423455D01*
Y103678D01*
X423595D01*
Y103538D01*
X423873D01*
Y103399D01*
X424151D01*
Y103260D01*
X424291D01*
Y103121D01*
X424569D01*
Y102981D01*
X424848D01*
Y102842D01*
X425405D01*
Y103399D01*
X425544D01*
Y104374D01*
X425683D01*
Y105348D01*
X425822D01*
Y106184D01*
X425961D01*
Y107019D01*
X426101D01*
Y107715D01*
X426240D01*
Y108411D01*
X426379D01*
Y109247D01*
X426518D01*
Y109943D01*
X426658D01*
Y110500D01*
X426797D01*
Y111335D01*
X426936D01*
Y112031D01*
X427075D01*
Y112727D01*
X427215D01*
Y113423D01*
X427354D01*
Y113980D01*
X427493D01*
Y114816D01*
X427632D01*
Y115512D01*
X427771D01*
Y116347D01*
X427911D01*
Y117322D01*
X428050D01*
Y118157D01*
X428189D01*
Y119410D01*
X428328D01*
Y121777D01*
X428468D01*
Y122752D01*
X428328D01*
Y123030D01*
X428468D01*
Y122891D01*
X428607D01*
Y122612D01*
X428746D01*
Y122473D01*
X428885D01*
Y122334D01*
X429164D01*
Y122473D01*
X429025D01*
Y123587D01*
X428885D01*
Y124422D01*
X428746D01*
Y124979D01*
X428885D01*
Y124840D01*
X429025D01*
Y124701D01*
X429164D01*
Y124562D01*
X429303D01*
Y124422D01*
X429721D01*
Y125258D01*
X429581D01*
Y129574D01*
D02*
G37*
G36*
X379599Y124422D02*
X379459D01*
Y124283D01*
X379599D01*
Y124422D01*
D02*
G37*
G36*
X412874Y120663D02*
X412596D01*
Y120385D01*
X412456D01*
Y120106D01*
X412596D01*
Y119410D01*
X412735D01*
Y119550D01*
X413013D01*
Y119689D01*
X413153D01*
Y119828D01*
X413292D01*
Y120246D01*
X413153D01*
Y120385D01*
X413013D01*
Y120524D01*
X412874D01*
Y120663D01*
D02*
G37*
G36*
X414127Y120246D02*
X413570D01*
Y119828D01*
X413709D01*
Y119132D01*
X413570D01*
Y116347D01*
X413709D01*
Y115930D01*
X413849D01*
Y115790D01*
X414127D01*
Y116487D01*
X414266D01*
Y116765D01*
X414127D01*
Y116904D01*
X414266D01*
Y117600D01*
X414406D01*
Y118018D01*
X414545D01*
Y118157D01*
X414684D01*
Y118436D01*
X414823D01*
Y117322D01*
X414963D01*
Y116347D01*
X415102D01*
Y115790D01*
X415241D01*
Y115233D01*
X415380D01*
Y114816D01*
X415519D01*
Y114537D01*
X415659D01*
Y114120D01*
X416076D01*
Y116904D01*
X416216D01*
Y117461D01*
X416355D01*
Y117600D01*
X416494D01*
Y118018D01*
X416355D01*
Y118157D01*
X416216D01*
Y118296D01*
X416076D01*
Y118436D01*
X415798D01*
Y118575D01*
X415659D01*
Y118714D01*
X415519D01*
Y118853D01*
X415241D01*
Y118993D01*
X415102D01*
Y119132D01*
X414963D01*
Y119271D01*
X414823D01*
Y119410D01*
X414684D01*
Y119550D01*
X414545D01*
Y119689D01*
X414406D01*
Y119967D01*
X414266D01*
Y120106D01*
X414127D01*
Y120246D01*
D02*
G37*
%LPD*%
G36*
X392825Y148370D02*
X392686D01*
Y148230D01*
X392547D01*
X392547Y148091D01*
X392408D01*
Y147952D01*
X392129D01*
Y147813D01*
X391990D01*
Y147673D01*
X391851D01*
Y147534D01*
X391712D01*
Y147395D01*
X391572D01*
Y147256D01*
X391294D01*
Y147395D01*
X391433D01*
Y147813D01*
X391572D01*
Y148091D01*
X391712D01*
Y148230D01*
X391851D01*
Y148370D01*
X391990D01*
Y148509D01*
X392408D01*
Y148648D01*
X392547D01*
X392686Y148648D01*
X392825Y148648D01*
Y148370D01*
D02*
G37*
G36*
X425961Y153799D02*
X426101D01*
Y152686D01*
X425961D01*
Y152407D01*
X426101D01*
Y152268D01*
X425961D01*
Y151711D01*
X425822D01*
X425822Y151154D01*
X425683D01*
Y150876D01*
X425405D01*
Y151572D01*
X425544D01*
Y153521D01*
X425683D01*
Y153939D01*
X425961D01*
Y153799D01*
D02*
G37*
G36*
X422202Y139737D02*
X422898D01*
Y139598D01*
X423316D01*
Y139459D01*
X423734D01*
Y139320D01*
X424012D01*
X424012Y139180D01*
X424430D01*
Y139041D01*
X424569Y139041D01*
X424848D01*
X424848Y139320D01*
X424708D01*
Y139598D01*
X424987D01*
Y139459D01*
X425265D01*
Y139320D01*
X425405D01*
Y139180D01*
X425683D01*
Y139041D01*
X425822Y139041D01*
X425822Y138902D01*
X425961D01*
Y138763D01*
X426240D01*
Y138624D01*
X426379D01*
Y138484D01*
X426518D01*
Y138206D01*
X426658D01*
Y138067D01*
X426797D01*
Y137928D01*
X426936D01*
Y137510D01*
X427075D01*
Y136953D01*
X427215D01*
Y136117D01*
X427075D01*
Y135282D01*
X426936D01*
Y134865D01*
X426797Y134865D01*
Y134447D01*
X426658D01*
Y134168D01*
X426518D01*
Y133890D01*
X426379D01*
Y133751D01*
X426240D01*
Y133472D01*
X426101D01*
Y133333D01*
X425961D01*
Y133194D01*
X425822Y133194D01*
Y133055D01*
X425683D01*
Y132915D01*
X425544D01*
Y132776D01*
X425405D01*
Y132637D01*
X425265D01*
Y132498D01*
X425126D01*
Y132358D01*
X424848D01*
Y132219D01*
X424708D01*
Y132080D01*
X424430D01*
Y131941D01*
X424291D01*
Y131801D01*
X424151Y131802D01*
X424012Y131801D01*
X424012Y131662D01*
X423873Y131662D01*
X423734Y131662D01*
X423595Y131662D01*
Y131523D01*
X423038D01*
Y131384D01*
X422898D01*
Y131245D01*
X422342D01*
Y131384D01*
X422202D01*
Y131662D01*
X421506D01*
Y131801D01*
X421228D01*
Y131941D01*
X420949D01*
Y132080D01*
X420810D01*
Y132219D01*
X420532D01*
Y132358D01*
X420392D01*
X420392Y132498D01*
X420253D01*
Y132637D01*
X420114D01*
Y132776D01*
X419975D01*
Y132915D01*
X419836D01*
Y133055D01*
X419696D01*
Y133194D01*
X419557D01*
Y133333D01*
X419418D01*
Y133611D01*
X419279D01*
Y133751D01*
X419139D01*
Y134029D01*
X419000D01*
Y134308D01*
X418861D01*
Y134447D01*
X418722D01*
Y134865D01*
X418582D01*
Y135143D01*
X418443D01*
Y135561D01*
X418304D01*
Y135978D01*
X418165D01*
Y136814D01*
X418026D01*
Y137649D01*
X418165D01*
Y138345D01*
X418304D01*
Y138763D01*
X418443D01*
Y139041D01*
X418582Y139041D01*
Y139320D01*
X418722D01*
Y139459D01*
X419139D01*
Y139598D01*
X419418D01*
Y139737D01*
X420114D01*
Y139877D01*
X422202D01*
Y139737D01*
D02*
G37*
%LPC*%
G36*
X420253Y139180D02*
X419975D01*
Y139041D01*
X419279D01*
Y138902D01*
X419000D01*
Y138763D01*
X418861D01*
X418861Y137649D01*
X419000D01*
Y137231D01*
X419139D01*
Y137092D01*
X419000D01*
Y136814D01*
X419139D01*
X419139Y136117D01*
X419279Y136117D01*
Y135700D01*
X419418D01*
Y135421D01*
X419557D01*
Y135282D01*
X419696D01*
Y135421D01*
X420810D01*
Y135282D01*
X421367D01*
Y135143D01*
X421924D01*
Y135004D01*
X422063D01*
Y134865D01*
X421924Y134865D01*
Y134725D01*
X421645D01*
Y134586D01*
X421088D01*
Y134447D01*
X419836D01*
Y134308D01*
X419975D01*
Y134029D01*
X420114D01*
Y133751D01*
X420253D01*
Y133611D01*
X420392D01*
Y133333D01*
X420532D01*
Y133194D01*
X420671Y133194D01*
Y133055D01*
X420810D01*
Y132915D01*
X420949D01*
Y132637D01*
X421088D01*
Y132498D01*
X421228D01*
Y132358D01*
X421367D01*
Y132219D01*
X422202D01*
Y132358D01*
X422481D01*
X422620Y132358D01*
Y132498D01*
X422759D01*
X422898Y132498D01*
Y132637D01*
X423177D01*
Y132776D01*
X423455D01*
Y132915D01*
X423595D01*
Y133055D01*
X423734D01*
X423734Y133194D01*
X423873D01*
Y133333D01*
X424012D01*
Y133472D01*
X424151D01*
Y133611D01*
X424291D01*
Y133751D01*
X424430D01*
Y134029D01*
X424569D01*
X424569Y134308D01*
X424708D01*
Y134865D01*
X424848D01*
X424848Y135561D01*
X424708D01*
Y135839D01*
X424569D01*
X424569Y136117D01*
X424430D01*
Y136257D01*
X424291D01*
Y136396D01*
X424012D01*
Y136535D01*
X423873D01*
Y136674D01*
X423595D01*
Y136814D01*
X423316D01*
Y136953D01*
X423038D01*
Y137092D01*
X422759D01*
Y137231D01*
X422620Y137231D01*
X422481Y137231D01*
X422202D01*
X422202Y137371D01*
X421645D01*
Y137510D01*
X420253D01*
Y137371D01*
X419696D01*
Y137231D01*
X419557D01*
Y137371D01*
X419418D01*
Y137510D01*
X419557D01*
Y137649D01*
X419696D01*
Y137788D01*
X420114D01*
X420114Y137928D01*
X421645D01*
Y137788D01*
X422342D01*
Y137649D01*
X422759D01*
Y137510D01*
X423038D01*
Y137371D01*
X423455D01*
Y137231D01*
X423734D01*
Y137092D01*
X424012D01*
Y136953D01*
X424151D01*
Y136814D01*
X424291Y136814D01*
X424430D01*
Y136674D01*
X424569D01*
X424569Y136535D01*
X424708D01*
Y136396D01*
X424848D01*
X424848Y136117D01*
X424987D01*
X424987Y135839D01*
X425126D01*
Y134586D01*
X424987D01*
X424987Y134308D01*
X424848D01*
Y134029D01*
X424708D01*
Y133751D01*
X424569D01*
Y133611D01*
X424430Y133611D01*
Y133333D01*
X424291D01*
Y133194D01*
X424151Y133194D01*
Y133055D01*
X424012Y133055D01*
X424012Y132915D01*
X423873Y132915D01*
Y132776D01*
X423734D01*
Y132637D01*
X423455D01*
Y132498D01*
X423177D01*
Y132358D01*
X422898D01*
Y132219D01*
X422620D01*
Y132080D01*
X422342D01*
Y131941D01*
X422202D01*
Y131662D01*
X422620D01*
X422759Y131662D01*
X422759Y131801D01*
X422898Y131802D01*
Y131941D01*
X423038Y131941D01*
Y132080D01*
X423177D01*
Y132219D01*
X423316D01*
Y132358D01*
X423595D01*
Y132498D01*
X423734D01*
X423734Y132637D01*
X424012D01*
Y132776D01*
X424291D01*
Y132915D01*
X424430D01*
Y133055D01*
X424569D01*
X424569Y133194D01*
X424708D01*
Y133333D01*
X424848D01*
Y133472D01*
X424987D01*
Y133611D01*
X425126D01*
Y133751D01*
X425265D01*
Y134029D01*
X425405D01*
Y134168D01*
X425544D01*
Y134447D01*
X425683D01*
Y134725D01*
X425822Y134725D01*
X425822Y135143D01*
X425961D01*
Y135561D01*
X426101D01*
Y136953D01*
X425961D01*
Y137231D01*
X425822D01*
X425683Y137231D01*
Y137371D01*
X425544D01*
Y137510D01*
X425265D01*
Y137649D01*
X425126D01*
Y137788D01*
X424848D01*
Y137928D01*
X424569D01*
X424569Y138067D01*
X424291D01*
Y138206D01*
X424012D01*
Y138345D01*
X423595D01*
Y138484D01*
X423316D01*
Y138624D01*
X422898D01*
Y138763D01*
X422342D01*
Y138902D01*
X421506D01*
Y139041D01*
X420949D01*
X420810Y139041D01*
X420671Y139041D01*
X420253D01*
Y139180D01*
D02*
G37*
%LPD*%
G36*
X419418Y137231D02*
X419279D01*
Y137371D01*
X419418D01*
Y137231D01*
D02*
G37*
%LPC*%
G36*
X366651Y16104D02*
X366511D01*
Y15964D01*
X366372D01*
Y15825D01*
X366233D01*
Y15547D01*
X366094D01*
Y15129D01*
X365955D01*
Y14572D01*
X366511D01*
Y15268D01*
X366651D01*
Y16104D01*
D02*
G37*
%LPD*%
D10*
X300343Y37657D02*
G03*
X300343Y26343I5657J-5657D01*
G01*
X311657Y4343D02*
G03*
X311657Y15657I-5657J5657D01*
G01*
X137000Y50000D02*
Y305000D01*
Y50000D02*
X317000D01*
Y305000D01*
X137000D02*
X317000D01*
X137000Y243000D02*
X317000D01*
X295000Y26000D02*
Y38000D01*
X290000Y32000D02*
X295000D01*
X302000Y24000D02*
X306000D01*
X299000Y32000D02*
X304000D01*
X304500Y10000D02*
X313000D01*
X306000Y14000D02*
X310000D01*
X317000Y10000D02*
X326000D01*
X317000Y4000D02*
Y16000D01*
X202000Y7000D02*
Y37000D01*
X325000Y0D02*
Y305000D01*
X129000Y0D02*
Y305000D01*
X345000Y0D02*
Y305000D01*
X109000Y0D02*
Y305000D01*
X264809Y30093D02*
X263476Y28760D01*
Y26094D01*
X264809Y24761D01*
X270140D01*
X271473Y26094D01*
Y28760D01*
X270140Y30093D01*
X264809Y32758D02*
X263476Y34091D01*
Y36757D01*
X264809Y38090D01*
X266141D01*
X267474Y36757D01*
X268807Y38090D01*
X270140D01*
X271473Y36757D01*
Y34091D01*
X270140Y32758D01*
X268807D01*
X267474Y34091D01*
X266141Y32758D01*
X264809D01*
X267474Y34091D02*
Y36757D01*
X102599Y65938D02*
Y57941D01*
X107931D01*
X110596D02*
X113262D01*
X111929D01*
Y65938D01*
X110596Y64605D01*
X257764Y38129D02*
X249767D01*
Y34130D01*
X251100Y32797D01*
X256432D01*
X257764Y34130D01*
Y38129D01*
X249767Y30132D02*
Y27466D01*
Y28799D01*
X257764D01*
X256432Y30132D01*
X103681Y110713D02*
X95684D01*
Y114712D01*
X97016Y116045D01*
X99682D01*
X101015Y114712D01*
Y110713D01*
Y113379D02*
X103681Y116045D01*
Y118710D02*
Y121376D01*
Y120043D01*
X95684D01*
X97016Y118710D01*
X103681Y110193D02*
Y118190D01*
X107680D01*
X109013Y116858D01*
Y114192D01*
X107680Y112859D01*
X103681D01*
X111678Y116858D02*
X113011Y118190D01*
X115677D01*
X117010Y116858D01*
Y115525D01*
X115677Y114192D01*
X114344D01*
X115677D01*
X117010Y112859D01*
Y111526D01*
X115677Y110193D01*
X113011D01*
X111678Y111526D01*
X325681Y160193D02*
Y168190D01*
X329680D01*
X331013Y166857D01*
Y164192D01*
X329680Y162859D01*
X325681D01*
X339010Y160193D02*
X333678D01*
X339010Y165525D01*
Y166857D01*
X337677Y168190D01*
X335011D01*
X333678Y166857D01*
X325681Y312593D02*
Y320590D01*
X329680D01*
X331013Y319258D01*
Y316592D01*
X329680Y315259D01*
X325681D01*
X333678Y312593D02*
X336344D01*
X335011D01*
Y320590D01*
X333678Y319258D01*
X271183Y73941D02*
X269850Y75274D01*
X267184D01*
X265851Y73941D01*
Y68610D01*
X267184Y67277D01*
X269850D01*
X271183Y68610D01*
X277847Y67277D02*
Y75274D01*
X273848Y71276D01*
X279180D01*
X103544Y165667D02*
X102211Y164334D01*
Y161668D01*
X103544Y160336D01*
X108876D01*
X110209Y161668D01*
Y164334D01*
X108876Y165667D01*
X103544Y168333D02*
X102211Y169666D01*
Y172332D01*
X103544Y173664D01*
X104877D01*
X106210Y172332D01*
Y170999D01*
Y172332D01*
X107543Y173664D01*
X108876D01*
X110209Y172332D01*
Y169666D01*
X108876Y168333D01*
X97477Y219013D02*
X96144Y217680D01*
Y215014D01*
X97477Y213681D01*
X102808D01*
X104141Y215014D01*
Y217680D01*
X102808Y219013D01*
X104141Y227010D02*
Y221678D01*
X98809Y227010D01*
X97477D01*
X96144Y225677D01*
Y223011D01*
X97477Y221678D01*
X137984Y197955D02*
X139316Y199288D01*
Y201954D01*
X137984Y203287D01*
X132652D01*
X131319Y201954D01*
Y199288D01*
X132652Y197955D01*
X131319Y195290D02*
Y192624D01*
Y193957D01*
X139316D01*
X137984Y195290D01*
X132893Y312423D02*
Y317755D01*
X135559Y320420D01*
X138225Y317755D01*
Y312423D01*
Y316422D01*
X132893D01*
X140890Y312423D02*
X143556D01*
X142223D01*
Y320420D01*
X140890Y319088D01*
D11*
X179000Y36250D02*
G03*
X179000Y36250I-1250J0D01*
G01*
D12*
X162500Y-4500D02*
Y-2000D01*
X109500Y-4500D02*
Y-2000D01*
X162500Y46000D02*
Y48500D01*
X109500Y46000D02*
Y48500D01*
Y-4500D02*
X162500D01*
X109500Y48500D02*
X162500D01*
X186000Y37000D02*
X232000Y37000D01*
X186000Y7000D02*
X232000Y7000D01*
X186000Y34750D02*
Y37000D01*
X232000Y34750D02*
Y37000D01*
X186000Y7000D02*
Y9250D01*
X232000Y7000D02*
Y9250D01*
X350700Y228900D02*
Y305100D01*
X325300D02*
X350700D01*
X325300Y228900D02*
Y305100D01*
Y228900D02*
X350700D01*
X325300Y152700D02*
X350700D01*
Y101900D02*
Y152700D01*
X325300Y101900D02*
X350700D01*
X325300D02*
Y152700D01*
X103300Y102700D02*
X128700D01*
Y51900D02*
Y102700D01*
X103300Y51900D02*
X128700D01*
X103300D02*
Y102700D01*
M02*
