G04*
G04 #@! TF.GenerationSoftware,Altium Limited,Altium Designer,21.5.1 (32)*
G04*
G04 Layer_Physical_Order=1*
G04 Layer_Color=255*
%FSLAX44Y44*%
%MOMM*%
G71*
G04*
G04 #@! TF.SameCoordinates,DE706C4F-A6C2-482A-8352-4916370A565D*
G04*
G04*
G04 #@! TF.FilePolarity,Positive*
G04*
G01*
G75*
%ADD13R,3.7000X3.7000*%
%ADD14R,1.5000X0.9000*%
%ADD15R,0.9000X1.5000*%
%ADD16R,2.6000X4.0000*%
%ADD17R,2.5500X1.7500*%
%ADD18R,0.9000X0.9500*%
%ADD19R,1.5000X1.4500*%
%ADD20R,0.9500X1.0500*%
%ADD30C,1.6000*%
%ADD33C,1.0160*%
%ADD34C,1.2700*%
%ADD35C,0.5080*%
%ADD36C,0.1270*%
%ADD37C,0.9652*%
%ADD38C,0.2540*%
%ADD39C,1.2000*%
%ADD40C,1.5000*%
%ADD41R,1.5000X1.5000*%
%ADD42C,0.6000*%
G36*
X442790Y302495D02*
X445155Y301515D01*
X447283Y300093D01*
X449093Y298283D01*
X450515Y296155D01*
X451495Y293790D01*
X451990Y291303D01*
X451962Y290046D01*
X451965Y290023D01*
X451961Y290000D01*
X451961Y287859D01*
X450691Y287261D01*
X448860Y288319D01*
X446316Y289000D01*
X443684D01*
X441140Y288319D01*
X438860Y287002D01*
X436998Y285140D01*
X435681Y282860D01*
X435000Y280317D01*
Y277684D01*
X435681Y275140D01*
X436998Y272860D01*
X438860Y270998D01*
X441140Y269681D01*
X443684Y269000D01*
X446316D01*
X448860Y269681D01*
X450693Y270740D01*
X451963Y270144D01*
X451967Y237851D01*
X450697Y237258D01*
X448860Y238319D01*
X446316Y239000D01*
X443684D01*
X441140Y238319D01*
X438860Y237002D01*
X436998Y235140D01*
X435681Y232860D01*
X435000Y230317D01*
Y227684D01*
X435681Y225140D01*
X436998Y222860D01*
X438860Y220998D01*
X441140Y219681D01*
X443684Y219000D01*
X446316D01*
X448860Y219681D01*
X450699Y220744D01*
X451969Y220151D01*
X451973Y187843D01*
X450703Y187254D01*
X448860Y188319D01*
X446316Y189000D01*
X443684D01*
X441140Y188319D01*
X438860Y187002D01*
X436998Y185140D01*
X435681Y182860D01*
X435000Y180317D01*
Y177684D01*
X435681Y175140D01*
X436998Y172860D01*
X438860Y170998D01*
X441140Y169681D01*
X443684Y169000D01*
X446316D01*
X448860Y169681D01*
X450705Y170747D01*
X451975Y170159D01*
X451979Y137836D01*
X450709Y137251D01*
X448860Y138319D01*
X446316Y139000D01*
X443684D01*
X441140Y138319D01*
X438860Y137002D01*
X436998Y135140D01*
X435681Y132860D01*
X435000Y130316D01*
Y127683D01*
X435681Y125140D01*
X436998Y122860D01*
X438860Y120998D01*
X441140Y119682D01*
X443684Y119000D01*
X446316D01*
X448860Y119682D01*
X450711Y120751D01*
X451982Y120167D01*
X451985Y87828D01*
X450715Y87247D01*
X448860Y88319D01*
X446316Y89000D01*
X443684D01*
X441140Y88319D01*
X438860Y87002D01*
X436998Y85140D01*
X435681Y82860D01*
X435000Y80316D01*
Y77684D01*
X435681Y75140D01*
X436998Y72860D01*
X438860Y70998D01*
X441140Y69682D01*
X443684Y69000D01*
X446316D01*
X448860Y69682D01*
X450718Y70754D01*
X451988Y70175D01*
X451992Y37820D01*
X450722Y37244D01*
X448860Y38319D01*
X446316Y39000D01*
X443684D01*
X441140Y38319D01*
X438860Y37002D01*
X436998Y35140D01*
X435681Y32860D01*
X435000Y30317D01*
Y27683D01*
X435681Y25140D01*
X436998Y22860D01*
X438860Y20998D01*
X441140Y19682D01*
X443684Y19000D01*
X446316D01*
X448860Y19682D01*
X450723Y20758D01*
X451994Y20183D01*
X451994Y15000D01*
Y13720D01*
X451495Y11210D01*
X450515Y8845D01*
X449093Y6717D01*
X447283Y4907D01*
X445155Y3485D01*
X442790Y2505D01*
X440303Y2010D01*
X439046Y2039D01*
X439023Y2034D01*
X439000Y2039D01*
X339762Y2031D01*
X339236Y3301D01*
X340102Y4167D01*
X341353Y6333D01*
X342000Y8749D01*
Y11251D01*
X341353Y13667D01*
X340102Y15833D01*
X338333Y17602D01*
X336167Y18853D01*
X333751Y19500D01*
X331249D01*
X328833Y18853D01*
X326667Y17602D01*
X324898Y15833D01*
X323647Y13667D01*
X323000Y11251D01*
Y8749D01*
X323647Y6333D01*
X324898Y4167D01*
X325765Y3300D01*
X325239Y2030D01*
X304760Y2028D01*
X304233Y3298D01*
X305102Y4167D01*
X306353Y6333D01*
X307000Y8749D01*
Y9253D01*
X314935Y17188D01*
X314935Y17188D01*
X316156Y18779D01*
X316924Y20633D01*
X317186Y22622D01*
Y24314D01*
X359247D01*
X360005Y24000D01*
X361995D01*
X362753Y24314D01*
X363000D01*
X364989Y24576D01*
X366843Y25344D01*
X368435Y26565D01*
X369656Y28157D01*
X369959Y28888D01*
X370239Y29168D01*
X371000Y31005D01*
Y32995D01*
X370239Y34832D01*
X369959Y35113D01*
X369656Y35843D01*
X368435Y37435D01*
X366843Y38656D01*
X364989Y39424D01*
X363000Y39686D01*
X362753D01*
X361995Y40000D01*
X360005D01*
X359247Y39686D01*
X311726D01*
X310553Y40000D01*
X308447D01*
X306412Y39455D01*
X304588Y38402D01*
X303098Y36912D01*
X302045Y35088D01*
X301500Y33053D01*
Y30947D01*
X301814Y29774D01*
Y25806D01*
X295237Y19229D01*
X293833Y18853D01*
X291667Y17602D01*
X289898Y15833D01*
X288647Y13667D01*
X288000Y11251D01*
Y8749D01*
X288647Y6333D01*
X289898Y4167D01*
X290768Y3297D01*
X290242Y2027D01*
X171398Y2018D01*
X170500Y2916D01*
Y13000D01*
X170995D01*
X171980Y13408D01*
X173250Y12560D01*
Y11250D01*
X202750D01*
Y32750D01*
X195598D01*
X194995Y33000D01*
X193005D01*
X192402Y32750D01*
X189598D01*
X188995Y33000D01*
X187005D01*
X186402Y32750D01*
X183598D01*
X182995Y33000D01*
X181005D01*
X180402Y32750D01*
X177598D01*
X176995Y33000D01*
X175005D01*
X174402Y32750D01*
X173250D01*
Y32273D01*
X173168Y32239D01*
X171770Y30841D01*
X171718Y30842D01*
X170500Y31106D01*
Y42900D01*
X290650D01*
Y61900D01*
X167013D01*
X164492Y64421D01*
X165239Y65168D01*
X166000Y67005D01*
Y68995D01*
X165672Y69788D01*
X166520Y71058D01*
X233000D01*
X233743Y71206D01*
X234373Y71627D01*
X265116Y102369D01*
X266005Y102000D01*
X267995D01*
X269832Y102761D01*
X271239Y104168D01*
X272000Y106005D01*
Y107995D01*
X271239Y109832D01*
X269832Y111239D01*
X269089Y111546D01*
X268916Y111808D01*
X268683Y113090D01*
X268794Y113257D01*
X268942Y114000D01*
Y129480D01*
X270212Y130329D01*
X270730Y130114D01*
Y135000D01*
X272000D01*
Y136270D01*
X276886D01*
X276695Y136730D01*
X276995Y138000D01*
X278832Y138761D01*
X280239Y140168D01*
X281000Y142005D01*
Y143995D01*
X280239Y145832D01*
X278832Y147239D01*
X276995Y148000D01*
X275005D01*
X274116Y147631D01*
X271920Y149827D01*
X272382Y151161D01*
X273832Y151761D01*
X275239Y153168D01*
X276000Y155005D01*
Y156995D01*
X275239Y158832D01*
X273832Y160239D01*
X271995Y161000D01*
X270005D01*
X269116Y160631D01*
X240409Y189338D01*
X241239Y190168D01*
X242000Y192005D01*
Y193995D01*
X241239Y195832D01*
X239832Y197239D01*
X237995Y198000D01*
X236005D01*
X234168Y197239D01*
X232761Y195832D01*
X232000Y193995D01*
Y192005D01*
X232761Y190168D01*
X234168Y188761D01*
X236005Y188000D01*
X236253D01*
X265690Y158563D01*
X265557Y157986D01*
X264162Y157585D01*
X242913Y178833D01*
X242283Y179254D01*
X241540Y179402D01*
X201808D01*
X201322Y180576D01*
X215373Y194627D01*
X215795Y195257D01*
X215811Y195338D01*
X216832Y195761D01*
X218239Y197168D01*
X219000Y199005D01*
Y200995D01*
X218239Y202832D01*
X217283Y203788D01*
X217810Y205058D01*
X263195D01*
X272369Y195884D01*
X272000Y194995D01*
Y193005D01*
X272761Y191168D01*
X274168Y189761D01*
X276005Y189000D01*
X277995D01*
X279832Y189761D01*
X281239Y191168D01*
X282000Y193005D01*
Y194995D01*
X281239Y196832D01*
X279832Y198239D01*
X277995Y199000D01*
X276005D01*
X275116Y198631D01*
X265373Y208373D01*
X264743Y208794D01*
X264000Y208942D01*
X204937D01*
X204937Y208942D01*
X204193Y208794D01*
X203563Y208373D01*
X203547Y208357D01*
X201995Y209000D01*
X200005D01*
X198168Y208239D01*
X196761Y206832D01*
X196000Y204995D01*
Y203005D01*
X196761Y201168D01*
X198168Y199761D01*
X200005Y199000D01*
X201995D01*
X203832Y199761D01*
X205239Y201168D01*
X206000Y203005D01*
Y204995D01*
X206042Y205058D01*
X210191D01*
X210717Y203788D01*
X209761Y202832D01*
X209000Y200995D01*
Y199005D01*
X209761Y197168D01*
X211091Y195838D01*
X210045Y194791D01*
X208547Y195089D01*
X208239Y195832D01*
X206832Y197239D01*
X204995Y198000D01*
X203005D01*
X201168Y197239D01*
X199761Y195832D01*
X199000Y193995D01*
Y192005D01*
X199662Y190408D01*
X193736Y184482D01*
X187857D01*
X185503Y186836D01*
X185801Y188334D01*
X186832Y188761D01*
X188239Y190168D01*
X189000Y192005D01*
Y193995D01*
X188239Y195832D01*
X186832Y197239D01*
X185942Y197607D01*
Y211000D01*
X185794Y211743D01*
X185373Y212373D01*
X185373Y212374D01*
X155920Y241827D01*
X156406Y243000D01*
X305386D01*
X306171Y241822D01*
X306160Y241730D01*
X305627Y241373D01*
X305627Y241373D01*
X293627Y229373D01*
X293206Y228743D01*
X293058Y228000D01*
Y183000D01*
X293206Y182257D01*
X293627Y181627D01*
X297626Y177627D01*
X297627Y177627D01*
X298257Y177206D01*
X299000Y177058D01*
X305000D01*
Y172700D01*
Y160000D01*
Y147300D01*
Y134600D01*
Y121900D01*
Y109200D01*
Y95406D01*
X303827Y94920D01*
X287631Y111116D01*
X288000Y112005D01*
Y113995D01*
X287239Y115832D01*
X285832Y117239D01*
X283995Y118000D01*
X282005D01*
X280168Y117239D01*
X278761Y115832D01*
X278000Y113995D01*
Y112005D01*
X278761Y110168D01*
X280168Y108761D01*
X282005Y108000D01*
X283995D01*
X284884Y108369D01*
X304327Y88927D01*
X304957Y88505D01*
X305000Y88497D01*
Y83800D01*
Y71100D01*
Y58400D01*
X324000D01*
Y68653D01*
X350373Y95027D01*
X350794Y95657D01*
X350942Y96400D01*
Y129000D01*
X350794Y129743D01*
X350373Y130373D01*
X345960Y134787D01*
X346853Y136333D01*
X347500Y138749D01*
Y141251D01*
X346853Y143667D01*
X345602Y145833D01*
X343833Y147602D01*
X341667Y148853D01*
X339251Y149500D01*
X336749D01*
X334333Y148853D01*
X332167Y147602D01*
X330398Y145833D01*
X329147Y143667D01*
X328500Y141251D01*
Y138749D01*
X329147Y136333D01*
X330398Y134167D01*
X332167Y132398D01*
X334333Y131147D01*
X336749Y130500D01*
X339251D01*
X341667Y131147D01*
X343213Y132040D01*
X347058Y128195D01*
Y124100D01*
X328500D01*
Y105100D01*
X347058D01*
Y97205D01*
X325173Y75320D01*
X324000Y75806D01*
Y81353D01*
X328373Y85726D01*
X328373Y85727D01*
X328795Y86357D01*
X328942Y87100D01*
Y92393D01*
X329832Y92761D01*
X331239Y94168D01*
X332000Y96005D01*
Y97995D01*
X331239Y99832D01*
X329832Y101239D01*
X327995Y102000D01*
X326005D01*
X325270Y101695D01*
X324000Y102544D01*
Y109200D01*
Y121900D01*
Y134600D01*
Y147300D01*
Y160000D01*
Y167456D01*
X325270Y168305D01*
X326005Y168000D01*
X327995D01*
X329832Y168761D01*
X331239Y170168D01*
X331607Y171058D01*
X381500D01*
X382243Y171206D01*
X382873Y171627D01*
X398366Y187119D01*
X399255Y186750D01*
X401245D01*
X403082Y187511D01*
X404489Y188918D01*
X405250Y190755D01*
Y192745D01*
X404489Y194582D01*
X403082Y195989D01*
X401986Y196443D01*
X401623Y197877D01*
X402044Y198507D01*
X402192Y199250D01*
Y211393D01*
X403082Y211761D01*
X404489Y213168D01*
X405250Y215005D01*
Y216995D01*
X404921Y217789D01*
X405997Y218509D01*
X409000Y215506D01*
Y215005D01*
X409761Y213168D01*
X410115Y212814D01*
Y170186D01*
X409761Y169832D01*
X409000Y167995D01*
Y166005D01*
X409761Y164168D01*
X411168Y162761D01*
X413005Y162000D01*
X414995D01*
X416832Y162761D01*
X418239Y164168D01*
X419000Y166005D01*
Y167995D01*
X418239Y169832D01*
X417885Y170186D01*
Y212814D01*
X418239Y213168D01*
X419000Y215005D01*
Y216995D01*
X418239Y218832D01*
X416832Y220239D01*
X414995Y221000D01*
X414494D01*
X391147Y244347D01*
X389887Y245189D01*
X388400Y245485D01*
X347500D01*
Y251100D01*
X328942D01*
Y255196D01*
X332787Y259040D01*
X334333Y258147D01*
X336749Y257500D01*
X339251D01*
X341667Y258147D01*
X343833Y259398D01*
X345602Y261167D01*
X346853Y263333D01*
X347500Y265749D01*
Y268251D01*
X346853Y270667D01*
X345602Y272833D01*
X343833Y274602D01*
X341667Y275853D01*
X339251Y276500D01*
X336749D01*
X334333Y275853D01*
X332167Y274602D01*
X330398Y272833D01*
X329147Y270667D01*
X328500Y268251D01*
Y265749D01*
X329147Y263333D01*
X330040Y261787D01*
X326212Y257959D01*
X324942Y258485D01*
Y276595D01*
X332787Y284440D01*
X334333Y283547D01*
X336749Y282900D01*
X339251D01*
X341667Y283547D01*
X343833Y284798D01*
X345602Y286567D01*
X346853Y288733D01*
X347500Y291149D01*
Y293651D01*
X346853Y296067D01*
X345602Y298233D01*
X343833Y300002D01*
X341667Y301253D01*
X339936Y301716D01*
X340103Y302987D01*
X439000Y302994D01*
X440280D01*
X442790Y302495D01*
D02*
G37*
G36*
X14954Y302961D02*
X14977Y302966D01*
X15000Y302961D01*
X136102Y302970D01*
X137000Y302072D01*
Y256942D01*
X92000D01*
X92000Y256942D01*
X91257Y256794D01*
X90627Y256373D01*
X84885Y250631D01*
X83995Y251000D01*
X82005D01*
X80168Y250239D01*
X78761Y248832D01*
X78000Y246995D01*
Y245005D01*
X78328Y244212D01*
X77480Y242942D01*
X44607D01*
X44239Y243832D01*
X42832Y245239D01*
X41942Y245607D01*
Y275393D01*
X42832Y275761D01*
X44239Y277168D01*
X45000Y279005D01*
Y280995D01*
X44239Y282832D01*
X42832Y284239D01*
X40995Y285000D01*
X39005D01*
X37168Y284239D01*
X35761Y282832D01*
X35000Y280995D01*
Y279005D01*
X35761Y277168D01*
X37168Y275761D01*
X38058Y275393D01*
Y245607D01*
X37168Y245239D01*
X35761Y243832D01*
X35000Y241995D01*
Y240005D01*
X35761Y238168D01*
X37168Y236761D01*
X39005Y236000D01*
X40995D01*
X42832Y236761D01*
X44239Y238168D01*
X44607Y239058D01*
X65152D01*
X65637Y237884D01*
X47695Y219942D01*
X44607D01*
X44239Y220832D01*
X42832Y222239D01*
X40995Y223000D01*
X39005D01*
X37168Y222239D01*
X35761Y220832D01*
X35000Y218995D01*
Y217005D01*
X35761Y215168D01*
X37168Y213761D01*
X38058Y213393D01*
Y195607D01*
X37168Y195239D01*
X35761Y193832D01*
X35000Y191995D01*
Y190005D01*
X35761Y188168D01*
X37168Y186761D01*
X39005Y186000D01*
X40995D01*
X42832Y186761D01*
X44239Y188168D01*
X45000Y190005D01*
Y191995D01*
X44239Y193832D01*
X42832Y195239D01*
X41942Y195607D01*
Y213393D01*
X42832Y213761D01*
X44239Y215168D01*
X44607Y216058D01*
X48500D01*
X49243Y216206D01*
X49873Y216627D01*
X69304Y236058D01*
X74464D01*
X74895Y234788D01*
X74471Y234463D01*
X73453Y233136D01*
X72813Y231591D01*
X72595Y229934D01*
Y229431D01*
X72000Y227995D01*
Y226005D01*
X72595Y224569D01*
Y207432D01*
X72000Y205995D01*
Y204005D01*
X72595Y202568D01*
Y202000D01*
X72813Y200342D01*
X73453Y198798D01*
X74471Y197471D01*
X76471Y195471D01*
X76808Y195212D01*
X76377Y193942D01*
X63000D01*
X62257Y193794D01*
X61627Y193373D01*
X41884Y173631D01*
X40995Y174000D01*
X39005D01*
X37168Y173239D01*
X35761Y171832D01*
X35000Y169995D01*
Y168005D01*
X35761Y166168D01*
X37168Y164761D01*
X39005Y164000D01*
X40995D01*
X42832Y164761D01*
X44239Y166168D01*
X45000Y168005D01*
Y169995D01*
X44631Y170884D01*
X63804Y190058D01*
X98393D01*
X98761Y189168D01*
X100168Y187761D01*
X102005Y187000D01*
X103995D01*
X105832Y187761D01*
X107239Y189168D01*
X108000Y191005D01*
Y192995D01*
X107239Y194832D01*
X105832Y196239D01*
X103995Y197000D01*
X102005D01*
X101116Y196631D01*
X96942Y200805D01*
Y234603D01*
X105397Y243058D01*
X109500D01*
Y233376D01*
X109168Y233239D01*
X107761Y231832D01*
X107000Y229995D01*
Y228005D01*
X107761Y226168D01*
X109168Y224761D01*
X109500Y224624D01*
Y218020D01*
X119000D01*
Y215480D01*
X109500D01*
Y207500D01*
X112250D01*
Y201520D01*
X119000D01*
Y198980D01*
X112250D01*
Y194270D01*
X112250Y193000D01*
X112250D01*
Y193000D01*
X112250D01*
Y183994D01*
X111756Y183500D01*
X111255D01*
X109418Y182739D01*
X108011Y181332D01*
X107250Y179494D01*
Y177505D01*
X108011Y175668D01*
X109418Y174261D01*
X111255Y173500D01*
X112250D01*
Y165000D01*
X112250D01*
X112250Y165000D01*
X112250Y163730D01*
Y150500D01*
X121173D01*
Y135500D01*
X117270D01*
Y128750D01*
X116000D01*
D01*
X117270D01*
Y122000D01*
X119718D01*
X120224Y120840D01*
X119554Y120000D01*
X109500D01*
Y106500D01*
X114058D01*
Y99315D01*
X112333Y98853D01*
X110167Y97602D01*
X108398Y95833D01*
X107147Y93667D01*
X106500Y91251D01*
Y88749D01*
X107147Y86333D01*
X108398Y84167D01*
X110167Y82398D01*
X111212Y81795D01*
X111649Y80104D01*
X111553Y79942D01*
X108000D01*
X107257Y79795D01*
X106627Y79373D01*
X81195Y53942D01*
X61607D01*
X61239Y54832D01*
X59832Y56239D01*
X57994Y57000D01*
X56005D01*
X54168Y56239D01*
X52761Y54832D01*
X52000Y52995D01*
Y51005D01*
X52761Y49168D01*
X54168Y47761D01*
X56005Y47000D01*
X57994D01*
X59000Y46328D01*
Y46005D01*
X59761Y44168D01*
X61168Y42761D01*
X63005Y42000D01*
X64995D01*
X66832Y42761D01*
X68239Y44168D01*
X68607Y45058D01*
X84651D01*
X85138Y43884D01*
X78885Y37631D01*
X77995Y38000D01*
X76005D01*
X74168Y37239D01*
X72761Y35832D01*
X72000Y33995D01*
Y32005D01*
X72524Y30741D01*
X71552Y29769D01*
X71270Y29886D01*
Y26270D01*
X74886D01*
X74476Y27259D01*
X75448Y28231D01*
X76005Y28000D01*
X77042D01*
X77999Y26995D01*
X78000Y26827D01*
Y25005D01*
X78761Y23168D01*
X80168Y21761D01*
X82005Y21000D01*
X83995D01*
X85562Y21649D01*
X85761Y21168D01*
X87168Y19761D01*
X88730Y19114D01*
Y24000D01*
X90000D01*
Y25270D01*
X94886D01*
X94239Y26832D01*
X92832Y28239D01*
X90995Y29000D01*
X90543D01*
X90017Y30270D01*
X100327Y40580D01*
X101500Y40094D01*
Y25810D01*
X116500D01*
X131500D01*
Y43058D01*
X140500D01*
Y2016D01*
X132398Y2015D01*
X131500Y2913D01*
Y18190D01*
X116500D01*
X101500D01*
Y2013D01*
X15000Y2006D01*
X13720D01*
X11210Y2505D01*
X8845Y3485D01*
X6717Y4907D01*
X4907Y6717D01*
X3485Y8845D01*
X2505Y11210D01*
X2010Y13698D01*
X2039Y14954D01*
X2034Y14977D01*
X2039Y15000D01*
X2032Y70149D01*
X3302Y70743D01*
X5140Y69682D01*
X7683Y69000D01*
X10316D01*
X12860Y69682D01*
X15140Y70998D01*
X17002Y72860D01*
X18319Y75140D01*
X19000Y77684D01*
Y80316D01*
X18319Y82860D01*
X17002Y85140D01*
X15140Y87002D01*
X12860Y88319D01*
X10316Y89000D01*
X7683D01*
X5140Y88319D01*
X3300Y87256D01*
X2030Y87848D01*
X2026Y120157D01*
X3296Y120746D01*
X5140Y119682D01*
X7683Y119000D01*
X10316D01*
X12860Y119682D01*
X15140Y120998D01*
X17002Y122860D01*
X18319Y125140D01*
X19000Y127683D01*
Y130316D01*
X18319Y132860D01*
X17002Y135140D01*
X15140Y137002D01*
X12860Y138319D01*
X10316Y139000D01*
X7683D01*
X5140Y138319D01*
X3294Y137253D01*
X2024Y137840D01*
X2020Y170165D01*
X3290Y170750D01*
X5140Y169681D01*
X7683Y169000D01*
X10316D01*
X12860Y169681D01*
X15140Y170998D01*
X17002Y172860D01*
X18319Y175140D01*
X19000Y177684D01*
Y180317D01*
X18319Y182860D01*
X17002Y185140D01*
X15140Y187002D01*
X12860Y188319D01*
X10316Y189000D01*
X7683D01*
X5140Y188319D01*
X3288Y187249D01*
X2018Y187832D01*
X2014Y220173D01*
X3284Y220753D01*
X5140Y219681D01*
X7683Y219000D01*
X10316D01*
X12860Y219681D01*
X15140Y220998D01*
X17002Y222860D01*
X18319Y225140D01*
X19000Y227684D01*
Y230317D01*
X18319Y232860D01*
X17002Y235140D01*
X15140Y237002D01*
X12860Y238319D01*
X10316Y239000D01*
X7683D01*
X5140Y238319D01*
X3282Y237246D01*
X2012Y237824D01*
X2008Y270181D01*
X3278Y270757D01*
X5140Y269681D01*
X7683Y269000D01*
X10316D01*
X12860Y269681D01*
X15140Y270998D01*
X17002Y272860D01*
X18319Y275140D01*
X19000Y277684D01*
Y280317D01*
X18319Y282860D01*
X17002Y285140D01*
X15140Y287002D01*
X12860Y288319D01*
X10316Y289000D01*
X7683D01*
X5140Y288319D01*
X3276Y287242D01*
X2006Y287817D01*
X2006Y290000D01*
Y291280D01*
X2505Y293790D01*
X3485Y296155D01*
X4907Y298283D01*
X6717Y300093D01*
X8845Y301515D01*
X11210Y302495D01*
X13697Y302990D01*
X14954Y302961D01*
D02*
G37*
G36*
X152005Y222000D02*
X153995D01*
X154885Y222369D01*
X171978Y205275D01*
Y188488D01*
X172125Y187745D01*
X172547Y187115D01*
X181625Y178036D01*
X181139Y176862D01*
X173487D01*
X172638Y178132D01*
X173000Y179005D01*
Y180995D01*
X172239Y182832D01*
X170832Y184239D01*
X168995Y185000D01*
X167005D01*
X165168Y184239D01*
X163871Y182942D01*
X157607D01*
X157239Y183832D01*
X155832Y185239D01*
X155296Y185461D01*
X155048Y186707D01*
X155509Y187168D01*
X156270Y189005D01*
Y190995D01*
X155509Y192832D01*
X154102Y194239D01*
X153212Y194607D01*
Y198393D01*
X154102Y198761D01*
X155509Y200168D01*
X156270Y202005D01*
Y203995D01*
X155509Y205832D01*
X154102Y207239D01*
X152265Y208000D01*
X150275D01*
X150056Y207909D01*
X149000Y208615D01*
Y210260D01*
X149540D01*
Y214760D01*
X139500D01*
Y219840D01*
X149540D01*
Y221730D01*
X150810Y222495D01*
X152005Y222000D01*
D02*
G37*
%LPC*%
G36*
X264770Y196386D02*
Y192770D01*
X268386D01*
X267739Y194332D01*
X266332Y195739D01*
X264770Y196386D01*
D02*
G37*
G36*
X262230D02*
X260668Y195739D01*
X259261Y194332D01*
X258614Y192770D01*
X262230D01*
Y196386D01*
D02*
G37*
G36*
X268386Y190230D02*
X264770D01*
Y186614D01*
X266332Y187261D01*
X267739Y188668D01*
X268386Y190230D01*
D02*
G37*
G36*
X262230D02*
X258614D01*
X259261Y188668D01*
X260668Y187261D01*
X262230Y186614D01*
Y190230D01*
D02*
G37*
G36*
X290770Y179386D02*
Y175770D01*
X294386D01*
X293739Y177332D01*
X292332Y178739D01*
X290770Y179386D01*
D02*
G37*
G36*
X288230D02*
X286668Y178739D01*
X285261Y177332D01*
X284614Y175770D01*
X288230D01*
Y179386D01*
D02*
G37*
G36*
X294386Y173230D02*
X290770D01*
Y169614D01*
X292332Y170261D01*
X293739Y171668D01*
X294386Y173230D01*
D02*
G37*
G36*
X288230D02*
X284614D01*
X285261Y171668D01*
X286668Y170261D01*
X288230Y169614D01*
Y173230D01*
D02*
G37*
G36*
X290770Y137386D02*
Y133770D01*
X294386D01*
X293739Y135332D01*
X292332Y136739D01*
X290770Y137386D01*
D02*
G37*
G36*
X288230D02*
X286668Y136739D01*
X285261Y135332D01*
X284614Y133770D01*
X288230D01*
Y137386D01*
D02*
G37*
G36*
X276886Y133730D02*
X273270D01*
Y130114D01*
X274832Y130761D01*
X276239Y132168D01*
X276886Y133730D01*
D02*
G37*
G36*
X294386Y131230D02*
X290770D01*
Y127614D01*
X292332Y128261D01*
X293739Y129668D01*
X294386Y131230D01*
D02*
G37*
G36*
X288230D02*
X284614D01*
X285261Y129668D01*
X286668Y128261D01*
X288230Y127614D01*
Y131230D01*
D02*
G37*
G36*
X285770Y39942D02*
Y33270D01*
X292442D01*
X291955Y35088D01*
X290902Y36912D01*
X289412Y38402D01*
X287588Y39455D01*
X285770Y39942D01*
D02*
G37*
G36*
X283230Y39942D02*
X281412Y39455D01*
X279588Y38402D01*
X278098Y36912D01*
X277045Y35088D01*
X276558Y33270D01*
X283230D01*
Y39942D01*
D02*
G37*
G36*
Y30730D02*
X276558D01*
X277045Y28912D01*
X278098Y27088D01*
X279588Y25598D01*
X281412Y24545D01*
X283230Y24058D01*
Y30730D01*
D02*
G37*
G36*
X292442D02*
X285770D01*
Y24058D01*
X287588Y24545D01*
X289412Y25598D01*
X290902Y27088D01*
X291955Y28912D01*
X292442Y30730D01*
D02*
G37*
G36*
X271689Y24305D02*
Y20689D01*
X275305D01*
X274658Y22252D01*
X273252Y23658D01*
X271689Y24305D01*
D02*
G37*
G36*
X269149D02*
X267587Y23658D01*
X266181Y22252D01*
X265534Y20689D01*
X269149D01*
Y24305D01*
D02*
G37*
G36*
X275305Y18149D02*
X271689D01*
Y14533D01*
X273252Y15181D01*
X274658Y16587D01*
X275305Y18149D01*
D02*
G37*
G36*
X269149D02*
X265534D01*
X266181Y16587D01*
X267587Y15181D01*
X269149Y14533D01*
Y18149D01*
D02*
G37*
G36*
X244750Y32750D02*
X215250D01*
Y28598D01*
X215000Y27995D01*
Y26005D01*
X215250Y25402D01*
Y18598D01*
X215000Y17995D01*
Y16005D01*
X215250Y15402D01*
Y11250D01*
X244750D01*
Y18679D01*
X245239Y19168D01*
X246000Y21005D01*
Y22995D01*
X245239Y24832D01*
X244750Y25321D01*
Y32750D01*
D02*
G37*
G36*
X28995Y284000D02*
X27005D01*
X25168Y283239D01*
X23761Y281832D01*
X23000Y279995D01*
Y278005D01*
X23761Y276168D01*
X25168Y274761D01*
X26058Y274393D01*
Y266607D01*
X25168Y266239D01*
X23761Y264832D01*
X23000Y262995D01*
Y261005D01*
X23761Y259168D01*
X25168Y257761D01*
X27005Y257000D01*
X28995D01*
X30832Y257761D01*
X32239Y259168D01*
X33000Y261005D01*
Y262995D01*
X32239Y264832D01*
X30832Y266239D01*
X29942Y266607D01*
Y274393D01*
X30832Y274761D01*
X32239Y276168D01*
X33000Y278005D01*
Y279995D01*
X32239Y281832D01*
X30832Y283239D01*
X28995Y284000D01*
D02*
G37*
G36*
X49270Y158886D02*
Y155270D01*
X52886D01*
X52239Y156832D01*
X50832Y158239D01*
X49270Y158886D01*
D02*
G37*
G36*
X46730D02*
X45168Y158239D01*
X43761Y156832D01*
X43114Y155270D01*
X46730D01*
Y158886D01*
D02*
G37*
G36*
X52886Y152730D02*
X49270D01*
Y149114D01*
X50832Y149761D01*
X52239Y151168D01*
X52886Y152730D01*
D02*
G37*
G36*
X46730D02*
X43114D01*
X43761Y151168D01*
X45168Y149761D01*
X46730Y149114D01*
Y152730D01*
D02*
G37*
G36*
X72270Y149886D02*
Y146270D01*
X75886D01*
X75239Y147832D01*
X73832Y149239D01*
X72270Y149886D01*
D02*
G37*
G36*
X75886Y143730D02*
X72270D01*
Y140114D01*
X73832Y140761D01*
X75239Y142168D01*
X75886Y143730D01*
D02*
G37*
G36*
X63000Y175942D02*
X62257Y175795D01*
X61627Y175373D01*
X58627Y172373D01*
X58205Y171743D01*
X58058Y171000D01*
Y149937D01*
X58205Y149193D01*
X58627Y148563D01*
X58643Y148547D01*
X58000Y146994D01*
Y145005D01*
X58761Y143168D01*
X60168Y141761D01*
X62005Y141000D01*
X63995D01*
X65832Y141761D01*
X65840Y141769D01*
X66761Y142168D01*
X68168Y140761D01*
X69730Y140114D01*
Y145000D01*
Y149886D01*
X68168Y149239D01*
X68160Y149231D01*
X67239Y148832D01*
X65832Y150239D01*
X63995Y151000D01*
X62006D01*
X61942Y151042D01*
Y163327D01*
X63116Y163813D01*
X63168Y163761D01*
X65005Y163000D01*
X66995D01*
X68832Y163761D01*
X69662Y164591D01*
X92058Y142196D01*
Y99000D01*
X92205Y98257D01*
X92627Y97627D01*
X95369Y94885D01*
X95000Y93995D01*
Y92005D01*
X95761Y90168D01*
X97168Y88761D01*
X99005Y88000D01*
X100995D01*
X102832Y88761D01*
X104239Y90168D01*
X105000Y92005D01*
Y93995D01*
X104239Y95832D01*
X103401Y96670D01*
X102968Y97500D01*
X103401Y98330D01*
X104239Y99168D01*
X105000Y101005D01*
Y102995D01*
X104239Y104832D01*
X102832Y106239D01*
X101942Y106607D01*
Y134327D01*
X103116Y134813D01*
X103168Y134761D01*
X105005Y134000D01*
X106995D01*
X108230Y134512D01*
X109500Y133770D01*
Y130020D01*
X114730D01*
Y135500D01*
X111230D01*
X110488Y136770D01*
X111000Y138005D01*
Y139995D01*
X110239Y141832D01*
X108832Y143239D01*
X107942Y143607D01*
Y147000D01*
X107942Y147000D01*
X107795Y147743D01*
X107373Y148373D01*
X80373Y175373D01*
X79743Y175795D01*
X79000Y175942D01*
X63000D01*
X63000Y175942D01*
D02*
G37*
G36*
X114730Y127480D02*
X109500D01*
Y122000D01*
X114730D01*
Y127480D01*
D02*
G37*
G36*
X77270Y109886D02*
Y106270D01*
X80886D01*
X80239Y107832D01*
X78832Y109239D01*
X77270Y109886D01*
D02*
G37*
G36*
X74730D02*
X73168Y109239D01*
X71761Y107832D01*
X71114Y106270D01*
X74730D01*
Y109886D01*
D02*
G37*
G36*
X58270Y108886D02*
Y105270D01*
X61886D01*
X61239Y106832D01*
X59832Y108239D01*
X58270Y108886D01*
D02*
G37*
G36*
X55730D02*
X54168Y108239D01*
X52761Y106832D01*
X52114Y105270D01*
X55730D01*
Y108886D01*
D02*
G37*
G36*
X80886Y103730D02*
X77270D01*
Y100114D01*
X78832Y100761D01*
X80239Y102168D01*
X80886Y103730D01*
D02*
G37*
G36*
X74730D02*
X71114D01*
X71761Y102168D01*
X73168Y100761D01*
X74730Y100114D01*
Y103730D01*
D02*
G37*
G36*
X61886Y102730D02*
X58270D01*
Y99114D01*
X59832Y99761D01*
X61239Y101168D01*
X61886Y102730D01*
D02*
G37*
G36*
X55730D02*
X52114D01*
X52761Y101168D01*
X54168Y99761D01*
X55730Y99114D01*
Y102730D01*
D02*
G37*
G36*
X51270Y91886D02*
Y88270D01*
X54886D01*
X54239Y89832D01*
X52832Y91239D01*
X51270Y91886D01*
D02*
G37*
G36*
X48730D02*
X47168Y91239D01*
X45761Y89832D01*
X45114Y88270D01*
X48730D01*
Y91886D01*
D02*
G37*
G36*
X54886Y85730D02*
X51270D01*
Y82114D01*
X52832Y82761D01*
X54239Y84168D01*
X54886Y85730D01*
D02*
G37*
G36*
X48730D02*
X45114D01*
X45761Y84168D01*
X47168Y82761D01*
X48730Y82114D01*
Y85730D01*
D02*
G37*
G36*
X92770Y79386D02*
Y75770D01*
X96386D01*
X95739Y77332D01*
X94332Y78739D01*
X92770Y79386D01*
D02*
G37*
G36*
X90230D02*
X88668Y78739D01*
X87261Y77332D01*
X86614Y75770D01*
X90230D01*
Y79386D01*
D02*
G37*
G36*
X96386Y73230D02*
X92770D01*
Y69614D01*
X94332Y70261D01*
X95739Y71668D01*
X96386Y73230D01*
D02*
G37*
G36*
X90230D02*
X86614D01*
X87261Y71668D01*
X88668Y70261D01*
X90230Y69614D01*
Y73230D01*
D02*
G37*
G36*
X68730Y29886D02*
X67168Y29239D01*
X65761Y27832D01*
X65114Y26270D01*
X68730D01*
Y29886D01*
D02*
G37*
G36*
X74886Y23730D02*
X71270D01*
Y20114D01*
X72832Y20761D01*
X74239Y22168D01*
X74886Y23730D01*
D02*
G37*
G36*
X68730D02*
X65114D01*
X65761Y22168D01*
X67168Y20761D01*
X68730Y20114D01*
Y23730D01*
D02*
G37*
G36*
X94886Y22730D02*
X91270D01*
Y19114D01*
X92832Y19761D01*
X94239Y21168D01*
X94886Y22730D01*
D02*
G37*
%LPD*%
D13*
X212000Y152800D02*
D03*
D14*
X314500Y230000D02*
D03*
Y217300D02*
D03*
Y204600D02*
D03*
Y191900D02*
D03*
Y179200D02*
D03*
Y166500D02*
D03*
Y153800D02*
D03*
Y141100D02*
D03*
Y128400D02*
D03*
Y115700D02*
D03*
Y103000D02*
D03*
Y90300D02*
D03*
Y77600D02*
D03*
Y64900D02*
D03*
X139500D02*
D03*
Y77600D02*
D03*
Y90300D02*
D03*
Y103000D02*
D03*
Y115700D02*
D03*
Y128400D02*
D03*
Y141100D02*
D03*
Y153800D02*
D03*
Y166500D02*
D03*
Y179200D02*
D03*
Y191900D02*
D03*
Y204600D02*
D03*
Y217300D02*
D03*
Y230000D02*
D03*
D15*
X284150Y52400D02*
D03*
X271450D02*
D03*
X258750D02*
D03*
X246050D02*
D03*
X233350D02*
D03*
X220650D02*
D03*
X207950D02*
D03*
X195250D02*
D03*
X182550D02*
D03*
X169850D02*
D03*
D16*
X155500Y22000D02*
D03*
X116500D02*
D03*
D17*
X188000D02*
D03*
X230000D02*
D03*
D18*
X116000Y113250D02*
D03*
Y128750D02*
D03*
D19*
X119000Y235250D02*
D03*
Y216750D02*
D03*
D20*
Y157750D02*
D03*
Y172250D02*
D03*
Y200250D02*
D03*
Y185750D02*
D03*
D30*
X9000Y79000D02*
D03*
Y129000D02*
D03*
Y179000D02*
D03*
Y279000D02*
D03*
Y229000D02*
D03*
X445000D02*
D03*
Y279000D02*
D03*
Y179000D02*
D03*
Y129000D02*
D03*
Y79000D02*
D03*
Y29000D02*
D03*
D33*
X347000Y195000D02*
Y227000D01*
X79000D02*
Y229934D01*
Y202000D02*
Y227000D01*
X341000D02*
X347000D01*
X342000Y190000D02*
X347000Y195000D01*
X342000Y183000D02*
Y190000D01*
X79000Y202000D02*
X81000Y200000D01*
D34*
X309500Y32000D02*
X363000D01*
X155500Y22000D02*
X188000D01*
X309500Y22622D02*
Y32000D01*
X297500Y10000D02*
Y10622D01*
X309500Y22622D01*
D35*
X112250Y178500D02*
X119000Y185250D01*
X338000Y241600D02*
X388400D01*
X414000Y216000D01*
Y167000D02*
Y216000D01*
X119000Y185250D02*
Y185750D01*
X112000Y229000D02*
X112500D01*
D36*
X112500Y178750D02*
X119000Y172250D01*
X337000Y176000D02*
X377000D01*
X400250Y199250D01*
Y216000D01*
X327000Y186000D02*
X337000Y176000D01*
X327000Y173000D02*
X381500D01*
X400250Y191750D01*
X157540Y75540D02*
X228540D01*
X267000Y114000D01*
X28000Y262000D02*
Y279000D01*
X95000Y235408D02*
X104592Y245000D01*
X90500Y197500D02*
Y226500D01*
X90000Y227000D02*
X90500Y226500D01*
X95000Y200000D02*
Y235408D01*
Y200000D02*
X103000Y192000D01*
X48500Y218000D02*
X68500Y238000D01*
X94000D02*
X103540Y247540D01*
X68500Y238000D02*
X94000D01*
X40000Y218000D02*
X48500D01*
X102080Y250080D02*
X129920D01*
X103540Y247540D02*
X128868D01*
X93000Y241000D02*
X102080Y250080D01*
X40000Y241000D02*
X93000D01*
X83000Y246000D02*
X92000Y255000D01*
X90500Y197500D02*
X91000Y197000D01*
X40000Y169000D02*
X63000Y192000D01*
X103000D01*
X267000Y114000D02*
Y142000D01*
X57000Y52000D02*
X82000D01*
X100000Y61000D02*
Y66408D01*
X108000Y78000D02*
X120000D01*
X82000Y52000D02*
X108000Y78000D01*
X100000Y66408D02*
X109052Y75460D01*
X121460D01*
X283000Y113000D02*
X305700Y90300D01*
X151270Y190000D02*
Y203000D01*
X167000Y181000D02*
X168000Y180000D01*
X153000Y181000D02*
X167000D01*
X146780Y174920D02*
X240488D01*
X142500Y179200D02*
X146780Y174920D01*
X240488D02*
X257000Y158408D01*
X119000Y157750D02*
X123115Y153635D01*
X128000Y167250D02*
Y196100D01*
X122000Y161250D02*
X128000Y167250D01*
Y196100D02*
X136500Y204600D01*
X139500D01*
X149460Y141460D02*
X153000Y145000D01*
X149460Y54052D02*
Y141460D01*
X187460Y132540D02*
Y153540D01*
X190000Y133592D02*
Y155000D01*
X183000Y158000D02*
X187460Y153540D01*
X184920Y131080D02*
X190540Y125460D01*
X184920Y131080D02*
Y148000D01*
X190000Y133592D02*
X192592Y131000D01*
X179920Y153000D02*
X184920Y148000D01*
X187460Y132540D02*
X192000Y128000D01*
X178500Y166500D02*
X190000Y155000D01*
X192592Y131000D02*
X232000D01*
X155000Y153000D02*
X179920D01*
X145488Y50080D02*
X149460Y54052D01*
X90488Y50080D02*
X145488D01*
X64000Y47000D02*
X87408D01*
X90488Y50080D01*
X77000Y33000D02*
X91540Y47540D01*
X146540D01*
X264000Y207000D02*
X277000Y194000D01*
X204937Y207000D02*
X264000D01*
X201937Y204000D02*
X204937Y207000D01*
X201000Y204000D02*
X201937D01*
X237000Y190000D02*
Y193000D01*
Y190000D02*
X271000Y156000D01*
X146540Y47540D02*
X152000Y53000D01*
Y70000D01*
X157540Y75540D01*
X155000Y69000D02*
X159000Y73000D01*
X148000Y45000D02*
X155000Y52000D01*
Y69000D01*
X257000Y116000D02*
Y158408D01*
X339000Y139000D02*
X349000Y129000D01*
Y96400D02*
Y129000D01*
X314500Y64900D02*
X317500D01*
X349000Y96400D01*
X317500Y77600D02*
X327000Y87100D01*
Y97000D01*
X83000Y26000D02*
X102000Y45000D01*
X148000D01*
X159000Y73000D02*
X233000D01*
X267000Y107000D01*
X314500Y77600D02*
X317500D01*
X305700Y90300D02*
X314500D01*
X300000Y204000D02*
X301000Y205000D01*
X300000Y186000D02*
Y204000D01*
X295000Y183000D02*
X299000Y179000D01*
X295000Y183000D02*
Y228000D01*
X299000Y179000D02*
X314300D01*
X295000Y228000D02*
X307000Y240000D01*
X239540Y154540D02*
X243000Y158000D01*
X239540Y130540D02*
Y154540D01*
X234460Y125460D02*
X239540Y130540D01*
X190540Y125460D02*
X234460D01*
X192000Y128000D02*
X233000D01*
X106000Y139000D02*
Y147000D01*
X79000Y174000D02*
X106000Y147000D01*
X63000Y174000D02*
X79000D01*
X60000Y171000D02*
X63000Y174000D01*
X60000Y149937D02*
Y171000D01*
X63000Y146000D02*
Y146937D01*
X60000Y149937D02*
X63000Y146937D01*
X66000Y168000D02*
X69000D01*
X94000Y143000D01*
Y99000D02*
Y143000D01*
Y99000D02*
X100000Y93000D01*
X139300Y90300D02*
X139500D01*
X76000Y168000D02*
X100000Y144000D01*
Y102000D02*
Y144000D01*
X139500Y103000D02*
X140000D01*
X121460Y75460D02*
X128540Y82540D01*
Y107740D01*
X136500Y115700D01*
X139500D01*
Y179200D02*
X142500D01*
X139500Y166500D02*
X178500D01*
X146700Y158000D02*
X183000D01*
X142500Y153800D02*
X146700Y158000D01*
X139500Y153800D02*
X142500D01*
X120000Y78000D02*
X126000Y84000D01*
Y130600D01*
X136500Y141100D02*
X139500D01*
X126000Y130600D02*
X136500Y141100D01*
X241967Y165967D02*
X242049D01*
X237000Y161000D02*
X241967Y165967D01*
X237000Y132000D02*
Y161000D01*
X233000Y128000D02*
X237000Y132000D01*
X234000Y133000D02*
Y168000D01*
X232000Y131000D02*
X234000Y133000D01*
Y168000D02*
X236000Y170000D01*
X139500Y191900D02*
X139900D01*
X122000Y155000D02*
Y161250D01*
X241540Y177460D02*
X276000Y143000D01*
X184948Y177460D02*
X241540D01*
X173920Y188488D02*
X184948Y177460D01*
X186000Y180000D02*
X198000D01*
X176460Y189540D02*
X186000Y180000D01*
X187052Y182540D02*
X194540D01*
X179000Y190592D02*
X187052Y182540D01*
X176460Y189540D02*
Y211356D01*
X179000Y190592D02*
Y212408D01*
X173920Y188488D02*
Y206080D01*
X153000Y227000D02*
X173920Y206080D01*
X184000Y193000D02*
Y211000D01*
X92000Y255000D02*
X143000D01*
X323000Y277400D02*
X338000Y292400D01*
X323000Y249000D02*
Y277400D01*
X314000Y240000D02*
X323000Y249000D01*
X307000Y240000D02*
X314000D01*
X314300Y179000D02*
X314500Y179200D01*
X327000Y256000D02*
X338000Y267000D01*
X327000Y194000D02*
Y256000D01*
X324900Y191900D02*
X327000Y194000D01*
X314500Y191900D02*
X324900D01*
X214000Y196000D02*
Y200000D01*
X198000Y180000D02*
X214000Y196000D01*
X194540Y182540D02*
X204000Y192000D01*
Y193000D01*
X149816Y238000D02*
X176460Y211356D01*
X134816Y238000D02*
X149816D01*
X127816Y245000D02*
X134816Y238000D01*
X151920Y243080D02*
X184000Y211000D01*
X135868Y240540D02*
X150868D01*
X128868Y247540D02*
X135868Y240540D01*
X150868D02*
X179000Y212408D01*
X129920Y250080D02*
X136920Y243080D01*
X151920D01*
X104592Y245000D02*
X127816D01*
X40000Y191000D02*
Y218000D01*
Y241000D02*
Y280000D01*
X116000Y113250D02*
Y113500D01*
X123115Y120615D01*
Y153635D01*
X116000Y90000D02*
Y113250D01*
D37*
X137750Y216750D02*
X139000Y218000D01*
X119000Y216750D02*
X137750D01*
D38*
X229000Y89000D02*
X234000D01*
X207000Y111000D02*
X229000Y89000D01*
X207000Y111000D02*
Y120000D01*
X195000Y114000D02*
X226000Y83000D01*
X190000Y114000D02*
X195000D01*
X119000Y185750D02*
Y186250D01*
X314500Y230000D02*
X315000D01*
X161000Y64250D02*
Y68000D01*
Y64250D02*
X169850Y55400D01*
Y52400D02*
Y55400D01*
X139000Y230000D02*
X139500D01*
D39*
X284500Y32000D02*
D03*
X309500D02*
D03*
D40*
X297500Y10000D02*
D03*
X332500D02*
D03*
X338000Y267000D02*
D03*
Y292400D02*
D03*
Y140000D02*
D03*
X116000Y90000D02*
D03*
D41*
X338000Y241600D02*
D03*
Y114600D02*
D03*
X116000Y64600D02*
D03*
D42*
X238000Y17000D02*
D03*
X342000Y190000D02*
D03*
X347000Y227000D02*
D03*
X341000D02*
D03*
X342000Y183000D02*
D03*
X234000Y89000D02*
D03*
X226000Y83000D02*
D03*
X207000Y120000D02*
D03*
X190000Y114000D02*
D03*
X125000Y22000D02*
D03*
X119000Y32000D02*
D03*
X107000Y12000D02*
D03*
X119000Y22000D02*
D03*
X107000Y32000D02*
D03*
X113000Y12000D02*
D03*
X119000D02*
D03*
X122000Y27000D02*
D03*
Y17000D02*
D03*
X116000Y27000D02*
D03*
Y17000D02*
D03*
X110000D02*
D03*
X125000Y12000D02*
D03*
X113000Y22000D02*
D03*
X107000D02*
D03*
X125000Y32000D02*
D03*
X110000Y27000D02*
D03*
X113000Y32000D02*
D03*
X220000Y17000D02*
D03*
X232000D02*
D03*
X116000Y146000D02*
D03*
X76000Y105000D02*
D03*
X28000Y279000D02*
D03*
Y262000D02*
D03*
X81000Y232000D02*
D03*
X77000Y227000D02*
D03*
X90000D02*
D03*
X81000Y200000D02*
D03*
X77000Y205000D02*
D03*
X83000Y246000D02*
D03*
X91000Y197000D02*
D03*
X103000Y192000D02*
D03*
X71000Y145000D02*
D03*
X48000Y154000D02*
D03*
X50000Y87000D02*
D03*
X57000Y104000D02*
D03*
X91500Y74500D02*
D03*
X90000Y24000D02*
D03*
X70000Y25000D02*
D03*
X270419Y19419D02*
D03*
X263500Y191500D02*
D03*
X289500Y174500D02*
D03*
X272000Y135000D02*
D03*
X289500Y132500D02*
D03*
X57000Y52000D02*
D03*
X283000Y113000D02*
D03*
X267000Y142000D02*
D03*
X151270Y203000D02*
D03*
Y190000D02*
D03*
X139900Y191900D02*
D03*
X168000Y180000D02*
D03*
X153000Y181000D02*
D03*
X112250Y178500D02*
D03*
X153000Y145000D02*
D03*
X64000Y47000D02*
D03*
X77000Y33000D02*
D03*
X277000Y194000D02*
D03*
X201000Y204000D02*
D03*
X237000Y193000D02*
D03*
X271000Y156000D02*
D03*
X327000Y97000D02*
D03*
X83000Y26000D02*
D03*
X267000Y107000D02*
D03*
X301000Y205000D02*
D03*
X300000Y186000D02*
D03*
X243000Y158000D02*
D03*
X155000Y153000D02*
D03*
X106000Y139000D02*
D03*
X63000Y146000D02*
D03*
X66000Y168000D02*
D03*
X100000Y93000D02*
D03*
X139300Y90300D02*
D03*
X76000Y168000D02*
D03*
X100000Y102000D02*
D03*
X140000Y103000D02*
D03*
X100000Y61000D02*
D03*
X242049Y165967D02*
D03*
X236000Y170000D02*
D03*
X257000Y116000D02*
D03*
X414000Y216000D02*
D03*
Y167000D02*
D03*
X276000Y143000D02*
D03*
X184000Y193000D02*
D03*
X153000Y227000D02*
D03*
X143000Y255000D02*
D03*
X327000Y173000D02*
D03*
X400250Y191750D02*
D03*
X327000Y186000D02*
D03*
X400250Y216000D02*
D03*
X214000Y200000D02*
D03*
X204000Y193000D02*
D03*
X40000Y169000D02*
D03*
Y191000D02*
D03*
Y218000D02*
D03*
Y241000D02*
D03*
Y280000D02*
D03*
X112000Y229000D02*
D03*
X315000Y230000D02*
D03*
X161000Y68000D02*
D03*
X139000Y230000D02*
D03*
X197000Y158000D02*
D03*
X200000Y163000D02*
D03*
X203000Y158000D02*
D03*
X206000Y163000D02*
D03*
X209000Y158000D02*
D03*
X212000Y163000D02*
D03*
X215000Y158000D02*
D03*
X212000Y153000D02*
D03*
X206000D02*
D03*
X200000D02*
D03*
X197000Y148000D02*
D03*
X203000D02*
D03*
X209000D02*
D03*
X215000D02*
D03*
X206000Y143000D02*
D03*
X212000D02*
D03*
X209000Y138000D02*
D03*
X215000D02*
D03*
X227000D02*
D03*
X221000D02*
D03*
X218000Y143000D02*
D03*
X224000D02*
D03*
X227000Y148000D02*
D03*
X221000D02*
D03*
X218000Y153000D02*
D03*
X224000D02*
D03*
X227000Y158000D02*
D03*
X221000D02*
D03*
X218000Y163000D02*
D03*
X224000D02*
D03*
X227000Y168000D02*
D03*
X221000D02*
D03*
X215000D02*
D03*
X209000D02*
D03*
X203000D02*
D03*
X197000D02*
D03*
X194000Y18000D02*
D03*
X197000Y23000D02*
D03*
X194000Y28000D02*
D03*
X188000D02*
D03*
X182000D02*
D03*
X176000D02*
D03*
X191000Y23000D02*
D03*
X188000Y18000D02*
D03*
X185000Y23000D02*
D03*
X179000D02*
D03*
X170000Y18000D02*
D03*
X176000D02*
D03*
X182000D02*
D03*
X173000Y23000D02*
D03*
X167000D02*
D03*
X152000Y38000D02*
D03*
X149000Y33000D02*
D03*
X164000Y38000D02*
D03*
X146000Y28000D02*
D03*
X152000D02*
D03*
X164000Y18000D02*
D03*
X149000Y23000D02*
D03*
X155000D02*
D03*
Y33000D02*
D03*
X161000Y23000D02*
D03*
Y33000D02*
D03*
X158000Y18000D02*
D03*
X152000D02*
D03*
X146000Y38000D02*
D03*
X158000Y28000D02*
D03*
X146000Y18000D02*
D03*
X158000Y38000D02*
D03*
X164000Y28000D02*
D03*
X226000Y17000D02*
D03*
X361000Y35000D02*
D03*
Y29000D02*
D03*
X366000Y32000D02*
D03*
X220000Y27000D02*
D03*
X232000D02*
D03*
X241000Y22000D02*
D03*
X235000D02*
D03*
X223000D02*
D03*
X226000Y27000D02*
D03*
X229000Y22000D02*
D03*
X238000Y27000D02*
D03*
M02*
