G04*
G04 #@! TF.GenerationSoftware,Altium Limited,Altium Designer,21.5.1 (32)*
G04*
G04 Layer_Color=8388736*
%FSLAX44Y44*%
%MOMM*%
G71*
G04*
G04 #@! TF.SameCoordinates,DE706C4F-A6C2-482A-8352-4916370A565D*
G04*
G04*
G04 #@! TF.FilePolarity,Negative*
G04*
G01*
G75*
%ADD21R,3.8000X3.8000*%
%ADD22R,1.6000X1.0000*%
%ADD23R,1.0000X1.6000*%
%ADD24R,2.7000X4.1000*%
%ADD25R,2.6500X1.8500*%
%ADD26R,1.0000X1.0500*%
%ADD27R,1.6000X1.5500*%
%ADD28R,1.0500X1.1500*%
%ADD29C,1.3000*%
%ADD30C,1.6000*%
%ADD31C,1.7000*%
%ADD32R,1.6000X1.6000*%
D21*
X212000Y152800D02*
D03*
D22*
X314500Y230000D02*
D03*
Y217300D02*
D03*
Y204600D02*
D03*
Y191900D02*
D03*
Y179200D02*
D03*
Y166500D02*
D03*
Y153800D02*
D03*
Y141100D02*
D03*
Y128400D02*
D03*
Y115700D02*
D03*
Y103000D02*
D03*
Y90300D02*
D03*
Y77600D02*
D03*
Y64900D02*
D03*
X139500D02*
D03*
Y77600D02*
D03*
Y90300D02*
D03*
Y103000D02*
D03*
Y115700D02*
D03*
Y128400D02*
D03*
Y141100D02*
D03*
Y153800D02*
D03*
Y166500D02*
D03*
Y179200D02*
D03*
Y191900D02*
D03*
Y204600D02*
D03*
Y217300D02*
D03*
Y230000D02*
D03*
D23*
X284150Y52400D02*
D03*
X271450D02*
D03*
X258750D02*
D03*
X246050D02*
D03*
X233350D02*
D03*
X220650D02*
D03*
X207950D02*
D03*
X195250D02*
D03*
X182550D02*
D03*
X169850D02*
D03*
D24*
X155500Y22000D02*
D03*
X116500D02*
D03*
D25*
X188000D02*
D03*
X230000D02*
D03*
D26*
X116000Y113250D02*
D03*
Y128750D02*
D03*
D27*
X119000Y235250D02*
D03*
Y216750D02*
D03*
D28*
Y157750D02*
D03*
Y172250D02*
D03*
Y200250D02*
D03*
Y185750D02*
D03*
D29*
X284500Y32000D02*
D03*
X309500D02*
D03*
D30*
X297500Y10000D02*
D03*
X332500D02*
D03*
X338000Y267000D02*
D03*
Y292400D02*
D03*
Y140000D02*
D03*
X116000Y90000D02*
D03*
D31*
X9000Y79000D02*
D03*
Y129000D02*
D03*
Y179000D02*
D03*
Y279000D02*
D03*
Y229000D02*
D03*
X445000D02*
D03*
Y279000D02*
D03*
Y179000D02*
D03*
Y129000D02*
D03*
Y79000D02*
D03*
Y29000D02*
D03*
D32*
X338000Y241600D02*
D03*
Y114600D02*
D03*
X116000Y64600D02*
D03*
M02*
