G04*
G04 #@! TF.GenerationSoftware,Altium Limited,Altium Designer,21.5.1 (32)*
G04*
G04 Layer_Color=65535*
%FSLAX44Y44*%
%MOMM*%
G71*
G04*
G04 #@! TF.SameCoordinates,DE706C4F-A6C2-482A-8352-4916370A565D*
G04*
G04*
G04 #@! TF.FilePolarity,Positive*
G04*
G01*
G75*
%ADD10C,0.1500*%
%ADD11C,0.2500*%
%ADD12C,0.2000*%
D10*
X300343Y37657D02*
G03*
X300343Y26343I5657J-5657D01*
G01*
X311657Y4343D02*
G03*
X311657Y15657I-5657J5657D01*
G01*
X137000Y50000D02*
Y305000D01*
Y50000D02*
X317000D01*
Y305000D01*
X137000D02*
X317000D01*
X137000Y243000D02*
X317000D01*
X295000Y26000D02*
Y38000D01*
X290000Y32000D02*
X295000D01*
X302000Y24000D02*
X306000D01*
X299000Y32000D02*
X304000D01*
X304500Y10000D02*
X313000D01*
X306000Y14000D02*
X310000D01*
X317000Y10000D02*
X326000D01*
X317000Y4000D02*
Y16000D01*
X202000Y7000D02*
Y37000D01*
X325000Y0D02*
Y305000D01*
X129000Y0D02*
Y305000D01*
X345000Y0D02*
Y305000D01*
X109000Y0D02*
Y305000D01*
X132893Y312423D02*
Y317755D01*
X135559Y320420D01*
X138225Y317755D01*
Y312423D01*
Y316422D01*
X132893D01*
X140890Y312423D02*
X143556D01*
X142223D01*
Y320420D01*
X140890Y319088D01*
X264809Y30093D02*
X263476Y28760D01*
Y26094D01*
X264809Y24761D01*
X270140D01*
X271473Y26094D01*
Y28760D01*
X270140Y30093D01*
X264809Y32758D02*
X263476Y34091D01*
Y36757D01*
X264809Y38090D01*
X266141D01*
X267474Y36757D01*
X268807Y38090D01*
X270140D01*
X271473Y36757D01*
Y34091D01*
X270140Y32758D01*
X268807D01*
X267474Y34091D01*
X266141Y32758D01*
X264809D01*
X267474Y34091D02*
Y36757D01*
X102599Y65938D02*
Y57941D01*
X107931D01*
X110596D02*
X113262D01*
X111929D01*
Y65938D01*
X110596Y64605D01*
X257764Y38129D02*
X249767D01*
Y34130D01*
X251100Y32797D01*
X256432D01*
X257764Y34130D01*
Y38129D01*
X249767Y30132D02*
Y27466D01*
Y28799D01*
X257764D01*
X256432Y30132D01*
X103681Y110713D02*
X95684D01*
Y114712D01*
X97016Y116045D01*
X99682D01*
X101015Y114712D01*
Y110713D01*
Y113379D02*
X103681Y116045D01*
Y118710D02*
Y121376D01*
Y120043D01*
X95684D01*
X97016Y118710D01*
X103681Y110193D02*
Y118190D01*
X107680D01*
X109013Y116858D01*
Y114192D01*
X107680Y112859D01*
X103681D01*
X111678Y116858D02*
X113011Y118190D01*
X115677D01*
X117010Y116858D01*
Y115525D01*
X115677Y114192D01*
X114344D01*
X115677D01*
X117010Y112859D01*
Y111526D01*
X115677Y110193D01*
X113011D01*
X111678Y111526D01*
X325681Y160193D02*
Y168190D01*
X329680D01*
X331013Y166857D01*
Y164192D01*
X329680Y162859D01*
X325681D01*
X339010Y160193D02*
X333678D01*
X339010Y165525D01*
Y166857D01*
X337677Y168190D01*
X335011D01*
X333678Y166857D01*
X325681Y312593D02*
Y320590D01*
X329680D01*
X331013Y319258D01*
Y316592D01*
X329680Y315259D01*
X325681D01*
X333678Y312593D02*
X336344D01*
X335011D01*
Y320590D01*
X333678Y319258D01*
X271183Y73941D02*
X269850Y75274D01*
X267184D01*
X265851Y73941D01*
Y68610D01*
X267184Y67277D01*
X269850D01*
X271183Y68610D01*
X277847Y67277D02*
Y75274D01*
X273848Y71276D01*
X279180D01*
X103544Y165667D02*
X102211Y164334D01*
Y161668D01*
X103544Y160336D01*
X108876D01*
X110209Y161668D01*
Y164334D01*
X108876Y165667D01*
X103544Y168333D02*
X102211Y169666D01*
Y172332D01*
X103544Y173664D01*
X104877D01*
X106210Y172332D01*
Y170999D01*
Y172332D01*
X107543Y173664D01*
X108876D01*
X110209Y172332D01*
Y169666D01*
X108876Y168333D01*
X97477Y219013D02*
X96144Y217680D01*
Y215014D01*
X97477Y213681D01*
X102808D01*
X104141Y215014D01*
Y217680D01*
X102808Y219013D01*
X104141Y227010D02*
Y221678D01*
X98809Y227010D01*
X97477D01*
X96144Y225677D01*
Y223011D01*
X97477Y221678D01*
X137984Y197955D02*
X139316Y199288D01*
Y201954D01*
X137984Y203287D01*
X132652D01*
X131319Y201954D01*
Y199288D01*
X132652Y197955D01*
X131319Y195290D02*
Y192624D01*
Y193957D01*
X139316D01*
X137984Y195290D01*
D11*
X179000Y36250D02*
G03*
X179000Y36250I-1250J0D01*
G01*
D12*
X162500Y-4500D02*
Y-2000D01*
X109500Y-4500D02*
Y-2000D01*
X162500Y46000D02*
Y48500D01*
X109500Y46000D02*
Y48500D01*
Y-4500D02*
X162500D01*
X109500Y48500D02*
X162500D01*
X186000Y37000D02*
X232000Y37000D01*
X186000Y7000D02*
X232000Y7000D01*
X186000Y34750D02*
Y37000D01*
X232000Y34750D02*
Y37000D01*
X186000Y7000D02*
Y9250D01*
X232000Y7000D02*
Y9250D01*
X350700Y228900D02*
Y305100D01*
X325300D02*
X350700D01*
X325300Y228900D02*
Y305100D01*
Y228900D02*
X350700D01*
X325300Y152700D02*
X350700D01*
Y101900D02*
Y152700D01*
X325300Y101900D02*
X350700D01*
X325300D02*
Y152700D01*
X103300Y102700D02*
X128700D01*
Y51900D02*
Y102700D01*
X103300Y51900D02*
X128700D01*
X103300D02*
Y102700D01*
M02*
