G04*
G04 #@! TF.GenerationSoftware,Altium Limited,Altium Designer,21.5.1 (32)*
G04*
G04 Layer_Physical_Order=1*
G04 Layer_Color=255*
%FSLAX44Y44*%
%MOMM*%
G71*
G04*
G04 #@! TF.SameCoordinates,7E7B2011-10BC-4976-A2BF-0E69F5CBCD0A*
G04*
G04*
G04 #@! TF.FilePolarity,Positive*
G04*
G01*
G75*
%ADD13R,3.7000X3.7000*%
%ADD14R,1.5000X0.9000*%
%ADD15R,0.9000X1.5000*%
%ADD16R,2.6000X4.0000*%
%ADD17R,2.5500X1.7500*%
%ADD18R,0.9000X0.9500*%
%ADD19R,1.5000X1.4500*%
%ADD20R,0.9500X1.0500*%
%ADD30C,1.6000*%
%ADD33C,1.0160*%
%ADD34C,1.2700*%
%ADD35C,0.5080*%
%ADD36C,0.1270*%
%ADD37C,0.9652*%
%ADD38C,0.2540*%
%ADD39C,1.2000*%
%ADD40C,1.5000*%
%ADD41R,1.5000X1.5000*%
%ADD42C,0.6000*%
G36*
X442790Y302495D02*
X445155Y301515D01*
X447283Y300093D01*
X449093Y298283D01*
X450515Y296155D01*
X451495Y293790D01*
X451990Y291303D01*
X451962Y290046D01*
X451965Y290023D01*
X451961Y290000D01*
X451961Y287859D01*
X450691Y287261D01*
X448860Y288319D01*
X446316Y289000D01*
X443684D01*
X441140Y288319D01*
X438860Y287002D01*
X436998Y285140D01*
X435681Y282860D01*
X435000Y280317D01*
Y277684D01*
X435681Y275140D01*
X436998Y272860D01*
X438860Y270998D01*
X441140Y269681D01*
X443684Y269000D01*
X446316D01*
X448860Y269681D01*
X450693Y270740D01*
X451963Y270144D01*
X451967Y237851D01*
X450697Y237258D01*
X448860Y238319D01*
X446316Y239000D01*
X443684D01*
X441140Y238319D01*
X438860Y237002D01*
X436998Y235140D01*
X435681Y232860D01*
X435000Y230317D01*
Y227684D01*
X435681Y225140D01*
X436998Y222860D01*
X438860Y220998D01*
X441140Y219681D01*
X443684Y219000D01*
X446316D01*
X448860Y219681D01*
X450699Y220744D01*
X451969Y220151D01*
X451973Y187843D01*
X450703Y187254D01*
X448860Y188319D01*
X446316Y189000D01*
X443684D01*
X441140Y188319D01*
X438860Y187002D01*
X436998Y185140D01*
X435681Y182860D01*
X435000Y180317D01*
Y177684D01*
X435681Y175140D01*
X436998Y172860D01*
X438860Y170998D01*
X441140Y169681D01*
X443684Y169000D01*
X446316D01*
X448860Y169681D01*
X450705Y170747D01*
X451975Y170159D01*
X451979Y137836D01*
X450709Y137251D01*
X448860Y138319D01*
X446316Y139000D01*
X443684D01*
X441140Y138319D01*
X438860Y137002D01*
X436998Y135140D01*
X435681Y132860D01*
X435000Y130316D01*
Y127683D01*
X435681Y125140D01*
X436998Y122860D01*
X438860Y120998D01*
X441140Y119682D01*
X443684Y119000D01*
X446316D01*
X448860Y119682D01*
X450711Y120751D01*
X451982Y120167D01*
X451985Y87828D01*
X450715Y87247D01*
X448860Y88319D01*
X446316Y89000D01*
X443684D01*
X441140Y88319D01*
X438860Y87002D01*
X436998Y85140D01*
X435681Y82860D01*
X435000Y80316D01*
Y77684D01*
X435681Y75140D01*
X436998Y72860D01*
X438860Y70998D01*
X441140Y69682D01*
X443684Y69000D01*
X446316D01*
X448860Y69682D01*
X450718Y70754D01*
X451988Y70175D01*
X451992Y37820D01*
X450722Y37244D01*
X448860Y38319D01*
X446316Y39000D01*
X443684D01*
X441140Y38319D01*
X438860Y37002D01*
X436998Y35140D01*
X435681Y32860D01*
X435000Y30317D01*
Y27683D01*
X435681Y25140D01*
X436998Y22860D01*
X438860Y20998D01*
X441140Y19682D01*
X443684Y19000D01*
X446316D01*
X448860Y19682D01*
X450723Y20758D01*
X451994Y20183D01*
X451994Y15000D01*
Y13720D01*
X451495Y11210D01*
X450515Y8845D01*
X449093Y6717D01*
X447283Y4907D01*
X445155Y3485D01*
X442790Y2505D01*
X440303Y2010D01*
X439046Y2039D01*
X439023Y2034D01*
X439000Y2039D01*
X339762Y2031D01*
X339236Y3301D01*
X340102Y4167D01*
X341353Y6333D01*
X342000Y8749D01*
Y11251D01*
X341353Y13667D01*
X340102Y15833D01*
X338333Y17602D01*
X336167Y18853D01*
X333751Y19500D01*
X331249D01*
X328833Y18853D01*
X326667Y17602D01*
X324898Y15833D01*
X323647Y13667D01*
X323000Y11251D01*
Y8749D01*
X323647Y6333D01*
X324898Y4167D01*
X325765Y3300D01*
X325239Y2030D01*
X304760Y2028D01*
X304233Y3298D01*
X305102Y4167D01*
X306353Y6333D01*
X307000Y8749D01*
Y9253D01*
X314935Y17188D01*
X314935Y17188D01*
X316156Y18779D01*
X316924Y20633D01*
X317186Y22622D01*
Y24314D01*
X337542D01*
Y24052D01*
X337681D01*
Y23773D01*
X337821D01*
Y23494D01*
X337821D01*
X338657Y21821D01*
X338777Y21611D01*
X339215Y20845D01*
X339215Y20845D01*
X339848Y19837D01*
X339912Y19730D01*
X340191Y19312D01*
X340888Y18336D01*
X340957Y18266D01*
X341306Y17778D01*
X341724Y17221D01*
X341724Y17220D01*
X341727Y17217D01*
X342282Y16523D01*
X342421Y16384D01*
X342504Y16285D01*
X343119Y15547D01*
X345489Y13177D01*
X345628Y13038D01*
X345628Y13038D01*
X346604Y12201D01*
X347301Y11644D01*
X347770Y11292D01*
X348416Y10807D01*
X349253Y10250D01*
Y10250D01*
X349532D01*
Y10110D01*
X349671D01*
Y9971D01*
X349950D01*
Y9831D01*
X350089D01*
Y9692D01*
X350368D01*
Y9552D01*
X350584D01*
X350647Y9510D01*
Y9413D01*
X350787Y9333D01*
Y9274D01*
X351623Y8855D01*
X352041Y8576D01*
X352320Y8437D01*
X353157Y8019D01*
X354132Y7601D01*
X354412Y7461D01*
X354830Y7461D01*
Y7322D01*
X355109D01*
Y7182D01*
X355527D01*
Y7043D01*
X355945D01*
Y6903D01*
X356085D01*
X356224Y6903D01*
Y6764D01*
X356642D01*
Y6625D01*
X356909D01*
X357200Y6517D01*
Y6485D01*
X358036Y6206D01*
X358608Y6043D01*
X359012Y5928D01*
X359179Y5900D01*
X359367Y5868D01*
X360546Y5649D01*
X359849Y5788D01*
X360031D01*
X360546Y5649D01*
X360546Y5649D01*
X361243Y5509D01*
X362219Y5370D01*
Y5370D01*
X363474D01*
Y5230D01*
X366262D01*
Y5091D01*
X367099D01*
Y5230D01*
X369748D01*
Y5370D01*
X371142D01*
Y5370D01*
X372118Y5509D01*
X372395Y5555D01*
X372954Y5649D01*
X373560Y5788D01*
X373651D01*
Y5809D01*
X374166Y5928D01*
X374348D01*
Y6067D01*
X374906D01*
Y6206D01*
X375464D01*
Y6346D01*
X376021D01*
Y6485D01*
X376579D01*
Y6625D01*
X376997D01*
Y6764D01*
X377555D01*
Y6903D01*
X377695D01*
X377834Y6903D01*
X377973D01*
Y7043D01*
X378392D01*
Y7182D01*
X378810D01*
Y7322D01*
X379228D01*
Y7461D01*
X379646D01*
Y7601D01*
X380065D01*
Y7740D01*
X380344D01*
Y7879D01*
X380762D01*
Y8019D01*
X381041D01*
Y8158D01*
X381459D01*
Y8298D01*
X381738D01*
Y8298D01*
X382063Y8437D01*
X382156D01*
Y8437D01*
X382714Y8716D01*
X383689Y9134D01*
X383790Y9184D01*
X384526Y9552D01*
X384526D01*
X384667Y9633D01*
X384786Y9692D01*
X384805D01*
X385781Y10250D01*
X386059Y10389D01*
X386060Y10389D01*
X386060Y10389D01*
X386339Y10528D01*
X387035Y10947D01*
X387036Y10947D01*
X387733Y11365D01*
Y11393D01*
X388151Y11644D01*
X388151Y11644D01*
X388569Y11923D01*
X388569Y11923D01*
X388987Y12201D01*
X388988D01*
X389824Y12759D01*
D01*
X390103Y13038D01*
X390103Y13038D01*
X390242Y13038D01*
Y13108D01*
X390382Y13177D01*
Y13177D01*
X390521Y13289D01*
X390800Y13456D01*
D01*
X390939Y13595D01*
X390939Y13596D01*
Y13596D01*
X391079Y13735D01*
X391358Y13874D01*
X391859Y14293D01*
X392055Y14432D01*
X392891Y15129D01*
X393815Y15966D01*
X393867D01*
Y16105D01*
X394007D01*
Y16244D01*
X394146D01*
Y16384D01*
X394285D01*
Y16523D01*
X394425D01*
Y16663D01*
X394564D01*
Y16802D01*
X394704D01*
Y16942D01*
X394843D01*
Y17081D01*
X394982D01*
Y17220D01*
X395122D01*
Y17360D01*
X395261D01*
Y17499D01*
X395401D01*
Y17639D01*
X395540D01*
Y17778D01*
X395680D01*
Y17918D01*
X395819D01*
Y18057D01*
X395958D01*
Y18196D01*
X396098D01*
Y18336D01*
X396237D01*
Y18475D01*
X396377D01*
Y18615D01*
X396516D01*
Y18754D01*
X396656D01*
Y18894D01*
X396795D01*
Y19033D01*
X396934D01*
Y19172D01*
X397074D01*
Y19451D01*
X397213D01*
Y19451D01*
X397353Y19591D01*
Y19591D01*
X398050Y20288D01*
X398747Y21124D01*
X398834Y21233D01*
X399305Y21821D01*
X399508Y22126D01*
X399673Y22329D01*
X399862Y22518D01*
X400280Y23076D01*
X400699Y23634D01*
X401396Y24610D01*
X401888Y25348D01*
X402232Y25864D01*
X402581Y26388D01*
X402790Y26701D01*
X403160Y27318D01*
X404045Y28792D01*
X404045D01*
Y28827D01*
X404184Y29071D01*
X404184D01*
Y29350D01*
X404324D01*
Y29629D01*
X404463D01*
Y29908D01*
X404602D01*
Y30187D01*
X404742D01*
Y30269D01*
X404848Y30465D01*
X404881D01*
X405299Y31302D01*
X405718Y32138D01*
X405718Y32185D01*
X405787Y32346D01*
X406833Y32696D01*
X407251D01*
X407809Y33811D01*
X408183Y34685D01*
X408347Y35066D01*
X408367Y35066D01*
X408646Y35763D01*
X409019Y36879D01*
X409064D01*
X409064Y37297D01*
X409203D01*
Y37715D01*
X409343D01*
Y38273D01*
X409482D01*
Y38691D01*
X409622D01*
Y39249D01*
X409761D01*
Y39806D01*
X409900Y39806D01*
Y40504D01*
X410040D01*
Y41048D01*
X410187Y41155D01*
X411155Y41479D01*
X411434D01*
X412410Y41898D01*
X412689D01*
X412689Y46078D01*
X412689Y46220D01*
X412689D01*
X412549Y47335D01*
X412915Y48450D01*
X413242Y48777D01*
X413386Y48869D01*
X413386D01*
Y50123D01*
X413246Y50263D01*
X413246Y50960D01*
X413107Y51657D01*
X412967Y52263D01*
Y52354D01*
X412968Y52354D01*
X412828Y53624D01*
X412828Y55421D01*
X412828Y55421D01*
X412982Y56628D01*
X413107Y56955D01*
X413525Y56955D01*
X413525Y57513D01*
X413386Y57652D01*
X413386Y58225D01*
Y59046D01*
X413246Y59148D01*
Y59186D01*
X413232Y59201D01*
Y59125D01*
X413093D01*
Y59355D01*
X413049Y59404D01*
X412954D01*
Y59618D01*
X412889Y59682D01*
X412814D01*
Y59822D01*
X412675D01*
Y60100D01*
X412536D01*
Y60212D01*
X412257Y60305D01*
Y60100D01*
X412397D01*
X412397Y59404D01*
X412257D01*
Y59682D01*
X412118D01*
Y59961D01*
X411979D01*
Y60100D01*
X411840D01*
Y60441D01*
X411789Y60440D01*
X411601D01*
X411522Y60497D01*
X411422Y60608D01*
Y60379D01*
X411561D01*
Y59822D01*
X411422D01*
Y60100D01*
X411283D01*
Y60379D01*
X411143D01*
Y60657D01*
X411004D01*
Y60797D01*
X410865D01*
Y61075D01*
X410726D01*
Y61431D01*
X410676Y61493D01*
X410586D01*
Y61729D01*
X410572Y61771D01*
X410447D01*
Y62113D01*
X410179D01*
X410168Y62121D01*
Y60936D01*
X410029D01*
Y61354D01*
X409890D01*
Y61632D01*
X409751D01*
Y62050D01*
X409611D01*
Y62598D01*
X409560Y62642D01*
X409510Y63025D01*
X409472D01*
Y63164D01*
X409333D01*
Y62607D01*
X409193D01*
Y63025D01*
X409054D01*
Y63303D01*
X408915Y63303D01*
Y64000D01*
X408776D01*
Y64418D01*
X408636D01*
Y63582D01*
X408497D01*
Y64278D01*
X408358D01*
Y65114D01*
X408219D01*
Y65950D01*
X408079D01*
Y66089D01*
X408219D01*
Y66228D01*
X408358D01*
Y66089D01*
X408497D01*
Y65950D01*
X408636D01*
Y65671D01*
X408776D01*
Y65393D01*
X408915D01*
X408915Y65114D01*
X409054D01*
Y64975D01*
X409193D01*
Y64836D01*
X409333D01*
Y64557D01*
X409472Y64557D01*
Y64418D01*
X409611D01*
Y64348D01*
X409690Y64418D01*
X409611D01*
X409611Y64975D01*
X409751D01*
Y64557D01*
X409890D01*
Y64352D01*
X409900Y64344D01*
X410168Y64121D01*
Y64975D01*
X410308D01*
Y64418D01*
X410447Y64418D01*
Y63889D01*
X410480Y63861D01*
X410586Y63861D01*
Y63773D01*
X410648Y63721D01*
X410726D01*
Y63657D01*
X410737Y63647D01*
X411004D01*
Y64418D01*
X410865D01*
Y64836D01*
X411004D01*
Y64557D01*
X411143D01*
Y64139D01*
X411283D01*
Y64000D01*
X411422D01*
Y63721D01*
X411561Y63721D01*
Y63582D01*
X411700D01*
Y63443D01*
X411840D01*
Y63294D01*
X411992Y63229D01*
X412131Y63149D01*
Y63095D01*
X412131Y63089D01*
X412270Y62894D01*
X412270Y62811D01*
X412347Y62746D01*
X412397D01*
Y62705D01*
X412410Y62694D01*
Y62671D01*
X412667Y62329D01*
X412675D01*
Y62317D01*
X412689Y62299D01*
Y62253D01*
X412828Y62113D01*
X413107D01*
X413232Y62164D01*
Y62189D01*
X413093D01*
Y62746D01*
X412954D01*
Y63164D01*
X413093D01*
Y62886D01*
X413232D01*
Y62607D01*
X413372D01*
Y62329D01*
X413511D01*
Y62275D01*
X413804Y62392D01*
Y62764D01*
X413845Y62818D01*
X413943Y62950D01*
X413943Y62950D01*
X413943Y63037D01*
Y64065D01*
X414083Y64205D01*
X414083D01*
X414083Y65878D01*
X413943Y65979D01*
Y66089D01*
X413789D01*
Y66445D01*
X413488Y66646D01*
X413372D01*
Y66724D01*
X413279Y66785D01*
X413232D01*
Y67007D01*
X412954Y67286D01*
Y66646D01*
X412814D01*
Y66925D01*
X412675D01*
Y67064D01*
X412536D01*
Y67203D01*
X412397D01*
X412397Y67621D01*
X412257D01*
Y67995D01*
X412236Y68039D01*
X412118D01*
Y68250D01*
X411979Y68278D01*
Y67899D01*
X411840D01*
Y68178D01*
X411700D01*
X411700Y68317D01*
X411561D01*
Y68431D01*
X411283Y68510D01*
Y68317D01*
X411422D01*
Y67760D01*
X411283D01*
Y68039D01*
X411143D01*
Y68178D01*
X411004D01*
Y68596D01*
X410865D01*
Y68801D01*
X410573Y69014D01*
X410447D01*
Y69363D01*
X410319Y69363D01*
X410179Y69363D01*
X410168Y69378D01*
Y69014D01*
X410029D01*
Y69431D01*
X409890Y69431D01*
Y69768D01*
X409715Y70014D01*
X409611Y70220D01*
Y69988D01*
X409472D01*
X409472Y70406D01*
X409333D01*
Y70787D01*
X409320Y70824D01*
X409193D01*
Y71205D01*
X409135Y71381D01*
X409054D01*
Y71938D01*
X408915D01*
X408915Y72635D01*
X408776D01*
Y72495D01*
X408636D01*
Y72217D01*
X408776D01*
Y71381D01*
X408497D01*
Y72077D01*
X408358D01*
Y73470D01*
X408219D01*
Y73609D01*
X408358D01*
Y74027D01*
X408219D01*
Y74445D01*
X408079D01*
Y75002D01*
X407940D01*
X407940Y75281D01*
X408219D01*
Y74724D01*
X408358D01*
Y74306D01*
X408497Y74306D01*
Y73888D01*
X408636D01*
Y73470D01*
X408776D01*
Y73331D01*
X408915D01*
Y73052D01*
X409054D01*
Y72635D01*
X409193D01*
Y72356D01*
X409333D01*
Y71938D01*
X409472Y71938D01*
X409472Y74306D01*
X409611D01*
Y73052D01*
X409751D01*
Y72635D01*
X409890D01*
Y72217D01*
X409940D01*
X410045Y72291D01*
X410308D01*
Y72913D01*
X410447Y72913D01*
Y73609D01*
X410586D01*
Y72291D01*
X410622D01*
X410726Y72238D01*
Y72356D01*
X410865D01*
Y72774D01*
X411004D01*
Y73749D01*
X411143D01*
Y72774D01*
X411283D01*
Y72356D01*
X411422D01*
X411422Y72077D01*
X411561D01*
Y71799D01*
X411700D01*
X411700Y71521D01*
X411840D01*
Y71328D01*
X411852Y71315D01*
X412131Y71036D01*
Y70897D01*
X412270Y70804D01*
Y70618D01*
X412328Y70616D01*
X412587Y70587D01*
X412675Y70513D01*
Y70685D01*
X412536Y70685D01*
Y70963D01*
X412397D01*
Y71381D01*
X412536D01*
Y71103D01*
X412675D01*
Y70824D01*
X412814D01*
X412814Y70546D01*
X412954D01*
Y70281D01*
X412970Y70267D01*
X413093D01*
Y70165D01*
X413138Y70128D01*
X413232D01*
Y70049D01*
X413386Y69921D01*
X413525Y69781D01*
Y69781D01*
X413789D01*
Y70128D01*
X413650D01*
Y70546D01*
X413789D01*
Y70267D01*
X413929D01*
Y69988D01*
X414068D01*
Y69781D01*
X414501D01*
Y70491D01*
X414501D01*
Y71440D01*
X414641Y71594D01*
X414641Y71746D01*
Y72988D01*
X414641D01*
X414437Y73192D01*
X414347Y73192D01*
Y73282D01*
X414068Y73561D01*
Y73470D01*
X413929D01*
Y73609D01*
X413789D01*
Y73749D01*
X413650D01*
Y73888D01*
X413511Y73888D01*
X413511Y74114D01*
X413441Y74167D01*
X413372D01*
Y74306D01*
X413232D01*
Y74527D01*
X412827Y74662D01*
X412814Y74675D01*
Y74584D01*
X412954D01*
Y74027D01*
X412814D01*
Y74167D01*
X412675D01*
Y74445D01*
X412536D01*
Y74724D01*
X412397D01*
Y75085D01*
X412118Y75196D01*
Y74724D01*
X411979D01*
X411979Y75002D01*
X411840D01*
Y75281D01*
X411700D01*
Y75420D01*
X411561D01*
Y75791D01*
X411283Y76125D01*
Y75699D01*
X411143D01*
Y75838D01*
X411004D01*
X411004Y76256D01*
X410865D01*
Y76636D01*
X410846Y76673D01*
X410726D01*
Y77091D01*
X410586D01*
Y76952D01*
X410447D01*
Y77231D01*
X410308D01*
Y77370D01*
X410168D01*
Y77788D01*
X410029D01*
Y77927D01*
X409890D01*
Y78345D01*
X409751D01*
Y78484D01*
X409611D01*
Y77509D01*
X409472D01*
Y77788D01*
X409333D01*
Y78205D01*
X409193D01*
Y78623D01*
X409054D01*
Y79041D01*
X408915D01*
Y79320D01*
X408776D01*
Y79459D01*
X408636D01*
Y79598D01*
X408497D01*
Y79737D01*
X408358D01*
Y80016D01*
X408219D01*
Y80295D01*
X408079D01*
Y80712D01*
X407940D01*
Y80991D01*
X407801D01*
X407801Y81409D01*
X407662D01*
X407662Y81966D01*
X407522D01*
X407522Y82383D01*
X407383D01*
Y82662D01*
X407522D01*
Y82523D01*
X407662D01*
Y82383D01*
X407801D01*
X407801Y82105D01*
X408079D01*
Y81826D01*
X408219D01*
Y81687D01*
X408358D01*
Y81548D01*
X408497Y81548D01*
X408497Y81409D01*
X408637D01*
X408636Y81269D01*
X408776D01*
Y81130D01*
X408915D01*
X408915Y81548D01*
X408776D01*
Y82523D01*
X408915D01*
X408915Y82244D01*
X409054D01*
Y80991D01*
X409193D01*
Y80573D01*
X409333D01*
Y80295D01*
X409472D01*
Y81130D01*
X409611D01*
Y81548D01*
X409751D01*
Y80155D01*
X409890D01*
Y79877D01*
X410029D01*
Y79459D01*
X410168D01*
Y79180D01*
X410308D01*
Y78902D01*
X410447D01*
X410447Y78623D01*
X410586D01*
Y78066D01*
X410726D01*
Y77509D01*
X410865D01*
Y77436D01*
X410898Y77509D01*
X410865D01*
Y79737D01*
X410726D01*
Y80155D01*
X411004D01*
Y79320D01*
X411143D01*
Y78902D01*
X411283D01*
Y78623D01*
X411422D01*
Y78358D01*
X411433Y78365D01*
X411458Y78355D01*
X411476Y78345D01*
X411561D01*
Y78293D01*
X411573Y78286D01*
X411744Y78243D01*
X411840Y78206D01*
Y78762D01*
X411979D01*
Y78484D01*
X412118D01*
Y77954D01*
X412140Y77927D01*
X412257D01*
Y77779D01*
X412362Y77648D01*
X412397D01*
Y77605D01*
X412410Y77589D01*
X412410Y77589D01*
X412462Y77554D01*
X412500Y77509D01*
X412536D01*
Y77466D01*
X412549Y77450D01*
X412549Y77450D01*
X412627Y77403D01*
X412649Y77370D01*
X412675D01*
Y77330D01*
X412689Y77310D01*
X412751Y77279D01*
X412828Y77171D01*
X412967Y77115D01*
Y77031D01*
X413232Y76965D01*
Y77509D01*
X413372D01*
Y77091D01*
X413511D01*
Y76701D01*
X413533Y76673D01*
X413650D01*
Y76526D01*
X413755Y76395D01*
X413789D01*
Y76352D01*
X413804Y76334D01*
X413882Y76256D01*
X413929D01*
Y76209D01*
X414222Y75916D01*
X414486Y75916D01*
Y76673D01*
X414528D01*
X414580Y76802D01*
X414699Y77053D01*
X414706Y77067D01*
X414780Y77171D01*
X414780Y78244D01*
Y79959D01*
X414641D01*
Y83723D01*
X414501Y83723D01*
Y85118D01*
X414501D01*
X414362Y85257D01*
X414362Y86916D01*
X414381Y87587D01*
X414780Y88185D01*
X414780D01*
X414780Y92786D01*
X414780D01*
X414652Y93139D01*
X414912Y93549D01*
X415213Y93968D01*
X416453Y94040D01*
X416732D01*
Y94598D01*
X416649Y94619D01*
X416592Y95016D01*
X416535Y95018D01*
X416453Y95028D01*
X416453Y95435D01*
X416314D01*
Y95853D01*
X416314D01*
X416064Y97038D01*
X416138Y97916D01*
X416314Y98223D01*
X416314Y99199D01*
X416174Y99234D01*
X416174Y101430D01*
X416035D01*
Y103660D01*
X416035Y103660D01*
X416035D01*
X416286Y104908D01*
X416871Y105333D01*
X417414D01*
X417791Y105292D01*
X418180Y105203D01*
X418963Y104915D01*
X419102Y104776D01*
X419102D01*
X420217Y103660D01*
X420636D01*
X420636Y104063D01*
X420733Y104435D01*
X421551Y104946D01*
X421827Y104980D01*
X422129Y104813D01*
X422440Y104599D01*
X422727Y104358D01*
X423284Y103939D01*
X423703Y103660D01*
X424115Y103413D01*
X424400Y103242D01*
X424462Y103227D01*
X424679Y103103D01*
X424743Y103092D01*
X424958Y102963D01*
X425515Y102963D01*
X425655Y103521D01*
X425794Y104497D01*
X425934Y105473D01*
X426073Y106309D01*
X426073D01*
Y106674D01*
X426074Y106685D01*
X426185Y107146D01*
X426212D01*
X426338Y107772D01*
X426431Y108239D01*
X426491Y108540D01*
X426631Y109376D01*
X426656Y109576D01*
X426770Y110074D01*
X426772Y110131D01*
X426813Y110493D01*
X427049Y111468D01*
Y111650D01*
X427150Y112087D01*
X427188Y112165D01*
X427467Y113559D01*
X427607Y114117D01*
X427607D01*
Y114953D01*
X427746D01*
Y115275D01*
X427832Y115650D01*
X427885D01*
Y115881D01*
X428025Y116487D01*
X428164Y117463D01*
X428164Y117784D01*
X428304Y118996D01*
Y119275D01*
X428443Y119554D01*
X428443Y120290D01*
Y121606D01*
X428520Y121924D01*
X428582D01*
Y121924D01*
X428722Y122761D01*
X429140D01*
Y123419D01*
X429167Y123531D01*
X429837Y124573D01*
Y124573D01*
X430886Y125105D01*
X431309Y125189D01*
X431729Y125470D01*
X432010Y125890D01*
X432108Y126386D01*
Y127083D01*
X432010Y127578D01*
X431729Y127998D01*
X431309Y128279D01*
X430813Y128378D01*
X430395D01*
X429698Y129534D01*
Y129592D01*
X429280D01*
X428861Y129174D01*
X428164Y128338D01*
X427607Y127640D01*
X427328Y127083D01*
X427188Y126664D01*
X426919Y125724D01*
X426909Y125689D01*
X426631Y124573D01*
X426491Y123737D01*
X426491D01*
X426491Y122770D01*
X426073Y121645D01*
X425097Y121227D01*
X424679D01*
X424679Y119930D01*
X424539Y118718D01*
Y118250D01*
X424469Y118107D01*
X424400Y118021D01*
X423989Y117658D01*
X423245Y117296D01*
X422898Y117490D01*
X422309Y117881D01*
X421472Y118718D01*
Y118718D01*
X421333D01*
Y118857D01*
X421193D01*
Y119136D01*
X421054D01*
Y119275D01*
X420914D01*
Y119415D01*
X419939Y119415D01*
X419939Y119554D01*
X419799Y119610D01*
X419799Y119694D01*
X419660Y119728D01*
X419660Y119833D01*
X419241D01*
Y118728D01*
X418813Y117625D01*
X417568Y117742D01*
X417365Y117810D01*
X417290Y117850D01*
Y117881D01*
X416604Y118273D01*
X416174Y118578D01*
X415972Y118713D01*
X415655Y118943D01*
X415616Y118996D01*
X415059Y119443D01*
X414501Y120112D01*
X414362Y120158D01*
Y120251D01*
X414222Y120286D01*
Y120391D01*
X413763Y120505D01*
X412967Y120809D01*
X412476Y121167D01*
X412391Y121229D01*
X411992Y121790D01*
Y122482D01*
X411573D01*
X411573Y122273D01*
X411434Y122203D01*
Y121813D01*
X411295Y121645D01*
Y121597D01*
X410916Y121248D01*
X409507Y121325D01*
X409482Y121367D01*
X409133Y121890D01*
X408801Y122426D01*
X408756Y122503D01*
X408453Y123044D01*
X408415Y123123D01*
X408248Y123533D01*
X407992Y124294D01*
X407809Y125088D01*
X407809Y125131D01*
X407670Y125432D01*
Y125689D01*
X407551Y125689D01*
X407391Y125689D01*
X407164Y125721D01*
X406333Y125897D01*
X405793Y126346D01*
X405439Y127007D01*
Y127083D01*
X405336D01*
X405299Y128337D01*
X405299Y128895D01*
X405160Y129035D01*
X405160Y129035D01*
X404184Y129732D01*
X403626Y130150D01*
X403480Y130296D01*
X402666Y131142D01*
X402662Y131146D01*
X401934Y132061D01*
X401814Y132241D01*
X401762Y132259D01*
X401675Y132381D01*
X401396Y132381D01*
X401256Y132381D01*
X401256Y131265D01*
X401276Y130854D01*
X401275Y130851D01*
X401144Y130545D01*
X400882Y130254D01*
X400172Y129857D01*
X400094Y129846D01*
X399165Y130429D01*
D01*
X398329Y131265D01*
Y131265D01*
X398189D01*
X398189Y131544D01*
X398050D01*
Y131684D01*
X397910D01*
Y131823D01*
X397771D01*
Y131962D01*
X397644D01*
X397631Y131980D01*
Y132102D01*
X397631D01*
X397353Y132437D01*
Y132520D01*
X397353D01*
X397213Y132660D01*
X396516Y133635D01*
X396516Y133636D01*
X396480Y133637D01*
X396377Y133775D01*
X396377Y133775D01*
X396372Y133777D01*
X396237Y133977D01*
Y134054D01*
X396098Y134298D01*
Y134333D01*
X395680Y135030D01*
X395261D01*
Y133635D01*
X395286Y133635D01*
X395401Y133610D01*
X395401Y132520D01*
X395540Y132520D01*
X395540Y132199D01*
X395540Y132102D01*
X395680Y130986D01*
X395819Y130380D01*
Y130289D01*
X395819Y130289D01*
X395942Y129577D01*
X395830Y128515D01*
X395757Y128295D01*
X395680Y128198D01*
X395310Y127890D01*
X395034Y127798D01*
X394425Y127780D01*
X393449Y128477D01*
X393449Y128477D01*
X392612Y129035D01*
X392583Y129036D01*
X392389Y129174D01*
X392055Y129453D01*
X391971Y129481D01*
X391637Y129732D01*
X391218D01*
X391218Y129174D01*
X391357Y128895D01*
X391427Y128895D01*
X391497Y128616D01*
X391636Y128616D01*
X391636Y128337D01*
X391776Y128337D01*
X391776Y128059D01*
X391776Y128059D01*
X391915Y128059D01*
X391915Y127973D01*
X391915Y127780D01*
X392055Y127780D01*
X392055Y127775D01*
Y127501D01*
X392194D01*
Y127222D01*
X392333D01*
Y126943D01*
X392473D01*
Y126664D01*
X392612D01*
Y126386D01*
X392752D01*
Y126107D01*
X392891D01*
X392891Y125967D01*
X393031D01*
Y125689D01*
X393170D01*
Y125410D01*
X393309D01*
Y125131D01*
X393309D01*
X393449Y124887D01*
Y124852D01*
X393449D01*
X393867Y124155D01*
X394500Y123147D01*
X394564Y123040D01*
X395122Y122203D01*
X395261Y121994D01*
X395261Y121924D01*
X395680Y121367D01*
X395707Y121367D01*
X395819Y121227D01*
X395958Y121227D01*
X396237Y120948D01*
X396479Y120948D01*
X396516Y119694D01*
X396191Y119423D01*
X395334Y119318D01*
X394704Y119415D01*
X394007Y119694D01*
X393449Y119972D01*
X393297Y119998D01*
X393031Y120112D01*
X392612Y120112D01*
X392612Y119554D01*
X392752Y119275D01*
X392821Y119275D01*
X392891Y118996D01*
X393317Y118252D01*
X393448Y117383D01*
X393358Y117215D01*
X392925Y116756D01*
X392577Y116505D01*
X392620D01*
Y116226D01*
X392760D01*
Y116087D01*
X392899D01*
Y115808D01*
X392760D01*
Y115948D01*
X392620D01*
Y116087D01*
X392203D01*
Y116226D01*
X391924D01*
Y116365D01*
X391506D01*
Y116505D01*
X391228D01*
Y116644D01*
X390949D01*
Y116766D01*
X390660D01*
X390573Y116505D01*
X390671D01*
Y116365D01*
X390810D01*
Y116087D01*
X390949D01*
Y115948D01*
X390671D01*
X390671Y116087D01*
X390531D01*
Y116226D01*
X390400Y116226D01*
X390382Y116208D01*
X390382Y116208D01*
Y116087D01*
X390392D01*
Y115925D01*
X390424Y115911D01*
X390479Y115530D01*
X390531D01*
Y114694D01*
X390671D01*
Y114276D01*
X390810Y114276D01*
Y113998D01*
X390949D01*
Y113858D01*
X391088D01*
Y113719D01*
X391228D01*
Y113580D01*
X391367D01*
Y113441D01*
X391088D01*
Y113580D01*
X390949D01*
Y113719D01*
X390810D01*
Y113858D01*
X390531D01*
Y113998D01*
X390113D01*
Y114137D01*
X389997D01*
X389963Y114117D01*
X389963D01*
Y113719D01*
X389974D01*
Y113655D01*
X389993Y113580D01*
X390113D01*
Y113301D01*
X390063D01*
X390103Y113141D01*
Y112744D01*
X390113D01*
Y112556D01*
X390205Y112326D01*
X390253D01*
Y112208D01*
X390373Y111909D01*
X390392D01*
Y111854D01*
X390467Y111630D01*
X390531D01*
Y111437D01*
X390606Y111212D01*
X390671D01*
Y111019D01*
X390939Y110213D01*
X390939D01*
X391013Y110110D01*
X391079Y109934D01*
X391079D01*
X391358Y109586D01*
Y109516D01*
X391357D01*
X391730Y109051D01*
X392194Y108401D01*
X392612Y107843D01*
X392612Y107843D01*
X392671Y107770D01*
X392891Y107425D01*
X392971Y107393D01*
X393031Y107308D01*
X393031Y107285D01*
X393170Y107146D01*
X393588Y107146D01*
X394001Y106064D01*
X394007Y106031D01*
X394146Y105333D01*
X394285Y104776D01*
X394285Y104776D01*
X394425Y104218D01*
X394564Y102953D01*
X394564Y102406D01*
X394564Y102406D01*
Y101987D01*
X394564D01*
X394564Y101166D01*
X394495Y99966D01*
X394425Y99896D01*
X394425D01*
X394285Y99338D01*
X394197Y98634D01*
X394007Y97805D01*
X393867Y97247D01*
Y96968D01*
X393996Y96728D01*
X394013D01*
Y95853D01*
X394425D01*
X394431Y95842D01*
Y95893D01*
X394570D01*
Y96032D01*
X394709D01*
Y96171D01*
X394849D01*
Y96450D01*
X394988D01*
Y96589D01*
X395127D01*
Y96728D01*
X395266D01*
X395266Y96868D01*
X395406D01*
Y96589D01*
X395266D01*
Y96450D01*
X395127Y96450D01*
Y96171D01*
X394988D01*
Y94582D01*
X395016Y94500D01*
X395127D01*
Y94361D01*
X395266D01*
Y94639D01*
X395406D01*
Y94918D01*
X395545D01*
Y95196D01*
X395684Y95196D01*
Y95336D01*
X395824D01*
Y94918D01*
X395684D01*
Y94500D01*
X395545D01*
Y94082D01*
X395406Y94082D01*
Y93064D01*
X395680D01*
X395684Y93052D01*
Y93246D01*
X395824D01*
Y93386D01*
X395963D01*
X395963Y93664D01*
X396102D01*
Y93804D01*
X396241D01*
Y94082D01*
X396381D01*
Y94361D01*
X396659D01*
Y94221D01*
X396520D01*
Y93943D01*
X396381D01*
Y93525D01*
X396241D01*
Y93107D01*
X396102D01*
Y92132D01*
X395963D01*
Y90655D01*
X396098Y89482D01*
Y88790D01*
X396102D01*
Y88597D01*
X396241Y88412D01*
Y88511D01*
X396381D01*
Y88651D01*
X396520D01*
Y88790D01*
X396659D01*
Y88929D01*
X396799D01*
Y89208D01*
X396938D01*
Y89347D01*
X397077D01*
Y89486D01*
X397216D01*
Y89208D01*
X397077D01*
Y88929D01*
X396938D01*
Y88790D01*
X396799D01*
Y88511D01*
X396659D01*
Y88233D01*
X396520D01*
Y87759D01*
X396659Y87480D01*
Y87536D01*
X396799D01*
Y87815D01*
X396938D01*
Y87954D01*
X397077D01*
Y88233D01*
X397216D01*
Y88372D01*
X397356D01*
Y88511D01*
X397495D01*
Y88651D01*
X397634D01*
Y88372D01*
X397495D01*
Y88233D01*
X397356D01*
Y88094D01*
X397216D01*
Y87815D01*
X397077D01*
Y87676D01*
X396938D01*
Y87258D01*
X396799D01*
Y86562D01*
X396795D01*
Y86372D01*
X396917Y86004D01*
X396938D01*
Y86144D01*
X397077D01*
Y86283D01*
X397216D01*
Y86562D01*
X397356D01*
Y86701D01*
X397495D01*
Y86979D01*
X397634D01*
Y87119D01*
X397773D01*
Y87258D01*
X397913D01*
Y86979D01*
X397773D01*
Y86701D01*
X397634D01*
Y86562D01*
X397495D01*
Y86422D01*
X397356D01*
X397356Y86144D01*
X397216D01*
Y85587D01*
X397077D01*
Y85030D01*
X397074D01*
Y84620D01*
X396938Y84562D01*
Y84002D01*
X397213D01*
X397275Y83916D01*
X397356D01*
Y84055D01*
X397495D01*
Y84194D01*
X397634D01*
Y84473D01*
X397773D01*
Y84612D01*
X397913D01*
Y84751D01*
X398052D01*
Y85030D01*
X398191D01*
Y85308D01*
X398330D01*
X398330Y85447D01*
X398470D01*
Y85169D01*
X398330D01*
Y84890D01*
X398191D01*
Y84612D01*
X398052D01*
X398052Y84194D01*
X397913D01*
Y82745D01*
X398050Y82608D01*
X398050Y81269D01*
X398052D01*
Y80648D01*
X398132Y80369D01*
X398154Y79877D01*
X398191D01*
Y80295D01*
X398330D01*
Y80434D01*
X398470D01*
Y80712D01*
X398609D01*
Y80851D01*
X398748D01*
Y80991D01*
X398888D01*
Y80712D01*
X398748D01*
Y80434D01*
X398609D01*
Y80295D01*
X398470D01*
Y79877D01*
X398330D01*
Y79320D01*
X398191D01*
Y78286D01*
X398323D01*
X398435Y78205D01*
X398470D01*
Y78345D01*
X398609Y78345D01*
X398748Y78345D01*
Y78205D01*
X398609D01*
Y78079D01*
X398627Y78066D01*
X398888D01*
X399027Y78066D01*
Y78205D01*
X399584D01*
Y78345D01*
X399723D01*
Y78484D01*
X400002D01*
Y78205D01*
X399723D01*
Y78066D01*
X399584D01*
X399584Y77788D01*
X399445D01*
Y77648D01*
X399305D01*
X399305Y77370D01*
X399166D01*
Y76952D01*
X399031D01*
X399027Y76941D01*
Y76673D01*
X398912D01*
X398888Y76616D01*
Y76395D01*
X398886D01*
Y76334D01*
X398959Y76116D01*
X399166D01*
Y76256D01*
X399445D01*
Y76395D01*
X399584D01*
Y76534D01*
X399862D01*
Y76395D01*
X399723D01*
Y76256D01*
X399584D01*
X399584Y76116D01*
X399445Y76116D01*
Y75977D01*
X399305D01*
Y75699D01*
X399166D01*
Y75495D01*
X399246Y75281D01*
X399305D01*
Y75420D01*
X399723D01*
Y75559D01*
X400002D01*
Y75699D01*
X400280D01*
X400280Y75838D01*
X400559D01*
Y75699D01*
X400420D01*
Y75559D01*
X400280D01*
X400280Y75420D01*
X400141D01*
Y75281D01*
X400002D01*
Y75142D01*
X399862D01*
Y75002D01*
X399723D01*
Y74724D01*
X399584D01*
Y74445D01*
X399560D01*
X399583Y74382D01*
Y74382D01*
X399655Y74167D01*
X399723D01*
Y74306D01*
X400141D01*
Y74445D01*
X400559D01*
Y74584D01*
X400698D01*
Y74724D01*
X400977D01*
Y74445D01*
X400698D01*
Y74306D01*
X400420D01*
Y74167D01*
X400280D01*
X400280Y74027D01*
X400141D01*
Y73749D01*
X400002D01*
Y73609D01*
X399862D01*
Y73192D01*
X400141D01*
Y73331D01*
X400420D01*
Y73192D01*
X400280D01*
X400280Y73052D01*
X400141D01*
Y72913D01*
X400002D01*
X399862Y72913D01*
Y72774D01*
X399723D01*
Y72635D01*
X399584D01*
X399584Y72356D01*
X399445D01*
Y71938D01*
X399305D01*
X399305Y71521D01*
X399253D01*
X399245Y71455D01*
X399166D01*
Y71103D01*
X399095D01*
X399083Y71045D01*
X399027Y71037D01*
Y70685D01*
X399026D01*
Y70546D01*
X399166D01*
Y70685D01*
X399305Y70685D01*
X399445D01*
X399584Y70685D01*
X399584Y70824D01*
X399862D01*
Y70963D01*
X400002D01*
Y71103D01*
X400280D01*
Y71242D01*
X400559D01*
Y71381D01*
X400698D01*
Y71521D01*
X400977D01*
Y71381D01*
X400837D01*
Y71242D01*
X400698D01*
Y71103D01*
X400420D01*
Y70963D01*
X400280D01*
Y70824D01*
X400141D01*
X400141Y70685D01*
X400002D01*
Y70546D01*
X399862D01*
Y70406D01*
X399723D01*
Y70267D01*
X399584D01*
Y70128D01*
X399445Y70128D01*
Y69849D01*
X399305D01*
Y69710D01*
X399166D01*
Y69431D01*
X399027D01*
Y69153D01*
X398888D01*
Y68874D01*
X398748D01*
Y68596D01*
X398609D01*
Y68317D01*
X398470D01*
Y68039D01*
X398398D01*
X398384Y67969D01*
X398330D01*
Y67482D01*
X398470D01*
Y67621D01*
X399166D01*
Y67760D01*
X399305Y67760D01*
X399445D01*
Y67899D01*
X399584Y67899D01*
X399862D01*
Y68039D01*
X400002D01*
X400141Y68039D01*
Y67899D01*
X400002D01*
Y67760D01*
X399723D01*
Y67621D01*
X399445D01*
Y67482D01*
X399166D01*
Y67342D01*
X399027D01*
Y67203D01*
X398888D01*
Y67064D01*
X398609D01*
Y66785D01*
X398470D01*
Y66646D01*
X398330D01*
Y66507D01*
X398191D01*
Y66368D01*
X398052Y66367D01*
Y66228D01*
X397967D01*
X397938Y66157D01*
X397913D01*
Y66089D01*
X397888D01*
X397864Y66017D01*
X397773D01*
Y65671D01*
X398888D01*
X399027Y65671D01*
X399166Y65671D01*
Y65532D01*
X399027Y65532D01*
X398888Y65532D01*
X398748D01*
Y65393D01*
X398191D01*
Y65253D01*
X398052Y65253D01*
X397913Y65253D01*
Y65114D01*
X397773D01*
Y64975D01*
X397495D01*
Y64836D01*
X397356D01*
Y64696D01*
X397216Y64696D01*
X397158D01*
X397097Y64623D01*
X397077D01*
Y64557D01*
X396938D01*
Y64418D01*
X396799D01*
Y64278D01*
X396659D01*
Y64139D01*
X396516D01*
Y63926D01*
X396469Y63861D01*
X396799D01*
Y63721D01*
X396938Y63721D01*
X397773D01*
Y63582D01*
X398052D01*
Y63443D01*
X396938D01*
Y63303D01*
X396799Y63303D01*
X396659D01*
X396520Y63303D01*
Y63164D01*
X396102D01*
Y63025D01*
X395963D01*
Y62886D01*
X395684D01*
Y62746D01*
X395485D01*
X395406Y62654D01*
Y62607D01*
X395545D01*
Y62468D01*
X395684Y62468D01*
X395824D01*
Y62329D01*
X397077D01*
Y62189D01*
X397216D01*
Y62329D01*
X397356D01*
Y62050D01*
X395266D01*
Y61911D01*
X394849D01*
Y61771D01*
X394512D01*
X394511Y61770D01*
X394431Y61744D01*
Y61632D01*
X394248D01*
X394152Y61474D01*
Y61354D01*
X395127D01*
Y61214D01*
X395406D01*
Y61075D01*
X394152D01*
Y61214D01*
X393983D01*
X393774Y61075D01*
X394013D01*
Y60936D01*
X393595D01*
Y60797D01*
X393362D01*
X393360Y60795D01*
X393317Y60778D01*
Y60657D01*
X393072D01*
X393038Y60643D01*
Y60518D01*
X392829D01*
X392760Y60448D01*
Y60379D01*
X392551D01*
X392481Y60309D01*
Y60240D01*
X392473D01*
X392473Y60162D01*
X392452Y60100D01*
X392481D01*
Y59961D01*
X392899D01*
Y59822D01*
X393456D01*
X393456Y59682D01*
X394709D01*
Y59543D01*
X394849D01*
Y59404D01*
X394292D01*
X394152Y59404D01*
X394013Y59404D01*
X393595D01*
X393456Y59404D01*
X393317Y59404D01*
X393038D01*
X392899Y59404D01*
Y59265D01*
X392481D01*
Y59125D01*
X392342D01*
X392203Y59125D01*
X392063Y59125D01*
Y58986D01*
X391795D01*
X391785Y58981D01*
Y58847D01*
X391516D01*
X391367Y58772D01*
Y58708D01*
X391298D01*
X391019Y58429D01*
X391367D01*
Y58290D01*
X391506Y58290D01*
X392203D01*
X392203Y58151D01*
X390741D01*
X390671Y58081D01*
Y58011D01*
X390660D01*
Y57792D01*
X390531Y57675D01*
Y57593D01*
X391367D01*
Y57454D01*
X390810D01*
X390671Y57454D01*
X390531D01*
Y57315D01*
X390134D01*
X390113Y57296D01*
Y57176D01*
X390253Y57176D01*
X390392Y57176D01*
X390531Y57176D01*
X390671D01*
Y57036D01*
X390949D01*
Y56897D01*
X389696D01*
X389557Y56897D01*
X389468Y56897D01*
X389417Y56859D01*
Y56758D01*
X389282D01*
X389278Y56755D01*
Y56619D01*
X389069D01*
X388999Y56549D01*
Y56479D01*
X388930D01*
X388860Y56409D01*
Y56340D01*
X388791D01*
X388721Y56270D01*
Y56201D01*
X388652D01*
X388582Y56131D01*
Y56062D01*
X388721D01*
X388860Y56062D01*
Y55922D01*
X388582D01*
Y55783D01*
X388303D01*
Y55644D01*
X388024D01*
Y55504D01*
X387885D01*
Y55365D01*
X387607D01*
Y55226D01*
X387328D01*
Y55087D01*
X387189Y55087D01*
X386924D01*
X386910Y55080D01*
Y54947D01*
X386645D01*
X386632Y54941D01*
Y54808D01*
X386493Y54808D01*
X386367Y54808D01*
X386353Y54801D01*
Y54669D01*
X386088D01*
X386075Y54662D01*
Y54530D01*
X385810D01*
X385796Y54523D01*
Y54390D01*
X385559D01*
X385518Y54363D01*
Y54251D01*
X385378D01*
X385252Y54251D01*
X385239Y54244D01*
Y54112D01*
X385100D01*
Y54175D01*
X384526Y53888D01*
Y53888D01*
X384111Y53057D01*
X383829Y52633D01*
X383807Y52544D01*
X383689Y52354D01*
X383550Y52075D01*
Y51518D01*
X383810Y50912D01*
X383829Y50248D01*
X383829Y49705D01*
X384220Y49216D01*
X384387Y48493D01*
Y48172D01*
X384520Y47905D01*
X384526Y46638D01*
X384526Y45704D01*
Y43431D01*
X384665D01*
Y41898D01*
X384665D01*
X384944Y40225D01*
X385084Y40180D01*
X385084Y39388D01*
X385187Y39313D01*
X385223Y39013D01*
Y38691D01*
X385363Y38459D01*
X385363Y38273D01*
X385502Y38180D01*
Y38133D01*
X385641Y37994D01*
X385781D01*
X385821Y38011D01*
X385935Y38053D01*
Y38235D01*
X386075D01*
X386075Y38514D01*
X386214D01*
Y39349D01*
X386353D01*
Y39488D01*
X386214D01*
Y39767D01*
X386353D01*
Y39906D01*
X386493D01*
Y39767D01*
X386353Y39767D01*
Y39628D01*
X386493D01*
Y38792D01*
X386632D01*
Y38514D01*
X386771D01*
Y38356D01*
X386924Y38412D01*
X387050Y38347D01*
Y38514D01*
X387189D01*
Y38931D01*
X387328D01*
Y39906D01*
X387467D01*
Y40045D01*
X387607D01*
Y39628D01*
X387467D01*
Y38653D01*
X387607D01*
Y38235D01*
X387746D01*
Y37994D01*
X388012Y37994D01*
X388024Y38013D01*
Y38096D01*
X388079D01*
X388091Y38113D01*
X388151Y38133D01*
Y38203D01*
X388164Y38222D01*
Y38374D01*
X388265D01*
X388290Y38412D01*
Y38412D01*
X388303Y38434D01*
Y38514D01*
X388348D01*
X388442Y38678D01*
Y38792D01*
X388507D01*
X388582Y38922D01*
Y39070D01*
X388667D01*
X388721Y39165D01*
Y39210D01*
X388746D01*
X388848Y39388D01*
X388860Y39405D01*
Y39488D01*
X388920D01*
X388999Y39600D01*
Y39767D01*
X389119D01*
X389139Y39795D01*
Y40463D01*
X389278D01*
Y40045D01*
X389318D01*
X389545Y40364D01*
Y40364D01*
X389557Y40380D01*
Y40463D01*
X389617D01*
X389696Y40571D01*
Y40742D01*
X389820D01*
X389835Y40762D01*
Y40881D01*
X389921D01*
X389974Y40954D01*
Y41577D01*
X390113D01*
Y41856D01*
X390253D01*
Y41337D01*
X390255Y41340D01*
X390521D01*
X390531Y41350D01*
Y41438D01*
X390619D01*
X390671Y41490D01*
Y41717D01*
X390810D01*
Y42413D01*
X390949D01*
Y42552D01*
X391088D01*
X391088Y42134D01*
X390949D01*
Y41856D01*
X391037D01*
X391088Y41907D01*
Y41995D01*
X391176D01*
X391228Y42047D01*
Y42134D01*
X391316D01*
X391358Y42176D01*
X391358Y42176D01*
X391367Y42186D01*
Y42274D01*
X391455D01*
X391506Y42325D01*
Y42413D01*
X391594D01*
X391776Y42595D01*
X391776Y42595D01*
Y43157D01*
X391915Y43431D01*
Y43476D01*
X392309Y43604D01*
X393092Y43827D01*
X394146Y43710D01*
X394779Y43473D01*
X395401Y42787D01*
Y42734D01*
X395540Y42176D01*
X395958D01*
X396098Y42316D01*
X396377Y43013D01*
X396516Y43431D01*
X396516Y43431D01*
X396603Y43693D01*
X397291Y44509D01*
X397582Y44503D01*
X398426Y43416D01*
X398350Y43041D01*
X398231Y42895D01*
X398189Y42874D01*
X398146Y42831D01*
X398191D01*
Y42692D01*
X398052D01*
X398052Y42552D01*
X397914D01*
X397913Y42551D01*
Y42413D01*
X397794D01*
X397773Y42389D01*
Y42274D01*
X397675D01*
X397634Y42226D01*
Y42134D01*
X397556D01*
X397495Y42064D01*
Y41856D01*
X397356D01*
X397356Y41717D01*
X397216D01*
Y41577D01*
X397168D01*
X397146Y41488D01*
X397077Y41480D01*
Y41438D01*
X397074D01*
X397074Y41201D01*
X397013Y41020D01*
X397216D01*
Y41160D01*
X397634D01*
Y41299D01*
X397913D01*
Y41438D01*
X398330D01*
X398330Y41577D01*
X398609D01*
Y41717D01*
X399027D01*
Y41577D01*
X398748D01*
Y41438D01*
X398609Y41438D01*
X398470D01*
X398330Y41438D01*
Y41299D01*
X398052D01*
X398052Y41160D01*
X397773D01*
Y41020D01*
X397634D01*
Y40881D01*
X397495D01*
Y40742D01*
X397356D01*
Y40602D01*
X397077D01*
Y40463D01*
X396938D01*
Y40185D01*
X396799Y40185D01*
Y40045D01*
X396659D01*
Y39906D01*
X396536D01*
X396520Y39882D01*
Y39767D01*
X396443D01*
X396381Y39673D01*
Y39488D01*
X396241D01*
Y39349D01*
X396148D01*
X396102Y39258D01*
Y39210D01*
X396091D01*
X396037Y38885D01*
X395971Y38792D01*
X396241D01*
Y38931D01*
X396520D01*
Y39070D01*
X396659Y39071D01*
X396799D01*
Y39210D01*
X397077D01*
Y39349D01*
X397216D01*
Y39210D01*
X397356D01*
X397356Y39070D01*
X397077D01*
Y38931D01*
X396659D01*
Y38792D01*
X396381D01*
Y38653D01*
X396241D01*
Y38514D01*
X395963D01*
Y38374D01*
X395824D01*
Y38235D01*
X395684D01*
Y38096D01*
X395545D01*
Y37956D01*
X395406D01*
Y37817D01*
X395266D01*
Y37678D01*
X395129D01*
X395127Y37676D01*
Y37539D01*
X395024D01*
X394988Y37490D01*
Y37399D01*
X394920D01*
X394849Y37304D01*
Y37121D01*
X394709D01*
Y36981D01*
X394607D01*
X394570Y36933D01*
Y36703D01*
X394431D01*
Y36564D01*
X394319D01*
X394292Y36525D01*
Y36424D01*
X394220D01*
X394152Y36330D01*
Y36146D01*
X394146D01*
Y36042D01*
X394175Y36007D01*
X394709D01*
Y36146D01*
X395127D01*
Y36285D01*
X395545D01*
Y36424D01*
X395963D01*
Y36564D01*
X396241D01*
Y36703D01*
X396520D01*
Y36842D01*
X396938D01*
Y36703D01*
X396659D01*
Y36564D01*
X396381D01*
Y36424D01*
X396102D01*
Y36285D01*
X395824D01*
Y36146D01*
X395684D01*
Y36007D01*
X395545D01*
Y35867D01*
X395406D01*
Y35728D01*
X395266D01*
Y35589D01*
X395127D01*
Y35450D01*
X394988D01*
Y35171D01*
X394849D01*
Y35032D01*
X394709D01*
Y34753D01*
X394588D01*
X394570Y34727D01*
Y34614D01*
X394495D01*
X394431Y34518D01*
Y34335D01*
X394338D01*
X394292Y34242D01*
Y34057D01*
X394199D01*
X394152Y33964D01*
Y33778D01*
X394060D01*
X394013Y33685D01*
Y33500D01*
X393920D01*
X393874Y33407D01*
Y33221D01*
X393781D01*
X393735Y33128D01*
Y32943D01*
X393630D01*
X393595Y32883D01*
Y32664D01*
X393470D01*
X393456Y32639D01*
Y32386D01*
X393317Y32386D01*
Y32246D01*
X393232D01*
X393177Y32152D01*
Y31968D01*
X393068D01*
X393038Y31919D01*
Y31689D01*
X392901D01*
X392899Y31687D01*
Y31550D01*
X392817D01*
X392760Y31455D01*
Y31271D01*
X392667D01*
X392612Y31162D01*
X392546Y29920D01*
X392333Y29071D01*
D01*
X392306Y29006D01*
X391777Y27957D01*
X391776Y27956D01*
X391497Y27538D01*
X391221Y27055D01*
X390972Y26682D01*
X390965Y26676D01*
X391088Y26676D01*
Y26536D01*
X390949Y26536D01*
X390810D01*
Y26547D01*
X390797Y26536D01*
X390810D01*
Y26397D01*
X390671D01*
Y26258D01*
X390392D01*
Y26288D01*
X390386Y26285D01*
X390382Y26283D01*
X390346Y26258D01*
X390392D01*
Y26119D01*
X390253D01*
Y25979D01*
X389974D01*
Y25840D01*
X389717D01*
X389696Y25826D01*
Y25701D01*
X389557D01*
Y25561D01*
X389300D01*
X389278Y25547D01*
Y25422D01*
X389139D01*
Y25283D01*
X388882D01*
X388860Y25268D01*
Y25144D01*
X388721D01*
Y25004D01*
X388582D01*
Y24865D01*
X388303D01*
Y24726D01*
X388164D01*
Y24587D01*
X388024Y24587D01*
X387913Y24587D01*
X387885Y24564D01*
Y24447D01*
X387746D01*
Y24308D01*
X387607D01*
Y24169D01*
X387350D01*
X387328Y24154D01*
Y24029D01*
X387189Y24029D01*
Y23890D01*
X387152D01*
X387050Y23787D01*
Y23751D01*
X387885D01*
Y23890D01*
X388721D01*
Y24029D01*
X389139D01*
Y23890D01*
X388999D01*
Y23751D01*
X388442D01*
Y23612D01*
X387746D01*
Y23472D01*
X387328D01*
Y23333D01*
X386910D01*
Y23194D01*
X386493D01*
Y23054D01*
X386339D01*
Y22915D01*
X386353D01*
Y22776D01*
X386632D01*
Y22637D01*
X386910D01*
Y22497D01*
X387328D01*
Y22358D01*
X387467Y22358D01*
X387746D01*
Y22219D01*
X388303D01*
Y22080D01*
X388442D01*
X388582Y22080D01*
X388999D01*
Y21940D01*
X389557D01*
Y21801D01*
X388442D01*
Y21940D01*
X387607D01*
Y21801D01*
X386771D01*
Y21662D01*
X386353D01*
Y21523D01*
X386075D01*
Y21383D01*
X385741D01*
X385657Y21341D01*
Y21244D01*
X385518Y21244D01*
X385463D01*
X385378Y21202D01*
Y21105D01*
X385239Y21105D01*
X385223D01*
Y20985D01*
X385202Y20965D01*
X385239D01*
Y20826D01*
X386910D01*
Y20687D01*
X387189D01*
Y20548D01*
X385657D01*
Y20408D01*
X385378D01*
X385239Y20408D01*
X385100D01*
Y20269D01*
X384403D01*
Y20130D01*
X384052D01*
X383986Y20108D01*
Y19991D01*
X383707D01*
Y19851D01*
X383296D01*
X383289Y19849D01*
Y19712D01*
X382938D01*
X382872Y19690D01*
Y19573D01*
X382538D01*
X382454Y19530D01*
Y19433D01*
X382260D01*
X382175Y19391D01*
Y19294D01*
X381981D01*
X381897Y19252D01*
Y19155D01*
X381703D01*
X381618Y19113D01*
Y19016D01*
X381424D01*
X381339Y18973D01*
Y18876D01*
X381146D01*
X381061Y18834D01*
X381061Y18737D01*
X380867D01*
X380782Y18695D01*
Y18598D01*
X380583D01*
X380504Y18564D01*
Y18459D01*
X380258D01*
X380225Y18445D01*
Y18319D01*
X379947D01*
Y18180D01*
X379808Y18180D01*
X379668Y18180D01*
Y18041D01*
X379324D01*
X379250Y18013D01*
Y17902D01*
X378972D01*
Y17762D01*
X378582D01*
X378554Y17752D01*
Y17623D01*
X378235D01*
X378136Y17534D01*
Y17484D01*
X377858D01*
Y17344D01*
X377524D01*
X377440Y17302D01*
Y17205D01*
X377245D01*
X377161Y17163D01*
X377161Y17066D01*
X376993D01*
X376989Y17053D01*
X376883Y16926D01*
Y16787D01*
X377022D01*
X377161Y16787D01*
X377301Y16787D01*
Y16648D01*
X377858D01*
Y16509D01*
X378276D01*
Y16370D01*
X378833D01*
Y16230D01*
X379529D01*
Y16091D01*
X379947D01*
Y15952D01*
X379111D01*
Y16091D01*
X376744D01*
Y15952D01*
X376047D01*
X376047Y16091D01*
X376186D01*
Y16247D01*
X375324Y15826D01*
X375324Y15826D01*
X374899Y15666D01*
X374025Y15408D01*
X373651D01*
Y14293D01*
X373651D01*
X373791Y14153D01*
X373809Y14138D01*
X374446Y13607D01*
X374594Y13473D01*
X374598Y13332D01*
X374488Y12062D01*
X373481Y11427D01*
X373372Y11365D01*
X372675Y11365D01*
X372572Y11004D01*
X372302Y10473D01*
X371938Y10170D01*
X371421Y10040D01*
X371406Y10039D01*
X370377Y10214D01*
X370027Y10389D01*
X369329Y10389D01*
X368632Y10302D01*
X368198Y10356D01*
X367796Y10528D01*
X367517Y10919D01*
Y10947D01*
X367238Y11318D01*
X367238Y11365D01*
X366820Y12341D01*
X366175Y12341D01*
X366020D01*
Y12331D01*
X364637D01*
X363474Y12201D01*
X363055Y12201D01*
X362707Y12052D01*
X362817D01*
Y11913D01*
X363095D01*
Y11774D01*
X363513D01*
Y11634D01*
X363931D01*
Y11495D01*
X364349D01*
Y11356D01*
X363792D01*
Y11495D01*
X363234D01*
Y11634D01*
X362538D01*
Y11774D01*
X361702D01*
Y11913D01*
X360867D01*
Y12015D01*
X360503Y12052D01*
X360031D01*
X360031Y12125D01*
X359630Y12191D01*
X359196D01*
Y12289D01*
X359018Y12331D01*
X358639D01*
Y12420D01*
X358423Y12470D01*
X358082D01*
Y12567D01*
X357934Y12609D01*
X357664D01*
Y12678D01*
X357382Y12749D01*
X357246D01*
Y12794D01*
X356995Y12888D01*
X356828D01*
Y12950D01*
X356621Y13027D01*
X356410D01*
Y13106D01*
X356248Y13166D01*
X356132D01*
Y13177D01*
X355945D01*
X355853Y13125D01*
Y12888D01*
X355992D01*
Y12470D01*
X356132D01*
X356132Y12052D01*
X356271D01*
Y11634D01*
X356410D01*
Y11495D01*
X356549D01*
Y11217D01*
X356410D01*
Y11356D01*
X356271D01*
Y11495D01*
X356132D01*
Y11774D01*
X355992D01*
Y11913D01*
X355853D01*
Y12052D01*
X355714D01*
Y12191D01*
X355435D01*
Y12331D01*
X355296D01*
Y12470D01*
X355157D01*
Y12609D01*
X355018D01*
Y12749D01*
X354739D01*
Y12888D01*
X354600D01*
Y13027D01*
X354321D01*
Y13166D01*
X354182D01*
Y13246D01*
X354089Y13306D01*
X354043D01*
Y13335D01*
X353871Y13445D01*
X353764D01*
Y13520D01*
X353675Y13584D01*
X353625D01*
Y13620D01*
X353480Y13723D01*
X353346D01*
Y13819D01*
X353285Y13863D01*
X353207D01*
Y13918D01*
X353090Y14002D01*
X352929D01*
Y14117D01*
X352921Y14123D01*
X352895Y14141D01*
X352789Y14141D01*
Y14217D01*
X352700Y14281D01*
X352650D01*
Y14316D01*
X352505Y14420D01*
X352371D01*
Y14515D01*
X352310Y14559D01*
X352232D01*
Y14615D01*
X352115Y14698D01*
X351954D01*
Y14813D01*
X351920Y14838D01*
X351814D01*
Y14880D01*
X351762Y14897D01*
X351499Y15116D01*
X351396D01*
Y15164D01*
X351209Y15239D01*
X351205Y15269D01*
X351091Y15307D01*
X351065Y15408D01*
X350787D01*
X350700Y15445D01*
Y15255D01*
X350839D01*
Y14977D01*
X350979D01*
X350979Y14698D01*
X351118D01*
Y14420D01*
X351257D01*
Y14141D01*
X351118Y14141D01*
Y14281D01*
X350979D01*
Y14559D01*
X350839D01*
Y14698D01*
X350700D01*
Y14977D01*
X350561D01*
X350561Y15116D01*
X350422D01*
X350422Y15255D01*
X350282D01*
Y15395D01*
X350143D01*
Y15673D01*
X350004D01*
Y15744D01*
X349811Y15826D01*
X349727Y15952D01*
X349725D01*
Y15955D01*
X349634Y16091D01*
X349586D01*
Y16163D01*
X349541Y16230D01*
X349447D01*
Y16358D01*
X349334Y16509D01*
X349308D01*
Y16544D01*
X349229Y16648D01*
X349168D01*
Y16729D01*
X349125Y16787D01*
X349029Y16787D01*
Y16908D01*
X348928Y17034D01*
X348905Y17066D01*
X348890D01*
Y17088D01*
X348806Y17205D01*
X348750D01*
Y17283D01*
X348706Y17344D01*
X348611D01*
Y17478D01*
X348507Y17623D01*
X348472D01*
Y17673D01*
X348408Y17762D01*
X348333D01*
Y17868D01*
X348209Y18041D01*
X348193D01*
Y18063D01*
X348110Y18180D01*
X348054D01*
Y18258D01*
X348010Y18319D01*
X347915D01*
Y18419D01*
X347719Y18615D01*
X347497D01*
Y18041D01*
X347636Y18041D01*
Y17484D01*
X347775D01*
Y17066D01*
X347915D01*
Y16648D01*
X347775D01*
Y16927D01*
X347636D01*
Y17205D01*
X347497D01*
Y17484D01*
X347358D01*
Y17762D01*
X347218D01*
Y17902D01*
X347079D01*
Y18180D01*
X346940Y18180D01*
Y18319D01*
X346801D01*
Y18598D01*
X346661D01*
Y18737D01*
X346522D01*
Y18935D01*
X346456Y19016D01*
X346383Y19016D01*
Y19107D01*
X346344Y19155D01*
X346244D01*
Y19280D01*
X346232Y19294D01*
X346104D01*
Y19452D01*
X346007Y19573D01*
X345965D01*
Y19625D01*
X345895Y19712D01*
X345826D01*
Y19797D01*
X345782Y19851D01*
X345686Y19851D01*
Y19978D01*
X345572Y20130D01*
X345547D01*
Y20163D01*
X345468Y20269D01*
X345408D01*
Y20349D01*
X345363Y20408D01*
X345269Y20408D01*
Y20537D01*
X345158Y20687D01*
X345129D01*
Y20727D01*
X345056Y20826D01*
X344990D01*
Y20916D01*
X344954Y20965D01*
X344851Y20965D01*
X344851Y21106D01*
X344749Y21244D01*
X344712D01*
Y21295D01*
X344647Y21383D01*
X344572D01*
Y21487D01*
X344447Y21662D01*
X344433D01*
Y21682D01*
X344348Y21801D01*
X344294D01*
Y21877D01*
X344234Y21961D01*
X344155Y22080D01*
X344155D01*
Y22080D01*
X344062Y22219D01*
X344015D01*
Y22289D01*
X343876Y22497D01*
X343876D01*
Y22498D01*
X343783Y22637D01*
X343737D01*
Y22707D01*
X343676Y22797D01*
X343666Y22806D01*
X343537Y23000D01*
Y23076D01*
X343544Y23194D01*
X343458D01*
Y23472D01*
X343319D01*
Y23751D01*
X343180D01*
Y23890D01*
X343458D01*
Y23612D01*
X343570D01*
X343575Y23687D01*
X343811Y24314D01*
X359247D01*
X360005Y24000D01*
X361995D01*
X362753Y24314D01*
X363000D01*
X364989Y24576D01*
X366843Y25344D01*
X368435Y26565D01*
X369656Y28157D01*
X369959Y28888D01*
X370239Y29168D01*
X371000Y31005D01*
Y32995D01*
X370239Y34832D01*
X369959Y35113D01*
X369656Y35843D01*
X368435Y37435D01*
X366843Y38656D01*
X364989Y39424D01*
X363000Y39686D01*
X362753D01*
X361995Y40000D01*
X360005D01*
X359247Y39686D01*
X338042D01*
X337960Y40922D01*
Y45662D01*
X338100D01*
Y46917D01*
X338239Y47056D01*
X338239D01*
X338378Y48032D01*
X338378Y48268D01*
Y48680D01*
X338305D01*
Y48541D01*
X338166D01*
Y48819D01*
X338378D01*
Y49287D01*
X338518Y49705D01*
X338657Y50263D01*
Y50305D01*
X338936Y51518D01*
X339215Y52494D01*
X339354Y52912D01*
X339354Y53706D01*
Y54585D01*
X339383Y54813D01*
X339610Y55873D01*
X339806Y56394D01*
Y56511D01*
X339850D01*
X339912Y56676D01*
D01*
X339945Y56754D01*
Y56790D01*
X339961D01*
X340084Y57078D01*
Y57207D01*
X340140D01*
X340224Y57403D01*
Y57485D01*
X340259D01*
X340330Y57652D01*
X340363Y57717D01*
X340363Y58042D01*
X340470D01*
X340470Y58289D01*
X340502Y58303D01*
Y58459D01*
X340625D01*
X340641Y58572D01*
Y58598D01*
X340645D01*
X340682Y58859D01*
X340748Y58907D01*
X340748Y59325D01*
X340667Y59433D01*
X340641D01*
Y59294D01*
X340502D01*
Y59155D01*
X340224D01*
Y59712D01*
X340363D01*
Y59840D01*
X340354Y59851D01*
X340084D01*
Y59712D01*
X339945Y59712D01*
Y59573D01*
X339806D01*
Y59433D01*
X339667D01*
Y59294D01*
X339389D01*
Y59155D01*
X339249D01*
Y59016D01*
X339110D01*
Y58877D01*
X338832D01*
Y58738D01*
X338693D01*
Y58598D01*
X338554D01*
Y58459D01*
X338414D01*
Y58320D01*
X338275D01*
Y58181D01*
X338136D01*
Y58042D01*
X337997D01*
Y57903D01*
X337858D01*
Y57764D01*
X337719D01*
Y57625D01*
X337580D01*
Y57485D01*
X337301D01*
Y57723D01*
X337023Y57518D01*
Y57485D01*
X336884D01*
Y57346D01*
X336745D01*
Y57207D01*
X336605D01*
Y56929D01*
X336466D01*
Y56790D01*
X336327D01*
Y56650D01*
X336188D01*
Y56511D01*
X336049D01*
Y56233D01*
X335910D01*
Y56094D01*
X335771D01*
Y55955D01*
X335492D01*
Y56511D01*
X335631D01*
Y57346D01*
X335771D01*
Y58181D01*
X335910D01*
Y58258D01*
X335869Y58296D01*
X335869Y58297D01*
X335869Y58489D01*
X335771D01*
Y58320D01*
X335631D01*
Y58181D01*
X335492D01*
Y57903D01*
X335353D01*
Y57625D01*
X335214D01*
Y57485D01*
X335075D01*
Y57207D01*
X334936D01*
Y56929D01*
X334796D01*
Y56650D01*
X334657D01*
Y56372D01*
X334518D01*
Y56094D01*
X334325D01*
X334307Y56054D01*
X333777Y55003D01*
X333777D01*
X333741Y53748D01*
X333638D01*
Y52494D01*
X333499D01*
Y51099D01*
X333359D01*
Y49426D01*
X333220Y49287D01*
X333220D01*
Y41340D01*
X333359D01*
Y39686D01*
X311726D01*
X310553Y40000D01*
X308447D01*
X306412Y39455D01*
X304588Y38402D01*
X303098Y36912D01*
X302045Y35088D01*
X301500Y33053D01*
Y30947D01*
X301814Y29774D01*
Y25806D01*
X295237Y19229D01*
X293833Y18853D01*
X291667Y17602D01*
X289898Y15833D01*
X288647Y13667D01*
X288000Y11251D01*
Y8749D01*
X288647Y6333D01*
X289898Y4167D01*
X290768Y3297D01*
X290242Y2027D01*
X171398Y2018D01*
X170500Y2916D01*
Y13000D01*
X170995D01*
X171980Y13408D01*
X173250Y12560D01*
Y11250D01*
X202750D01*
Y32750D01*
X195598D01*
X194995Y33000D01*
X193005D01*
X192402Y32750D01*
X189598D01*
X188995Y33000D01*
X187005D01*
X186402Y32750D01*
X183598D01*
X182995Y33000D01*
X181005D01*
X180402Y32750D01*
X177598D01*
X176995Y33000D01*
X175005D01*
X174402Y32750D01*
X173250D01*
Y32273D01*
X173168Y32239D01*
X171770Y30841D01*
X171718Y30842D01*
X170500Y31106D01*
Y42900D01*
X290650D01*
Y61900D01*
X167013D01*
X164492Y64421D01*
X165239Y65168D01*
X166000Y67005D01*
Y68995D01*
X165672Y69788D01*
X166520Y71058D01*
X233000D01*
X233743Y71206D01*
X234373Y71627D01*
X265116Y102369D01*
X266005Y102000D01*
X267995D01*
X269832Y102761D01*
X271239Y104168D01*
X272000Y106005D01*
Y107995D01*
X271239Y109832D01*
X269832Y111239D01*
X269089Y111546D01*
X268916Y111808D01*
X268683Y113090D01*
X268794Y113257D01*
X268942Y114000D01*
Y129480D01*
X270212Y130329D01*
X270730Y130114D01*
Y135000D01*
X272000D01*
Y136270D01*
X276886D01*
X276695Y136730D01*
X276995Y138000D01*
X278832Y138761D01*
X280239Y140168D01*
X281000Y142005D01*
Y143995D01*
X280239Y145832D01*
X278832Y147239D01*
X276995Y148000D01*
X275005D01*
X274116Y147631D01*
X271920Y149827D01*
X272382Y151161D01*
X273832Y151761D01*
X275239Y153168D01*
X276000Y155005D01*
Y156995D01*
X275239Y158832D01*
X273832Y160239D01*
X271995Y161000D01*
X270005D01*
X269116Y160631D01*
X240409Y189338D01*
X241239Y190168D01*
X242000Y192005D01*
Y193995D01*
X241239Y195832D01*
X239832Y197239D01*
X237995Y198000D01*
X236005D01*
X234168Y197239D01*
X232761Y195832D01*
X232000Y193995D01*
Y192005D01*
X232761Y190168D01*
X234168Y188761D01*
X236005Y188000D01*
X236253D01*
X265690Y158563D01*
X265557Y157986D01*
X264162Y157585D01*
X242913Y178833D01*
X242283Y179254D01*
X241540Y179402D01*
X201808D01*
X201322Y180576D01*
X215373Y194627D01*
X215795Y195257D01*
X215811Y195338D01*
X216832Y195761D01*
X218239Y197168D01*
X219000Y199005D01*
Y200995D01*
X218239Y202832D01*
X217283Y203788D01*
X217810Y205058D01*
X263195D01*
X272369Y195884D01*
X272000Y194995D01*
Y193005D01*
X272761Y191168D01*
X274168Y189761D01*
X276005Y189000D01*
X277995D01*
X279832Y189761D01*
X281239Y191168D01*
X282000Y193005D01*
Y194995D01*
X281239Y196832D01*
X279832Y198239D01*
X277995Y199000D01*
X276005D01*
X275116Y198631D01*
X265373Y208373D01*
X264743Y208794D01*
X264000Y208942D01*
X204937D01*
X204937Y208942D01*
X204193Y208794D01*
X203563Y208373D01*
X203547Y208357D01*
X201995Y209000D01*
X200005D01*
X198168Y208239D01*
X196761Y206832D01*
X196000Y204995D01*
Y203005D01*
X196761Y201168D01*
X198168Y199761D01*
X200005Y199000D01*
X201995D01*
X203832Y199761D01*
X205239Y201168D01*
X206000Y203005D01*
Y204995D01*
X206042Y205058D01*
X210191D01*
X210717Y203788D01*
X209761Y202832D01*
X209000Y200995D01*
Y199005D01*
X209761Y197168D01*
X211091Y195838D01*
X210045Y194791D01*
X208547Y195089D01*
X208239Y195832D01*
X206832Y197239D01*
X204995Y198000D01*
X203005D01*
X201168Y197239D01*
X199761Y195832D01*
X199000Y193995D01*
Y192005D01*
X199662Y190408D01*
X193736Y184482D01*
X187857D01*
X185503Y186836D01*
X185801Y188334D01*
X186832Y188761D01*
X188239Y190168D01*
X189000Y192005D01*
Y193995D01*
X188239Y195832D01*
X186832Y197239D01*
X185942Y197607D01*
Y211000D01*
X185794Y211743D01*
X185373Y212373D01*
X185373Y212374D01*
X155920Y241827D01*
X156406Y243000D01*
X305386D01*
X306171Y241822D01*
X306160Y241730D01*
X305627Y241373D01*
X305627Y241373D01*
X293627Y229373D01*
X293206Y228743D01*
X293058Y228000D01*
Y183000D01*
X293206Y182257D01*
X293627Y181627D01*
X297626Y177627D01*
X297627Y177627D01*
X298257Y177206D01*
X299000Y177058D01*
X305000D01*
Y172700D01*
Y160000D01*
Y147300D01*
Y134600D01*
Y121900D01*
Y109200D01*
Y95406D01*
X303827Y94920D01*
X287631Y111116D01*
X288000Y112005D01*
Y113995D01*
X287239Y115832D01*
X285832Y117239D01*
X283995Y118000D01*
X282005D01*
X280168Y117239D01*
X278761Y115832D01*
X278000Y113995D01*
Y112005D01*
X278761Y110168D01*
X280168Y108761D01*
X282005Y108000D01*
X283995D01*
X284884Y108369D01*
X304327Y88927D01*
X304957Y88505D01*
X305000Y88497D01*
Y83800D01*
Y71100D01*
Y58400D01*
X324000D01*
Y68653D01*
X350373Y95027D01*
X350794Y95657D01*
X350942Y96400D01*
Y129000D01*
X350794Y129743D01*
X350373Y130373D01*
X345960Y134787D01*
X346853Y136333D01*
X347500Y138749D01*
Y141251D01*
X346853Y143667D01*
X345602Y145833D01*
X343833Y147602D01*
X341667Y148853D01*
X339251Y149500D01*
X336749D01*
X334333Y148853D01*
X332167Y147602D01*
X330398Y145833D01*
X329147Y143667D01*
X328500Y141251D01*
Y138749D01*
X329147Y136333D01*
X330398Y134167D01*
X332167Y132398D01*
X334333Y131147D01*
X336749Y130500D01*
X339251D01*
X341667Y131147D01*
X343213Y132040D01*
X347058Y128195D01*
Y124100D01*
X328500D01*
Y105100D01*
X347058D01*
Y97205D01*
X325173Y75320D01*
X324000Y75806D01*
Y81353D01*
X328373Y85726D01*
X328373Y85727D01*
X328795Y86357D01*
X328942Y87100D01*
Y92393D01*
X329832Y92761D01*
X331239Y94168D01*
X332000Y96005D01*
Y97995D01*
X331239Y99832D01*
X329832Y101239D01*
X327995Y102000D01*
X326005D01*
X325270Y101695D01*
X324000Y102544D01*
Y109200D01*
Y121900D01*
Y134600D01*
Y147300D01*
Y160000D01*
Y167456D01*
X325270Y168305D01*
X326005Y168000D01*
X327995D01*
X329832Y168761D01*
X331239Y170168D01*
X331607Y171058D01*
X381500D01*
X382243Y171206D01*
X382873Y171627D01*
X398366Y187119D01*
X399255Y186750D01*
X401245D01*
X403082Y187511D01*
X404489Y188918D01*
X405250Y190755D01*
Y192745D01*
X404489Y194582D01*
X403082Y195989D01*
X401986Y196443D01*
X401623Y197877D01*
X402044Y198507D01*
X402192Y199250D01*
Y211393D01*
X403082Y211761D01*
X404489Y213168D01*
X405250Y215005D01*
Y216995D01*
X404921Y217789D01*
X405997Y218509D01*
X409000Y215506D01*
Y215005D01*
X409761Y213168D01*
X410115Y212814D01*
Y170186D01*
X409761Y169832D01*
X409000Y167995D01*
Y166005D01*
X409761Y164168D01*
X411168Y162761D01*
X413005Y162000D01*
X414995D01*
X416832Y162761D01*
X418239Y164168D01*
X419000Y166005D01*
Y167995D01*
X418239Y169832D01*
X417885Y170186D01*
Y212814D01*
X418239Y213168D01*
X419000Y215005D01*
Y216995D01*
X418239Y218832D01*
X416832Y220239D01*
X414995Y221000D01*
X414494D01*
X391147Y244347D01*
X389887Y245189D01*
X388400Y245485D01*
X347500D01*
Y251100D01*
X328942D01*
Y255196D01*
X332787Y259040D01*
X334333Y258147D01*
X336749Y257500D01*
X339251D01*
X341667Y258147D01*
X343833Y259398D01*
X345602Y261167D01*
X346853Y263333D01*
X347500Y265749D01*
Y268251D01*
X346853Y270667D01*
X345602Y272833D01*
X343833Y274602D01*
X341667Y275853D01*
X339251Y276500D01*
X336749D01*
X334333Y275853D01*
X332167Y274602D01*
X330398Y272833D01*
X329147Y270667D01*
X328500Y268251D01*
Y265749D01*
X329147Y263333D01*
X330040Y261787D01*
X326212Y257959D01*
X324942Y258485D01*
Y276595D01*
X332787Y284440D01*
X334333Y283547D01*
X336749Y282900D01*
X339251D01*
X341667Y283547D01*
X343833Y284798D01*
X345602Y286567D01*
X346853Y288733D01*
X347500Y291149D01*
Y293651D01*
X346853Y296067D01*
X345602Y298233D01*
X343833Y300002D01*
X341667Y301253D01*
X339936Y301716D01*
X340103Y302987D01*
X439000Y302994D01*
X440280D01*
X442790Y302495D01*
D02*
G37*
G36*
X14954Y302961D02*
X14977Y302966D01*
X15000Y302961D01*
X136102Y302970D01*
X137000Y302072D01*
Y256942D01*
X92000D01*
X92000Y256942D01*
X91257Y256794D01*
X90627Y256373D01*
X84885Y250631D01*
X83995Y251000D01*
X82005D01*
X80168Y250239D01*
X78761Y248832D01*
X78000Y246995D01*
Y245005D01*
X78328Y244212D01*
X77480Y242942D01*
X44607D01*
X44239Y243832D01*
X42832Y245239D01*
X41942Y245607D01*
Y275393D01*
X42832Y275761D01*
X44239Y277168D01*
X45000Y279005D01*
Y280995D01*
X44239Y282832D01*
X42832Y284239D01*
X40995Y285000D01*
X39005D01*
X37168Y284239D01*
X35761Y282832D01*
X35000Y280995D01*
Y279005D01*
X35761Y277168D01*
X37168Y275761D01*
X38058Y275393D01*
Y245607D01*
X37168Y245239D01*
X35761Y243832D01*
X35000Y241995D01*
Y240005D01*
X35761Y238168D01*
X37168Y236761D01*
X39005Y236000D01*
X40995D01*
X42832Y236761D01*
X44239Y238168D01*
X44607Y239058D01*
X65152D01*
X65637Y237884D01*
X47695Y219942D01*
X44607D01*
X44239Y220832D01*
X42832Y222239D01*
X40995Y223000D01*
X39005D01*
X37168Y222239D01*
X35761Y220832D01*
X35000Y218995D01*
Y217005D01*
X35761Y215168D01*
X37168Y213761D01*
X38058Y213393D01*
Y195607D01*
X37168Y195239D01*
X35761Y193832D01*
X35000Y191995D01*
Y190005D01*
X35761Y188168D01*
X37168Y186761D01*
X39005Y186000D01*
X40995D01*
X42832Y186761D01*
X44239Y188168D01*
X45000Y190005D01*
Y191995D01*
X44239Y193832D01*
X42832Y195239D01*
X41942Y195607D01*
Y213393D01*
X42832Y213761D01*
X44239Y215168D01*
X44607Y216058D01*
X48500D01*
X49243Y216206D01*
X49873Y216627D01*
X69304Y236058D01*
X74464D01*
X74895Y234788D01*
X74471Y234463D01*
X73453Y233136D01*
X72813Y231591D01*
X72595Y229934D01*
Y229431D01*
X72000Y227995D01*
Y226005D01*
X72595Y224569D01*
Y207432D01*
X72000Y205995D01*
Y204005D01*
X72595Y202568D01*
Y202000D01*
X72813Y200342D01*
X73453Y198798D01*
X74471Y197471D01*
X76471Y195471D01*
X76808Y195212D01*
X76377Y193942D01*
X63000D01*
X62257Y193794D01*
X61627Y193373D01*
X41884Y173631D01*
X40995Y174000D01*
X39005D01*
X37168Y173239D01*
X35761Y171832D01*
X35000Y169995D01*
Y168005D01*
X35761Y166168D01*
X37168Y164761D01*
X39005Y164000D01*
X40995D01*
X42832Y164761D01*
X44239Y166168D01*
X45000Y168005D01*
Y169995D01*
X44631Y170884D01*
X63804Y190058D01*
X98393D01*
X98761Y189168D01*
X100168Y187761D01*
X102005Y187000D01*
X103995D01*
X105832Y187761D01*
X107239Y189168D01*
X108000Y191005D01*
Y192995D01*
X107239Y194832D01*
X105832Y196239D01*
X103995Y197000D01*
X102005D01*
X101116Y196631D01*
X96942Y200805D01*
Y234603D01*
X105397Y243058D01*
X109500D01*
Y233376D01*
X109168Y233239D01*
X107761Y231832D01*
X107000Y229995D01*
Y228005D01*
X107761Y226168D01*
X109168Y224761D01*
X109500Y224624D01*
Y218020D01*
X119000D01*
Y215480D01*
X109500D01*
Y207500D01*
X112250D01*
Y201520D01*
X119000D01*
Y198980D01*
X112250D01*
Y194270D01*
X112250Y193000D01*
X112250D01*
Y193000D01*
X112250D01*
Y183994D01*
X111756Y183500D01*
X111255D01*
X109418Y182739D01*
X108011Y181332D01*
X107250Y179494D01*
Y177505D01*
X108011Y175668D01*
X109418Y174261D01*
X111255Y173500D01*
X112250D01*
Y165000D01*
X112250D01*
X112250Y165000D01*
X112250Y163730D01*
Y150500D01*
X121173D01*
Y135500D01*
X117270D01*
Y128750D01*
X116000D01*
D01*
X117270D01*
Y122000D01*
X119718D01*
X120224Y120840D01*
X119554Y120000D01*
X109500D01*
Y106500D01*
X114058D01*
Y99315D01*
X112333Y98853D01*
X110167Y97602D01*
X108398Y95833D01*
X107147Y93667D01*
X106500Y91251D01*
Y88749D01*
X107147Y86333D01*
X108398Y84167D01*
X110167Y82398D01*
X111212Y81795D01*
X111649Y80104D01*
X111553Y79942D01*
X108000D01*
X107257Y79795D01*
X106627Y79373D01*
X81195Y53942D01*
X61607D01*
X61239Y54832D01*
X59832Y56239D01*
X57994Y57000D01*
X56005D01*
X54168Y56239D01*
X52761Y54832D01*
X52000Y52995D01*
Y51005D01*
X52761Y49168D01*
X54168Y47761D01*
X56005Y47000D01*
X57994D01*
X59000Y46328D01*
Y46005D01*
X59761Y44168D01*
X61168Y42761D01*
X63005Y42000D01*
X64995D01*
X66832Y42761D01*
X68239Y44168D01*
X68607Y45058D01*
X84651D01*
X85138Y43884D01*
X78885Y37631D01*
X77995Y38000D01*
X76005D01*
X74168Y37239D01*
X72761Y35832D01*
X72000Y33995D01*
Y32005D01*
X72524Y30741D01*
X71552Y29769D01*
X71270Y29886D01*
Y26270D01*
X74886D01*
X74476Y27259D01*
X75448Y28231D01*
X76005Y28000D01*
X77042D01*
X77999Y26995D01*
X78000Y26827D01*
Y25005D01*
X78761Y23168D01*
X80168Y21761D01*
X82005Y21000D01*
X83995D01*
X85562Y21649D01*
X85761Y21168D01*
X87168Y19761D01*
X88730Y19114D01*
Y24000D01*
X90000D01*
Y25270D01*
X94886D01*
X94239Y26832D01*
X92832Y28239D01*
X90995Y29000D01*
X90543D01*
X90017Y30270D01*
X100327Y40580D01*
X101500Y40094D01*
Y25810D01*
X116500D01*
X131500D01*
Y43058D01*
X140500D01*
Y2016D01*
X132398Y2015D01*
X131500Y2913D01*
Y18190D01*
X116500D01*
X101500D01*
Y2013D01*
X15000Y2006D01*
X13720D01*
X11210Y2505D01*
X8845Y3485D01*
X6717Y4907D01*
X4907Y6717D01*
X3485Y8845D01*
X2505Y11210D01*
X2010Y13698D01*
X2039Y14954D01*
X2034Y14977D01*
X2039Y15000D01*
X2032Y70149D01*
X3302Y70743D01*
X5140Y69682D01*
X7683Y69000D01*
X10316D01*
X12860Y69682D01*
X15140Y70998D01*
X17002Y72860D01*
X18319Y75140D01*
X19000Y77684D01*
Y80316D01*
X18319Y82860D01*
X17002Y85140D01*
X15140Y87002D01*
X12860Y88319D01*
X10316Y89000D01*
X7683D01*
X5140Y88319D01*
X3300Y87256D01*
X2030Y87848D01*
X2026Y120157D01*
X3296Y120746D01*
X5140Y119682D01*
X7683Y119000D01*
X10316D01*
X12860Y119682D01*
X15140Y120998D01*
X17002Y122860D01*
X18319Y125140D01*
X19000Y127683D01*
Y130316D01*
X18319Y132860D01*
X17002Y135140D01*
X15140Y137002D01*
X12860Y138319D01*
X10316Y139000D01*
X7683D01*
X5140Y138319D01*
X3294Y137253D01*
X2024Y137840D01*
X2020Y170165D01*
X3290Y170750D01*
X5140Y169681D01*
X7683Y169000D01*
X10316D01*
X12860Y169681D01*
X15140Y170998D01*
X17002Y172860D01*
X18319Y175140D01*
X19000Y177684D01*
Y180317D01*
X18319Y182860D01*
X17002Y185140D01*
X15140Y187002D01*
X12860Y188319D01*
X10316Y189000D01*
X7683D01*
X5140Y188319D01*
X3288Y187249D01*
X2018Y187832D01*
X2014Y220173D01*
X3284Y220753D01*
X5140Y219681D01*
X7683Y219000D01*
X10316D01*
X12860Y219681D01*
X15140Y220998D01*
X17002Y222860D01*
X18319Y225140D01*
X19000Y227684D01*
Y230317D01*
X18319Y232860D01*
X17002Y235140D01*
X15140Y237002D01*
X12860Y238319D01*
X10316Y239000D01*
X7683D01*
X5140Y238319D01*
X3282Y237246D01*
X2012Y237824D01*
X2008Y270181D01*
X3278Y270757D01*
X5140Y269681D01*
X7683Y269000D01*
X10316D01*
X12860Y269681D01*
X15140Y270998D01*
X17002Y272860D01*
X18319Y275140D01*
X19000Y277684D01*
Y280317D01*
X18319Y282860D01*
X17002Y285140D01*
X15140Y287002D01*
X12860Y288319D01*
X10316Y289000D01*
X7683D01*
X5140Y288319D01*
X3276Y287242D01*
X2006Y287817D01*
X2006Y290000D01*
Y291280D01*
X2505Y293790D01*
X3485Y296155D01*
X4907Y298283D01*
X6717Y300093D01*
X8845Y301515D01*
X11210Y302495D01*
X13697Y302990D01*
X14954Y302961D01*
D02*
G37*
G36*
X152005Y222000D02*
X153995D01*
X154885Y222369D01*
X171978Y205275D01*
Y188488D01*
X172125Y187745D01*
X172547Y187115D01*
X181625Y178036D01*
X181139Y176862D01*
X173487D01*
X172638Y178132D01*
X173000Y179005D01*
Y180995D01*
X172239Y182832D01*
X170832Y184239D01*
X168995Y185000D01*
X167005D01*
X165168Y184239D01*
X163871Y182942D01*
X157607D01*
X157239Y183832D01*
X155832Y185239D01*
X155296Y185461D01*
X155048Y186707D01*
X155509Y187168D01*
X156270Y189005D01*
Y190995D01*
X155509Y192832D01*
X154102Y194239D01*
X153212Y194607D01*
Y198393D01*
X154102Y198761D01*
X155509Y200168D01*
X156270Y202005D01*
Y203995D01*
X155509Y205832D01*
X154102Y207239D01*
X152265Y208000D01*
X150275D01*
X150056Y207909D01*
X149000Y208615D01*
Y210260D01*
X149540D01*
Y214760D01*
X139500D01*
Y219840D01*
X149540D01*
Y221730D01*
X150810Y222495D01*
X152005Y222000D01*
D02*
G37*
G36*
X430813Y126386D02*
X430395D01*
Y127083D01*
X430813D01*
Y126386D01*
D02*
G37*
G36*
X424931Y119290D02*
X425070D01*
X425210Y119290D01*
X425767D01*
X425906Y119290D01*
Y119151D01*
X426602D01*
Y119011D01*
X427299D01*
X427299Y118872D01*
X428134D01*
Y118594D01*
X427995Y118594D01*
Y118315D01*
X426881D01*
Y118454D01*
X426741Y118454D01*
X426602Y118454D01*
X426463Y118454D01*
X426185D01*
Y117619D01*
X426045Y117619D01*
Y116505D01*
X425906D01*
Y115669D01*
X425767D01*
Y114973D01*
X425627D01*
Y114137D01*
X425488D01*
Y113301D01*
X425349D01*
Y112187D01*
X425210D01*
Y111352D01*
X425488D01*
Y111212D01*
X426741D01*
Y110795D01*
X426602D01*
Y110377D01*
X426185D01*
Y110516D01*
X424792D01*
Y110655D01*
X424513D01*
Y110934D01*
X424374Y110934D01*
Y111491D01*
X424513D01*
Y112605D01*
X424652D01*
Y113441D01*
X424792D01*
Y113998D01*
X424931D01*
Y114555D01*
X425070D01*
Y115251D01*
X425210D01*
X425210Y115948D01*
X425349D01*
Y118594D01*
X425210D01*
X425070Y118594D01*
X424792D01*
Y118733D01*
X424652D01*
Y119011D01*
X424931D01*
Y119151D01*
X424792D01*
Y119429D01*
X424931D01*
Y119290D01*
D02*
G37*
G36*
X395963Y95475D02*
Y95336D01*
X395824D01*
Y95475D01*
X395963Y95475D01*
D02*
G37*
G36*
X397495Y89765D02*
X397356D01*
Y89904D01*
X397495D01*
Y89765D01*
D02*
G37*
G36*
X397356Y89486D02*
X397216D01*
Y89765D01*
X397356D01*
Y89486D01*
D02*
G37*
G36*
X398052Y87258D02*
X397913D01*
Y87397D01*
X398052D01*
Y87258D01*
D02*
G37*
G36*
X398609Y85447D02*
X398470D01*
Y85587D01*
X398609D01*
Y85447D01*
D02*
G37*
G36*
X399166Y81269D02*
X399027D01*
Y81409D01*
X399166D01*
Y81269D01*
D02*
G37*
G36*
X399027Y80991D02*
X398888D01*
Y81269D01*
X399027D01*
Y80991D01*
D02*
G37*
G36*
X400141Y78484D02*
X400002D01*
Y78623D01*
X400141D01*
Y78484D01*
D02*
G37*
G36*
X398888Y78345D02*
X398748D01*
Y78484D01*
X398888D01*
Y78345D01*
D02*
G37*
G36*
X400280Y76673D02*
X400141D01*
X400141Y76534D01*
X399862D01*
Y76673D01*
X400141D01*
Y76813D01*
X400280D01*
Y76673D01*
D02*
G37*
G36*
X400559Y73331D02*
X400420D01*
Y73470D01*
X400559D01*
Y73331D01*
D02*
G37*
G36*
X388999Y56062D02*
X388860D01*
Y56201D01*
X388999D01*
Y56062D01*
D02*
G37*
G36*
X397773Y39349D02*
X397634D01*
Y39488D01*
X397773D01*
Y39349D01*
D02*
G37*
G36*
X397634Y39210D02*
X397495D01*
Y39349D01*
X397634D01*
Y39210D01*
D02*
G37*
G36*
X397077Y36842D02*
X396938D01*
Y36981D01*
X397077D01*
Y36842D01*
D02*
G37*
G36*
X394709Y30993D02*
X394570Y30993D01*
Y30854D01*
X394292D01*
Y30714D01*
X394152D01*
Y30575D01*
X394013D01*
Y30436D01*
X393735D01*
Y30297D01*
X393595D01*
Y30157D01*
X393456D01*
X393456Y30018D01*
X393177D01*
Y29879D01*
X393038D01*
Y29739D01*
X392899D01*
Y29600D01*
X392760D01*
Y29461D01*
X392620D01*
Y29879D01*
X392760D01*
Y30157D01*
X393038D01*
Y30297D01*
X393317D01*
Y30436D01*
X393595D01*
Y30575D01*
X393735D01*
Y30714D01*
X394013D01*
Y30854D01*
X394152Y30854D01*
X394292Y30854D01*
Y30993D01*
X394570D01*
Y31132D01*
X394709D01*
Y30993D01*
D02*
G37*
G36*
X392342Y27233D02*
X392203D01*
Y27093D01*
X391924D01*
Y26954D01*
X391646D01*
Y26815D01*
X391506D01*
X391367Y26815D01*
Y26676D01*
X391088D01*
Y26815D01*
X391228D01*
Y26954D01*
X391506D01*
Y27093D01*
X391785D01*
Y27233D01*
X391924Y27233D01*
X392063D01*
Y27372D01*
X392342D01*
Y27233D01*
D02*
G37*
G36*
X343458Y21940D02*
X343319D01*
Y22080D01*
X343180D01*
Y22219D01*
X343458D01*
Y21940D01*
D02*
G37*
G36*
X343597Y21523D02*
X343458D01*
Y21662D01*
X343319D01*
Y21801D01*
X343597D01*
Y21523D01*
D02*
G37*
G36*
X348193Y15952D02*
X348054D01*
Y16230D01*
X347915D01*
Y16370D01*
X348193D01*
Y15952D01*
D02*
G37*
%LPC*%
G36*
X264770Y196386D02*
Y192770D01*
X268386D01*
X267739Y194332D01*
X266332Y195739D01*
X264770Y196386D01*
D02*
G37*
G36*
X262230D02*
X260668Y195739D01*
X259261Y194332D01*
X258614Y192770D01*
X262230D01*
Y196386D01*
D02*
G37*
G36*
X268386Y190230D02*
X264770D01*
Y186614D01*
X266332Y187261D01*
X267739Y188668D01*
X268386Y190230D01*
D02*
G37*
G36*
X262230D02*
X258614D01*
X259261Y188668D01*
X260668Y187261D01*
X262230Y186614D01*
Y190230D01*
D02*
G37*
G36*
X290770Y179386D02*
Y175770D01*
X294386D01*
X293739Y177332D01*
X292332Y178739D01*
X290770Y179386D01*
D02*
G37*
G36*
X288230D02*
X286668Y178739D01*
X285261Y177332D01*
X284614Y175770D01*
X288230D01*
Y179386D01*
D02*
G37*
G36*
X294386Y173230D02*
X290770D01*
Y169614D01*
X292332Y170261D01*
X293739Y171668D01*
X294386Y173230D01*
D02*
G37*
G36*
X288230D02*
X284614D01*
X285261Y171668D01*
X286668Y170261D01*
X288230Y169614D01*
Y173230D01*
D02*
G37*
G36*
X429001Y153991D02*
X428861Y152875D01*
Y152053D01*
X428722Y151899D01*
Y151179D01*
X428628Y151096D01*
X428582Y151063D01*
X428582Y150602D01*
X428496Y150228D01*
X428443Y150226D01*
X428304Y149390D01*
X428047Y148226D01*
X428025Y148135D01*
X428025Y148092D01*
X427854Y147351D01*
X427746Y146880D01*
D01*
X427607Y146183D01*
X427328Y145068D01*
X427328Y145029D01*
X427328Y144510D01*
X427188D01*
Y143953D01*
X427049D01*
Y143395D01*
X426909D01*
Y142977D01*
X426865D01*
Y142977D01*
X426770D01*
X426491Y141861D01*
X426491Y141304D01*
X426770Y141304D01*
X426770Y141373D01*
X427049Y141443D01*
X427049Y141489D01*
X427328Y141582D01*
X427328Y141628D01*
X427450Y141669D01*
X428106Y141861D01*
X428164D01*
Y141861D01*
X428582Y142001D01*
D01*
X429274Y142115D01*
X430326Y141360D01*
X430345Y141191D01*
X430256Y140606D01*
X429837Y140049D01*
X429698Y139909D01*
X429628Y139770D01*
X429419Y139491D01*
X429419Y139073D01*
X429977Y139073D01*
X430256Y139212D01*
X430256Y139212D01*
X430256Y139212D01*
X430534Y139352D01*
Y139407D01*
X430674Y139491D01*
X430674Y139630D01*
X430813Y139770D01*
X430813Y139874D01*
X430953Y140049D01*
X430953Y140132D01*
X431092Y140328D01*
X431092Y140432D01*
X431231Y140467D01*
X431231Y140699D01*
X431371Y140746D01*
X431371Y140978D01*
X431510Y141025D01*
X431510D01*
Y141243D01*
X431544Y141258D01*
X431650Y141304D01*
X431650Y141304D01*
Y141396D01*
X431789Y141443D01*
D01*
X431789D01*
Y141443D01*
X431790Y141457D01*
X431794Y141507D01*
X431794Y141509D01*
X431794Y141508D01*
X431795Y141526D01*
X431796Y141530D01*
X431794Y141509D01*
X431800Y141545D01*
X431838Y141692D01*
X431929Y141722D01*
X432002Y141979D01*
X432068Y142001D01*
X432096Y142140D01*
X432207Y142140D01*
Y142698D01*
X431135Y142887D01*
X430197Y143732D01*
X429765Y144164D01*
X429698Y144747D01*
Y147298D01*
X429837D01*
X429837Y148414D01*
X429779Y148806D01*
X429698Y149353D01*
X429698Y151760D01*
X429605Y151863D01*
X429558Y151926D01*
Y153572D01*
X429419Y153991D01*
X429001D01*
D02*
G37*
G36*
X290770Y137386D02*
Y133770D01*
X294386D01*
X293739Y135332D01*
X292332Y136739D01*
X290770Y137386D01*
D02*
G37*
G36*
X288230D02*
X286668Y136739D01*
X285261Y135332D01*
X284614Y133770D01*
X288230D01*
Y137386D01*
D02*
G37*
G36*
X276886Y133730D02*
X273270D01*
Y130114D01*
X274832Y130761D01*
X276239Y132168D01*
X276886Y133730D01*
D02*
G37*
G36*
X294386Y131230D02*
X290770D01*
Y127614D01*
X292332Y128261D01*
X293739Y129668D01*
X294386Y131230D01*
D02*
G37*
G36*
X288230D02*
X284614D01*
X285261Y129668D01*
X286668Y128261D01*
X288230Y127614D01*
Y131230D01*
D02*
G37*
G36*
X411979Y78205D02*
X411841D01*
X411951Y78162D01*
X411979Y78128D01*
Y78205D01*
D02*
G37*
G36*
X413372Y76952D02*
X413285D01*
X413316Y76944D01*
X413372Y76875D01*
Y76952D01*
D02*
G37*
G36*
X399862Y73192D02*
X399824D01*
X399755Y73052D01*
X399862D01*
Y73192D01*
D02*
G37*
G36*
X411143Y68599D02*
Y68596D01*
X411147D01*
X411143Y68599D01*
D02*
G37*
G36*
X412814Y67425D02*
Y67342D01*
X412897D01*
X412814Y67425D01*
D02*
G37*
G36*
X408497Y65810D02*
X408358D01*
Y65532D01*
X408497D01*
Y65810D01*
D02*
G37*
G36*
X395233Y62468D02*
X395086Y62329D01*
X395266D01*
Y62468D01*
X395233D01*
D02*
G37*
G36*
X390225Y41299D02*
X390113D01*
Y41145D01*
X390225Y41299D01*
D02*
G37*
G36*
X395963Y38781D02*
X395871Y38653D01*
X395963D01*
Y38781D01*
D02*
G37*
G36*
X285770Y39942D02*
Y33270D01*
X292442D01*
X291955Y35088D01*
X290902Y36912D01*
X289412Y38402D01*
X287588Y39455D01*
X285770Y39942D01*
D02*
G37*
G36*
X283230Y39942D02*
X281412Y39455D01*
X279588Y38402D01*
X278098Y36912D01*
X277045Y35088D01*
X276558Y33270D01*
X283230D01*
Y39942D01*
D02*
G37*
G36*
Y30730D02*
X276558D01*
X277045Y28912D01*
X278098Y27088D01*
X279588Y25598D01*
X281412Y24545D01*
X283230Y24058D01*
Y30730D01*
D02*
G37*
G36*
X292442D02*
X285770D01*
Y24058D01*
X287588Y24545D01*
X289412Y25598D01*
X290902Y27088D01*
X291955Y28912D01*
X292442Y30730D01*
D02*
G37*
G36*
X271689Y24305D02*
Y20689D01*
X275305D01*
X274658Y22252D01*
X273252Y23658D01*
X271689Y24305D01*
D02*
G37*
G36*
X269149D02*
X267587Y23658D01*
X266181Y22252D01*
X265534Y20689D01*
X269149D01*
Y24305D01*
D02*
G37*
G36*
X275305Y18149D02*
X271689D01*
Y14533D01*
X273252Y15181D01*
X274658Y16587D01*
X275305Y18149D01*
D02*
G37*
G36*
X269149D02*
X265534D01*
X266181Y16587D01*
X267587Y15181D01*
X269149Y14533D01*
Y18149D01*
D02*
G37*
G36*
X244750Y32750D02*
X215250D01*
Y28598D01*
X215000Y27995D01*
Y26005D01*
X215250Y25402D01*
Y18598D01*
X215000Y17995D01*
Y16005D01*
X215250Y15402D01*
Y11250D01*
X244750D01*
Y18679D01*
X245239Y19168D01*
X246000Y21005D01*
Y22995D01*
X245239Y24832D01*
X244750Y25321D01*
Y32750D01*
D02*
G37*
G36*
X28995Y284000D02*
X27005D01*
X25168Y283239D01*
X23761Y281832D01*
X23000Y279995D01*
Y278005D01*
X23761Y276168D01*
X25168Y274761D01*
X26058Y274393D01*
Y266607D01*
X25168Y266239D01*
X23761Y264832D01*
X23000Y262995D01*
Y261005D01*
X23761Y259168D01*
X25168Y257761D01*
X27005Y257000D01*
X28995D01*
X30832Y257761D01*
X32239Y259168D01*
X33000Y261005D01*
Y262995D01*
X32239Y264832D01*
X30832Y266239D01*
X29942Y266607D01*
Y274393D01*
X30832Y274761D01*
X32239Y276168D01*
X33000Y278005D01*
Y279995D01*
X32239Y281832D01*
X30832Y283239D01*
X28995Y284000D01*
D02*
G37*
G36*
X49270Y158886D02*
Y155270D01*
X52886D01*
X52239Y156832D01*
X50832Y158239D01*
X49270Y158886D01*
D02*
G37*
G36*
X46730D02*
X45168Y158239D01*
X43761Y156832D01*
X43114Y155270D01*
X46730D01*
Y158886D01*
D02*
G37*
G36*
X52886Y152730D02*
X49270D01*
Y149114D01*
X50832Y149761D01*
X52239Y151168D01*
X52886Y152730D01*
D02*
G37*
G36*
X46730D02*
X43114D01*
X43761Y151168D01*
X45168Y149761D01*
X46730Y149114D01*
Y152730D01*
D02*
G37*
G36*
X72270Y149886D02*
Y146270D01*
X75886D01*
X75239Y147832D01*
X73832Y149239D01*
X72270Y149886D01*
D02*
G37*
G36*
X75886Y143730D02*
X72270D01*
Y140114D01*
X73832Y140761D01*
X75239Y142168D01*
X75886Y143730D01*
D02*
G37*
G36*
X63000Y175942D02*
X62257Y175795D01*
X61627Y175373D01*
X58627Y172373D01*
X58205Y171743D01*
X58058Y171000D01*
Y149937D01*
X58205Y149193D01*
X58627Y148563D01*
X58643Y148547D01*
X58000Y146994D01*
Y145005D01*
X58761Y143168D01*
X60168Y141761D01*
X62005Y141000D01*
X63995D01*
X65832Y141761D01*
X65840Y141769D01*
X66761Y142168D01*
X68168Y140761D01*
X69730Y140114D01*
Y145000D01*
Y149886D01*
X68168Y149239D01*
X68160Y149231D01*
X67239Y148832D01*
X65832Y150239D01*
X63995Y151000D01*
X62006D01*
X61942Y151042D01*
Y163327D01*
X63116Y163813D01*
X63168Y163761D01*
X65005Y163000D01*
X66995D01*
X68832Y163761D01*
X69662Y164591D01*
X92058Y142196D01*
Y99000D01*
X92205Y98257D01*
X92627Y97627D01*
X95369Y94885D01*
X95000Y93995D01*
Y92005D01*
X95761Y90168D01*
X97168Y88761D01*
X99005Y88000D01*
X100995D01*
X102832Y88761D01*
X104239Y90168D01*
X105000Y92005D01*
Y93995D01*
X104239Y95832D01*
X103401Y96670D01*
X102968Y97500D01*
X103401Y98330D01*
X104239Y99168D01*
X105000Y101005D01*
Y102995D01*
X104239Y104832D01*
X102832Y106239D01*
X101942Y106607D01*
Y134327D01*
X103116Y134813D01*
X103168Y134761D01*
X105005Y134000D01*
X106995D01*
X108230Y134512D01*
X109500Y133770D01*
Y130020D01*
X114730D01*
Y135500D01*
X111230D01*
X110488Y136770D01*
X111000Y138005D01*
Y139995D01*
X110239Y141832D01*
X108832Y143239D01*
X107942Y143607D01*
Y147000D01*
X107942Y147000D01*
X107795Y147743D01*
X107373Y148373D01*
X80373Y175373D01*
X79743Y175795D01*
X79000Y175942D01*
X63000D01*
X63000Y175942D01*
D02*
G37*
G36*
X114730Y127480D02*
X109500D01*
Y122000D01*
X114730D01*
Y127480D01*
D02*
G37*
G36*
X77270Y109886D02*
Y106270D01*
X80886D01*
X80239Y107832D01*
X78832Y109239D01*
X77270Y109886D01*
D02*
G37*
G36*
X74730D02*
X73168Y109239D01*
X71761Y107832D01*
X71114Y106270D01*
X74730D01*
Y109886D01*
D02*
G37*
G36*
X58270Y108886D02*
Y105270D01*
X61886D01*
X61239Y106832D01*
X59832Y108239D01*
X58270Y108886D01*
D02*
G37*
G36*
X55730D02*
X54168Y108239D01*
X52761Y106832D01*
X52114Y105270D01*
X55730D01*
Y108886D01*
D02*
G37*
G36*
X80886Y103730D02*
X77270D01*
Y100114D01*
X78832Y100761D01*
X80239Y102168D01*
X80886Y103730D01*
D02*
G37*
G36*
X74730D02*
X71114D01*
X71761Y102168D01*
X73168Y100761D01*
X74730Y100114D01*
Y103730D01*
D02*
G37*
G36*
X61886Y102730D02*
X58270D01*
Y99114D01*
X59832Y99761D01*
X61239Y101168D01*
X61886Y102730D01*
D02*
G37*
G36*
X55730D02*
X52114D01*
X52761Y101168D01*
X54168Y99761D01*
X55730Y99114D01*
Y102730D01*
D02*
G37*
G36*
X51270Y91886D02*
Y88270D01*
X54886D01*
X54239Y89832D01*
X52832Y91239D01*
X51270Y91886D01*
D02*
G37*
G36*
X48730D02*
X47168Y91239D01*
X45761Y89832D01*
X45114Y88270D01*
X48730D01*
Y91886D01*
D02*
G37*
G36*
X54886Y85730D02*
X51270D01*
Y82114D01*
X52832Y82761D01*
X54239Y84168D01*
X54886Y85730D01*
D02*
G37*
G36*
X48730D02*
X45114D01*
X45761Y84168D01*
X47168Y82761D01*
X48730Y82114D01*
Y85730D01*
D02*
G37*
G36*
X92770Y79386D02*
Y75770D01*
X96386D01*
X95739Y77332D01*
X94332Y78739D01*
X92770Y79386D01*
D02*
G37*
G36*
X90230D02*
X88668Y78739D01*
X87261Y77332D01*
X86614Y75770D01*
X90230D01*
Y79386D01*
D02*
G37*
G36*
X96386Y73230D02*
X92770D01*
Y69614D01*
X94332Y70261D01*
X95739Y71668D01*
X96386Y73230D01*
D02*
G37*
G36*
X90230D02*
X86614D01*
X87261Y71668D01*
X88668Y70261D01*
X90230Y69614D01*
Y73230D01*
D02*
G37*
G36*
X68730Y29886D02*
X67168Y29239D01*
X65761Y27832D01*
X65114Y26270D01*
X68730D01*
Y29886D01*
D02*
G37*
G36*
X74886Y23730D02*
X71270D01*
Y20114D01*
X72832Y20761D01*
X74239Y22168D01*
X74886Y23730D01*
D02*
G37*
G36*
X68730D02*
X65114D01*
X65761Y22168D01*
X67168Y20761D01*
X68730Y20114D01*
Y23730D01*
D02*
G37*
G36*
X94886Y22730D02*
X91270D01*
Y19114D01*
X92832Y19761D01*
X94239Y21168D01*
X94886Y22730D01*
D02*
G37*
G36*
X426045Y118454D02*
X425906D01*
Y117897D01*
X426045D01*
Y118454D01*
D02*
G37*
%LPD*%
D13*
X212000Y152800D02*
D03*
D14*
X314500Y230000D02*
D03*
Y217300D02*
D03*
Y204600D02*
D03*
Y191900D02*
D03*
Y179200D02*
D03*
Y166500D02*
D03*
Y153800D02*
D03*
Y141100D02*
D03*
Y128400D02*
D03*
Y115700D02*
D03*
Y103000D02*
D03*
Y90300D02*
D03*
Y77600D02*
D03*
Y64900D02*
D03*
X139500D02*
D03*
Y77600D02*
D03*
Y90300D02*
D03*
Y103000D02*
D03*
Y115700D02*
D03*
Y128400D02*
D03*
Y141100D02*
D03*
Y153800D02*
D03*
Y166500D02*
D03*
Y179200D02*
D03*
Y191900D02*
D03*
Y204600D02*
D03*
Y217300D02*
D03*
Y230000D02*
D03*
D15*
X284150Y52400D02*
D03*
X271450D02*
D03*
X258750D02*
D03*
X246050D02*
D03*
X233350D02*
D03*
X220650D02*
D03*
X207950D02*
D03*
X195250D02*
D03*
X182550D02*
D03*
X169850D02*
D03*
D16*
X155500Y22000D02*
D03*
X116500D02*
D03*
D17*
X188000D02*
D03*
X230000D02*
D03*
D18*
X116000Y113250D02*
D03*
Y128750D02*
D03*
D19*
X119000Y235250D02*
D03*
Y216750D02*
D03*
D20*
Y157750D02*
D03*
Y172250D02*
D03*
Y200250D02*
D03*
Y185750D02*
D03*
D30*
X9000Y79000D02*
D03*
Y129000D02*
D03*
Y179000D02*
D03*
Y279000D02*
D03*
Y229000D02*
D03*
X445000D02*
D03*
Y279000D02*
D03*
Y179000D02*
D03*
Y129000D02*
D03*
Y79000D02*
D03*
Y29000D02*
D03*
D33*
X347000Y195000D02*
Y227000D01*
X79000D02*
Y229934D01*
Y202000D02*
Y227000D01*
X341000D02*
X347000D01*
X342000Y190000D02*
X347000Y195000D01*
X342000Y183000D02*
Y190000D01*
X79000Y202000D02*
X81000Y200000D01*
D34*
X309500Y32000D02*
X363000D01*
X155500Y22000D02*
X188000D01*
X309500Y22622D02*
Y32000D01*
X297500Y10000D02*
Y10622D01*
X309500Y22622D01*
D35*
X112250Y178500D02*
X119000Y185250D01*
X338000Y241600D02*
X388400D01*
X414000Y216000D01*
Y167000D02*
Y216000D01*
X119000Y185250D02*
Y185750D01*
X112000Y229000D02*
X112500D01*
D36*
X112500Y178750D02*
X119000Y172250D01*
X337000Y176000D02*
X377000D01*
X400250Y199250D01*
Y216000D01*
X327000Y186000D02*
X337000Y176000D01*
X327000Y173000D02*
X381500D01*
X400250Y191750D01*
X157540Y75540D02*
X228540D01*
X267000Y114000D01*
X28000Y262000D02*
Y279000D01*
X95000Y235408D02*
X104592Y245000D01*
X90500Y197500D02*
Y226500D01*
X90000Y227000D02*
X90500Y226500D01*
X95000Y200000D02*
Y235408D01*
Y200000D02*
X103000Y192000D01*
X48500Y218000D02*
X68500Y238000D01*
X94000D02*
X103540Y247540D01*
X68500Y238000D02*
X94000D01*
X40000Y218000D02*
X48500D01*
X102080Y250080D02*
X129920D01*
X103540Y247540D02*
X128868D01*
X93000Y241000D02*
X102080Y250080D01*
X40000Y241000D02*
X93000D01*
X83000Y246000D02*
X92000Y255000D01*
X90500Y197500D02*
X91000Y197000D01*
X40000Y169000D02*
X63000Y192000D01*
X103000D01*
X267000Y114000D02*
Y142000D01*
X57000Y52000D02*
X82000D01*
X100000Y61000D02*
Y66408D01*
X108000Y78000D02*
X120000D01*
X82000Y52000D02*
X108000Y78000D01*
X100000Y66408D02*
X109052Y75460D01*
X121460D01*
X283000Y113000D02*
X305700Y90300D01*
X151270Y190000D02*
Y203000D01*
X167000Y181000D02*
X168000Y180000D01*
X153000Y181000D02*
X167000D01*
X146780Y174920D02*
X240488D01*
X142500Y179200D02*
X146780Y174920D01*
X240488D02*
X257000Y158408D01*
X119000Y157750D02*
X123115Y153635D01*
X128000Y167250D02*
Y196100D01*
X122000Y161250D02*
X128000Y167250D01*
Y196100D02*
X136500Y204600D01*
X139500D01*
X149460Y141460D02*
X153000Y145000D01*
X149460Y54052D02*
Y141460D01*
X187460Y132540D02*
Y153540D01*
X190000Y133592D02*
Y155000D01*
X183000Y158000D02*
X187460Y153540D01*
X184920Y131080D02*
X190540Y125460D01*
X184920Y131080D02*
Y148000D01*
X190000Y133592D02*
X192592Y131000D01*
X179920Y153000D02*
X184920Y148000D01*
X187460Y132540D02*
X192000Y128000D01*
X178500Y166500D02*
X190000Y155000D01*
X192592Y131000D02*
X232000D01*
X155000Y153000D02*
X179920D01*
X145488Y50080D02*
X149460Y54052D01*
X90488Y50080D02*
X145488D01*
X64000Y47000D02*
X87408D01*
X90488Y50080D01*
X77000Y33000D02*
X91540Y47540D01*
X146540D01*
X264000Y207000D02*
X277000Y194000D01*
X204937Y207000D02*
X264000D01*
X201937Y204000D02*
X204937Y207000D01*
X201000Y204000D02*
X201937D01*
X237000Y190000D02*
Y193000D01*
Y190000D02*
X271000Y156000D01*
X146540Y47540D02*
X152000Y53000D01*
Y70000D01*
X157540Y75540D01*
X155000Y69000D02*
X159000Y73000D01*
X148000Y45000D02*
X155000Y52000D01*
Y69000D01*
X257000Y116000D02*
Y158408D01*
X339000Y139000D02*
X349000Y129000D01*
Y96400D02*
Y129000D01*
X314500Y64900D02*
X317500D01*
X349000Y96400D01*
X317500Y77600D02*
X327000Y87100D01*
Y97000D01*
X83000Y26000D02*
X102000Y45000D01*
X148000D01*
X159000Y73000D02*
X233000D01*
X267000Y107000D01*
X314500Y77600D02*
X317500D01*
X305700Y90300D02*
X314500D01*
X300000Y204000D02*
X301000Y205000D01*
X300000Y186000D02*
Y204000D01*
X295000Y183000D02*
X299000Y179000D01*
X295000Y183000D02*
Y228000D01*
X299000Y179000D02*
X314300D01*
X295000Y228000D02*
X307000Y240000D01*
X239540Y154540D02*
X243000Y158000D01*
X239540Y130540D02*
Y154540D01*
X234460Y125460D02*
X239540Y130540D01*
X190540Y125460D02*
X234460D01*
X192000Y128000D02*
X233000D01*
X106000Y139000D02*
Y147000D01*
X79000Y174000D02*
X106000Y147000D01*
X63000Y174000D02*
X79000D01*
X60000Y171000D02*
X63000Y174000D01*
X60000Y149937D02*
Y171000D01*
X63000Y146000D02*
Y146937D01*
X60000Y149937D02*
X63000Y146937D01*
X66000Y168000D02*
X69000D01*
X94000Y143000D01*
Y99000D02*
Y143000D01*
Y99000D02*
X100000Y93000D01*
X139300Y90300D02*
X139500D01*
X76000Y168000D02*
X100000Y144000D01*
Y102000D02*
Y144000D01*
X139500Y103000D02*
X140000D01*
X121460Y75460D02*
X128540Y82540D01*
Y107740D01*
X136500Y115700D01*
X139500D01*
Y179200D02*
X142500D01*
X139500Y166500D02*
X178500D01*
X146700Y158000D02*
X183000D01*
X142500Y153800D02*
X146700Y158000D01*
X139500Y153800D02*
X142500D01*
X120000Y78000D02*
X126000Y84000D01*
Y130600D01*
X136500Y141100D02*
X139500D01*
X126000Y130600D02*
X136500Y141100D01*
X241967Y165967D02*
X242049D01*
X237000Y161000D02*
X241967Y165967D01*
X237000Y132000D02*
Y161000D01*
X233000Y128000D02*
X237000Y132000D01*
X234000Y133000D02*
Y168000D01*
X232000Y131000D02*
X234000Y133000D01*
Y168000D02*
X236000Y170000D01*
X139500Y191900D02*
X139900D01*
X122000Y155000D02*
Y161250D01*
X241540Y177460D02*
X276000Y143000D01*
X184948Y177460D02*
X241540D01*
X173920Y188488D02*
X184948Y177460D01*
X186000Y180000D02*
X198000D01*
X176460Y189540D02*
X186000Y180000D01*
X187052Y182540D02*
X194540D01*
X179000Y190592D02*
X187052Y182540D01*
X176460Y189540D02*
Y211356D01*
X179000Y190592D02*
Y212408D01*
X173920Y188488D02*
Y206080D01*
X153000Y227000D02*
X173920Y206080D01*
X184000Y193000D02*
Y211000D01*
X92000Y255000D02*
X143000D01*
X323000Y277400D02*
X338000Y292400D01*
X323000Y249000D02*
Y277400D01*
X314000Y240000D02*
X323000Y249000D01*
X307000Y240000D02*
X314000D01*
X314300Y179000D02*
X314500Y179200D01*
X327000Y256000D02*
X338000Y267000D01*
X327000Y194000D02*
Y256000D01*
X324900Y191900D02*
X327000Y194000D01*
X314500Y191900D02*
X324900D01*
X214000Y196000D02*
Y200000D01*
X198000Y180000D02*
X214000Y196000D01*
X194540Y182540D02*
X204000Y192000D01*
Y193000D01*
X149816Y238000D02*
X176460Y211356D01*
X134816Y238000D02*
X149816D01*
X127816Y245000D02*
X134816Y238000D01*
X151920Y243080D02*
X184000Y211000D01*
X135868Y240540D02*
X150868D01*
X128868Y247540D02*
X135868Y240540D01*
X150868D02*
X179000Y212408D01*
X129920Y250080D02*
X136920Y243080D01*
X151920D01*
X104592Y245000D02*
X127816D01*
X40000Y191000D02*
Y218000D01*
Y241000D02*
Y280000D01*
X116000Y113250D02*
Y113500D01*
X123115Y120615D01*
Y153635D01*
X116000Y90000D02*
Y113250D01*
D37*
X137750Y216750D02*
X139000Y218000D01*
X119000Y216750D02*
X137750D01*
D38*
X229000Y89000D02*
X234000D01*
X207000Y111000D02*
X229000Y89000D01*
X207000Y111000D02*
Y120000D01*
X195000Y114000D02*
X226000Y83000D01*
X190000Y114000D02*
X195000D01*
X119000Y185750D02*
Y186250D01*
X314500Y230000D02*
X315000D01*
X161000Y64250D02*
Y68000D01*
Y64250D02*
X169850Y55400D01*
Y52400D02*
Y55400D01*
X139000Y230000D02*
X139500D01*
D39*
X284500Y32000D02*
D03*
X309500D02*
D03*
D40*
X297500Y10000D02*
D03*
X332500D02*
D03*
X338000Y267000D02*
D03*
Y292400D02*
D03*
Y140000D02*
D03*
X116000Y90000D02*
D03*
D41*
X338000Y241600D02*
D03*
Y114600D02*
D03*
X116000Y64600D02*
D03*
D42*
X238000Y17000D02*
D03*
X342000Y190000D02*
D03*
X347000Y227000D02*
D03*
X341000D02*
D03*
X342000Y183000D02*
D03*
X234000Y89000D02*
D03*
X226000Y83000D02*
D03*
X207000Y120000D02*
D03*
X190000Y114000D02*
D03*
X125000Y22000D02*
D03*
X119000Y32000D02*
D03*
X107000Y12000D02*
D03*
X119000Y22000D02*
D03*
X107000Y32000D02*
D03*
X113000Y12000D02*
D03*
X119000D02*
D03*
X122000Y27000D02*
D03*
Y17000D02*
D03*
X116000Y27000D02*
D03*
Y17000D02*
D03*
X110000D02*
D03*
X125000Y12000D02*
D03*
X113000Y22000D02*
D03*
X107000D02*
D03*
X125000Y32000D02*
D03*
X110000Y27000D02*
D03*
X113000Y32000D02*
D03*
X220000Y17000D02*
D03*
X232000D02*
D03*
X116000Y146000D02*
D03*
X76000Y105000D02*
D03*
X28000Y279000D02*
D03*
Y262000D02*
D03*
X81000Y232000D02*
D03*
X77000Y227000D02*
D03*
X90000D02*
D03*
X81000Y200000D02*
D03*
X77000Y205000D02*
D03*
X83000Y246000D02*
D03*
X91000Y197000D02*
D03*
X103000Y192000D02*
D03*
X71000Y145000D02*
D03*
X48000Y154000D02*
D03*
X50000Y87000D02*
D03*
X57000Y104000D02*
D03*
X91500Y74500D02*
D03*
X90000Y24000D02*
D03*
X70000Y25000D02*
D03*
X270419Y19419D02*
D03*
X263500Y191500D02*
D03*
X289500Y174500D02*
D03*
X272000Y135000D02*
D03*
X289500Y132500D02*
D03*
X57000Y52000D02*
D03*
X283000Y113000D02*
D03*
X267000Y142000D02*
D03*
X151270Y203000D02*
D03*
Y190000D02*
D03*
X139900Y191900D02*
D03*
X168000Y180000D02*
D03*
X153000Y181000D02*
D03*
X112250Y178500D02*
D03*
X153000Y145000D02*
D03*
X64000Y47000D02*
D03*
X77000Y33000D02*
D03*
X277000Y194000D02*
D03*
X201000Y204000D02*
D03*
X237000Y193000D02*
D03*
X271000Y156000D02*
D03*
X327000Y97000D02*
D03*
X83000Y26000D02*
D03*
X267000Y107000D02*
D03*
X301000Y205000D02*
D03*
X300000Y186000D02*
D03*
X243000Y158000D02*
D03*
X155000Y153000D02*
D03*
X106000Y139000D02*
D03*
X63000Y146000D02*
D03*
X66000Y168000D02*
D03*
X100000Y93000D02*
D03*
X139300Y90300D02*
D03*
X76000Y168000D02*
D03*
X100000Y102000D02*
D03*
X140000Y103000D02*
D03*
X100000Y61000D02*
D03*
X242049Y165967D02*
D03*
X236000Y170000D02*
D03*
X257000Y116000D02*
D03*
X414000Y216000D02*
D03*
Y167000D02*
D03*
X276000Y143000D02*
D03*
X184000Y193000D02*
D03*
X153000Y227000D02*
D03*
X143000Y255000D02*
D03*
X327000Y173000D02*
D03*
X400250Y191750D02*
D03*
X327000Y186000D02*
D03*
X400250Y216000D02*
D03*
X214000Y200000D02*
D03*
X204000Y193000D02*
D03*
X40000Y169000D02*
D03*
Y191000D02*
D03*
Y218000D02*
D03*
Y241000D02*
D03*
Y280000D02*
D03*
X112000Y229000D02*
D03*
X315000Y230000D02*
D03*
X161000Y68000D02*
D03*
X139000Y230000D02*
D03*
X197000Y158000D02*
D03*
X200000Y163000D02*
D03*
X203000Y158000D02*
D03*
X206000Y163000D02*
D03*
X209000Y158000D02*
D03*
X212000Y163000D02*
D03*
X215000Y158000D02*
D03*
X212000Y153000D02*
D03*
X206000D02*
D03*
X200000D02*
D03*
X197000Y148000D02*
D03*
X203000D02*
D03*
X209000D02*
D03*
X215000D02*
D03*
X206000Y143000D02*
D03*
X212000D02*
D03*
X209000Y138000D02*
D03*
X215000D02*
D03*
X227000D02*
D03*
X221000D02*
D03*
X218000Y143000D02*
D03*
X224000D02*
D03*
X227000Y148000D02*
D03*
X221000D02*
D03*
X218000Y153000D02*
D03*
X224000D02*
D03*
X227000Y158000D02*
D03*
X221000D02*
D03*
X218000Y163000D02*
D03*
X224000D02*
D03*
X227000Y168000D02*
D03*
X221000D02*
D03*
X215000D02*
D03*
X209000D02*
D03*
X203000D02*
D03*
X197000D02*
D03*
X194000Y18000D02*
D03*
X197000Y23000D02*
D03*
X194000Y28000D02*
D03*
X188000D02*
D03*
X182000D02*
D03*
X176000D02*
D03*
X191000Y23000D02*
D03*
X188000Y18000D02*
D03*
X185000Y23000D02*
D03*
X179000D02*
D03*
X170000Y18000D02*
D03*
X176000D02*
D03*
X182000D02*
D03*
X173000Y23000D02*
D03*
X167000D02*
D03*
X152000Y38000D02*
D03*
X149000Y33000D02*
D03*
X164000Y38000D02*
D03*
X146000Y28000D02*
D03*
X152000D02*
D03*
X164000Y18000D02*
D03*
X149000Y23000D02*
D03*
X155000D02*
D03*
Y33000D02*
D03*
X161000Y23000D02*
D03*
Y33000D02*
D03*
X158000Y18000D02*
D03*
X152000D02*
D03*
X146000Y38000D02*
D03*
X158000Y28000D02*
D03*
X146000Y18000D02*
D03*
X158000Y38000D02*
D03*
X164000Y28000D02*
D03*
X226000Y17000D02*
D03*
X361000Y35000D02*
D03*
Y29000D02*
D03*
X366000Y32000D02*
D03*
X220000Y27000D02*
D03*
X232000D02*
D03*
X241000Y22000D02*
D03*
X235000D02*
D03*
X223000D02*
D03*
X226000Y27000D02*
D03*
X229000Y22000D02*
D03*
X238000Y27000D02*
D03*
M02*
